<?xml version="1.0" encoding="utf-8"?><svg xmlns="http://www.w3.org/2000/svg" xmlns:xlink="http://www.w3.org/1999/xlink"><symbol viewBox="0 0 18 17" id="add-user" xmlns="http://www.w3.org/2000/svg"><path d="M1.5 14.75a6 6 0 0 1 9.969-4.5m2.781.75v4.5m2.25-2.25H12M11.25 5a3.75 3.75 0 1 1-7.5 0 3.75 3.75 0 0 1 7.5 0Z"/></symbol><symbol viewBox="0 0 18 18" id="alert" xmlns="http://www.w3.org/2000/svg"><g clip-path="url(#aba)"><path d="M9 6v3m0 3h.008M16.5 9a7.5 7.5 0 1 1-15 0 7.5 7.5 0 0 1 15 0Z"/></g><defs><clipPath id="aba"><path d="M0 0h18v18H0z"/></clipPath></defs></symbol><symbol viewBox="0 0 20 14" id="align-center" xmlns="http://www.w3.org/2000/svg"><path d="M15 7H5m12 6H3M19 1H1"/></symbol><symbol viewBox="0 0 20 14" id="align-left" xmlns="http://www.w3.org/2000/svg"><path d="M13 7H1m14 6H1M19 1H1"/></symbol><symbol viewBox="0 0 20 14" id="align-right" xmlns="http://www.w3.org/2000/svg"><path d="M19 7H7m12 6H5M19 1H1"/></symbol><symbol viewBox="0 0 20 14" id="align-width" xmlns="http://www.w3.org/2000/svg"><path d="M1 7h18M1 13h18M1 1h18"/></symbol><symbol viewBox="0 0 13 7" id="arrow-down" xmlns="http://www.w3.org/2000/svg"><path d="m1.625 1.102 4.875 4.8 4.875-4.8"/></symbol><symbol viewBox="0 0 21 21" id="btn-arrow" xmlns="http://www.w3.org/2000/svg"><path d="M16.6 13.8c-.1.1-.3.2-.4.3l-2.4.4 1.7 3.6c.2.4 0 .8-.4 1l-2.8 1.3c-.1.1-.2.1-.3.1-.3 0-.6-.2-.7-.4l-1.6-3.6L7.8 18c-.1.1-.3.2-.5.2-.4 0-.8-.3-.8-.8V6c0-.5.3-.8.8-.8.2 0 .4.1.5.2l8.7 7.4c.3.2.4.7.1 1ZM4.5 10.5h-2v-8h16v8h-1.6l2.2 1.9c.8-.3 1.3-1 1.3-1.9v-8c0-1.1-.9-2-2-2H2.5c-1.1 0-2 .9-2 2v8c0 1.1.9 2 2 2h2v-2Z"/></symbol><symbol viewBox="0 0 16 11" id="check" xmlns="http://www.w3.org/2000/svg"><path d="m14.667 1-9.166 9.167L1.334 6"/></symbol><symbol viewBox="0 0 22 22" id="clock" xmlns="http://www.w3.org/2000/svg"><path d="M11 5v6l4 2m6-2c0 5.523-4.477 10-10 10S1 16.523 1 11 5.477 1 11 1s10 4.477 10 10Z"/></symbol><symbol viewBox="0 0 23 19" id="code" xmlns="http://www.w3.org/2000/svg"><path d="m17.5 13.5 4-4-4-4m-12 0-4 4 4 4m8.5-12-5 16"/></symbol><symbol viewBox="0 0 19 15" id="columns" xmlns="http://www.w3.org/2000/svg"><path d="M8.5.5h-8v2h8v-2Zm10 0h-8v2h8v-2Zm-18 4h8v2h-8v-2Zm18 0h-8v2h8v-2Zm-18 4h8v2h-8v-2Zm18 0h-8v2h8v-2Zm-18 4h8v2h-8v-2Zm18 0h-8v2h8v-2Z"/></symbol><symbol viewBox="0 0 21 21" id="container" xmlns="http://www.w3.org/2000/svg"><rect x="1.5" y="1.5" width="18" height="18" rx="2"/></symbol><symbol viewBox="0 0 18 18" id="copy" xmlns="http://www.w3.org/2000/svg"><path d="M3 12c-.825 0-1.5-.675-1.5-1.5V3c0-.825.675-1.5 1.5-1.5h7.5c.825 0 1.5.675 1.5 1.5M7.5 6H15a1.5 1.5 0 0 1 1.5 1.5V15a1.5 1.5 0 0 1-1.5 1.5H7.5A1.5 1.5 0 0 1 6 15V7.5A1.5 1.5 0 0 1 7.5 6Z"/></symbol><symbol viewBox="0 0 26 24" id="curve" xmlns="http://www.w3.org/2000/svg"><path d="M1.16 14.526C11.52 3.796 15.728-.414 18.18 2.316c1.48 1.648-2.221 6.105-5.92 10.267-3.7 4.162-5.095 6.968-3.358 8.017 2.043 1.233 5.913-2.698 7.442-4.233 1.835-1.841 4.23-5.243 5.812-3.228 1.582 2.013-3.977 6.474-2.497 8.694 1.184 1.775 3.947-.494 5.178-1.85"/></symbol><symbol viewBox="0 0 28 24" id="desktop" xmlns="http://www.w3.org/2000/svg"><path d="M9 23.25h10m-5-5v5M4 .75h20a2.5 2.5 0 0 1 2.5 2.5v12.5a2.5 2.5 0 0 1-2.5 2.5H4a2.5 2.5 0 0 1-2.5-2.5V3.25A2.5 2.5 0 0 1 4 .75Z"/></symbol><symbol viewBox="0 0 24 22" id="disk" xmlns="http://www.w3.org/2000/svg"><path d="M15.052.9c.41 0 .787.226.987.59l6.917 12.614c.203.369.19.822-.032 1.18l-3.29 5.281a1.127 1.127 0 0 1-.955.535H5.32c-.388 0-.747-.203-.955-.535l-3.29-5.282a1.172 1.172 0 0 1-.032-1.18L7.96 1.49c.2-.364.577-.59.987-.59h6.104ZM6.059 19.848h12.563l2.83-4.537H8.405L6.06 19.848Zm-3.916-5.184 2.845 4.56 6.296-12.172-2.388-4.686-6.753 12.298Zm14.1-.606h5.283L14.988 2.152h-4.81l6.065 11.906Zm-7.187 0h5.798l-2.881-5.649-2.917 5.649Z"/></symbol><symbol viewBox="0 0 4 19" id="dotts-vert" xmlns="http://www.w3.org/2000/svg"><path d="M2 10.5a1 1 0 1 0 0-2 1 1 0 0 0 0 2Zm0-7a1 1 0 1 0 0-2 1 1 0 0 0 0 2Zm0 14a1 1 0 1 0 0-2 1 1 0 0 0 0 2Z"/></symbol><symbol viewBox="0 0 16 16" id="download" xmlns="http://www.w3.org/2000/svg"><path d="M8 10.25v-9m0 9L4.25 6.5M8 10.25l3.75-3.75m3 3.75v3a1.5 1.5 0 0 1-1.5 1.5H2.75a1.5 1.5 0 0 1-1.5-1.5v-3"/></symbol><symbol viewBox="0 0 22 19" id="folder" xmlns="http://www.w3.org/2000/svg"><path d="M1 8h20m-2 10a2 2 0 0 0 2-2V6a2 2 0 0 0-2-2h-7.9a2 2 0 0 1-1.69-.9L8.6 1.9A2 2 0 0 0 6.93 1H3a2 2 0 0 0-2 2v13a2 2 0 0 0 2 2h16Z"/></symbol><symbol viewBox="0 0 20 18" id="folder-fill" xmlns="http://www.w3.org/2000/svg"><path d="M0 3.833h16.444c1.245 0 1.867 0 2.343.243.418.213.758.553.97.97C20 5.523 20 6.145 20 7.39v6.222c0 1.245 0 1.867-.242 2.342a2.222 2.222 0 0 1-.971.971c-.476.243-1.098.243-2.343.243H3.556c-1.245 0-1.867 0-2.343-.243a2.222 2.222 0 0 1-.97-.97C0 15.477 0 14.855 0 13.61V3.833Zm0 0c0-1.035 0-1.553.169-1.96A2.222 2.222 0 0 1 1.372.668C1.78.5 2.298.5 3.333.5h2.604c.909 0 1.362 0 1.77.169.41.169.73.491 1.373 1.133l2.031 2.031H0Z"/><path d="M6.666 10.497h3.333-3.333Zm3.333 0h3.334-3.334Zm0 0v3.334-3.334Zm0 0V7.164v3.333Z" fill-opacity=".2"/></symbol><symbol viewBox="0 0 20 18" id="folder-next" xmlns="http://www.w3.org/2000/svg"><path d="M9.955 15.563H3.508c-.488 0-.957-.198-1.302-.55a1.892 1.892 0 0 1-.54-1.325V3.374c0-.497.194-.974.54-1.326a1.827 1.827 0 0 1 1.302-.549h3.684l2.763 2.813h6.448c.488 0 .957.197 1.302.549.346.351.54.828.54 1.325V9.47m-1.842 1.406 2.763 2.813m0 0L16.403 16.5m2.763-2.813h-6.447"/></symbol><symbol viewBox="0 0 28 22" id="laptop" xmlns="http://www.w3.org/2000/svg"><path d="M1.5 21h25M5.25 1h17.5a2.5 2.5 0 0 1 2.5 2.5v10a2.5 2.5 0 0 1-2.5 2.5H5.25a2.5 2.5 0 0 1-2.5-2.5v-10A2.5 2.5 0 0 1 5.25 1Z"/></symbol><symbol viewBox="0 0 18 20" id="lock" xmlns="http://www.w3.org/2000/svg"><path d="M4.833 9.164V5.831a4.167 4.167 0 0 1 8.334 0v3.333m-10 0h11.666c.92 0 1.667.746 1.667 1.667v5.833c0 .92-.746 1.667-1.667 1.667H3.167c-.92 0-1.667-.747-1.667-1.667v-5.833c0-.92.746-1.667 1.667-1.667Z"/></symbol><symbol viewBox="0 0 24 24" id="mail" xmlns="http://www.w3.org/2000/svg"><path d="m7 9 4.5 3L16 9"/><path d="M18 19H5a2 2 0 0 1-2-2V7a2 2 0 0 1 2-2h13a2 2 0 0 1 2 2v10"/><path d="M5 19h13a2 2 0 0 0 2-2V7a2 2 0 0 0-2-2H5a2 2 0 0 0-2 2v10"/></symbol><symbol viewBox="0 0 24 24" id="mail-back" xmlns="http://www.w3.org/2000/svg"><path d="m5 9 4.5 3L14 9"/><path d="M17 19H3a2 2 0 0 1-2-2V7a2 2 0 0 1 2-2h13a2 2 0 0 1 2 2v2M23 14h-6m0 0 3-3m-3 3 3 3"/></symbol><symbol viewBox="0 0 24 24" id="mail-drafts" xmlns="http://www.w3.org/2000/svg"><path d="m5 9 4.5 3L14 9"/><path d="M13.5 19H3a2 2 0 0 1-2-2V7a2 2 0 0 1 2-2h13a2 2 0 0 1 2 2v2.5M18 17.5c-.525 0-1.029-.21-1.4-.586a2.01 2.01 0 0 1 0-2.828A1.969 1.969 0 0 1 18 13.5m0 4c.524 0 1.028-.21 1.399-.586a2.01 2.01 0 0 0 0-2.828 1.969 1.969 0 0 0-1.4-.586m0 4V19m0-5.5V12m3 1.75-1.285.75m-3.427 2L15 17.25m0-3.5 1.287.75m3.427 2 1.286.75"/></symbol><symbol viewBox="0 0 24 24" id="mail-main" xmlns="http://www.w3.org/2000/svg"><g opacity=".5" stroke-width="1.5" stroke-linecap="round"><path d="m7 9 4.5 3L16 9"/><path d="M18 19H5a2 2 0 0 1-2-2V7a2 2 0 0 1 2-2h13a2 2 0 0 1 2 2v10"/><path d="M5 19h13a2 2 0 0 0 2-2V7a2 2 0 0 0-2-2H5a2 2 0 0 0-2 2v10"/></g></symbol><symbol viewBox="0 0 24 24" id="mail-next" xmlns="http://www.w3.org/2000/svg"><path d="m5 9 4.5 3L14 9"/><path d="M17 19H3a2 2 0 0 1-2-2V7a2 2 0 0 1 2-2h13a2 2 0 0 1 2 2v2M17 14h6m0 0-3-3m3 3-3 3"/></symbol><symbol viewBox="0 0 20 18" id="mail-open" xmlns="http://www.w3.org/2000/svg"><path d="m2.592 7.026 5.655 4.18.002.002c.628.45.942.676 1.286.764.305.077.624.077.928 0 .345-.088.66-.314 1.29-.765l5.654-4.181m-.185-.87L12.037 2.09c-.643-.505-.965-.757-1.324-.857a1.89 1.89 0 0 0-.968-.013c-.36.09-.69.334-1.347.82L2.842 6.155c-.432.32-.647.479-.803.68-.138.179-.24.381-.303.597-.07.243-.07.507-.07 1.037v5.628c0 1.015 0 1.523.202 1.91.178.342.46.619.81.793.394.197.913.197 1.948.197h10.747c1.035 0 1.552 0 1.948-.197.349-.174.632-.452.81-.793.202-.387.202-.894.202-1.908V8.41c0-.505 0-.759-.066-.994a1.797 1.797 0 0 0-.287-.582c-.147-.2-.35-.359-.758-.679"/></symbol><symbol viewBox="0 0 24 24" id="mail-un" xmlns="http://www.w3.org/2000/svg"><path d="m21.283 21.144-.071.07-.713.714-.07.071-2.898-2.897H4.615c-.485 0-.896-.164-1.223-.492a1.67 1.67 0 0 1-.493-1.224V6.617a1.663 1.663 0 0 1 .728-1.42L2.464 4.034l.071-.07.713-.714.07-.071 17.965 17.965ZM19.385 4.9c.485 0 .895.164 1.223.493.329.328.492.738.492 1.223v10.77a1.644 1.644 0 0 1-.158.697l-.061.128-.1-.1-.852-.85-.03-.03V7.072l-6.066 3.98-.067.045-.058-.058-.688-.685-.086-.088.103-.068 6.315-4.096H8.771l-1.2-1.2h11.814ZM4.539 6.11a.522.522 0 0 0-.277.156.484.484 0 0 0-.162.352v10.77c0 .122.05.239.163.352a.48.48 0 0 0 .351.162h11.717L4.54 6.11Z"/></symbol><symbol viewBox="0 0 14 19" id="mobile" xmlns="http://www.w3.org/2000/svg"><path d="M6.833 14.333h.009M2.667 1H11c.92 0 1.667.746 1.667 1.667V16c0 .92-.746 1.667-1.667 1.667H2.667C1.747 17.667 1 16.92 1 16V2.667C1 1.747 1.746 1 2.667 1Z"/></symbol><symbol viewBox="0 0 11 12" id="out" xmlns="http://www.w3.org/2000/svg"><path d="M5.2.9a.403.403 0 0 1 .412.412.403.403 0 0 1-.413.413H1.51a.27.27 0 0 0-.194.09.267.267 0 0 0-.09.195v7.98c0 .065.026.13.09.195a.267.267 0 0 0 .194.09H5.2a.403.403 0 0 1 .413.412.403.403 0 0 1-.413.413H1.51c-.312 0-.578-.105-.79-.318A1.08 1.08 0 0 1 .4 9.99V2.01c0-.313.106-.579.319-.791A1.08 1.08 0 0 1 1.509.9H5.2Zm3.074 2.912a.408.408 0 0 1 .298.13l1.634 1.633v.001a.586.586 0 0 1 0 .849L8.571 8.058a.401.401 0 0 1-.588-.004v-.001a.408.408 0 0 1-.127-.294.41.41 0 0 1 .131-.288l1.059-1.059h-4.99A.407.407 0 0 1 3.645 6a.405.405 0 0 1 .413-.412h4.99L7.985 4.526a.408.408 0 0 1-.113-.199l-.01-.078a.397.397 0 0 1 .121-.302l.065-.056a.387.387 0 0 1 .226-.08Z"/></symbol><symbol viewBox="0 0 20 20" id="pen" xmlns="http://www.w3.org/2000/svg"><path d="m12.5 4.164 3.333 3.334m1.811-1.824a2.349 2.349 0 1 0-3.321-3.322L3.2 13.476c-.194.193-.337.43-.417.692l-1.1 3.626a.417.417 0 0 0 .519.519l3.627-1.1a1.67 1.67 0 0 0 .692-.415L17.644 5.675Z"/></symbol><symbol viewBox="0 0 21 21" id="picture" xmlns="http://www.w3.org/2000/svg"><path d="m19.5 13.5-3.086-3.086a2 2 0 0 0-2.828 0L4.5 19.5m-1-18h14a2 2 0 0 1 2 2v14a2 2 0 0 1-2 2h-14a2 2 0 0 1-2-2v-14a2 2 0 0 1 2-2Zm6 6a2 2 0 1 1-4 0 2 2 0 0 1 4 0Z"/></symbol><symbol viewBox="0 0 21 21" id="play-round" xmlns="http://www.w3.org/2000/svg"><path d="M17.5 1.5h-14a2 2 0 0 0-2 2v14a2 2 0 0 0 2 2h14a2 2 0 0 0 2-2v-14a2 2 0 0 0-2-2Z"/><path d="M7.5 7.503a1 1 0 0 1 1.517-.859l4.997 2.997a1 1 0 0 1 0 1.718l-4.997 2.997a1 1 0 0 1-1.517-.86V7.503Z"/></symbol><symbol viewBox="0 0 14 14" id="plus" xmlns="http://www.w3.org/2000/svg"><path d="M.777 7.003h12.445M7 .781v12.445"/></symbol><symbol viewBox="0 0 15 15" id="round-arrow" xmlns="http://www.w3.org/2000/svg"><path d="M1.167 13.83V8.29a3.167 3.167 0 0 1 3.167-3.168h9.5m0 0L9.876 9.081m3.958-3.959L9.876 1.164"/></symbol><symbol viewBox="0 0 24 24" id="ruler" xmlns="http://www.w3.org/2000/svg"><path fill-rule="evenodd" clip-rule="evenodd" d="M5.443.353h13.64c.725 0 1.33 0 1.82.05.513.051.99.165 1.418.451.325.218.605.497.823.824.286.427.4.904.451 1.417.05.49.05 1.095.05 1.82v.083c0 .726 0 1.331-.05 1.821-.052.512-.165.99-.453 1.418a2.982 2.982 0 0 1-.82.822c-.43.286-.905.4-1.419.452-.49.05-1.095.05-1.82.05h-8.167c-.534 0-.853.002-1.08.032a.758.758 0 0 0-.192.046l-.003.001-.001.003-.006.011a.758.758 0 0 0-.04.181c-.03.228-.032.546-.032 1.08v8.166c0 .726 0 1.332-.05 1.821-.052.513-.166.99-.452 1.418a3.034 3.034 0 0 1-.823.823c-.428.286-.905.4-1.417.451-.49.05-1.095.05-1.82.05h-.083c-.726 0-1.332 0-1.822-.05-.512-.052-.989-.165-1.418-.452a2.98 2.98 0 0 1-.822-.822c-.286-.428-.4-.904-.452-1.418-.05-.49-.05-1.095-.05-1.82V5.442c0-.974 0-1.786.087-2.43.091-.68.293-1.294.786-1.787C1.72.73 2.334.529 3.013.438 3.658.352 4.47.352 5.443.352M1.979 9.56h2.437a.812.812 0 1 0 0-1.625H1.979V5.498c0-1.044.002-1.746.072-2.27.067-.499.183-.713.325-.854.142-.14.354-.257.854-.325.523-.068 1.225-.071 2.27-.071h2.437v2.437a.813.813 0 0 0 1.625 0V1.978h1.625v1.354a.813.813 0 0 0 1.625 0V1.978h1.625v2.437a.813.813 0 0 0 1.625 0V1.978h1.625v1.354a.812.812 0 1 0 1.625 0V1.978c.631 0 1.077.005 1.427.04.384.04.562.11.68.188.147.098.274.226.373.374.079.117.148.295.187.68.04.397.041.92.041 1.697 0 .778 0 1.3-.041 1.697-.039.385-.108.563-.187.68-.1.147-.226.273-.373.373-.118.08-.296.149-.68.188-.398.04-.921.041-1.698.041h-8.174c-.469 0-.899 0-1.248.047-.385.052-.792.173-1.126.509-.335.336-.458.74-.51 1.126-.046.35-.046.78-.046 1.248v8.174c0 .778 0 1.3-.041 1.698-.04.384-.109.562-.188.68-.1.147-.227.273-.373.373-.117.079-.295.148-.68.187-.397.04-.92.041-1.697.041-.778 0-1.3 0-1.698-.04-.384-.04-.562-.11-.68-.188a1.408 1.408 0 0 1-.373-.373c-.079-.118-.148-.296-.187-.68-.036-.35-.04-.795-.041-1.427h1.354a.812.812 0 1 0 0-1.625H1.979v-1.625h2.437a.812.812 0 1 0 0-1.625H1.979v-1.625h1.354a.812.812 0 1 0 0-1.625H1.979V9.561Z"/></symbol><symbol viewBox="0 0 18 18" id="search" xmlns="http://www.w3.org/2000/svg"><path d="m16.5 16.5-3.617-3.617m1.95-4.716a6.667 6.667 0 1 1-13.333 0 6.667 6.667 0 0 1 13.333 0Z"/></symbol><symbol viewBox="0 0 21 21" id="shapes" xmlns="http://www.w3.org/2000/svg"><path d="M6.5 16.45a8.77 8.77 0 0 0 1 .05c.183 0 .354-.005.513-.012.16-.007.322-.02.487-.038v2.05h10v-10h-2.05a8.77 8.77 0 0 0 .05-1c0-.183-.005-.354-.012-.513a7.799 7.799 0 0 0-.038-.487h2.05c.55 0 1.021.196 1.413.588.392.392.588.863.587 1.412v10a1.93 1.93 0 0 1-.587 1.413 1.92 1.92 0 0 1-1.413.587h-10c-.55 0-1.02-.196-1.412-.587A1.93 1.93 0 0 1 6.5 18.5v-2.05Zm1-1.95c-1.95 0-3.604-.679-4.962-2.037C1.18 11.105.501 9.451.5 7.5c0-1.95.679-3.605 2.038-4.962C3.898 1.181 5.551.501 7.5.5c1.949-.001 3.603.678 4.963 2.038 1.36 1.36 2.039 3.014 2.037 4.962-.002 1.948-.681 3.602-2.037 4.963-1.356 1.36-3.01 2.04-4.963 2.037Zm0-2c1.383 0 2.563-.488 3.538-1.463.975-.975 1.463-2.154 1.462-3.537 0-1.383-.488-2.562-1.463-3.537C10.062 2.988 8.883 2.5 7.5 2.5s-2.562.488-3.537 1.463C2.988 4.938 2.501 6.117 2.5 7.5c0 1.383.487 2.562 1.463 3.538.976.976 2.155 1.463 3.537 1.462Z"/></symbol><symbol viewBox="0 0 22 21" id="star" xmlns="http://www.w3.org/2000/svg"><path d="M10.525 1.295a.53.53 0 0 1 .95 0l2.31 4.679a2.124 2.124 0 0 0 1.595 1.16l5.166.756a.53.53 0 0 1 .294.904l-3.736 3.638a2.124 2.124 0 0 0-.611 1.878l.882 5.14a.53.53 0 0 1-.771.56l-4.618-2.428a2.121 2.121 0 0 0-1.973 0L5.396 20.01a.53.53 0 0 1-.77-.56l.88-5.14a2.122 2.122 0 0 0-.61-1.878L1.16 8.795a.53.53 0 0 1 .294-.906l5.165-.755a2.122 2.122 0 0 0 1.597-1.16l2.309-4.68Z"/></symbol><symbol viewBox="0 0 18 22" id="tablet" xmlns="http://www.w3.org/2000/svg"><path d="M9 17h.01M3 1h12a2 2 0 0 1 2 2v16a2 2 0 0 1-2 2H3a2 2 0 0 1-2-2V3a2 2 0 0 1 2-2Z"/></symbol><symbol viewBox="0 0 19 19" id="text" xmlns="http://www.w3.org/2000/svg"><path d="M9.5 1.5v16m-8-13v-2a1 1 0 0 1 1-1h14a1 1 0 0 1 1 1v2m-11 13h6"/></symbol><symbol viewBox="0 0 20 22" id="trash" xmlns="http://www.w3.org/2000/svg"><path d="M8 10v6m4-6v6m5-11v14a2 2 0 0 1-2 2H5a2 2 0 0 1-2-2V5M1 5h18M6 5V3a2 2 0 0 1 2-2h4a2 2 0 0 1 2 2v2"/></symbol><symbol viewBox="0 0 24 24" id="users" xmlns="http://www.w3.org/2000/svg"><path d="M17 21v-2a4 4 0 0 0-4-4H5a4 4 0 0 0-4 4v2m8-10a4 4 0 1 0 0-8 4 4 0 0 0 0 8Zm14 10.003v-2a4 4 0 0 0-3-3.87m-4-12a4 4 0 0 1 0 7.75"/></symbol></svg>