<svg width="30" height="30" viewBox="0 0 30 30" fill="none" xmlns="http://www.w3.org/2000/svg">
<path d="M27.0061 2.81251H9.09891C8.95209 2.81214 8.80663 2.84075 8.67089 2.89671C8.53515 2.95267 8.4118 3.03487 8.30789 3.1386C8.20398 3.24233 8.12158 3.36555 8.06539 3.5012C8.0092 3.63684 7.98035 3.78225 7.98047 3.92907V8.90626L18.3577 11.9531L28.1255 8.90626V3.92907C28.1256 3.78217 28.0967 3.63669 28.0405 3.50098C27.9842 3.36527 27.9017 3.24201 27.7977 3.13827C27.6937 3.03452 27.5702 2.95234 27.4344 2.89644C27.2985 2.84054 27.153 2.81201 27.0061 2.81251Z" fill="#41A5EE"/>
<path d="M28.1255 8.90625H7.98047V15L18.3577 16.8281L28.1255 15V8.90625Z" fill="#2B7CD3"/>
<path d="M7.98047 15V21.0938L17.7473 22.3125L28.1255 21.0938V15H7.98047Z" fill="#185ABD"/>
<path d="M9.09891 27.1875H27.0052C27.1521 27.1881 27.2978 27.1597 27.4337 27.1038C27.5697 27.048 27.6933 26.9658 27.7974 26.8621C27.9015 26.7583 27.9841 26.635 28.0404 26.4992C28.0967 26.3635 28.1256 26.2179 28.1255 26.0709V21.0938H7.98047V26.0709C7.98035 26.2178 8.0092 26.3632 8.06539 26.4988C8.12158 26.6345 8.20398 26.7577 8.30789 26.8614C8.4118 26.9651 8.53515 27.0473 8.67089 27.1033C8.80663 27.1593 8.95209 27.1879 9.09891 27.1875Z" fill="#103F91"/>
<path opacity="0.1" d="M15.4073 7.6875H7.98047V22.9219H15.4073C15.7033 22.9204 15.9867 22.8024 16.1962 22.5934C16.4058 22.3844 16.5245 22.1012 16.5267 21.8053V8.80406C16.5245 8.50813 16.4058 8.22499 16.1962 8.01599C15.9867 7.80699 15.7033 7.68897 15.4073 7.6875Z" fill="black"/>
<path opacity="0.2" d="M14.797 8.29688H7.98047V23.5312H14.797C15.093 23.5298 15.3764 23.4118 15.5859 23.2028C15.7955 22.9938 15.9142 22.7106 15.9164 22.4147V9.41344C15.9142 9.11751 15.7955 8.83436 15.5859 8.62537C15.3764 8.41637 15.093 8.29835 14.797 8.29688Z" fill="black"/>
<path opacity="0.2" d="M14.797 8.29688H7.98047V22.3125H14.797C15.093 22.311 15.3764 22.193 15.5859 21.984C15.7955 21.775 15.9142 21.4919 15.9164 21.1959V9.41344C15.9142 9.11751 15.7955 8.83436 15.5859 8.62537C15.3764 8.41637 15.093 8.29835 14.797 8.29688Z" fill="black"/>
<path opacity="0.2" d="M14.1867 8.29688H7.98047V22.3125H14.1867C14.4827 22.311 14.7661 22.193 14.9756 21.984C15.1851 21.775 15.3039 21.4919 15.3061 21.1959V9.41344C15.3039 9.11751 15.1851 8.83436 14.9756 8.62537C14.7661 8.41637 14.4827 8.29835 14.1867 8.29688Z" fill="black"/>
<path d="M2.99438 8.29688H14.1863C14.4827 8.29663 14.7672 8.4141 14.977 8.62347C15.1869 8.83284 15.3051 9.11698 15.3056 9.41344V20.5866C15.3051 20.883 15.1869 21.1672 14.977 21.3765C14.7672 21.5859 14.4827 21.7034 14.1863 21.7031H2.99438C2.84748 21.7036 2.70192 21.6751 2.56608 21.6192C2.43023 21.5633 2.30676 21.4811 2.20275 21.3774C2.09875 21.2736 2.01625 21.1504 1.96001 21.0147C1.90377 20.8789 1.87488 20.7335 1.875 20.5866V9.41344C1.87488 9.26654 1.90377 9.12106 1.96001 8.98536C2.01625 8.84965 2.09875 8.72639 2.20275 8.62264C2.30676 8.5189 2.43023 8.43672 2.56608 8.38081C2.70192 8.32491 2.84748 8.29639 2.99438 8.29688Z" fill="url(#paint0_linear_3002_130599)"/>
<path d="M6.46836 16.8606C6.49023 17.0331 6.50461 17.1834 6.51148 17.3116H6.53773C6.54711 17.1897 6.56742 17.0428 6.59867 16.8709C6.64555 16.6131 6.6568 16.5541 6.68211 16.435L7.85867 11.3659H9.38117L10.5999 16.3591C10.6703 16.668 10.721 16.9812 10.7518 17.2966H10.7724C10.7958 16.9896 10.8381 16.6843 10.899 16.3825L11.873 11.3594H13.2577L11.5477 18.6231H9.92867L8.76898 13.8175C8.73523 13.6787 8.69711 13.4981 8.65461 13.2756C8.61211 13.0531 8.58586 12.8906 8.57586 12.7881H8.55617C8.54305 12.9063 8.5168 13.0816 8.47742 13.3141C8.43805 13.5466 8.4068 13.7191 8.38367 13.8316L7.29336 18.6259H5.64711L3.92773 11.3659H5.33398L6.3943 16.4453C6.4252 16.5826 6.44992 16.7211 6.46836 16.8606Z" fill="white"/>
<defs>
<linearGradient id="paint0_linear_3002_130599" x1="4.21313" y1="7.41938" x2="12.9675" y2="22.5806" gradientUnits="userSpaceOnUse">
<stop stop-color="#2368C4"/>
<stop offset="0.5" stop-color="#1A5DBE"/>
<stop offset="1" stop-color="#1146AC"/>
</linearGradient>
</defs>
</svg>
