<svg width="18" height="17" viewBox="0 0 18 17" fill="none" xmlns="http://www.w3.org/2000/svg">
<path d="M1.5 14.75C1.49994 13.5952 1.8331 12.465 2.45951 11.4949C3.08592 10.5248 3.97896 9.7561 5.03145 9.28101C6.08394 8.80591 7.25118 8.64463 8.39307 8.81651C9.53496 8.98839 10.603 9.48613 11.469 10.25M14.25 11V15.5M16.5 13.25H12M11.25 5C11.25 7.07107 9.57107 8.75 7.5 8.75C5.42893 8.75 3.75 7.07107 3.75 5C3.75 2.92893 5.42893 1.25 7.5 1.25C9.57107 1.25 11.25 2.92893 11.25 5Z" stroke="#323949" stroke-width="1.5" stroke-linecap="round" stroke-linejoin="round"/>
</svg>
