<svg width="21" height="21" viewBox="0 0 21 21" fill="none" xmlns="http://www.w3.org/2000/svg">
<path d="M16.6 13.8C16.5 13.9 16.3 14 16.2 14.1L13.8 14.5L15.5 18.1C15.7 18.5 15.5 18.9 15.1 19.1L12.3 20.4C12.2 20.5 12.1 20.5 12 20.5C11.7 20.5 11.4 20.3 11.3 20.1L9.7 16.5L7.8 18C7.7 18.1 7.5 18.2 7.3 18.2C6.9 18.2 6.5 17.9 6.5 17.4V6C6.5 5.5 6.8 5.2 7.3 5.2C7.5 5.2 7.7 5.3 7.8 5.4L16.5 12.8C16.8 13 16.9 13.5 16.6 13.8ZM4.5 10.5H2.5V2.5H18.5V10.5H16.9L19.1 12.4C19.9 12.1 20.4 11.4 20.4 10.5V2.5C20.4 1.4 19.5 0.5 18.4 0.5H2.5C1.4 0.5 0.5 1.4 0.5 2.5V10.5C0.5 11.6 1.4 12.5 2.5 12.5H4.5V10.5Z" fill="#323949"/>
</svg>
