<svg width="24" height="22" viewBox="0 0 24 22" fill="none" xmlns="http://www.w3.org/2000/svg">
<path d="M15.0518 0.900391C15.4623 0.900391 15.8393 1.12634 16.0391 1.49023L22.9561 14.1035C23.159 14.473 23.1465 14.9257 22.9238 15.2832L19.6338 20.5654C19.4266 20.8976 19.0664 21.0995 18.6787 21.0996H5.32129C4.93349 21.0996 4.57388 20.8975 4.36621 20.5654L1.07617 15.2832C0.853928 14.9257 0.841494 14.473 1.04395 14.1035L7.96094 1.49023C8.16023 1.12624 8.53785 0.900426 8.94824 0.900391H15.0518ZM6.05859 19.8477H18.6221L21.4521 15.3105H8.40527L6.05859 19.8477ZM2.14258 14.6641L4.98828 19.2236L11.2842 7.05176L8.89648 2.36621L2.14258 14.6641ZM16.2432 14.0576H21.5264L14.9883 2.15234H10.1777L16.2432 14.0576ZM9.05566 14.0576H14.8535L11.9727 8.40918L9.05566 14.0576Z" fill="#323949" stroke="#323949" stroke-width="0.2"/>
</svg>
