<svg width="20" height="18" viewBox="0 0 20 18" fill="none" xmlns="http://www.w3.org/2000/svg">
<path d="M0 3.83333H16.4444C17.6889 3.83333 18.3111 3.83333 18.7867 4.07556C19.2048 4.2886 19.5447 4.62855 19.7578 5.04667C20 5.52222 20 6.14444 20 7.38889V13.6111C20 14.8556 20 15.4778 19.7578 15.9533C19.5447 16.3715 19.2048 16.7114 18.7867 16.9244C18.3111 17.1667 17.6889 17.1667 16.4444 17.1667H3.55556C2.31111 17.1667 1.68889 17.1667 1.21333 16.9244C0.795214 16.7114 0.455271 16.3715 0.242222 15.9533C-6.62274e-08 15.4778 0 14.8556 0 13.6111V3.83333ZM0 3.83333C0 2.79778 -4.96705e-08 2.28 0.168889 1.87222C0.28057 1.60242 0.444328 1.35728 0.650804 1.1508C0.857279 0.944328 1.10242 0.78057 1.37222 0.668889C1.78 0.5 2.29778 0.5 3.33333 0.5H5.93667C6.84556 0.5 7.29889 0.5 7.70778 0.668889C8.11667 0.837778 8.43778 1.16 9.08 1.80222L11.1111 3.83333H0Z" fill="#323949"/>
<path d="M6.66602 10.4974H9.99935H6.66602ZM9.99935 10.4974H13.3327H9.99935ZM9.99935 10.4974V13.8307V10.4974ZM9.99935 10.4974V7.16406V10.4974Z" fill="#323949" fill-opacity="0.2"/>
</svg>
