<svg width="18" height="20" viewBox="0 0 18 20" fill="none" xmlns="http://www.w3.org/2000/svg">
<path d="M4.83333 9.16406V5.83073C4.83333 4.72566 5.27232 3.66585 6.05372 2.88445C6.83512 2.10305 7.89493 1.66406 9 1.66406C10.1051 1.66406 11.1649 2.10305 11.9463 2.88445C12.7277 3.66585 13.1667 4.72566 13.1667 5.83073V9.16406M3.16667 9.16406H14.8333C15.7538 9.16406 16.5 9.91025 16.5 10.8307V16.6641C16.5 17.5845 15.7538 18.3307 14.8333 18.3307H3.16667C2.24619 18.3307 1.5 17.5845 1.5 16.6641V10.8307C1.5 9.91025 2.24619 9.16406 3.16667 9.16406Z" stroke="#323949" stroke-width="1.5" stroke-linecap="round" stroke-linejoin="round"/>
</svg>
