<svg width="24" height="24" viewBox="0 0 24 24" fill="none" xmlns="http://www.w3.org/2000/svg">
<path d="M21.2832 21.1436L21.2119 21.2139L20.499 21.9277L20.4287 21.999L17.5312 19.1016H4.61523C4.12989 19.1015 3.71945 18.9382 3.3916 18.6104C3.06375 18.2825 2.90018 17.8717 2.89941 17.3857V6.61719C2.89944 6.13175 3.0631 5.72141 3.3916 5.39355C3.46572 5.31959 3.54463 5.25454 3.62695 5.19727L2.46387 4.03418L2.53516 3.96387L3.24805 3.25L3.31836 3.17871L21.2832 21.1436ZM19.3848 4.90137C19.8696 4.90143 20.28 5.06511 20.6084 5.39355C20.9368 5.72203 21.1003 6.13237 21.0996 6.61719V17.3867C21.0996 17.5096 21.085 17.6314 21.0566 17.752C21.0285 17.8717 20.99 17.9818 20.9414 18.084L20.8809 18.2119L20.7812 18.1123L19.9287 17.2617L19.8994 17.2324V7.07129L13.833 11.0518L13.7656 11.0967L13.708 11.0391L13.0205 10.3535L12.9336 10.2656L13.0371 10.1982L19.3525 6.10156H8.77051L7.57031 4.90137H19.3848ZM4.53906 6.10938C4.44382 6.1264 4.35141 6.17542 4.26172 6.26465C4.14872 6.3772 4.09908 6.49404 4.09961 6.61719V17.3867C4.09972 17.5087 4.14979 17.6258 4.2627 17.7393C4.37533 17.8523 4.49191 17.9019 4.61426 17.9014H16.3311L4.53906 6.10938Z" fill="#323949" stroke="#323949" stroke-width="0.2"/>
</svg>
