<svg width="24" height="24" viewBox="0 0 24 24" fill="none" xmlns="http://www.w3.org/2000/svg">
<path d="M5 9L9.5 12L14 9" stroke="#323949" stroke-width="1.5" stroke-linecap="round" stroke-linejoin="round"/>
<path d="M13.5 19H3C2.46957 19 1.96086 18.7893 1.58579 18.4142C1.21071 18.0391 1 17.5304 1 17V7C1 6.46957 1.21071 5.96086 1.58579 5.58579C1.96086 5.21071 2.46957 5 3 5H16C16.5304 5 17.0391 5.21071 17.4142 5.58579C17.7893 5.96086 18 6.46957 18 7V9.5" stroke="#323949" stroke-width="1.5" stroke-linecap="round"/>
<path d="M17.9995 17.5C17.4746 17.5 16.9712 17.2893 16.6 16.9142C16.2288 16.5391 16.0203 16.0304 16.0203 15.5C16.0203 14.9696 16.2288 14.4609 16.6 14.0858C16.9712 13.7107 17.4746 13.5 17.9995 13.5M17.9995 17.5C18.5244 17.5 19.0278 17.2893 19.399 16.9142C19.7702 16.5391 19.9787 16.0304 19.9787 15.5C19.9787 14.9696 19.7702 14.4609 19.399 14.0858C19.0278 13.7107 18.5244 13.5 17.9995 13.5M17.9995 17.5V19M17.9995 13.5V12M20.999 13.75L19.7135 14.5M16.2865 16.5L15 17.25M15 13.75L16.2865 14.5M19.7135 16.5L21 17.25" stroke="#323949" stroke-width="1.5" stroke-linecap="round" stroke-linejoin="round"/>
</svg>
