<svg width="20" height="18" viewBox="0 0 20 18" fill="none" xmlns="http://www.w3.org/2000/svg">
<path d="M2.59194 7.02551L8.2475 11.2065L8.24935 11.2083C8.87713 11.6588 9.19102 11.8845 9.53546 11.9716C9.83971 12.0486 10.159 12.0486 10.4632 11.9716C10.8077 11.8845 11.1225 11.6579 11.7521 11.2065L17.4068 7.02551M17.2216 6.15524L12.0373 2.09125C11.3938 1.58631 11.0716 1.33429 10.7132 1.23367C10.3973 1.14538 10.063 1.141 9.74472 1.22097C9.38453 1.31163 9.05583 1.55458 8.39842 2.04139L2.84194 6.15524C2.41046 6.47434 2.19472 6.63389 2.03916 6.83514C1.90148 7.01396 1.79882 7.21621 1.73639 7.43164C1.66602 7.67459 1.66602 7.9393 1.66602 8.46872V14.0965C1.66602 15.1118 1.66602 15.6195 1.86787 16.0075C2.04565 16.3492 2.32805 16.6257 2.67713 16.7998C3.0725 16.9974 3.59102 16.9974 4.6262 16.9974H15.3725C16.4077 16.9974 16.9253 16.9974 17.3206 16.7998C17.6697 16.6257 17.9531 16.3483 18.1308 16.0075C18.3327 15.6204 18.3327 15.1127 18.3327 14.0992V8.40979C18.3327 7.90395 18.3327 7.65012 18.2669 7.41532C18.2076 7.20606 18.1104 7.00893 17.9799 6.83333C17.8327 6.63389 17.6299 6.47434 17.2216 6.15433" stroke="#323949" stroke-width="1.5" stroke-linecap="round" stroke-linejoin="round"/>
</svg>
