<svg width="11" height="12" viewBox="0 0 11 12" fill="none" xmlns="http://www.w3.org/2000/svg">
<path d="M5.19922 0.900391C5.31316 0.900391 5.41366 0.939092 5.49316 1.01855C5.57268 1.09807 5.6123 1.19853 5.6123 1.3125C5.6123 1.42647 5.57268 1.52693 5.49316 1.60645C5.41366 1.68591 5.31316 1.72461 5.19922 1.72461H1.50977C1.44476 1.72467 1.38056 1.7507 1.31543 1.81543C1.25043 1.88009 1.22433 1.94449 1.22461 2.00977V9.99023C1.22461 10.0548 1.25053 10.1193 1.31543 10.1846C1.38014 10.2496 1.4441 10.2756 1.50879 10.2754H5.19922C5.31316 10.2754 5.41366 10.3141 5.49316 10.3936C5.57268 10.4731 5.6123 10.5735 5.6123 10.6875C5.6123 10.8015 5.57268 10.9019 5.49316 10.9814C5.41366 11.0609 5.31316 11.0996 5.19922 11.0996H1.50977C1.19721 11.0996 0.931088 10.9945 0.71875 10.7822C0.506359 10.5698 0.400863 10.3033 0.400391 9.99023V2.00977C0.400444 1.6971 0.505989 1.43109 0.71875 1.21875C0.931469 1.00649 1.19748 0.900864 1.50977 0.900391H5.19922ZM8.27441 3.81152C8.38795 3.80978 8.48843 3.85855 8.57227 3.94238L10.2061 5.5752V5.57617C10.3241 5.69481 10.3867 5.83737 10.3867 6C10.3867 6.16293 10.3238 6.30613 10.2051 6.4248L8.57227 8.05762C8.49411 8.13577 8.39778 8.17874 8.28809 8.18262C8.1719 8.18666 8.06923 8.13908 7.98438 8.05371L7.9834 8.05273C7.90238 7.96909 7.85578 7.87019 7.85742 7.75879C7.85915 7.64844 7.90697 7.55158 7.98828 7.4707L9.04688 6.41211H4.05762C3.94403 6.41211 3.84403 6.37321 3.76465 6.29395C3.68526 6.21455 3.64506 6.11382 3.64453 6C3.64411 5.88594 3.68376 5.7855 3.76367 5.70605C3.84341 5.62687 3.94392 5.58789 4.05762 5.58789H9.04688L7.98535 4.52637C7.928 4.46941 7.88948 4.40256 7.87207 4.32715L7.8623 4.24902C7.85664 4.13432 7.9009 4.03244 7.9834 3.94727L8.04785 3.89062C8.11465 3.84129 8.19052 3.81288 8.27441 3.81152Z" fill="#323949" stroke="#323949" stroke-width="0.2"/>
</svg>
