<svg width="20" height="20" viewBox="0 0 20 20" fill="none" xmlns="http://www.w3.org/2000/svg">
<path d="M12.4993 4.16438L15.8326 7.49771M17.6443 5.67438C18.0849 5.2339 18.3325 4.63644 18.3325 4.01342C18.3326 3.39041 18.0852 2.79289 17.6447 2.3523C17.2042 1.91171 16.6068 1.66414 15.9838 1.66406C15.3607 1.66398 14.7632 1.9114 14.3226 2.35188L3.20096 13.476C3.00748 13.669 2.86439 13.9065 2.78429 14.1677L1.68346 17.7944C1.66192 17.8664 1.6603 17.943 1.67875 18.0159C1.69721 18.0888 1.73506 18.1554 1.78829 18.2085C1.84152 18.2617 1.90814 18.2994 1.98109 18.3178C2.05404 18.3361 2.13059 18.3344 2.20263 18.3127L5.83013 17.2127C6.0911 17.1333 6.32861 16.9911 6.52179 16.7985L17.6443 5.67438Z" stroke="#323949" stroke-width="1.5" stroke-linecap="round" stroke-linejoin="round"/>
</svg>
