<svg width="21" height="21" viewBox="0 0 21 21" fill="none" xmlns="http://www.w3.org/2000/svg">
<path d="M19.5 13.5L16.414 10.414C16.0389 10.0391 15.5303 9.82843 15 9.82843C14.4697 9.82843 13.9611 10.0391 13.586 10.414L4.5 19.5M3.5 1.5H17.5C18.6046 1.5 19.5 2.39543 19.5 3.5V17.5C19.5 18.6046 18.6046 19.5 17.5 19.5H3.5C2.39543 19.5 1.5 18.6046 1.5 17.5V3.5C1.5 2.39543 2.39543 1.5 3.5 1.5ZM9.5 7.5C9.5 8.60457 8.60457 9.5 7.5 9.5C6.39543 9.5 5.5 8.60457 5.5 7.5C5.5 6.39543 6.39543 5.5 7.5 5.5C8.60457 5.5 9.5 6.39543 9.5 7.5Z" stroke="#323949" stroke-width="1.5" stroke-linecap="round" stroke-linejoin="round"/>
</svg>
