<svg width="21" height="21" viewBox="0 0 21 21" fill="none" xmlns="http://www.w3.org/2000/svg">
<path d="M17.5 1.5H3.5C2.39543 1.5 1.5 2.39543 1.5 3.5V17.5C1.5 18.6046 2.39543 19.5 3.5 19.5H17.5C18.6046 19.5 19.5 18.6046 19.5 17.5V3.5C19.5 2.39543 18.6046 1.5 17.5 1.5Z" stroke="#323949" stroke-width="1.5" stroke-linecap="round" stroke-linejoin="round"/>
<path d="M7.5 7.503C7.49946 7.32553 7.54617 7.15112 7.63531 6.99767C7.72445 6.84422 7.85283 6.71725 8.00726 6.6298C8.16169 6.54236 8.3366 6.49759 8.51405 6.50008C8.6915 6.50258 8.86509 6.55225 9.017 6.644L14.014 9.641C14.1628 9.72967 14.286 9.85545 14.3715 10.006C14.457 10.1566 14.502 10.3268 14.502 10.5C14.502 10.6732 14.457 10.8434 14.3715 10.994C14.286 11.1446 14.1628 11.2703 14.014 11.359L9.017 14.356C8.86502 14.4478 8.69134 14.4975 8.5138 14.4999C8.33627 14.5024 8.16128 14.4575 8.00682 14.37C7.85236 14.2824 7.724 14.1553 7.63493 14.0017C7.54586 13.8481 7.49929 13.6736 7.5 13.496V7.503Z" stroke="#323949" stroke-width="1.5" stroke-linecap="round" stroke-linejoin="round"/>
</svg>
