<svg width="24" height="24" viewBox="0 0 24 24" fill="none" xmlns="http://www.w3.org/2000/svg">
<path fill-rule="evenodd" clip-rule="evenodd" d="M5.44302 0.352646H19.0822C19.808 0.352646 20.4136 0.352646 20.9033 0.402479C21.4157 0.454479 21.8923 0.568229 22.3213 0.854229C22.6463 1.07198 22.9258 1.35148 23.1436 1.67756C23.4296 2.10548 23.5433 2.58215 23.5953 3.09456C23.6452 3.58423 23.6452 4.18981 23.6452 4.91456V4.99798C23.6452 5.72381 23.6452 6.3294 23.5953 6.81906C23.5433 7.33148 23.4296 7.80815 23.1425 8.23715C22.9258 8.56215 22.6463 8.84165 22.3213 9.0594C21.8923 9.3454 21.4168 9.45915 20.9033 9.51115C20.4136 9.56098 19.808 9.56098 19.0833 9.56098H10.916C10.3819 9.56098 10.0634 9.56315 9.83593 9.59348C9.77031 9.60024 9.70585 9.61554 9.64418 9.63898L9.64093 9.64006L9.63985 9.64331L9.63443 9.65415C9.61373 9.71259 9.60026 9.77335 9.59435 9.83506C9.56401 10.0626 9.56185 10.3811 9.56185 10.9151V19.0813C9.56185 19.8071 9.56185 20.4127 9.51202 20.9024C9.46002 21.4148 9.34626 21.8915 9.06026 22.3205C8.84145 22.6451 8.56187 22.9243 8.23693 23.1427C7.80902 23.4287 7.33235 23.5425 6.81993 23.5945C6.33027 23.6443 5.72468 23.6443 4.99993 23.6443H4.91652C4.19068 23.6443 3.5851 23.6443 3.09543 23.5945C2.58302 23.5425 2.10635 23.4287 1.67735 23.1416C1.35235 22.925 1.07285 22.6455 0.855099 22.3205C0.569099 21.8915 0.455349 21.4159 0.403349 20.9024C0.353516 20.4127 0.353516 19.8071 0.353516 19.0824V5.44106C0.353516 4.46823 0.353516 3.65573 0.440182 3.01223C0.531182 2.3319 0.732682 1.71765 1.2256 1.22473C1.7196 0.730729 2.33385 0.529229 3.0131 0.438229C3.65768 0.351563 4.47018 0.351562 5.44302 0.351562M1.97852 9.56098H4.41602C4.6315 9.56098 4.83817 9.47538 4.99054 9.323C5.14291 9.17063 5.22852 8.96397 5.22852 8.74848C5.22852 8.53299 5.14291 8.32633 4.99054 8.17396C4.83817 8.02158 4.6315 7.93598 4.41602 7.93598H1.97852V5.49848C1.97852 4.45415 1.98068 3.75215 2.0511 3.2289C2.11827 2.72948 2.23418 2.51498 2.3761 2.37415C2.51802 2.23331 2.73035 2.1174 3.22977 2.04915C3.75302 1.9809 4.45502 1.97765 5.49935 1.97765H7.93685V4.41515C7.93685 4.63063 8.02245 4.8373 8.17482 4.98967C8.3272 5.14204 8.53386 5.22765 8.74935 5.22765C8.96484 5.22765 9.1715 5.14204 9.32387 4.98967C9.47625 4.8373 9.56185 4.63063 9.56185 4.41515V1.97765H11.1868V3.33181C11.1868 3.5473 11.2725 3.75396 11.4248 3.90634C11.5772 4.05871 11.7839 4.14431 11.9993 4.14431C12.2148 4.14431 12.4215 4.05871 12.5739 3.90634C12.7262 3.75396 12.8118 3.5473 12.8118 3.33181V1.97765H14.4368V4.41515C14.4368 4.63063 14.5225 4.8373 14.6748 4.98967C14.8272 5.14204 15.0339 5.22765 15.2493 5.22765C15.4648 5.22765 15.6715 5.14204 15.8239 4.98967C15.9762 4.8373 16.0618 4.63063 16.0618 4.41515V1.97765H17.6868V3.33181C17.6868 3.5473 17.7724 3.75396 17.9248 3.90634C18.0772 4.05871 18.2839 4.14431 18.4993 4.14431C18.7148 4.14431 18.9215 4.05871 19.0739 3.90634C19.2262 3.75396 19.3118 3.5473 19.3118 3.33181V1.97765C19.9434 1.97765 20.3887 1.98306 20.7386 2.01881C21.1232 2.05781 21.3008 2.12715 21.4189 2.20623C21.5663 2.30373 21.693 2.43156 21.7916 2.57998C21.8707 2.69698 21.94 2.87465 21.979 3.25923C22.0191 3.65681 22.0202 4.18006 22.0202 4.95681C22.0202 5.73465 22.0202 6.25681 21.979 6.6544C21.94 7.03898 21.8707 7.21665 21.7916 7.33365C21.692 7.4806 21.5656 7.60741 21.4189 7.7074C21.3008 7.78648 21.1232 7.85581 20.7386 7.89481C20.341 7.9349 19.8178 7.93598 19.041 7.93598H10.8673C10.3982 7.93598 9.9681 7.93598 9.61927 7.98256C9.2336 8.03456 8.82735 8.1559 8.4926 8.49173C8.15785 8.82756 8.03543 9.23273 7.98343 9.6184C7.93685 9.96831 7.93685 10.3984 7.93685 10.8664V19.0401C7.93685 19.818 7.93685 20.3401 7.89568 20.7377C7.85668 21.1223 7.78735 21.3 7.70826 21.4181C7.60828 21.5647 7.48147 21.6912 7.33451 21.7907C7.21751 21.8698 7.03985 21.9391 6.65527 21.9781C6.25768 22.0182 5.73443 22.0193 4.95768 22.0193C4.17985 22.0193 3.65768 22.0193 3.2601 21.9781C2.87552 21.9391 2.69785 21.8698 2.58085 21.7907C2.43389 21.6912 2.30708 21.5647 2.2071 21.4181C2.12802 21.3 2.05868 21.1223 2.01968 20.7377C1.98393 20.3878 1.9796 19.9426 1.97852 19.311H3.33268C3.54817 19.311 3.75483 19.2254 3.90721 19.073C4.05958 18.9206 4.14518 18.714 4.14518 18.4985C4.14518 18.283 4.05958 18.0763 3.90721 17.924C3.75483 17.7716 3.54817 17.686 3.33268 17.686H1.97852V16.061H4.41602C4.6315 16.061 4.83817 15.9754 4.99054 15.823C5.14291 15.6706 5.22852 15.464 5.22852 15.2485C5.22852 15.033 5.14291 14.8263 4.99054 14.674C4.83817 14.5216 4.6315 14.436 4.41602 14.436H1.97852V12.811H3.33268C3.54817 12.811 3.75483 12.7254 3.90721 12.573C4.05958 12.4206 4.14518 12.214 4.14518 11.9985C4.14518 11.783 4.05958 11.5763 3.90721 11.424C3.75483 11.2716 3.54817 11.186 3.33268 11.186H1.97852V9.56098Z" fill="#323949"/>
</svg>
