<svg width="21" height="21" viewBox="0 0 21 21" fill="none" xmlns="http://www.w3.org/2000/svg">
<path d="M6.5 16.45C6.66667 16.4667 6.82933 16.4793 6.988 16.488C7.14667 16.4967 7.31733 16.5007 7.5 16.5C7.68267 16.4993 7.85367 16.4953 8.013 16.488C8.17233 16.4807 8.33467 16.468 8.5 16.45V18.5H18.5V8.5H16.45C16.4667 8.33334 16.4793 8.17067 16.488 8.012C16.4967 7.85334 16.5007 7.68267 16.5 7.5C16.4993 7.31734 16.4953 7.14634 16.488 6.987C16.4807 6.82767 16.468 6.66534 16.45 6.5H18.5C19.05 6.5 19.521 6.696 19.913 7.088C20.305 7.48 20.5007 7.95067 20.5 8.5V18.5C20.5 19.05 20.3043 19.521 19.913 19.913C19.5217 20.305 19.0507 20.5007 18.5 20.5H8.5C7.95 20.5 7.47933 20.3043 7.088 19.913C6.69667 19.5217 6.50067 19.0507 6.5 18.5V16.45ZM7.5 14.5C5.55 14.5 3.896 13.821 2.538 12.463C1.18 11.105 0.500667 9.45067 0.5 7.5C0.499334 5.54934 1.17867 3.89534 2.538 2.538C3.89733 1.18067 5.55133 0.501335 7.5 0.500002C9.44867 0.498669 11.103 1.178 12.463 2.538C13.823 3.898 14.502 5.552 14.5 7.5C14.498 9.448 13.819 11.1023 12.463 12.463C11.107 13.8237 9.45267 14.5027 7.5 14.5ZM7.5 12.5C8.88333 12.5 10.0627 12.0123 11.038 11.037C12.0133 10.0617 12.5007 8.88267 12.5 7.5C12.4993 6.11734 12.0117 4.93833 11.037 3.963C10.0623 2.98767 8.88333 2.5 7.5 2.5C6.11667 2.5 4.93767 2.98767 3.963 3.963C2.98833 4.93833 2.50067 6.11734 2.5 7.5C2.49933 8.88267 2.987 10.062 3.963 11.038C4.939 12.014 6.118 12.5013 7.5 12.5Z" fill="#323949"/>
</svg>
