<svg width="22" height="21" viewBox="0 0 22 21" fill="none" xmlns="http://www.w3.org/2000/svg">
<path d="M10.5248 1.29489C10.5687 1.20635 10.6364 1.13183 10.7203 1.07972C10.8042 1.02761 10.9011 1 10.9998 1C11.0986 1 11.1955 1.02761 11.2794 1.07972C11.3633 1.13183 11.431 1.20635 11.4748 1.29489L13.7848 5.97389C13.937 6.28186 14.1617 6.5483 14.4395 6.75035C14.7173 6.95239 15.04 7.08401 15.3798 7.13389L20.5458 7.88989C20.6437 7.90408 20.7357 7.94537 20.8113 8.00909C20.887 8.07282 20.9433 8.15644 20.9739 8.2505C21.0045 8.34456 21.0081 8.4453 20.9844 8.54133C20.9607 8.63736 20.9107 8.72485 20.8398 8.79389L17.1038 12.4319C16.8575 12.672 16.6731 12.9684 16.5667 13.2955C16.4602 13.6227 16.4349 13.9708 16.4928 14.3099L17.3748 19.4499C17.3921 19.5477 17.3816 19.6485 17.3443 19.7406C17.3071 19.8327 17.2448 19.9125 17.1644 19.9709C17.084 20.0293 16.9888 20.0639 16.8897 20.0708C16.7906 20.0777 16.6915 20.0566 16.6038 20.0099L11.9858 17.5819C11.6816 17.4221 11.343 17.3386 10.9993 17.3386C10.6557 17.3386 10.3171 17.4221 10.0128 17.5819L5.39585 20.0099C5.30818 20.0563 5.20924 20.0772 5.1103 20.0701C5.01135 20.0631 4.91636 20.0285 4.83614 19.9701C4.75592 19.9118 4.69368 19.8321 4.6565 19.7401C4.61933 19.6482 4.6087 19.5476 4.62585 19.4499L5.50685 14.3109C5.56504 13.9716 5.53983 13.6233 5.43338 13.2959C5.32694 12.9686 5.14245 12.672 4.89585 12.4319L1.15985 8.79489C1.08844 8.72593 1.03784 8.63829 1.01381 8.54197C0.989778 8.44565 0.993284 8.34451 1.02393 8.25008C1.05457 8.15566 1.11111 8.07174 1.18712 8.00788C1.26313 7.94402 1.35555 7.90279 1.45385 7.88889L6.61885 7.13389C6.9591 7.08439 7.28224 6.95295 7.56043 6.75088C7.83863 6.54881 8.06355 6.28216 8.21585 5.97389L10.5248 1.29489Z" stroke="#323949" stroke-width="1.5" stroke-linecap="round" stroke-linejoin="round"/>
</svg>
