<svg width="18" height="18" viewBox="0 0 18 18" fill="none" xmlns="http://www.w3.org/2000/svg">
<path d="M13 14C13.55 14 14 13.55 14 13V11C14 10.45 13.55 10 13 10C12.45 10 12 10.45 12 11V13C12 13.55 12.45 14 13 14Z" fill="#323949"/>
<path d="M13.7002 13V11C13.7002 10.6157 13.3843 10.2998 13 10.2998C12.6157 10.2998 12.2998 10.6157 12.2998 11V13C12.2998 13.3843 12.6157 13.7002 13 13.7002V14C12.45 14 12 13.55 12 13V11C12 10.45 12.45 10 13 10C13.55 10 14 10.45 14 11V13C14 13.55 13.55 14 13 14V13.7002C13.3843 13.7002 13.7002 13.3843 13.7002 13Z" fill="#323949"/>
<path d="M17 7C16.45 7 16 7.45 16 8V16H2V2H10C10.55 2 11 1.55 11 1C11 0.45 10.55 0 10 0H2C0.9 0 0 0.9 0 2V16C0 17.1 0.9 18 2 18H16C17.1 18 18 17.1 18 16V8C18 7.45 17.55 7 17 7Z" fill="#323949"/>
<path d="M16 17.7002V18H2V17.7002H16ZM17.7002 16V8C17.7002 7.61569 17.3843 7.2998 17 7.2998C16.6157 7.2998 16.2998 7.61569 16.2998 8V16.2998H1.7002V1.7002H10V2H2V16H16V8C16 7.45 16.45 7 17 7C17.55 7 18 7.45 18 8V16C18 17.1 17.1 18 16 18V17.7002C16.9343 17.7002 17.7002 16.9343 17.7002 16ZM10.7002 1C10.7002 0.615685 10.3843 0.299805 10 0.299805H2C1.06569 0.299805 0.299805 1.06569 0.299805 2V16C0.299805 16.9343 1.06569 17.7002 2 17.7002V18C0.9 18 0 17.1 0 16V2C0 0.9 0.9 0 2 0H10C10.55 0 11 0.45 11 1C11 1.55 10.55 2 10 2V1.7002C10.3843 1.7002 10.7002 1.38431 10.7002 1Z" fill="#323949"/>
<path d="M4 8V13C4 13.55 4.45 14 5 14C5.55 14 6 13.55 6 13V8C6 7.45 5.55 7 5 7C4.45 7 4 7.45 4 8ZM8 5V13C8 13.55 8.45 14 9 14C9.55 14 10 13.55 10 13V5C10 4.45 9.55 4 9 4C8.45 4 8 4.45 8 5ZM13 4H14V5C14 5.55 14.45 6 15 6C15.55 6 16 5.55 16 5V4H17C17.55 4 18 3.55 18 3C18 2.45 17.55 2 17 2H16V1C16 0.45 15.55 0 15 0C14.45 0 14 0.45 14 1V2H13C12.45 2 12 2.45 12 3C12 3.55 12.45 4 13 4Z" fill="#323949"/>
<path d="M5.7002 13V8C5.7002 7.61569 5.38431 7.2998 5 7.2998C4.61569 7.2998 4.2998 7.61569 4.2998 8V13C4.2998 13.3843 4.61569 13.7002 5 13.7002V14C4.45 14 4 13.55 4 13V8C4 7.45 4.45 7 5 7C5.55 7 6 7.45 6 8V13C6 13.55 5.55 14 5 14V13.7002C5.38431 13.7002 5.7002 13.3843 5.7002 13ZM9.7002 13V5C9.7002 4.61569 9.38431 4.2998 9 4.2998C8.61569 4.2998 8.2998 4.61569 8.2998 5V13C8.2998 13.3843 8.61569 13.7002 9 13.7002V14C8.45 14 8 13.55 8 13V5C8 4.45 8.45 4 9 4C9.55 4 10 4.45 10 5V13C10 13.55 9.55 14 9 14V13.7002C9.38431 13.7002 9.7002 13.3843 9.7002 13ZM14 5V4H13V3.7002H14.2998V5C14.2998 5.38431 14.6157 5.7002 15 5.7002V6C14.45 6 14 5.55 14 5ZM15.7002 5V3.7002H17V4H16V5C16 5.55 15.55 6 15 6V5.7002C15.3843 5.7002 15.7002 5.38431 15.7002 5ZM17.7002 3C17.7002 2.61569 17.3843 2.2998 17 2.2998H15.7002V1C15.7002 0.615685 15.3843 0.299805 15 0.299805C14.6157 0.299805 14.2998 0.615685 14.2998 1V2.2998H13C12.6157 2.2998 12.2998 2.61569 12.2998 3C12.2998 3.38431 12.6157 3.7002 13 3.7002V4C12.45 4 12 3.55 12 3C12 2.45 12.45 2 13 2H14V1C14 0.45 14.45 0 15 0C15.55 0 16 0.45 16 1V2H17C17.55 2 18 2.45 18 3C18 3.55 17.55 4 17 4V3.7002C17.3843 3.7002 17.7002 3.38431 17.7002 3Z" fill="#323949"/>
</svg>
