<svg width="24" height="24" viewBox="0 0 24 24" fill="none" xmlns="http://www.w3.org/2000/svg">
<path d="M17.25 21V18.75H15C14.5858 18.75 14.25 18.4142 14.25 18C14.25 17.5858 14.5858 17.25 15 17.25H17.25V15C17.25 14.5858 17.5858 14.25 18 14.25C18.4142 14.25 18.75 14.5858 18.75 15V17.25H21C21.4142 17.25 21.75 17.5858 21.75 18C21.75 18.4142 21.4142 18.75 21 18.75H18.75V21C18.75 21.4142 18.4142 21.75 18 21.75C17.5858 21.75 17.25 21.4142 17.25 21ZM14.25 8.75H9.75V13.25H13C13.3315 13.25 13.6494 13.1182 13.8838 12.8838C14.1182 12.6494 14.25 12.3315 14.25 12V8.75ZM3.75 13.25H8.25V8.75H3.75V13.25ZM20.25 6C20.25 5.66848 20.1182 5.35063 19.8838 5.11621C19.6494 4.88179 19.3315 4.75 19 4.75H5C4.66848 4.75 4.35063 4.88179 4.11621 5.11621C3.88179 5.35063 3.75 5.66848 3.75 6V7.25H20.25V6ZM3.75 18C3.75 18.3315 3.88179 18.6494 4.11621 18.8838C4.35063 19.1182 4.66848 19.25 5 19.25H8.25V14.75H3.75V18ZM21.75 12C21.75 12.4142 21.4142 12.75 21 12.75C20.5858 12.75 20.25 12.4142 20.25 12V8.75H15.75V12C15.75 12.7293 15.4601 13.4286 14.9443 13.9443C14.4286 14.4601 13.7293 14.75 13 14.75H9.75V19.25H11C11.4142 19.25 11.75 19.5858 11.75 20C11.75 20.4142 11.4142 20.75 11 20.75H5C4.27065 20.75 3.57139 20.4601 3.05566 19.9443C2.53994 19.4286 2.25 18.7293 2.25 18V6C2.25 5.27065 2.53994 4.57139 3.05566 4.05566C3.57139 3.53994 4.27065 3.25 5 3.25H19C19.7293 3.25 20.4286 3.53994 20.9443 4.05566C21.4601 4.57139 21.75 5.27065 21.75 6V12Z" fill="#323949"/>
</svg>
