<svg width="20" height="19" viewBox="0 0 20 19" fill="none" xmlns="http://www.w3.org/2000/svg">
<path d="M15.25 18V15.75H13C12.5858 15.75 12.25 15.4142 12.25 15C12.25 14.5858 12.5858 14.25 13 14.25H15.25V12C15.25 11.5858 15.5858 11.25 16 11.25C16.4142 11.25 16.75 11.5858 16.75 12V14.25H19C19.4142 14.25 19.75 14.5858 19.75 15C19.75 15.4142 19.4142 15.75 19 15.75H16.75V18C16.75 18.4142 16.4142 18.75 16 18.75C15.5858 18.75 15.25 18.4142 15.25 18ZM12.25 5.75H7.75V10.25H11C11.3315 10.25 11.6494 10.1182 11.8838 9.88379C12.1182 9.64937 12.25 9.33152 12.25 9V5.75ZM1.75 10.25H6.25V5.75H1.75V10.25ZM18.25 3C18.25 2.66848 18.1182 2.35063 17.8838 2.11621C17.6494 1.88179 17.3315 1.75 17 1.75H3C2.66848 1.75 2.35063 1.88179 2.11621 2.11621C1.88179 2.35063 1.75 2.66848 1.75 3V4.25H18.25V3ZM1.75 15C1.75 15.3315 1.88179 15.6494 2.11621 15.8838C2.35063 16.1182 2.66848 16.25 3 16.25H6.25V11.75H1.75V15ZM19.75 9C19.75 9.41421 19.4142 9.75 19 9.75C18.5858 9.75 18.25 9.41421 18.25 9V5.75H13.75V9C13.75 9.72935 13.4601 10.4286 12.9443 10.9443C12.4286 11.4601 11.7293 11.75 11 11.75H7.75V16.25H9C9.41421 16.25 9.75 16.5858 9.75 17C9.75 17.4142 9.41421 17.75 9 17.75H3C2.27065 17.75 1.57139 17.4601 1.05566 16.9443C0.539939 16.4286 0.25 15.7293 0.25 15V3C0.25 2.27065 0.539939 1.57139 1.05566 1.05566C1.57139 0.539939 2.27065 0.25 3 0.25H17C17.7293 0.25 18.4286 0.539939 18.9443 1.05566C19.4601 1.57139 19.75 2.27065 19.75 3V9Z" fill="#323949"/>
</svg>
