<svg width="24" height="24" viewBox="0 0 24 24" fill="none" xmlns="http://www.w3.org/2000/svg">
<path d="M16 17C16.55 17 17 16.55 17 16V14C17 13.45 16.55 13 16 13C15.45 13 15 13.45 15 14V16C15 16.55 15.45 17 16 17Z" fill="#323949"/>
<path d="M16.7002 16V14C16.7002 13.6157 16.3843 13.2998 16 13.2998C15.6157 13.2998 15.2998 13.6157 15.2998 14V16C15.2998 16.3843 15.6157 16.7002 16 16.7002V17C15.45 17 15 16.55 15 16V14C15 13.45 15.45 13 16 13C16.55 13 17 13.45 17 14V16C17 16.55 16.55 17 16 17V16.7002C16.3843 16.7002 16.7002 16.3843 16.7002 16Z" fill="#323949"/>
<path d="M20 10C19.45 10 19 10.45 19 11V19H5V5H13C13.55 5 14 4.55 14 4C14 3.45 13.55 3 13 3H5C3.9 3 3 3.9 3 5V19C3 20.1 3.9 21 5 21H19C20.1 21 21 20.1 21 19V11C21 10.45 20.55 10 20 10Z" fill="#323949"/>
<path d="M19 20.7002V21H5V20.7002H19ZM20.7002 19V11C20.7002 10.6157 20.3843 10.2998 20 10.2998C19.6157 10.2998 19.2998 10.6157 19.2998 11V19.2998H4.7002V4.7002H13V5H5V19H19V11C19 10.45 19.45 10 20 10C20.55 10 21 10.45 21 11V19C21 20.1 20.1 21 19 21V20.7002C19.9343 20.7002 20.7002 19.9343 20.7002 19ZM13.7002 4C13.7002 3.61569 13.3843 3.2998 13 3.2998H5C4.06569 3.2998 3.2998 4.06569 3.2998 5V19C3.2998 19.9343 4.06569 20.7002 5 20.7002V21C3.9 21 3 20.1 3 19V5C3 3.9 3.9 3 5 3H13C13.55 3 14 3.45 14 4C14 4.55 13.55 5 13 5V4.7002C13.3843 4.7002 13.7002 4.38431 13.7002 4Z" fill="#323949"/>
<path d="M7 11V16C7 16.55 7.45 17 8 17C8.55 17 9 16.55 9 16V11C9 10.45 8.55 10 8 10C7.45 10 7 10.45 7 11ZM11 8V16C11 16.55 11.45 17 12 17C12.55 17 13 16.55 13 16V8C13 7.45 12.55 7 12 7C11.45 7 11 7.45 11 8ZM16 7H17V8C17 8.55 17.45 9 18 9C18.55 9 19 8.55 19 8V7H20C20.55 7 21 6.55 21 6C21 5.45 20.55 5 20 5H19V4C19 3.45 18.55 3 18 3C17.45 3 17 3.45 17 4V5H16C15.45 5 15 5.45 15 6C15 6.55 15.45 7 16 7Z" fill="#323949"/>
<path d="M8.7002 16V11C8.7002 10.6157 8.38431 10.2998 8 10.2998C7.61569 10.2998 7.2998 10.6157 7.2998 11V16C7.2998 16.3843 7.61569 16.7002 8 16.7002V17C7.45 17 7 16.55 7 16V11C7 10.45 7.45 10 8 10C8.55 10 9 10.45 9 11V16C9 16.55 8.55 17 8 17V16.7002C8.38431 16.7002 8.7002 16.3843 8.7002 16ZM12.7002 16V8C12.7002 7.61569 12.3843 7.2998 12 7.2998C11.6157 7.2998 11.2998 7.61569 11.2998 8V16C11.2998 16.3843 11.6157 16.7002 12 16.7002V17C11.45 17 11 16.55 11 16V8C11 7.45 11.45 7 12 7C12.55 7 13 7.45 13 8V16C13 16.55 12.55 17 12 17V16.7002C12.3843 16.7002 12.7002 16.3843 12.7002 16ZM17 8V7H16V6.7002H17.2998V8C17.2998 8.38431 17.6157 8.7002 18 8.7002V9C17.45 9 17 8.55 17 8ZM18.7002 8V6.7002H20V7H19V8C19 8.55 18.55 9 18 9V8.7002C18.3843 8.7002 18.7002 8.38431 18.7002 8ZM20.7002 6C20.7002 5.61569 20.3843 5.2998 20 5.2998H18.7002V4C18.7002 3.61569 18.3843 3.2998 18 3.2998C17.6157 3.2998 17.2998 3.61569 17.2998 4V5.2998H16C15.6157 5.2998 15.2998 5.61569 15.2998 6C15.2998 6.38431 15.6157 6.7002 16 6.7002V7C15.45 7 15 6.55 15 6C15 5.45 15.45 5 16 5H17V4C17 3.45 17.45 3 18 3C18.55 3 19 3.45 19 4V5H20C20.55 5 21 5.45 21 6C21 6.55 20.55 7 20 7V6.7002C20.3843 6.7002 20.7002 6.38431 20.7002 6Z" fill="#323949"/>
</svg>
