<svg width="20" height="20" viewBox="0 0 20 20" fill="none" xmlns="http://www.w3.org/2000/svg">
<g clip-path="url(#clip0_30_3633)">
<path d="M17.585 9.99976C17.5848 5.81175 14.189 2.41675 10.001 2.41675C5.81308 2.41692 2.41814 5.81185 2.41797 9.99976C2.41797 14.1878 5.81297 17.5836 10.001 17.5837C14.1891 17.5837 17.585 14.1879 17.585 9.99976ZM10.0098 12.5837C10.4239 12.5838 10.7598 12.9196 10.7598 13.3337C10.7596 13.7478 10.4238 14.0837 10.0098 14.0837H10.001C9.58702 14.0836 9.25115 13.7477 9.25098 13.3337C9.25098 12.9196 9.58691 12.5839 10.001 12.5837H10.0098ZM9.25098 9.99976V6.66675C9.25098 6.25264 9.58691 5.91692 10.001 5.91675C10.4152 5.91675 10.751 6.25253 10.751 6.66675V9.99976C10.751 10.414 10.4152 10.7498 10.001 10.7498C9.58691 10.7496 9.25098 10.4139 9.25098 9.99976ZM19.085 9.99976C19.085 15.0163 15.0176 19.0837 10.001 19.0837C4.98454 19.0836 0.917969 15.0162 0.917969 9.99976C0.918144 4.98343 4.98465 0.916924 10.001 0.916748C15.0175 0.916748 19.0848 4.98332 19.085 9.99976Z" fill="#323949"/>
</g>
<defs>
<clipPath id="clip0_30_3633">
<rect width="20" height="20" fill="white"/>
</clipPath>
</defs>
</svg>
