<svg width="20" height="14" viewBox="0 0 20 14" fill="none" xmlns="http://www.w3.org/2000/svg">
<path d="M17 12.25C17.4142 12.25 17.75 12.5858 17.75 13C17.75 13.4142 17.4142 13.75 17 13.75H3C2.58579 13.75 2.25 13.4142 2.25 13C2.25 12.5858 2.58579 12.25 3 12.25H17ZM15 6.25C15.4142 6.25 15.75 6.58579 15.75 7C15.75 7.41421 15.4142 7.75 15 7.75H5C4.58579 7.75 4.25 7.41421 4.25 7C4.25 6.58579 4.58579 6.25 5 6.25H15ZM19 0.25C19.4142 0.25 19.75 0.585786 19.75 1C19.75 1.41421 19.4142 1.75 19 1.75H1C0.585786 1.75 0.25 1.41421 0.25 1C0.25 0.585786 0.585786 0.25 1 0.25H19Z" fill="#323949"/>
</svg>
