<svg width="22" height="21" viewBox="0 0 22 21" fill="none" xmlns="http://www.w3.org/2000/svg">
<path d="M20.25 2.78125C20.2499 2.20488 19.789 1.75 19.2354 1.75H2.76465C2.21175 1.75 1.75015 2.20518 1.75 2.78125V5.15625C1.75 5.73275 2.21088 6.18848 2.76465 6.18848H19.2354C19.7883 6.18848 20.25 5.73245 20.25 5.15625V2.78125ZM3.51465 16.4385C3.51476 17.1857 3.80856 17.9012 4.33008 18.4268H4.33105C4.86038 18.9588 5.56435 19.2516 6.29199 19.25H15.7061C16.4408 19.25 17.1465 18.9554 17.668 18.4287L17.6699 18.4268C17.9254 18.1706 18.1299 17.8625 18.2705 17.5205C18.4108 17.1791 18.4841 16.8109 18.4854 16.4385V7.68848H3.51465V16.4385ZM21.75 5.15625C21.75 6.28642 21.0109 7.25122 19.9854 7.57324V16.4404C19.9839 17.0067 19.8729 17.5673 19.6582 18.0898C19.4438 18.6116 19.1293 19.0849 18.7334 19.4824L18.7344 19.4834C17.9327 20.2932 16.8436 20.75 15.7061 20.75H6.29395V20.749C5.15923 20.7512 4.07363 20.2954 3.26758 19.4854L3.2666 19.4844C2.46361 18.6758 2.01476 17.5793 2.01465 16.4385V7.57324C0.988483 7.2513 0.25 6.28635 0.25 5.15625V2.78125C0.250149 1.39052 1.36962 0.25 2.76465 0.25H19.2354C20.6318 0.25 21.7499 1.39082 21.75 2.78125V5.15625Z" fill="#323949"/>
<path d="M10.2499 10C10.2499 9.58579 10.5857 9.25 10.9999 9.25C11.4141 9.25 11.7499 9.58579 11.7499 10V14.5195L13.4931 12.9209C13.7983 12.6412 14.2727 12.6617 14.5526 12.9668C14.8326 13.272 14.8119 13.7464 14.5067 14.0264L11.9335 16.3867C11.8056 16.5044 11.6571 16.5946 11.498 16.6553C11.3698 16.7041 11.2353 16.7325 11.0995 16.7422C11.0669 16.7465 11.0337 16.75 10.9999 16.75C10.9657 16.75 10.9323 16.7466 10.8993 16.7422C10.7639 16.7325 10.6298 16.704 10.5019 16.6553C10.3427 16.5946 10.1943 16.5044 10.0663 16.3867L7.49307 14.0264C7.18792 13.7464 7.16722 13.272 7.44717 12.9668C7.72709 12.6617 8.20152 12.6412 8.50674 12.9209L10.2499 14.5195V10Z" fill="#323949"/>
</svg>
