<svg width="24" height="24" viewBox="0 0 24 24" fill="none" xmlns="http://www.w3.org/2000/svg">
<path d="M21.25 4.78125C21.2499 4.20488 20.789 3.75 20.2354 3.75H3.76465C3.21175 3.75 2.75015 4.20518 2.75 4.78125V7.15625C2.75 7.73275 3.21088 8.18848 3.76465 8.18848H20.2354C20.7883 8.18848 21.25 7.73245 21.25 7.15625V4.78125ZM4.51465 18.4385C4.51476 19.1857 4.80856 19.9012 5.33008 20.4268H5.33105C5.86038 20.9588 6.56435 21.2516 7.29199 21.25H16.7061C17.4408 21.25 18.1465 20.9554 18.668 20.4287L18.6699 20.4268C18.9254 20.1706 19.1299 19.8625 19.2705 19.5205C19.4108 19.1791 19.4841 18.8109 19.4854 18.4385V9.68848H4.51465V18.4385ZM22.75 7.15625C22.75 8.28642 22.0109 9.25122 20.9854 9.57324V18.4404C20.9839 19.0067 20.8729 19.5673 20.6582 20.0898C20.4438 20.6116 20.1293 21.0849 19.7334 21.4824L19.7344 21.4834C18.9327 22.2932 17.8436 22.75 16.7061 22.75H7.29395V22.749C6.15923 22.7512 5.07363 22.2954 4.26758 21.4854L4.2666 21.4844C3.46361 20.6758 3.01476 19.5793 3.01465 18.4385V9.57324C1.98848 9.2513 1.25 8.28635 1.25 7.15625V4.78125C1.25015 3.39052 2.36962 2.25 3.76465 2.25H20.2354C21.6318 2.25 22.7499 3.39082 22.75 4.78125V7.15625Z" fill="#323949"/>
<path d="M11.2499 12C11.2499 11.5858 11.5857 11.25 11.9999 11.25C12.4141 11.25 12.7499 11.5858 12.7499 12V16.5195L14.4931 14.9209C14.7983 14.6412 15.2727 14.6617 15.5526 14.9668C15.8326 15.272 15.8119 15.7464 15.5067 16.0264L12.9335 18.3867C12.8056 18.5044 12.6571 18.5946 12.498 18.6553C12.3698 18.7041 12.2353 18.7325 12.0995 18.7422C12.0669 18.7465 12.0337 18.75 11.9999 18.75C11.9657 18.75 11.9323 18.7466 11.8993 18.7422C11.7639 18.7325 11.6298 18.704 11.5019 18.6553C11.3427 18.5946 11.1943 18.5044 11.0663 18.3867L8.49307 16.0264C8.18792 15.7464 8.16722 15.272 8.44717 14.9668C8.72709 14.6617 9.20152 14.6412 9.50674 14.9209L11.2499 16.5195V12Z" fill="#323949"/>
</svg>
