<svg width="19" height="19" viewBox="0 0 19 19" fill="none" xmlns="http://www.w3.org/2000/svg">
<path d="M3.75916 15.8331V10.2915C3.75916 9.60908 4.03043 8.95484 4.51294 8.47233C4.99546 7.98981 5.6497 7.71854 6.33208 7.71854H14.3987L11.4539 10.6633C11.2221 10.8952 11.2221 11.2711 11.4539 11.5029C11.6858 11.7348 12.0617 11.7348 12.2935 11.5029L16.2519 7.54459C16.4837 7.31272 16.4837 6.93687 16.2519 6.70499L12.2935 2.74666C12.0617 2.51479 11.6858 2.51479 11.4539 2.74666C11.2221 2.97853 11.2221 3.35438 11.4539 3.58626L14.3987 6.53104H6.33208C5.33475 6.53104 4.37856 6.92751 3.67335 7.63273C2.96813 8.33794 2.57166 9.29413 2.57166 10.2915V15.8331C2.57166 16.161 2.83749 16.4269 3.16541 16.4269C3.49333 16.4269 3.75916 16.161 3.75916 15.8331Z" fill="#323949"/>
</svg>
