<svg width="18" height="18" viewBox="0 0 18 18" fill="none" xmlns="http://www.w3.org/2000/svg">
<path d="M16.2499 16.9999V9.99994C16.2499 9.13799 15.9073 8.31158 15.2978 7.70209C14.6883 7.0926 13.8619 6.74994 12.9999 6.74994H2.81049L6.53022 10.4697C6.82311 10.7626 6.82311 11.2373 6.53022 11.5302C6.23732 11.8231 5.76256 11.8231 5.46967 11.5302L0.46967 6.53022C0.176777 6.23732 0.176777 5.76256 0.46967 5.46967L5.46967 0.46967C5.76256 0.176777 6.23732 0.176777 6.53022 0.46967C6.82311 0.762563 6.82311 1.23732 6.53022 1.53022L2.81049 5.24994H12.9999C14.2597 5.24994 15.4675 5.75075 16.3583 6.64154C17.2491 7.53234 17.7499 8.74017 17.7499 9.99994V16.9999C17.7499 17.4142 17.4142 17.7499 16.9999 17.7499C16.5857 17.7499 16.2499 17.4142 16.2499 16.9999Z" fill="#323949"/>
</svg>
