<svg width="24" height="24" viewBox="0 0 24 24" fill="none" xmlns="http://www.w3.org/2000/svg">
<path d="M19.2499 19.9999V12.9999C19.2499 12.138 18.9073 11.3116 18.2978 10.7021C17.6883 10.0926 16.8619 9.74994 15.9999 9.74994H5.81049L9.53022 13.4697C9.82311 13.7626 9.82311 14.2373 9.53022 14.5302C9.23732 14.8231 8.76256 14.8231 8.46967 14.5302L3.46967 9.53022C3.17678 9.23732 3.17678 8.76256 3.46967 8.46967L8.46967 3.46967C8.76256 3.17678 9.23732 3.17678 9.53022 3.46967C9.82311 3.76256 9.82311 4.23732 9.53022 4.53022L5.81049 8.24994H15.9999C17.2597 8.24994 18.4675 8.75075 19.3583 9.64154C20.2491 10.5323 20.7499 11.7402 20.7499 12.9999V19.9999C20.7499 20.4142 20.4142 20.7499 19.9999 20.7499C19.5857 20.7499 19.2499 20.4142 19.2499 19.9999Z" fill="#323949"/>
</svg>
