<svg width="15" height="15" viewBox="0 0 15 15" fill="none" xmlns="http://www.w3.org/2000/svg">
<path d="M1.75916 13.8331V8.29146C1.75916 7.60908 2.03043 6.95484 2.51294 6.47233C2.99546 5.98981 3.6497 5.71854 4.33208 5.71854H12.3987L9.45394 8.66333C9.22207 8.8952 9.22207 9.27105 9.45394 9.50293C9.68582 9.7348 10.0617 9.7348 10.2935 9.50293L14.2519 5.54459C14.4837 5.31272 14.4837 4.93687 14.2519 4.70499L10.2935 0.746659C10.0617 0.514785 9.68582 0.514785 9.45394 0.746659C9.22207 0.978533 9.22207 1.35438 9.45394 1.58626L12.3987 4.53104H4.33208C3.33475 4.53104 2.37856 4.92751 1.67335 5.63273C0.968131 6.33794 0.571661 7.29413 0.571661 8.29146V13.8331C0.571661 14.161 0.837492 14.4269 1.16541 14.4269C1.49333 14.4269 1.75916 14.161 1.75916 13.8331Z" fill="#323949"/>
</svg>
