<svg width="20" height="20" viewBox="0 0 20 20" fill="none" xmlns="http://www.w3.org/2000/svg">
<path fill-rule="evenodd" clip-rule="evenodd" d="M5 4.20977C5 3.26598 5.80889 2.5 6.80556 2.5H10.4693C12.6721 2.5 14.4405 4.20977 14.4405 6.29862C14.4421 7.29756 14.0293 8.25714 13.2911 8.97075C14.0466 9.28345 14.6895 9.79794 15.141 10.4513C15.5925 11.1046 15.8331 11.8684 15.8333 12.6492C15.8311 13.7163 15.3816 14.7388 14.5836 15.4922C13.7855 16.2455 12.7042 16.668 11.5774 16.6667H6.80556C6.32669 16.6667 5.86744 16.4865 5.52884 16.1659C5.19023 15.8452 5 15.4104 5 14.9569V4.20977ZM6.54762 10.0972V14.9569C6.54762 15.0917 6.66317 15.2011 6.80556 15.2011H11.5774C12.2938 15.2024 12.9814 14.9344 13.4892 14.4559C13.9971 13.9774 14.2835 13.3276 14.2857 12.6492C14.2835 11.9708 13.9971 11.321 13.4892 10.8425C12.9814 10.364 12.2938 10.0959 11.5774 10.0972H6.54762ZM6.54762 8.63172H10.4693C11.7992 8.63172 12.8929 7.59609 12.8929 6.29862C12.8929 5.00115 11.7992 3.96552 10.4693 3.96552H6.80556C6.73715 3.96552 6.67154 3.99125 6.62317 4.03706C6.57479 4.08286 6.54762 4.14499 6.54762 4.20977V8.63172Z" fill="#323949"/>
<path d="M10.4697 2.5C12.6723 2.50023 14.4404 4.21012 14.4404 6.29883C14.442 7.2977 14.0292 8.25715 13.291 8.9707C14.0464 9.28336 14.6891 9.79797 15.1406 10.4512C15.5921 11.1045 15.8328 11.8686 15.833 12.6494C15.8308 13.7163 15.3819 14.7389 14.584 15.4922C13.7859 16.2455 12.704 16.6683 11.5771 16.667H6.80566C6.32695 16.667 5.86787 16.4865 5.5293 16.166C5.19072 15.8454 5.00004 15.4104 5 14.957V4.20996C5 3.26617 5.809 2.5 6.80566 2.5H10.4697ZM6.54785 14.957C6.54793 15.0918 6.66333 15.2012 6.80566 15.2012H11.5771C12.2935 15.2025 12.9814 14.9345 13.4893 14.4561C13.997 13.9776 14.2839 13.3277 14.2861 12.6494C14.2839 11.9711 13.997 11.3213 13.4893 10.8428C12.9814 10.3643 12.2935 10.0964 11.5771 10.0977H6.54785V14.957ZM5.7998 9.81445C5.87597 9.61314 6.03034 9.45033 6.22656 9.36426C6.0303 9.27811 5.8759 9.1155 5.7998 8.91406V9.81445ZM12.54 8.69629C12.2081 8.96627 11.822 9.17303 11.4014 9.29688H11.5771C11.9469 9.29633 12.3118 9.35242 12.6592 9.45996C12.5831 9.3617 12.5288 9.24596 12.5049 9.12012C12.4775 8.97609 12.4912 8.82989 12.54 8.69629ZM6.80566 3.96582C6.73726 3.96582 6.67142 3.9913 6.62305 4.03711C6.57473 4.08291 6.54785 4.14522 6.54785 4.20996V8.63184H10.4697C11.7994 8.63161 12.8925 7.59606 12.8926 6.29883C12.8926 5.0015 11.7994 3.96605 10.4697 3.96582H6.80566Z" fill="#323949"/>
</svg>
