<svg width="11" height="15" viewBox="0 0 11 15" fill="none" xmlns="http://www.w3.org/2000/svg">
<path fill-rule="evenodd" clip-rule="evenodd" d="M0 2.20977C0 1.26598 0.808889 0.5 1.80556 0.5H5.46929C7.67206 0.5 9.44048 2.20977 9.44048 4.29862C9.44206 5.29756 9.02931 6.25714 8.29111 6.97075C9.04664 7.28345 9.68951 7.79794 10.141 8.45127C10.5925 9.10459 10.8331 9.8684 10.8333 10.6492C10.8311 11.7163 10.3816 12.7388 9.58357 13.4922C8.78551 14.2455 7.70423 14.668 6.57738 14.6667H1.80556C1.32669 14.6667 0.867442 14.4865 0.528835 14.1659C0.190228 13.8452 0 13.4104 0 12.9569V2.20977ZM1.54762 8.09724V12.9569C1.54762 13.0917 1.66317 13.2011 1.80556 13.2011H6.57738C7.29377 13.2024 7.98141 12.9344 8.48923 12.4559C8.99706 11.9774 9.28353 11.3276 9.28571 10.6492C9.28353 9.97081 8.99706 9.32099 8.48923 8.84249C7.98141 8.36399 7.29377 8.09594 6.57738 8.09724H1.54762ZM1.54762 6.63172H5.46929C6.79921 6.63172 7.89286 5.59609 7.89286 4.29862C7.89286 3.00115 6.79921 1.96552 5.46929 1.96552H1.80556C1.73715 1.96552 1.67154 1.99125 1.62317 2.03706C1.57479 2.08286 1.54762 2.14499 1.54762 2.20977V6.63172Z" fill="#323949"/>
<path d="M5.46973 0.5C7.6723 0.500228 9.44043 2.21012 9.44043 4.29883C9.44196 5.2977 9.02917 6.25715 8.29102 6.9707C9.04645 7.28336 9.68911 7.79797 10.1406 8.45117C10.5921 9.1045 10.8328 9.86862 10.833 10.6494C10.8308 11.7163 10.3819 12.7389 9.58398 13.4922C8.78593 14.2455 7.70399 14.6683 6.57715 14.667H1.80566C1.32695 14.667 0.867875 14.4865 0.529297 14.166C0.190724 13.8454 3.82776e-05 13.4104 0 12.957V2.20996C0 1.26617 0.808997 0.5 1.80566 0.5H5.46973ZM1.54785 12.957C1.54793 13.0918 1.66333 13.2012 1.80566 13.2012H6.57715C7.29351 13.2025 7.98144 12.9345 8.48926 12.4561C8.99703 11.9776 9.28389 11.3277 9.28613 10.6494C9.28395 9.9711 8.99698 9.32126 8.48926 8.84277C7.98144 8.36427 7.29354 8.09636 6.57715 8.09766H1.54785V12.957ZM0.799805 7.81445C0.875971 7.61314 1.03034 7.45033 1.22656 7.36426C1.0303 7.27811 0.875897 7.1155 0.799805 6.91406V7.81445ZM7.54004 6.69629C7.20808 6.96627 6.82203 7.17303 6.40137 7.29688H6.57715C6.94686 7.29633 7.31182 7.35242 7.65918 7.45996C7.58311 7.3617 7.52883 7.24596 7.50488 7.12012C7.47752 6.97609 7.49122 6.82989 7.54004 6.69629ZM1.80566 1.96582C1.73726 1.96582 1.67142 1.9913 1.62305 2.03711C1.57473 2.08291 1.54785 2.14522 1.54785 2.20996V6.63184H5.46973C6.79938 6.63161 7.89246 5.59606 7.89258 4.29883C7.89258 3.0015 6.79945 1.96605 5.46973 1.96582H1.80566Z" fill="#323949"/>
</svg>
