<svg width="24" height="24" viewBox="0 0 24 24" fill="none" xmlns="http://www.w3.org/2000/svg">
<path d="M3.47194 21.9951V18.4453C3.47194 17.883 3.39995 17.4863 3.26784 17.1162C3.12972 16.7293 2.91759 16.3434 2.59011 15.79V15.7891C1.72558 14.3253 1.26283 12.6589 1.25026 10.959C1.23774 9.25911 1.67508 7.58569 2.51784 6.10938C3.36059 4.63318 4.57905 3.40619 6.04909 2.55273C7.51932 1.69923 9.18989 1.24978 10.8899 1.25C13.4456 1.2504 15.897 2.26533 17.7044 4.07227C19.5119 5.87937 20.5277 8.33079 20.5286 10.8867C20.5286 11.5052 20.5307 11.717 20.5442 11.8086L20.5852 11.9873C20.6409 12.1668 20.7403 12.3587 20.886 12.6436L22.6673 16.0977C22.759 16.2758 22.7753 16.4833 22.7132 16.6738C22.6509 16.8644 22.5155 17.0226 22.3362 17.1123L20.9358 17.8115L20.9348 17.8125C20.7205 17.9194 20.6052 17.9781 20.5227 18.0293C20.4867 18.0516 20.4685 18.0651 20.4602 18.0723C20.4536 18.078 20.4519 18.0811 20.4505 18.083C20.4485 18.0855 20.4373 18.0975 20.4182 18.1631C20.3933 18.249 20.3702 18.3659 20.3284 18.5889V18.5918L20.3206 18.6338C20.2307 19.1094 20.1268 19.659 19.969 20.1768C19.8115 20.6936 19.5829 21.2383 19.2073 21.6855L19.2063 21.6865C18.9387 22.0036 18.6077 22.2611 18.2366 22.4434L18.2356 22.4443C17.8893 22.6134 17.5292 22.6817 17.1389 22.7139C16.76 22.7451 16.2989 22.7451 15.7444 22.7451C15.2438 22.7451 14.6865 22.7573 14.1516 22.7451H14.1497C12.465 22.7031 11.2503 21.2892 11.2503 19.7051C11.2503 19.2909 11.5861 18.9552 12.0003 18.9551C12.4145 18.9551 12.7503 19.2909 12.7503 19.7051C12.7503 20.5468 13.3857 21.225 14.1868 21.2451H14.1858C14.7007 21.2569 15.1952 21.2451 15.7444 21.2451C16.3235 21.2451 16.7127 21.2447 17.0159 21.2197C17.3079 21.1957 17.4627 21.1517 17.5774 21.0957C17.7634 21.0041 17.9279 20.876 18.0598 20.7197C18.2498 20.4931 18.4043 20.1663 18.5344 19.7393C18.6642 19.3131 18.7539 18.8454 18.8469 18.3535V18.3525L18.8548 18.3105C18.9227 17.9482 18.9836 17.5361 19.2522 17.1797C19.523 16.8205 19.92 16.6417 20.2649 16.4697L20.9856 16.1094L19.553 13.3311L19.552 13.3281C19.3932 13.0176 19.1408 12.565 19.0608 12.0303V12.0293C19.0264 11.7967 19.0286 11.4277 19.0286 10.8877L19.0178 10.4834C18.9173 8.47236 18.0745 6.56423 16.6438 5.13379C15.1175 3.60786 13.0472 2.75024 10.8889 2.75C9.45383 2.74988 8.04417 3.1292 6.803 3.84961C5.56158 4.57028 4.53221 5.6069 3.82057 6.85352C3.10897 8.10011 2.73965 9.51288 2.75026 10.9482C2.76089 12.3835 3.15121 13.7905 3.88112 15.0264L4.11647 15.4307C4.34237 15.8284 4.537 16.2091 4.68093 16.6123C4.87874 17.1666 4.97194 17.7368 4.97194 18.4453V21.9951C4.97188 22.4093 4.63612 22.7451 4.22194 22.7451C3.80798 22.7449 3.472 22.4091 3.47194 21.9951Z" fill="#323949"/>
<path d="M9.75357 8.29685C9.75349 7.78084 9.49431 7.3288 9.09927 7.06247V7.06149C8.5235 6.67288 7.82593 6.79651 7.32193 7.26657C6.82461 7.73061 6.64411 8.4147 7.01919 9.05368C7.14519 9.26846 7.15681 9.53211 7.04947 9.75681C6.94206 9.98144 6.72931 10.1379 6.48306 10.1748C5.97611 10.2509 5.71662 10.653 5.75259 11.1562C5.78848 11.6566 6.09903 12.0143 6.6188 12.0146C6.7655 12.0146 6.91067 11.98 7.04068 11.9121C7.17047 11.8441 7.2822 11.7462 7.36587 11.6259C7.60242 11.2859 8.06979 11.2019 8.40982 11.4384C8.74977 11.675 8.83378 12.1424 8.59732 12.4824C8.37545 12.8013 8.07931 13.0622 7.73501 13.2422C7.39081 13.422 7.00815 13.5154 6.61978 13.5156C5.13294 13.5156 4.33484 12.3558 4.2565 11.2636C4.19625 10.4226 4.55346 9.47912 5.39224 8.99118C5.13212 7.8997 5.57492 6.84468 6.29947 6.16892C7.02576 5.49176 8.11927 5.11858 9.18521 5.4531C9.89073 4.43827 11.1072 4.10601 12.1608 4.30759C13.2039 4.50721 14.2004 5.25095 14.4948 6.43552C15.197 6.46283 15.7719 6.75543 16.1667 7.21677C16.5678 7.68564 16.7496 8.28537 16.7497 8.85642C16.7497 9.42751 16.5678 10.0271 16.1667 10.4961C15.8871 10.8228 15.5163 11.0626 15.0749 11.1865C14.9854 11.6742 14.796 12.1467 14.486 12.542C14.0231 13.132 13.3223 13.5156 12.445 13.5156C12.0448 13.5157 11.7741 13.6758 11.5856 13.916C11.3821 14.1754 11.2536 14.562 11.2536 15C11.2536 15.4141 10.9177 15.7499 10.5036 15.75C10.0894 15.75 9.75357 15.4142 9.75357 15C9.75359 14.292 9.95701 13.5612 10.4049 12.9902C10.8677 12.4003 11.5678 12.0157 12.445 12.0156C12.8454 12.0156 13.1167 11.8564 13.3053 11.6162C13.4091 11.484 13.4918 11.318 13.5495 11.1299C13.2617 11.0226 12.9993 10.8636 12.776 10.6631C12.468 10.3862 12.4426 9.91159 12.7194 9.60349C12.9962 9.29549 13.4709 9.27009 13.779 9.54685C13.9431 9.69428 14.1554 9.78217 14.3874 9.7822C14.7111 9.7822 14.9042 9.66399 15.027 9.52048C15.1632 9.36109 15.2497 9.1229 15.2497 8.85642C15.2496 8.5899 15.1633 8.35171 15.027 8.19235C14.9043 8.04897 14.7115 7.93085 14.3883 7.93064C14.2737 7.9312 14.1732 7.95003 14.0827 7.98239C13.8478 8.06627 13.5862 8.02776 13.3854 7.87985C13.1847 7.73189 13.0702 7.49329 13.0807 7.24411C13.1144 6.43801 12.5771 5.91389 11.8786 5.78024C11.3307 5.67554 10.7897 5.83093 10.4547 6.26169C10.9503 6.79508 11.2535 7.51076 11.2536 8.29685C11.2536 8.71102 10.9177 9.04678 10.5036 9.04685C10.0894 9.04685 9.75357 8.71106 9.75357 8.29685Z" fill="#323949"/>
</svg>
