<svg width="22" height="22" viewBox="0 0 22 22" fill="none" xmlns="http://www.w3.org/2000/svg">
<path d="M2.47194 20.9951V17.4453C2.47194 16.883 2.39995 16.4863 2.26784 16.1162C2.12972 15.7293 1.91759 15.3434 1.59011 14.79V14.7891C0.72558 13.3253 0.262832 11.6589 0.250261 9.95898C0.237742 8.25911 0.675081 6.58569 1.51784 5.10938C2.36059 3.63318 3.57905 2.40619 5.04909 1.55273C6.51932 0.699225 8.18989 0.24978 9.88991 0.25C12.4456 0.250398 14.897 1.26533 16.7044 3.07227C18.5119 4.87937 19.5277 7.33079 19.5286 9.88672C19.5286 10.5052 19.5307 10.717 19.5442 10.8086L19.5852 10.9873C19.6409 11.1668 19.7403 11.3587 19.886 11.6436L21.6673 15.0977C21.759 15.2758 21.7753 15.4833 21.7132 15.6738C21.6509 15.8644 21.5155 16.0226 21.3362 16.1123L19.9358 16.8115L19.9348 16.8125C19.7205 16.9194 19.6052 16.9781 19.5227 17.0293C19.4867 17.0516 19.4685 17.0651 19.4602 17.0723C19.4536 17.078 19.4519 17.0811 19.4505 17.083C19.4485 17.0855 19.4373 17.0975 19.4182 17.1631C19.3933 17.249 19.3702 17.3659 19.3284 17.5889V17.5918L19.3206 17.6338C19.2307 18.1094 19.1268 18.659 18.969 19.1768C18.8115 19.6936 18.5829 20.2383 18.2073 20.6855L18.2063 20.6865C17.9387 21.0036 17.6077 21.2611 17.2366 21.4434L17.2356 21.4443C16.8893 21.6134 16.5292 21.6817 16.1389 21.7139C15.76 21.7451 15.2989 21.7451 14.7444 21.7451C14.2438 21.7451 13.6865 21.7573 13.1516 21.7451H13.1497C11.465 21.7031 10.2503 20.2892 10.2503 18.7051C10.2503 18.2909 10.5861 17.9552 11.0003 17.9551C11.4145 17.9551 11.7503 18.2909 11.7503 18.7051C11.7503 19.5468 12.3857 20.225 13.1868 20.2451H13.1858C13.7007 20.2569 14.1952 20.2451 14.7444 20.2451C15.3235 20.2451 15.7127 20.2447 16.0159 20.2197C16.3079 20.1957 16.4627 20.1517 16.5774 20.0957C16.7634 20.0041 16.9279 19.876 17.0598 19.7197C17.2498 19.4931 17.4043 19.1663 17.5344 18.7393C17.6642 18.3131 17.7539 17.8454 17.8469 17.3535V17.3525L17.8548 17.3105C17.9227 16.9482 17.9836 16.5361 18.2522 16.1797C18.523 15.8205 18.92 15.6417 19.2649 15.4697L19.9856 15.1094L18.553 12.3311L18.552 12.3281C18.3932 12.0176 18.1408 11.565 18.0608 11.0303V11.0293C18.0264 10.7967 18.0286 10.4277 18.0286 9.8877L18.0178 9.4834C17.9173 7.47236 17.0745 5.56423 15.6438 4.13379C14.1175 2.60786 12.0472 1.75024 9.88893 1.75C8.45383 1.74988 7.04417 2.1292 5.803 2.84961C4.56158 3.57028 3.53221 4.6069 2.82057 5.85352C2.10897 7.10011 1.73965 8.51288 1.75026 9.94824C1.76089 11.3835 2.15121 12.7905 2.88112 14.0264L3.11647 14.4307C3.34237 14.8284 3.537 15.2091 3.68093 15.6123C3.87874 16.1666 3.97194 16.7368 3.97194 17.4453V20.9951C3.97188 21.4093 3.63612 21.7451 3.22194 21.7451C2.80798 21.7449 2.472 21.4091 2.47194 20.9951Z" fill="#323949"/>
<path d="M8.75357 7.29685C8.75349 6.78084 8.49431 6.3288 8.09927 6.06247V6.06149C7.5235 5.67288 6.82593 5.79651 6.32193 6.26657C5.82461 6.73061 5.64411 7.4147 6.01919 8.05368C6.14519 8.26846 6.15681 8.53211 6.04947 8.75681C5.94206 8.98144 5.72931 9.1379 5.48306 9.17478C4.97611 9.2509 4.71662 9.65296 4.75259 10.1562C4.78848 10.6566 5.09903 11.0143 5.6188 11.0146C5.7655 11.0146 5.91067 10.98 6.04068 10.9121C6.17047 10.8441 6.2822 10.7462 6.36587 10.6259C6.60242 10.2859 7.06979 10.2019 7.40982 10.4384C7.74977 10.675 7.83378 11.1424 7.59732 11.4824C7.37545 11.8013 7.07931 12.0622 6.73501 12.2422C6.39081 12.422 6.00815 12.5154 5.61978 12.5156C4.13294 12.5156 3.33484 11.3558 3.2565 10.2636C3.19625 9.42264 3.55346 8.47912 4.39224 7.99118C4.13212 6.8997 4.57492 5.84468 5.29947 5.16892C6.02576 4.49176 7.11927 4.11858 8.18521 4.4531C8.89073 3.43827 10.1072 3.10601 11.1608 3.30759C12.2039 3.50721 13.2004 4.25095 13.4948 5.43552C14.197 5.46283 14.7719 5.75543 15.1667 6.21677C15.5678 6.68564 15.7496 7.28537 15.7497 7.85642C15.7497 8.42751 15.5678 9.02715 15.1667 9.49607C14.8871 9.82284 14.5163 10.0626 14.0749 10.1865C13.9854 10.6742 13.796 11.1467 13.486 11.542C13.0231 12.132 12.3223 12.5156 11.445 12.5156C11.0448 12.5157 10.7741 12.6758 10.5856 12.916C10.3821 13.1754 10.2536 13.562 10.2536 14C10.2536 14.4141 9.91773 14.7499 9.50357 14.75C9.08935 14.75 8.75357 14.4142 8.75357 14C8.75359 13.292 8.95701 12.5612 9.40494 11.9902C9.86774 11.4003 10.5678 11.0157 11.445 11.0156C11.8454 11.0156 12.1167 10.8564 12.3053 10.6162C12.4091 10.484 12.4918 10.318 12.5495 10.1299C12.2617 10.0226 11.9993 9.86363 11.776 9.66306C11.468 9.38624 11.4426 8.91159 11.7194 8.60349C11.9962 8.29549 12.4709 8.27009 12.779 8.54685C12.9431 8.69428 13.1554 8.78217 13.3874 8.7822C13.7111 8.7822 13.9042 8.66399 14.027 8.52048C14.1632 8.36109 14.2497 8.1229 14.2497 7.85642C14.2496 7.5899 14.1633 7.35171 14.027 7.19235C13.9043 7.04897 13.7115 6.93085 13.3883 6.93064C13.2737 6.9312 13.1732 6.95003 13.0827 6.98239C12.8478 7.06627 12.5862 7.02776 12.3854 6.87985C12.1847 6.73189 12.0702 6.49329 12.0807 6.24411C12.1144 5.43801 11.5771 4.91389 10.8786 4.78024C10.3307 4.67554 9.78971 4.83093 9.45474 5.26169C9.9503 5.79508 10.2535 6.51076 10.2536 7.29685C10.2536 7.71102 9.91773 8.04678 9.50357 8.04685C9.08935 8.04685 8.75357 7.71106 8.75357 7.29685Z" fill="#323949"/>
</svg>
