<svg width="17" height="17" viewBox="0 0 17 17" fill="none" xmlns="http://www.w3.org/2000/svg">
<path d="M7.19213 0.203113C9.03313 -0.0874212 10.9186 0.242061 12.5515 1.14061C14.1844 2.03916 15.4719 3.45534 16.2117 5.166C16.9514 6.87664 17.1011 8.78473 16.6374 10.5898C16.1737 12.395 15.1228 13.9953 13.6501 15.1377C12.1777 16.2798 10.3671 16.899 8.50366 16.8994C7.05801 16.9015 5.63965 16.5286 4.38452 15.8213L1.28784 16.8535C0.964437 16.9613 0.607012 16.8778 0.365963 16.6367C0.125051 16.3957 0.0415495 16.0391 0.149166 15.7158L1.18139 12.6162C0.343173 11.1256 -0.0236273 9.4115 0.139401 7.70214C0.316411 5.84689 1.10584 4.10278 2.38256 2.74511C3.65928 1.38758 5.35136 0.49366 7.19213 0.203113ZM11.6833 2.71776C10.4004 2.01184 8.91882 1.75219 7.47241 1.98046C6.02619 2.20878 4.69716 2.91196 3.69409 3.9785C2.69097 5.04523 2.07049 6.41537 1.93139 7.87303C1.79236 9.33082 2.14208 10.794 2.92553 12.0312C3.07005 12.2595 3.10465 12.5405 3.01928 12.7969L2.42456 14.5771L4.20581 13.9834L4.30346 13.957C4.53222 13.9085 4.77267 13.9505 4.97241 14.0771C6.02745 14.7467 7.25211 15.1015 8.50171 15.0996H8.50268C9.96703 15.0994 11.3896 14.6123 12.5466 13.7148C13.7036 12.8173 14.5299 11.5608 14.8943 10.1426C15.2586 8.72429 15.1405 7.22491 14.5593 5.88085C13.9781 4.53673 12.9663 3.42378 11.6833 2.71776Z" fill="#323949"/>
</svg>
