<svg width="24" height="24" viewBox="0 0 24 24" fill="none" xmlns="http://www.w3.org/2000/svg">
<path d="M10.1921 3.20311C12.0331 2.91258 13.9186 3.24206 15.5515 4.14061C17.1844 5.03916 18.4719 6.45534 19.2117 8.166C19.9514 9.87664 20.1011 11.7847 19.6374 13.5898C19.1737 15.395 18.1228 16.9953 16.6501 18.1377C15.1777 19.2798 13.3671 19.899 11.5037 19.8994C10.058 19.9015 8.63965 19.5286 7.38452 18.8213L4.28784 19.8535C3.96444 19.9613 3.60701 19.8778 3.36596 19.6367C3.12505 19.3957 3.04155 19.0391 3.14917 18.7158L4.18139 15.6162C3.34317 14.1256 2.97637 12.4115 3.1394 10.7021C3.31641 8.84689 4.10584 7.10278 5.38256 5.74511C6.65928 4.38758 8.35136 3.49366 10.1921 3.20311ZM14.6833 5.71776C13.4004 5.01184 11.9188 4.75219 10.4724 4.98046C9.02619 5.20878 7.69716 5.91196 6.69409 6.9785C5.69097 8.04523 5.07049 9.41537 4.93139 10.873C4.79236 12.3308 5.14208 13.794 5.92553 15.0312C6.07005 15.2595 6.10465 15.5405 6.01928 15.7969L5.42456 17.5771L7.20581 16.9834L7.30346 16.957C7.53222 16.9085 7.77267 16.9505 7.97241 17.0771C9.02745 17.7467 10.2521 18.1015 11.5017 18.0996H11.5027C12.967 18.0994 14.3895 17.6123 15.5466 16.7148C16.7036 15.8173 17.5299 14.5608 17.8943 13.1426C18.2586 11.7243 18.1405 10.2249 17.5593 8.88085C16.9781 7.53673 15.9663 6.42378 14.6833 5.71776Z" fill="#323949"/>
</svg>
