<svg width="24" height="24" viewBox="0 0 24 24" fill="none" xmlns="http://www.w3.org/2000/svg">
<path d="M18.1396 6.50269C18.1396 5.8231 17.8692 5.17171 17.3887 4.69116C16.9081 4.21062 16.2567 3.94026 15.5771 3.94019C14.8974 3.94019 14.2453 4.21054 13.7646 4.69116L6.15723 12.2976C5.3661 13.0888 4.92195 14.1621 4.92188 15.281C4.92188 16.3998 5.3662 17.4732 6.15723 18.2644C6.94849 19.0557 8.02259 19.5007 9.1416 19.5007C10.2604 19.5006 11.3339 19.0556 12.125 18.2644L19.7314 10.658C20.0243 10.3651 20.4991 10.3651 20.792 10.658C21.0849 10.9509 21.0849 11.4256 20.792 11.7185L13.1855 19.325C12.1131 20.3974 10.6583 21.0006 9.1416 21.0007C7.62476 21.0007 6.16925 20.3975 5.09668 19.325C4.02435 18.2524 3.42188 16.7977 3.42188 15.281C3.42195 13.7643 4.02425 12.3096 5.09668 11.2371L12.7041 3.63062C13.466 2.86869 14.4996 2.44019 15.5771 2.44019C16.6546 2.44026 17.6883 2.86876 18.4502 3.63062C19.2118 4.39242 19.6396 5.4255 19.6396 6.50269C19.6396 7.58007 19.2119 8.61383 18.4502 9.37573L10.834 16.9832C10.3827 17.4342 9.77086 17.6873 9.13281 17.6873C8.49476 17.6872 7.88289 17.4342 7.43164 16.9832C6.98035 16.5319 6.72656 15.9192 6.72656 15.281C6.72663 14.6429 6.98041 14.0311 7.43164 13.5798L14.459 6.5603C14.7519 6.26769 15.2268 6.26757 15.5195 6.5603C15.8123 6.85337 15.8126 7.32911 15.5195 7.62183L8.49121 14.6394C8.32129 14.8093 8.22663 15.0407 8.22656 15.281C8.22656 15.5214 8.3222 15.7526 8.49219 15.9226C8.66213 16.0924 8.89259 16.1872 9.13281 16.1873C9.37303 16.1873 9.60349 16.0924 9.77344 15.9226L17.3887 8.31519C17.8693 7.83456 18.1396 7.18239 18.1396 6.50269Z" fill="#323949"/>
</svg>
