<svg width="24" height="24" viewBox="0 0 24 24" fill="none" xmlns="http://www.w3.org/2000/svg">
<path d="M4.764 10.579C4.70042 10.6438 4.62456 10.6952 4.54085 10.7304C4.45715 10.7655 4.36728 10.7836 4.2765 10.7836C4.18572 10.7836 4.09585 10.7655 4.01215 10.7304C3.92844 10.6952 3.85258 10.6438 3.789 10.579C3.65959 10.4473 3.58707 10.2701 3.58707 10.0855C3.58707 9.90089 3.65959 9.72367 3.789 9.59201L9.82 3.50017C11.18 2.44419 12.548 1.93721 13.91 2.0062C15.626 2.0942 16.962 2.74819 18.096 3.82116C19.252 4.91513 20 6.47609 20 8.36804C20 9.82001 19.578 11.098 18.687 12.2319L10.184 20.9917C9.324 21.6967 8.368 22.0377 7.344 21.9967C6.044 21.9427 5.077 21.5227 4.358 20.8117C3.516 19.9807 3 18.9598 3 17.5868C3 16.4948 3.377 15.4869 4.155 14.5409L11.639 6.90008C12.239 6.2601 12.826 5.88011 13.426 5.78811C13.8265 5.72538 14.2362 5.76137 14.6196 5.89294C15.003 6.02451 15.3484 6.24769 15.626 6.54309C16.158 7.10608 16.386 7.80806 16.306 8.60704C16.251 9.15202 16.028 9.65401 15.618 10.135L8.738 17.1828C8.67483 17.2479 8.59935 17.2997 8.51596 17.3352C8.43256 17.3708 8.34292 17.3894 8.25226 17.3899C8.1616 17.3905 8.07173 17.373 7.9879 17.3385C7.90408 17.3039 7.82796 17.2531 7.764 17.1888C7.63378 17.058 7.56019 16.8812 7.55906 16.6966C7.55794 16.5119 7.62938 16.3343 7.758 16.2018L14.605 9.19002C14.805 8.95503 14.91 8.71803 14.935 8.46604C14.975 8.06605 14.879 7.77106 14.63 7.50807C14.5041 7.37352 14.347 7.2721 14.1726 7.21279C13.9982 7.15348 13.8118 7.13812 13.63 7.16807C13.387 7.20507 13.047 7.42607 12.628 7.87206L5.175 15.4789C4.638 16.1338 4.378 16.8288 4.378 17.5878C4.378 18.5418 4.723 19.2248 5.32 19.8138C5.795 20.2837 6.44 20.5637 7.4 20.6037C8.08 20.6307 8.71 20.4057 9.258 19.9617L17.655 11.312C18.3 10.485 18.622 9.51201 18.622 8.36904C18.622 6.88708 18.045 5.68511 17.154 4.84113C16.244 3.97915 15.204 3.47117 13.841 3.40117C12.833 3.34917 11.776 3.74116 10.724 4.54714L4.764 10.579Z" fill="#323949"/>
</svg>
