<svg width="19" height="19" viewBox="0 0 19 19" fill="none" xmlns="http://www.w3.org/2000/svg">
<path d="M15.1396 4.50269C15.1396 3.8231 14.8692 3.17171 14.3887 2.69116C13.9081 2.21062 13.2567 1.94026 12.5771 1.94019C11.8974 1.94019 11.2453 2.21054 10.7646 2.69116L3.15723 10.2976C2.3661 11.0888 1.92195 12.1621 1.92188 13.281C1.92188 14.3998 2.3662 15.4732 3.15723 16.2644C3.94849 17.0557 5.02259 17.5007 6.1416 17.5007C7.26044 17.5006 8.33385 17.0556 9.125 16.2644L16.7314 8.65796C17.0243 8.36507 17.4991 8.36507 17.792 8.65796C18.0849 8.95085 18.0849 9.42561 17.792 9.71851L10.1855 17.325C9.11309 18.3974 7.65827 19.0006 6.1416 19.0007C4.62476 19.0007 3.16925 18.3975 2.09668 17.325C1.02435 16.2524 0.421875 14.7977 0.421875 13.281C0.421946 11.7643 1.02425 10.3096 2.09668 9.23706L9.7041 1.63062C10.466 0.868687 11.4996 0.440186 12.5771 0.440186C13.6546 0.440264 14.6883 0.868756 15.4502 1.63062C16.2118 2.39242 16.6396 3.4255 16.6396 4.50269C16.6396 5.58007 16.2119 6.61383 15.4502 7.37573L7.83398 14.9832C7.38273 15.4342 6.77086 15.6873 6.13281 15.6873C5.49476 15.6872 4.88289 15.4342 4.43164 14.9832C3.98035 14.5319 3.72656 13.9192 3.72656 13.281C3.72663 12.6429 3.98041 12.0311 4.43164 11.5798L11.459 4.5603C11.7519 4.26769 12.2268 4.26757 12.5195 4.5603C12.8123 4.85337 12.8126 5.32911 12.5195 5.62183L5.49121 12.6394C5.32129 12.8093 5.22663 13.0407 5.22656 13.281C5.22656 13.5214 5.3222 13.7526 5.49219 13.9226C5.66213 14.0924 5.89259 14.1872 6.13281 14.1873C6.37303 14.1873 6.60349 14.0924 6.77344 13.9226L14.3887 6.31519C14.8693 5.83456 15.1396 5.18239 15.1396 4.50269Z" fill="#323949"/>
</svg>
