<svg width="22" height="22" viewBox="0 0 22 22" fill="none" xmlns="http://www.w3.org/2000/svg">
<path d="M20.25 11C20.25 5.89137 16.1086 1.75 11 1.75C5.89137 1.75 1.75 5.89137 1.75 11C1.75 16.1086 5.89137 20.25 11 20.25C16.1086 20.25 20.25 16.1086 20.25 11ZM10.25 5C10.25 4.58579 10.5858 4.25 11 4.25C11.4142 4.25 11.75 4.58579 11.75 5V10.5361L15.335 12.3291C15.7053 12.5143 15.8558 12.9646 15.6709 13.335C15.4857 13.7053 15.0354 13.8558 14.665 13.6709L10.665 11.6709C10.411 11.5439 10.25 11.2841 10.25 11V5ZM21.75 11C21.75 16.9371 16.9371 21.75 11 21.75C5.06294 21.75 0.25 16.9371 0.25 11C0.25 5.06294 5.06294 0.25 11 0.25C16.9371 0.25 21.75 5.06294 21.75 11Z" fill="#323949"/>
</svg>
