<svg width="24" height="24" viewBox="0 0 24 24" fill="none" xmlns="http://www.w3.org/2000/svg">
<path d="M12 4C10.6739 4 9.40215 4.52678 8.46447 5.46447C7.52678 6.40215 7 7.67392 7 9V11H6C5.22 11 4.195 11.302 3.38 11.964C2.598 12.6 2 13.572 2 15C2 16.414 2.615 17.388 3.42 18.032C4.256 18.702 5.286 19 6 19C6.973 19 8.239 18.985 9.263 18.479C9.748 18.239 10.163 17.894 10.466 17.382C10.772 16.865 11 16.112 11 15V13.914L9.5 15.414L8.086 14L12 10.086L15.914 14L14.5 15.414L13 13.914V15C13 16.387 12.714 17.51 12.188 18.4C11.7066 19.2108 10.9971 19.8619 10.148 20.272C8.674 21 6.979 21 6.056 21H6C4.832 21 3.362 20.548 2.17 19.593C0.943 18.613 0 17.086 0 15C0 12.928 0.903 11.4 2.12 10.411C2.95554 9.73913 3.94538 9.28614 5 9.093V9C5 7.14348 5.7375 5.36301 7.05025 4.05025C8.36301 2.7375 10.1435 2 12 2C13.8565 2 15.637 2.7375 16.9497 4.05025C18.2625 5.36301 19 7.14348 19 9V9.093C20.0546 9.28614 21.0445 9.73913 21.88 10.411C23.099 11.401 24 12.928 24 15C24 17.076 23.093 18.614 21.795 19.607C20.529 20.575 18.93 21 17.5 21H13.5V19H17.5C18.57 19 19.721 18.675 20.58 18.018C21.407 17.386 22 16.424 22 15C22 13.572 21.402 12.6 20.62 11.964C19.804 11.302 18.78 11 18 11H17V9C17 7.67392 16.4732 6.40215 15.5355 5.46447C14.5979 4.52678 13.3261 4 12 4Z" fill="#323949"/>
<path d="M6.05566 20.7998V21H6V20.7998H6.05566ZM22 15C22 13.6613 21.4747 12.723 20.7646 12.0869L20.6201 11.9639C19.8041 11.3019 18.78 11 18 11V10.7998C18.8241 10.7998 19.8931 11.1166 20.7461 11.8086L20.8984 11.9385C21.6477 12.6099 22.2002 13.6007 22.2002 15C22.2002 16.489 21.5755 17.5086 20.7012 18.1768C19.8015 18.8648 18.606 19.2002 17.5 19.2002H13.7002V20.7998H17.5V21H13.5V19H17.5C18.5032 19 19.5778 18.7148 20.416 18.1377L20.5801 18.0176C21.4069 17.3856 22 16.4239 22 15ZM23.7998 15C23.7998 12.9925 22.9295 11.5212 21.7539 10.5664V10.5654C20.9445 9.91491 19.9853 9.4771 18.9639 9.29004L18.7998 9.25977V9C18.7998 7.19653 18.0838 5.46665 16.8086 4.19141C15.5333 2.91616 13.8035 2.2002 12 2.2002C10.1965 2.2002 8.46665 2.91616 7.19141 4.19141C5.91616 5.46665 5.2002 7.19653 5.2002 9V9.25977L5.03613 9.29004C4.01445 9.47715 3.05463 9.91464 2.24512 10.5654L2.24609 10.5664C1.07244 11.5202 0.200195 12.9926 0.200195 15C0.200195 17.0188 1.11022 18.4903 2.29492 19.4365L2.51465 19.6045C3.62836 20.4161 4.94741 20.7998 6 20.7998V21C4.832 21 3.36192 20.5478 2.16992 19.5928C0.942999 18.6128 0 17.0859 0 15C0 13.0575 0.793505 11.5929 1.89551 10.6025L2.12012 10.4111C2.95565 9.73926 3.94538 9.28591 5 9.09277V9C5 7.14348 5.73705 5.36256 7.0498 4.0498C8.36256 2.73705 10.1435 2 12 2C13.8565 2 15.6374 2.73705 16.9502 4.0498C18.2629 5.36256 19 7.14348 19 9V9.09277C20.0546 9.28591 21.0443 9.73926 21.8799 10.4111C23.0989 11.4011 24 12.928 24 15C24 17.076 23.0929 18.6144 21.7949 19.6074L21.5537 19.7822C20.3297 20.6265 18.8406 21 17.5 21V20.7998C18.8941 20.7998 20.4485 20.3851 21.6738 19.4482C22.9246 18.4913 23.7998 17.0107 23.7998 15ZM12.7998 15V13.4316L13.1416 13.7725L14.5 15.1309L15.6309 14L12 10.3691L8.36914 14L9.5 15.1309L10.8584 13.7725L11.2002 13.4316V15C11.2002 16.1394 10.9657 16.9291 10.6377 17.4834C10.3122 18.0334 9.86611 18.4036 9.35156 18.6582C8.2792 19.1881 6.96591 19.2002 6 19.2002C5.24073 19.2002 4.16648 18.8869 3.29492 18.1885C2.44767 17.5107 1.7998 16.4811 1.7998 15C1.7998 13.5076 2.42857 12.4798 3.25391 11.8086C4.10602 11.1165 5.17604 10.7998 6 10.7998V11C5.22 11 4.19488 11.3019 3.37988 11.9639C2.59789 12.5999 2 13.572 2 15C2 16.414 2.61492 17.3882 3.41992 18.0322C4.25591 18.7022 5.28602 19 6 19C6.97298 19 8.2387 18.9845 9.2627 18.4785C9.74769 18.2385 10.1628 17.8938 10.4658 17.3818C10.7718 16.8648 11 16.112 11 15V13.9141L9.5 15.4141L8.08594 14L12 10.0859L15.9141 14L14.5 15.4141L13 13.9141V15C13 16.387 12.7145 17.5104 12.1885 18.4004L11.9971 18.6963C11.5272 19.3697 10.8914 19.9136 10.1484 20.2725C8.67444 21.0005 6.97866 21 6.05566 21V20.7998C6.9828 20.7998 8.63295 20.7974 10.0596 20.0928L10.0605 20.0918C10.8742 19.6988 11.5543 19.0748 12.0156 18.2979C12.5195 17.4452 12.7998 16.3595 12.7998 15ZM17 9C17 7.7568 16.5366 6.56173 15.7061 5.64453L15.5352 5.46484C14.5975 4.52716 13.3261 4 12 4C10.6739 4 9.40253 4.52716 8.46484 5.46484L8.29395 5.64453C7.46344 6.56173 7 7.7568 7 9V11H6V10.7998H6.7998V9C6.7998 7.62087 7.34805 6.29843 8.32324 5.32324C9.29843 4.34805 10.6209 3.7998 12 3.7998C13.3791 3.7998 14.7016 4.34805 15.6768 5.32324C16.6519 6.29843 17.2002 7.62087 17.2002 9V10.7998H18V11H17V9Z" fill="#323949"/>
</svg>
