<svg width="24" height="19" viewBox="0 0 24 19" fill="none" xmlns="http://www.w3.org/2000/svg">
<path d="M12 2C10.6739 2 9.40215 2.52678 8.46447 3.46447C7.52678 4.40215 7 5.67392 7 7V9H6C5.22 9 4.195 9.302 3.38 9.964C2.598 10.6 2 11.572 2 13C2 14.414 2.615 15.388 3.42 16.032C4.256 16.702 5.286 17 6 17C6.973 17 8.239 16.985 9.263 16.479C9.748 16.239 10.163 15.894 10.466 15.382C10.772 14.865 11 14.112 11 13V11.914L9.5 13.414L8.086 12L12 8.086L15.914 12L14.5 13.414L13 11.914V13C13 14.387 12.714 15.51 12.188 16.4C11.7066 17.2108 10.9971 17.8619 10.148 18.272C8.674 19 6.979 19 6.056 19H6C4.832 19 3.362 18.548 2.17 17.593C0.943 16.613 0 15.086 0 13C0 10.928 0.903 9.4 2.12 8.411C2.95554 7.73913 3.94538 7.28614 5 7.093V7C5 5.14348 5.7375 3.36301 7.05025 2.05025C8.36301 0.737498 10.1435 0 12 0C13.8565 0 15.637 0.737498 16.9497 2.05025C18.2625 3.36301 19 5.14348 19 7V7.093C20.0546 7.28614 21.0445 7.73913 21.88 8.411C23.099 9.401 24 10.928 24 13C24 15.076 23.093 16.614 21.795 17.607C20.529 18.575 18.93 19 17.5 19H13.5V17H17.5C18.57 17 19.721 16.675 20.58 16.018C21.407 15.386 22 14.424 22 13C22 11.572 21.402 10.6 20.62 9.964C19.804 9.302 18.78 9 18 9H17V7C17 5.67392 16.4732 4.40215 15.5355 3.46447C14.5979 2.52678 13.3261 2 12 2Z" fill="#323949"/>
<path d="M6.05566 18.7998V19H6V18.7998H6.05566ZM22 13C22 11.6613 21.4747 10.723 20.7646 10.0869L20.6201 9.96387C19.8041 9.30187 18.78 9 18 9V8.7998C18.8241 8.7998 19.8931 9.11655 20.7461 9.80859L20.8984 9.93848C21.6477 10.6099 22.2002 11.6007 22.2002 13C22.2002 14.489 21.5755 15.5086 20.7012 16.1768C19.8015 16.8648 18.606 17.2002 17.5 17.2002H13.7002V18.7998H17.5V19H13.5V17H17.5C18.5032 17 19.5778 16.7148 20.416 16.1377L20.5801 16.0176C21.4069 15.3856 22 14.4239 22 13ZM23.7998 13C23.7998 10.9925 22.9295 9.52116 21.7539 8.56641V8.56543C20.9445 7.91491 19.9853 7.4771 18.9639 7.29004L18.7998 7.25977V7C18.7998 5.19653 18.0838 3.46665 16.8086 2.19141C15.5333 0.916159 13.8035 0.200195 12 0.200195C10.1965 0.200195 8.46665 0.916159 7.19141 2.19141C5.91616 3.46665 5.2002 5.19653 5.2002 7V7.25977L5.03613 7.29004C4.01445 7.47715 3.05463 7.91464 2.24512 8.56543L2.24609 8.56641C1.07244 9.52023 0.200195 10.9926 0.200195 13C0.200195 15.0188 1.11022 16.4903 2.29492 17.4365L2.51465 17.6045C3.62836 18.4161 4.94741 18.7998 6 18.7998V19C4.832 19 3.36192 18.5478 2.16992 17.5928C0.942999 16.6128 0 15.0859 0 13C0 11.0575 0.793505 9.59291 1.89551 8.60254L2.12012 8.41113C2.95565 7.73926 3.94538 7.28591 5 7.09277V7C5 5.14348 5.73705 3.36256 7.0498 2.0498C8.36256 0.73705 10.1435 0 12 0C13.8565 0 15.6374 0.73705 16.9502 2.0498C18.2629 3.36256 19 5.14348 19 7V7.09277C20.0546 7.28591 21.0443 7.73926 21.8799 8.41113C23.0989 9.40113 24 10.928 24 13C24 15.076 23.0929 16.6144 21.7949 17.6074L21.5537 17.7822C20.3297 18.6265 18.8406 19 17.5 19V18.7998C18.8941 18.7998 20.4485 18.3851 21.6738 17.4482C22.9246 16.4913 23.7998 15.0107 23.7998 13ZM12.7998 13V11.4316L13.1416 11.7725L14.5 13.1309L15.6309 12L12 8.36914L8.36914 12L9.5 13.1309L10.8584 11.7725L11.2002 11.4316V13C11.2002 14.1394 10.9657 14.9291 10.6377 15.4834C10.3122 16.0334 9.86611 16.4036 9.35156 16.6582C8.2792 17.1881 6.96591 17.2002 6 17.2002C5.24073 17.2002 4.16648 16.8869 3.29492 16.1885C2.44768 15.5107 1.7998 14.4811 1.7998 13C1.7998 11.5076 2.42857 10.4798 3.25391 9.80859C4.10602 9.11648 5.17604 8.7998 6 8.7998V9C5.22 9 4.19488 9.30187 3.37988 9.96387C2.59789 10.5999 2 11.572 2 13C2 14.414 2.61492 15.3882 3.41992 16.0322C4.25591 16.7022 5.28602 17 6 17C6.97298 17 8.2387 16.9845 9.2627 16.4785C9.7477 16.2385 10.1628 15.8938 10.4658 15.3818C10.7718 14.8648 11 14.112 11 13V11.9141L9.5 13.4141L8.08594 12L12 8.08594L15.9141 12L14.5 13.4141L13 11.9141V13C13 14.387 12.7145 15.5104 12.1885 16.4004L11.9971 16.6963C11.5272 17.3697 10.8914 17.9136 10.1484 18.2725C8.67444 19.0005 6.97866 19 6.05566 19V18.7998C6.9828 18.7998 8.63295 18.7974 10.0596 18.0928L10.0605 18.0918C10.8742 17.6988 11.5543 17.0748 12.0156 16.2979C12.5195 15.4452 12.7998 14.3595 12.7998 13ZM17 7C17 5.7568 16.5366 4.56173 15.7061 3.64453L15.5352 3.46484C14.5975 2.52716 13.3261 2 12 2C10.6739 2 9.40253 2.52716 8.46484 3.46484L8.29395 3.64453C7.46344 4.56173 7 5.7568 7 7V9H6V8.7998H6.7998V7C6.7998 5.62087 7.34805 4.29843 8.32324 3.32324C9.29843 2.34805 10.6209 1.7998 12 1.7998C13.3791 1.7998 14.7016 2.34805 15.6768 3.32324C16.6519 4.29843 17.2002 5.62087 17.2002 7V8.7998H18V9H17V7Z" fill="#323949"/>
</svg>
