<svg width="22" height="18" viewBox="0 0 22 18" fill="none" xmlns="http://www.w3.org/2000/svg">
<path d="M12.7841 0.776265C12.9077 0.380925 13.3282 0.160566 13.7236 0.284077C14.1189 0.407621 14.3393 0.828188 14.2158 1.22353L9.21576 17.2235C9.09222 17.6189 8.67165 17.8392 8.27631 17.7157C7.88097 17.5922 7.66061 17.1716 7.78412 16.7763L12.7841 0.776265ZM4.46967 4.46962C4.76256 4.17673 5.23732 4.17673 5.53022 4.46962C5.82311 4.76252 5.82311 5.23728 5.53022 5.53017L2.06049 8.9999L5.53022 12.4696C5.82311 12.7625 5.82311 13.2373 5.53022 13.5302C5.23732 13.8231 4.76256 13.8231 4.46967 13.5302L0.46967 9.53017C0.176777 9.23728 0.176777 8.76252 0.46967 8.46962L4.46967 4.46962ZM16.4697 4.46962C16.7626 4.17673 17.2373 4.17673 17.5302 4.46962L21.5302 8.46962C21.8231 8.76252 21.8231 9.23728 21.5302 9.53017L17.5302 13.5302C17.2373 13.8231 16.7626 13.8231 16.4697 13.5302C16.1768 13.2373 16.1768 12.7625 16.4697 12.4696L19.9394 8.9999L16.4697 5.53017C16.1768 5.23728 16.1768 4.76252 16.4697 4.46962Z" fill="#323949"/>
</svg>
