<svg width="24" height="24" viewBox="0 0 24 24" fill="none" xmlns="http://www.w3.org/2000/svg">
<path d="M13.7841 3.77626C13.9077 3.38092 14.3282 3.16057 14.7236 3.28408C15.1189 3.40762 15.3393 3.82819 15.2158 4.22353L10.2158 20.2235C10.0922 20.6189 9.67165 20.8392 9.27631 20.7157C8.88097 20.5922 8.66061 20.1716 8.78412 19.7763L13.7841 3.77626ZM5.46967 7.46962C5.76256 7.17673 6.23732 7.17673 6.53022 7.46962C6.82311 7.76252 6.82311 8.23728 6.53022 8.53017L3.06049 11.9999L6.53022 15.4696C6.82311 15.7625 6.82311 16.2373 6.53022 16.5302C6.23732 16.8231 5.76256 16.8231 5.46967 16.5302L1.46967 12.5302C1.17678 12.2373 1.17678 11.7625 1.46967 11.4696L5.46967 7.46962ZM17.4697 7.46962C17.7626 7.17673 18.2373 7.17673 18.5302 7.46962L22.5302 11.4696C22.8231 11.7625 22.8231 12.2373 22.5302 12.5302L18.5302 16.5302C18.2373 16.8231 17.7626 16.8231 17.4697 16.5302C17.1768 16.2373 17.1768 15.7625 17.4697 15.4696L20.9394 11.9999L17.4697 8.53017C17.1768 8.23728 17.1768 7.76252 17.4697 7.46962Z" fill="#323949"/>
</svg>
