<svg width="20" height="20" viewBox="0 0 20 20" fill="none" xmlns="http://www.w3.org/2000/svg">
<path d="M0.25 11C0.25 10.5858 0.585786 10.25 1 10.25C1.41421 10.25 1.75 10.5858 1.75 11C1.75 11.2527 1.97464 11.684 2.7998 12.0967C3.58014 12.4869 4.71078 12.75 6 12.75C6.83183 12.75 7.59967 12.6385 8.25195 12.4541C8.27569 12.0613 8.60121 11.75 9 11.75C9.41421 11.75 9.75 12.0858 9.75 12.5C9.75 12.7527 9.97464 13.184 10.7998 13.5967C11.5801 13.9869 12.7108 14.25 14 14.25C15.2892 14.25 16.4199 13.9869 17.2002 13.5967C18.0254 13.184 18.25 12.7527 18.25 12.5C18.25 12.0858 18.5858 11.75 19 11.75C19.4142 11.75 19.75 12.0858 19.75 12.5C19.75 13.6272 18.8554 14.4462 17.8711 14.9385C16.8417 15.4533 15.4718 15.75 14 15.75C12.5282 15.75 11.1583 15.4533 10.1289 14.9385C9.60248 14.6752 9.10298 14.3174 8.75098 13.8701C7.93034 14.1126 6.99115 14.25 6 14.25C4.52822 14.25 3.15832 13.9533 2.12891 13.4385C1.14456 12.9462 0.25 12.1272 0.25 11ZM18.25 8.5C18.25 8.24725 18.0254 7.81602 17.2002 7.40332C16.4199 7.0131 15.2892 6.75 14 6.75C12.7108 6.75 11.5801 7.0131 10.7998 7.40332C9.97464 7.81602 9.75 8.24725 9.75 8.5C9.75 8.75275 9.97464 9.18398 10.7998 9.59668C11.5801 9.9869 12.7108 10.25 14 10.25C15.2892 10.25 16.4199 9.9869 17.2002 9.59668C18.0254 9.18398 18.25 8.75275 18.25 8.5ZM19.75 8.5C19.75 9.62718 18.8554 10.4462 17.8711 10.9385C16.8417 11.4533 15.4718 11.75 14 11.75C12.5282 11.75 11.1583 11.4533 10.1289 10.9385C9.76291 10.7554 9.4092 10.5273 9.10938 10.2549C8.20969 10.5699 7.13847 10.75 6 10.75C4.52822 10.75 3.15832 10.4533 2.12891 9.93848C1.14456 9.4462 0.25 8.62718 0.25 7.5C0.25 7.08579 0.585786 6.75 1 6.75C1.41421 6.75 1.75 7.08579 1.75 7.5C1.75 7.75275 1.97464 8.18398 2.7998 8.59668C3.58014 8.9869 4.71078 9.25 6 9.25C6.85152 9.25 7.63633 9.1327 8.29785 8.94043C8.26708 8.79925 8.25 8.65252 8.25 8.5C8.25 7.37282 9.14456 6.5538 10.1289 6.06152C11.1583 5.54674 12.5282 5.25 14 5.25C15.4718 5.25 16.8417 5.54674 17.8711 6.06152C18.8554 6.5538 19.75 7.37282 19.75 8.5Z" fill="#323949"/>
<path d="M8.25 8.5C8.25 8.08579 8.58579 7.75 9 7.75C9.41421 7.75 9.75 8.08579 9.75 8.5V16.5C9.75 16.7527 9.97464 17.184 10.7998 17.5967C11.5801 17.9869 12.7108 18.25 14 18.25C15.2892 18.25 16.4199 17.9869 17.2002 17.5967C18.0254 17.184 18.25 16.7527 18.25 16.5V8.5C18.25 8.08579 18.5858 7.75 19 7.75C19.4142 7.75 19.75 8.08579 19.75 8.5V16.5C19.75 17.6272 18.8554 18.4462 17.8711 18.9385C16.8417 19.4533 15.4718 19.75 14 19.75C12.5282 19.75 11.1583 19.4533 10.1289 18.9385C9.44572 18.5968 8.80618 18.0974 8.47852 17.4473C7.72497 17.642 6.88293 17.75 6 17.75C4.52822 17.75 3.15832 17.4533 2.12891 16.9385C1.14456 16.4462 0.25 15.6272 0.25 14.5V3.5C0.25 3.08579 0.585786 2.75 1 2.75C1.41421 2.75 1.75 3.08579 1.75 3.5V14.5C1.75 14.7527 1.97464 15.184 2.7998 15.5967C3.58014 15.9869 4.71078 16.25 6 16.25C6.83095 16.25 7.59816 16.1391 8.25 15.9551V8.5ZM10.25 6.5V3.5C10.25 3.08579 10.5858 2.75 11 2.75C11.4142 2.75 11.75 3.08579 11.75 3.5V6.5C11.75 6.91421 11.4142 7.25 11 7.25C10.5858 7.25 10.25 6.91421 10.25 6.5Z" fill="#323949"/>
<path d="M10.25 3.5C10.25 3.24725 10.0254 2.81602 9.2002 2.40332C8.41986 2.0131 7.28922 1.75 6 1.75C4.71078 1.75 3.58014 2.0131 2.7998 2.40332C1.97464 2.81602 1.75 3.24725 1.75 3.5C1.75 3.75275 1.97464 4.18398 2.7998 4.59668C3.58014 4.9869 4.71078 5.25 6 5.25C7.28922 5.25 8.41986 4.9869 9.2002 4.59668C10.0254 4.18398 10.25 3.75275 10.25 3.5ZM11.75 3.5C11.75 4.62718 10.8554 5.4462 9.87109 5.93848C8.84168 6.45326 7.47178 6.75 6 6.75C4.52822 6.75 3.15832 6.45326 2.12891 5.93848C1.14456 5.4462 0.25 4.62718 0.25 3.5C0.25 2.37282 1.14456 1.5538 2.12891 1.06152C3.15832 0.546744 4.52822 0.25 6 0.25C7.47178 0.25 8.84168 0.546744 9.87109 1.06152C10.8554 1.5538 11.75 2.37282 11.75 3.5Z" fill="#323949"/>
</svg>
