<svg width="24" height="24" viewBox="0 0 24 24" fill="none" xmlns="http://www.w3.org/2000/svg">
<path d="M2.25 13C2.25 12.5858 2.58579 12.25 3 12.25C3.41421 12.25 3.75 12.5858 3.75 13C3.75 13.2527 3.97464 13.684 4.7998 14.0967C5.58014 14.4869 6.71078 14.75 8 14.75C8.83183 14.75 9.59967 14.6385 10.252 14.4541C10.2757 14.0613 10.6012 13.75 11 13.75C11.4142 13.75 11.75 14.0858 11.75 14.5C11.75 14.7527 11.9746 15.184 12.7998 15.5967C13.5801 15.9869 14.7108 16.25 16 16.25C17.2892 16.25 18.4199 15.9869 19.2002 15.5967C20.0254 15.184 20.25 14.7527 20.25 14.5C20.25 14.0858 20.5858 13.75 21 13.75C21.4142 13.75 21.75 14.0858 21.75 14.5C21.75 15.6272 20.8554 16.4462 19.8711 16.9385C18.8417 17.4533 17.4718 17.75 16 17.75C14.5282 17.75 13.1583 17.4533 12.1289 16.9385C11.6025 16.6752 11.103 16.3174 10.751 15.8701C9.93034 16.1126 8.99115 16.25 8 16.25C6.52822 16.25 5.15832 15.9533 4.12891 15.4385C3.14456 14.9462 2.25 14.1272 2.25 13ZM20.25 10.5C20.25 10.2473 20.0254 9.81602 19.2002 9.40332C18.4199 9.0131 17.2892 8.75 16 8.75C14.7108 8.75 13.5801 9.0131 12.7998 9.40332C11.9746 9.81602 11.75 10.2473 11.75 10.5C11.75 10.7527 11.9746 11.184 12.7998 11.5967C13.5801 11.9869 14.7108 12.25 16 12.25C17.2892 12.25 18.4199 11.9869 19.2002 11.5967C20.0254 11.184 20.25 10.7527 20.25 10.5ZM21.75 10.5C21.75 11.6272 20.8554 12.4462 19.8711 12.9385C18.8417 13.4533 17.4718 13.75 16 13.75C14.5282 13.75 13.1583 13.4533 12.1289 12.9385C11.7629 12.7554 11.4092 12.5273 11.1094 12.2549C10.2097 12.5699 9.13847 12.75 8 12.75C6.52822 12.75 5.15832 12.4533 4.12891 11.9385C3.14456 11.4462 2.25 10.6272 2.25 9.5C2.25 9.08579 2.58579 8.75 3 8.75C3.41421 8.75 3.75 9.08579 3.75 9.5C3.75 9.75275 3.97464 10.184 4.7998 10.5967C5.58014 10.9869 6.71078 11.25 8 11.25C8.85152 11.25 9.63633 11.1327 10.2979 10.9404C10.2671 10.7992 10.25 10.6525 10.25 10.5C10.25 9.37282 11.1446 8.5538 12.1289 8.06152C13.1583 7.54674 14.5282 7.25 16 7.25C17.4718 7.25 18.8417 7.54674 19.8711 8.06152C20.8554 8.5538 21.75 9.37282 21.75 10.5Z" fill="#323949"/>
<path d="M10.25 10.5C10.25 10.0858 10.5858 9.75 11 9.75C11.4142 9.75 11.75 10.0858 11.75 10.5V18.5C11.75 18.7527 11.9746 19.184 12.7998 19.5967C13.5801 19.9869 14.7108 20.25 16 20.25C17.2892 20.25 18.4199 19.9869 19.2002 19.5967C20.0254 19.184 20.25 18.7527 20.25 18.5V10.5C20.25 10.0858 20.5858 9.75 21 9.75C21.4142 9.75 21.75 10.0858 21.75 10.5V18.5C21.75 19.6272 20.8554 20.4462 19.8711 20.9385C18.8417 21.4533 17.4718 21.75 16 21.75C14.5282 21.75 13.1583 21.4533 12.1289 20.9385C11.4457 20.5968 10.8062 20.0974 10.4785 19.4473C9.72497 19.642 8.88293 19.75 8 19.75C6.52822 19.75 5.15832 19.4533 4.12891 18.9385C3.14456 18.4462 2.25 17.6272 2.25 16.5V5.5C2.25 5.08579 2.58579 4.75 3 4.75C3.41421 4.75 3.75 5.08579 3.75 5.5V16.5C3.75 16.7527 3.97464 17.184 4.7998 17.5967C5.58014 17.9869 6.71078 18.25 8 18.25C8.83095 18.25 9.59816 18.1391 10.25 17.9551V10.5ZM12.25 8.5V5.5C12.25 5.08579 12.5858 4.75 13 4.75C13.4142 4.75 13.75 5.08579 13.75 5.5V8.5C13.75 8.91421 13.4142 9.25 13 9.25C12.5858 9.25 12.25 8.91421 12.25 8.5Z" fill="#323949"/>
<path d="M12.25 5.5C12.25 5.24725 12.0254 4.81602 11.2002 4.40332C10.4199 4.0131 9.28922 3.75 8 3.75C6.71078 3.75 5.58014 4.0131 4.7998 4.40332C3.97464 4.81602 3.75 5.24725 3.75 5.5C3.75 5.75275 3.97464 6.18398 4.7998 6.59668C5.58014 6.9869 6.71078 7.25 8 7.25C9.28922 7.25 10.4199 6.9869 11.2002 6.59668C12.0254 6.18398 12.25 5.75275 12.25 5.5ZM13.75 5.5C13.75 6.62718 12.8554 7.4462 11.8711 7.93848C10.8417 8.45326 9.47178 8.75 8 8.75C6.52822 8.75 5.15832 8.45326 4.12891 7.93848C3.14456 7.4462 2.25 6.62718 2.25 5.5C2.25 4.37282 3.14456 3.5538 4.12891 3.06152C5.15832 2.54674 6.52822 2.25 8 2.25C9.47178 2.25 10.8417 2.54674 11.8711 3.06152C12.8554 3.5538 13.75 4.37282 13.75 5.5Z" fill="#323949"/>
</svg>
