<svg width="20" height="20" viewBox="0 0 20 20" fill="none" xmlns="http://www.w3.org/2000/svg">
<path d="M0 17V15.25H2V17C2 17.5523 2.44772 18 3 18H4.75V20H3C1.34315 20 0 18.6569 0 17ZM11.75 18V20H8.25V18H11.75ZM18 17V15.25H20V17C20 18.6569 18.6569 20 17 20H15.25V18H17C17.5523 18 18 17.5523 18 17ZM2 8.25V11.75H0V8.25H2ZM20 8.25V11.75H18V8.25H20ZM0 3C0 1.34315 1.34315 0 3 0H4.75V2H3C2.44772 2 2 2.44772 2 3V4.75H0V3ZM18 3C18 2.44772 17.5523 2 17 2H15.25V0H17C18.6569 0 20 1.34315 20 3V4.75H18V3ZM11.75 0V2H8.25V0H11.75Z" fill="#323949"/>
</svg>
