<svg width="24" height="24" viewBox="0 0 24 24" fill="none" xmlns="http://www.w3.org/2000/svg">
<path d="M2 19V17.25H4V19C4 19.5523 4.44772 20 5 20H6.75V22H5C3.34315 22 2 20.6569 2 19ZM13.75 20V22H10.25V20H13.75ZM20 19V17.25H22V19C22 20.6569 20.6569 22 19 22H17.25V20H19C19.5523 20 20 19.5523 20 19ZM4 10.25V13.75H2V10.25H4ZM22 10.25V13.75H20V10.25H22ZM2 5C2 3.34315 3.34315 2 5 2H6.75V4H5C4.44772 4 4 4.44772 4 5V6.75H2V5ZM20 5C20 4.44772 19.5523 4 19 4H17.25V2H19C20.6569 2 22 3.34315 22 5V6.75H20V5ZM13.75 2V4H10.25V2H13.75Z" fill="#323949"/>
</svg>
