<svg width="20" height="20" viewBox="0 0 20 20" fill="none" xmlns="http://www.w3.org/2000/svg">
<path d="M17.585 8.33374C17.585 7.82748 17.1742 7.41675 16.668 7.41675H8.33496C7.8287 7.41675 7.41797 7.82748 7.41797 8.33374V16.6667C7.41797 17.173 7.8287 17.5837 8.33496 17.5837H16.668C17.1742 17.5837 17.585 17.173 17.585 16.6667V8.33374ZM12.585 3.33374C12.585 2.83129 12.1704 2.41675 11.668 2.41675H3.33496C2.83251 2.41675 2.41797 2.83129 2.41797 3.33374V11.6667C2.41797 12.1692 2.83251 12.5837 3.33496 12.5837C3.74902 12.5839 4.08496 12.9196 4.08496 13.3337C4.08479 13.7477 3.74892 14.0836 3.33496 14.0837C2.00408 14.0837 0.917969 12.9976 0.917969 11.6667V3.33374C0.917969 2.00286 2.00408 0.916748 3.33496 0.916748H11.668C12.9988 0.916748 14.085 2.00286 14.085 3.33374C14.0848 3.7477 13.7489 4.08356 13.335 4.08374C12.9209 4.08374 12.5851 3.7478 12.585 3.33374ZM19.085 16.6667C19.085 18.0014 18.0027 19.0837 16.668 19.0837H8.33496C7.00027 19.0837 5.91797 18.0014 5.91797 16.6667V8.33374C5.91797 6.99905 7.00027 5.91675 8.33496 5.91675H16.668C18.0027 5.91675 19.085 6.99905 19.085 8.33374V16.6667Z" fill="#323949"/>
</svg>
