<svg width="22" height="16" viewBox="0 0 22 16" fill="none" xmlns="http://www.w3.org/2000/svg">
<path d="M21.5 4.49L11.27 0.5H10.73L0.5 4.49V14H2V6.5L5.465 7.85C4.69959 8.94 4.28608 10.2381 4.28 11.57C4.265 11.735 4.265 11.9 4.28 12.065V12.23L4.7 12.83L10.67 15.5H11.285L17.195 12.785L17.615 12.185V11.525C17.6056 10.2006 17.1979 8.90963 16.445 7.82L21.5 5.855V4.49ZM16.22 11.51V11.615L11 14L5.75 11.6C5.74298 11.5704 5.74298 11.5396 5.75 11.51C5.75816 10.3539 6.15434 9.23404 6.875 8.33L10.745 9.83H11.285L15.125 8.33C15.8391 9.23569 16.2251 10.3567 16.22 11.51ZM11 8.375L2.78 5.18L11 2L19.22 5.21L11 8.375Z" fill="#323949"/>
</svg>
