<svg width="24" height="24" viewBox="0 0 24 24" fill="none" xmlns="http://www.w3.org/2000/svg">
<path d="M22.5 8.49L12.27 4.5H11.73L1.5 8.49V18H3V10.5L6.465 11.85C5.69959 12.94 5.28608 14.2381 5.28 15.57C5.265 15.735 5.265 15.9 5.28 16.065V16.23L5.7 16.83L11.67 19.5H12.285L18.195 16.785L18.615 16.185V15.525C18.6056 14.2006 18.1979 12.9096 17.445 11.82L22.5 9.855V8.49ZM17.22 15.51V15.615L12 18L6.75 15.6C6.74298 15.5704 6.74298 15.5396 6.75 15.51C6.75816 14.3539 7.15434 13.234 7.875 12.33L11.745 13.83H12.285L16.125 12.33C16.8391 13.2357 17.2251 14.3567 17.22 15.51ZM12 12.375L3.78 9.18L12 6L20.22 9.21L12 12.375Z" fill="#323949"/>
</svg>
