<svg width="15" height="15" viewBox="0 0 15 15" fill="none" xmlns="http://www.w3.org/2000/svg">
<path d="M4.69097 4.33681C4.69097 3.85042 4.94833 3.3534 5.48785 2.94965C6.02854 2.54354 6.81243 2.27083 7.70139 2.27083C9.01889 2.27083 10.105 2.88826 10.4922 3.50688C10.6167 3.70601 10.8151 3.84754 11.044 3.90035C11.2728 3.95315 11.5132 3.9129 11.7123 3.78844C11.9115 3.66398 12.053 3.46551 12.1058 3.2367C12.1586 3.00789 12.1183 2.76747 11.9939 2.56833C11.1994 1.29924 9.45333 0.5 7.70139 0.5C6.46535 0.5 5.30014 0.876597 4.42535 1.53299C3.54819 2.19056 2.92014 3.17042 2.92014 4.33681C2.92014 4.96486 3.10313 5.54333 3.41951 6.04861H6.03681C5.12306 5.61889 4.69097 4.9259 4.69097 4.33681ZM0.5 8.40972C0.5 8.17489 0.593285 7.94969 0.759332 7.78364C0.92538 7.61759 1.15059 7.52431 1.38542 7.52431H13.7813C14.0161 7.52431 14.2413 7.61759 14.4073 7.78364C14.5734 7.94969 14.6667 8.17489 14.6667 8.40972C14.6667 8.64455 14.5734 8.86976 14.4073 9.03581C14.2413 9.20185 14.0161 9.29514 13.7813 9.29514H11.851C12.1025 9.75674 12.2465 10.2726 12.2465 10.8299C12.2465 11.9963 11.6185 12.9749 10.7413 13.6337C9.86535 14.2901 8.70132 14.6667 7.46528 14.6667C5.70743 14.6667 3.93896 13.8603 3.14917 12.4401C3.08939 12.3383 3.05058 12.2256 3.03502 12.1086C3.01946 11.9915 3.02746 11.8726 3.05855 11.7587C3.08964 11.6448 3.1432 11.5382 3.21607 11.4454C3.28894 11.3525 3.37965 11.2751 3.48286 11.2178C3.58608 11.1605 3.69972 11.1244 3.81709 11.1116C3.93446 11.0989 4.0532 11.1097 4.16631 11.1435C4.27943 11.1773 4.38464 11.2334 4.47575 11.3085C4.56687 11.3836 4.64205 11.4761 4.69688 11.5807C5.08882 12.2843 6.15368 12.8958 7.46528 12.8958C8.35424 12.8958 9.13694 12.6231 9.67882 12.217C10.2183 11.8121 10.4757 11.3162 10.4757 10.8299C10.4757 10.3163 10.1463 9.72368 9.45688 9.29514H1.38542C1.26914 9.29514 1.15401 9.27224 1.04658 9.22774C0.939159 9.18324 0.841551 9.11802 0.759332 9.03581C0.677114 8.95359 0.611895 8.85598 0.567398 8.74856C0.522902 8.64113 0.5 8.526 0.5 8.40972Z" fill="#323949"/>
</svg>
