<svg width="16" height="16" viewBox="0 0 16 16" fill="none" xmlns="http://www.w3.org/2000/svg">
<path d="M11.4679 12.5299L7.99869 9.06066L4.52875 12.5306C4.23595 12.8234 3.76101 12.8232 3.46809 12.5306C3.1752 12.2377 3.1752 11.7628 3.46809 11.4699L6.93803 8L3.46809 4.53007C3.1752 4.23717 3.1752 3.7623 3.46809 3.46941C3.76101 3.17678 4.23595 3.1766 4.52875 3.46941L7.99869 6.93934L11.4679 3.4701C11.7608 3.1772 12.2357 3.1772 12.5286 3.4701C12.8212 3.76301 12.8214 4.23795 12.5286 4.53076L9.05935 8L12.5286 11.4692C12.8214 11.762 12.8212 12.237 12.5286 12.5299C12.2357 12.8228 11.7608 12.8228 11.4679 12.5299Z" fill="#323949"/>
</svg>
