<svg width="20" height="20" viewBox="0 0 20 20" fill="none" xmlns="http://www.w3.org/2000/svg">
<path d="M6.69097 6.33681C6.69097 5.85042 6.94833 5.3534 7.48785 4.94965C8.02854 4.54354 8.81243 4.27083 9.70139 4.27083C11.0189 4.27083 12.105 4.88826 12.4922 5.50688C12.6167 5.70601 12.8151 5.84754 13.044 5.90035C13.2728 5.95315 13.5132 5.9129 13.7123 5.78844C13.9115 5.66398 14.053 5.46551 14.1058 5.2367C14.1586 5.00789 14.1183 4.76747 13.9939 4.56833C13.1994 3.29924 11.4533 2.5 9.70139 2.5C8.46535 2.5 7.30014 2.8766 6.42535 3.53299C5.54819 4.19056 4.92014 5.17042 4.92014 6.33681C4.92014 6.96486 5.10313 7.54333 5.41951 8.04861H8.03681C7.12306 7.61889 6.69097 6.9259 6.69097 6.33681ZM2.5 10.4097C2.5 10.1749 2.59328 9.94969 2.75933 9.78364C2.92538 9.61759 3.15059 9.52431 3.38542 9.52431H15.7813C16.0161 9.52431 16.2413 9.61759 16.4073 9.78364C16.5734 9.94969 16.6667 10.1749 16.6667 10.4097C16.6667 10.6445 16.5734 10.8698 16.4073 11.0358C16.2413 11.2019 16.0161 11.2951 15.7813 11.2951H13.851C14.1025 11.7567 14.2465 12.2726 14.2465 12.8299C14.2465 13.9963 13.6185 14.9749 12.7413 15.6337C11.8653 16.2901 10.7013 16.6667 9.46528 16.6667C7.70743 16.6667 5.93896 15.8603 5.14917 14.4401C5.08939 14.3383 5.05058 14.2256 5.03502 14.1086C5.01946 13.9915 5.02746 13.8726 5.05855 13.7587C5.08964 13.6448 5.1432 13.5382 5.21607 13.4454C5.28894 13.3525 5.37965 13.2751 5.48286 13.2178C5.58608 13.1605 5.69972 13.1244 5.81709 13.1116C5.93446 13.0989 6.0532 13.1097 6.16631 13.1435C6.27943 13.1773 6.38464 13.2334 6.47575 13.3085C6.56687 13.3836 6.64205 13.4761 6.69688 13.5807C7.08882 14.2843 8.15368 14.8958 9.46528 14.8958C10.3542 14.8958 11.1369 14.6231 11.6788 14.217C12.2183 13.8121 12.4757 13.3162 12.4757 12.8299C12.4757 12.3163 12.1463 11.7237 11.4569 11.2951H3.38542C3.26914 11.2951 3.15401 11.2722 3.04658 11.2277C2.93916 11.1832 2.84155 11.118 2.75933 11.0358C2.67711 10.9536 2.61189 10.856 2.5674 10.7486C2.5229 10.6411 2.5 10.526 2.5 10.4097Z" fill="#323949"/>
</svg>
