<svg width="20" height="18" viewBox="0 0 20 18" fill="none" xmlns="http://www.w3.org/2000/svg">
<path d="M12.1161 0.239829C12.5681 0.150363 13.0159 0.160961 13.4452 0.306236C13.8738 0.451342 14.2351 0.713931 14.5399 1.05331C15.0743 1.64837 15.0539 2.41752 14.8739 3.07186C14.6918 3.73351 14.304 4.458 13.827 5.18807C12.8673 6.65685 11.4079 8.35307 9.98911 9.94979C8.57466 11.5406 7.66275 12.8081 7.25571 13.7349C7.05185 14.1992 7.00958 14.501 7.03012 14.6773C7.04521 14.8062 7.09194 14.8908 7.23325 14.9762C7.36386 15.0549 7.5916 15.0971 8.00571 14.9625C8.41711 14.8288 8.90027 14.554 9.41684 14.1812C10.4465 13.4382 11.4426 12.432 12.0389 11.8336C12.3796 11.4916 12.735 11.0889 13.1434 10.649C13.5364 10.2258 13.9687 9.78029 14.4081 9.42538C14.8322 9.08276 15.3531 8.74916 15.9276 8.67147C16.5859 8.58246 17.1814 8.84363 17.6307 9.41561C18.1867 10.1232 18.034 10.9665 17.7967 11.6002C17.5541 12.248 17.125 12.9427 16.7498 13.5553C16.3519 14.205 16.005 14.7783 15.8133 15.2848C15.6168 15.8041 15.6674 16.0346 15.745 16.151H15.744C15.834 16.286 15.9126 16.3141 16.0204 16.318C16.1775 16.3235 16.4232 16.2643 16.7528 16.0933C17.4061 15.7544 18.1053 15.1275 18.5487 14.6392C18.8272 14.3327 19.3016 14.31 19.6082 14.5885C19.9147 14.867 19.9374 15.3415 19.659 15.648C19.155 16.203 18.3178 16.9711 17.4442 17.4244C17.0104 17.6494 16.4946 17.8355 15.9676 17.817C15.3912 17.7966 14.8623 17.5307 14.4969 16.983C14.0054 16.2456 14.163 15.4062 14.41 14.7535C14.6618 14.0882 15.094 13.3869 15.4706 12.7721C15.87 12.1198 16.211 11.5592 16.3924 11.0748C16.5791 10.5762 16.5043 10.4089 16.452 10.3424H16.451C16.2923 10.1402 16.2019 10.1479 16.1288 10.1578C15.9715 10.1791 15.7155 10.2975 15.3504 10.5924C15.0007 10.8749 14.6305 11.2522 14.243 11.6695C13.8711 12.0701 13.4664 12.5259 13.1014 12.8922C12.521 13.4746 11.4402 14.5705 10.2948 15.3971C9.72386 15.809 9.09492 16.186 8.46957 16.3892C7.88587 16.579 7.2046 16.6475 6.58188 16.3297L6.45786 16.2603C5.93133 15.9424 5.61044 15.4548 5.53989 14.8521C5.47488 14.2968 5.6287 13.7075 5.88168 13.1314C6.38861 11.9772 7.43599 10.5643 8.86801 8.9537C10.2941 7.34887 11.6808 5.73037 12.5711 4.36776C13.0191 3.68214 13.3072 3.1111 13.4276 2.67342C13.5499 2.22867 13.4584 2.09393 13.4237 2.05526C13.2572 1.87001 13.105 1.77467 12.9647 1.72713C12.825 1.67983 12.6481 1.66284 12.4071 1.71053C11.8925 1.8124 11.1771 2.18668 10.1766 2.96053C8.18937 4.49756 5.43338 7.32134 1.43051 11.4674C1.14293 11.7652 0.667981 11.7732 0.369964 11.4859C0.0721018 11.1983 0.0631131 10.7234 0.350433 10.4254C4.31672 6.31725 7.16379 3.39427 9.25864 1.77401C10.299 0.969376 11.2444 0.412351 12.1161 0.239829Z" fill="#323949"/>
</svg>
