<svg width="28" height="24" viewBox="0 0 28 24" fill="none" xmlns="http://www.w3.org/2000/svg">
<path d="M25.75 3.25C25.75 2.2835 24.9665 1.5 24 1.5H4C3.0335 1.5 2.25 2.2835 2.25 3.25V15.75C2.25 16.7165 3.0335 17.5 4 17.5H24C24.9665 17.5 25.75 16.7165 25.75 15.75V3.25ZM27.25 15.75C27.25 17.5449 25.7949 19 24 19H14.75V22.5H19C19.4142 22.5 19.75 22.8358 19.75 23.25C19.75 23.6642 19.4142 24 19 24H9C8.58579 24 8.25 23.6642 8.25 23.25C8.25 22.8358 8.58579 22.5 9 22.5H13.25V19H4C2.20507 19 0.75 17.5449 0.75 15.75V3.25C0.75 1.45507 2.20507 0 4 0H24C25.7949 0 27.25 1.45507 27.25 3.25V15.75Z" fill="#323949"/>
</svg>
