<svg width="30" height="30" viewBox="0 0 30 30" fill="none" xmlns="http://www.w3.org/2000/svg">
<path d="M26.75 6.25C26.75 5.2835 25.9665 4.5 25 4.5H5C4.0335 4.5 3.25 5.2835 3.25 6.25V18.75C3.25 19.7165 4.0335 20.5 5 20.5H25C25.9665 20.5 26.75 19.7165 26.75 18.75V6.25ZM28.25 18.75C28.25 20.5449 26.7949 22 25 22H15.75V25.5H20C20.4142 25.5 20.75 25.8358 20.75 26.25C20.75 26.6642 20.4142 27 20 27H10C9.58579 27 9.25 26.6642 9.25 26.25C9.25 25.8358 9.58579 25.5 10 25.5H14.25V22H5C3.20507 22 1.75 20.5449 1.75 18.75V6.25C1.75 4.45507 3.20507 3 5 3H25C26.7949 3 28.25 4.45507 28.25 6.25V18.75Z" fill="#323949"/>
</svg>
