<svg width="22" height="20" viewBox="0 0 22 20" fill="none" xmlns="http://www.w3.org/2000/svg">
<path d="M14.0518 0H7.94834C7.57499 0 7.23053 0.205789 7.0485 0.538421L0.131316 13.1516C-0.053809 13.4895 -0.0424644 13.9037 0.160709 14.2305L3.45067 19.5121C3.64044 19.8158 3.96841 20 4.32112 20H17.6785C18.0312 20 18.3597 19.8158 18.5489 19.5121L21.8389 14.2305C22.0426 13.9037 22.0539 13.4895 21.8683 13.1516L14.9516 0.538421C14.7691 0.205789 14.4251 0 14.0518 0ZM14.0477 1.05263L20.6946 13.1579H15.1821L9.01474 1.05263H14.0477ZM14.0167 13.1579H7.89058L10.9743 7.18947L14.0167 13.1579ZM1.02703 13.6684L7.9009 1.15263L10.3967 6.05263L3.99728 18.4263L1.02703 13.6684ZM17.678 18.9474H4.89455L7.34397 14.2105H20.6328L17.678 18.9474Z" fill="#323949"/>
</svg>
