<svg width="24" height="24" viewBox="0 0 24 24" fill="none" xmlns="http://www.w3.org/2000/svg">
<path d="M4.51562 19.5825V5.18213C4.51568 4.51277 4.77409 3.86686 5.24023 3.38721C5.70734 2.90675 6.34566 2.63232 7.01562 2.63232H14.8906C15.0932 2.63232 15.2875 2.71462 15.4287 2.85986L19.8037 7.35986C19.9396 7.49982 20.0156 7.68723 20.0156 7.88232V19.5825C20.0156 20.2519 19.7572 20.8978 19.291 21.3774C18.8239 21.8579 18.1856 22.1323 17.5156 22.1323H7.01562C6.34566 22.1323 5.70734 21.8579 5.24023 21.3774C4.77409 20.8978 4.51568 20.2519 4.51562 19.5825ZM14.7656 6.98193C14.7656 7.26712 14.8764 7.53654 15.0664 7.73193C15.2557 7.92658 15.5074 8.03271 15.7656 8.03271H18.3662L14.7656 4.32959V6.98193ZM6.01562 19.5825C6.01568 19.8676 6.12648 20.1372 6.31641 20.3325C6.50564 20.527 6.75749 20.6323 7.01562 20.6323H17.5156C17.7738 20.6323 18.0256 20.527 18.2148 20.3325C18.4048 20.1372 18.5156 19.8676 18.5156 19.5825V9.53271H15.7656C15.0957 9.53271 14.4573 9.25829 13.9902 8.77783C13.5239 8.29811 13.2656 7.65145 13.2656 6.98193V4.13232H7.01562C6.75749 4.13232 6.50564 4.23767 6.31641 4.43213C6.12648 4.62748 6.01568 4.89701 6.01562 5.18213V19.5825Z" fill="#323949"/>
</svg>
