<svg width="17" height="21" viewBox="0 0 17 21" fill="none" xmlns="http://www.w3.org/2000/svg">
<path d="M0.515625 17.5825V3.18213C0.515675 2.51277 0.774086 1.86686 1.24023 1.38721C1.70734 0.906753 2.34566 0.632324 3.01562 0.632324H10.8906C11.0932 0.632324 11.2875 0.714618 11.4287 0.859863L15.8037 5.35986C15.9396 5.49982 16.0156 5.68723 16.0156 5.88232V17.5825C16.0156 18.2519 15.7572 18.8978 15.291 19.3774C14.8239 19.8579 14.1856 20.1323 13.5156 20.1323H3.01562C2.34566 20.1323 1.70734 19.8579 1.24023 19.3774C0.774086 18.8978 0.515676 18.2519 0.515625 17.5825ZM10.7656 4.98193C10.7656 5.26712 10.8764 5.53654 11.0664 5.73193C11.2557 5.92658 11.5074 6.03271 11.7656 6.03271H14.3662L10.7656 2.32959V4.98193ZM2.01562 17.5825C2.01568 17.8676 2.12648 18.1372 2.31641 18.3325C2.50564 18.527 2.75749 18.6323 3.01562 18.6323H13.5156C13.7738 18.6323 14.0256 18.527 14.2148 18.3325C14.4048 18.1372 14.5156 17.8676 14.5156 17.5825V7.53271H11.7656C11.0957 7.53271 10.4573 7.25829 9.99023 6.77783C9.52392 6.29811 9.26562 5.65145 9.26562 4.98193V2.13232H3.01562C2.75749 2.13232 2.50564 2.23767 2.31641 2.43213C2.12648 2.62748 2.01568 2.89701 2.01562 3.18213V17.5825Z" fill="#323949"/>
</svg>
