<svg width="18" height="18" viewBox="0 0 18 18" fill="none" xmlns="http://www.w3.org/2000/svg">
<path d="M1.5 14.25V11.25C1.5 10.8358 1.83579 10.5 2.25 10.5C2.66421 10.5 3 10.8358 3 11.25V14.25C3 14.4489 3.07907 14.6396 3.21973 14.7803C3.36038 14.9209 3.55109 15 3.75 15H14.25C14.4489 15 14.6396 14.9209 14.7803 14.7803C14.9209 14.6396 15 14.4489 15 14.25V11.25C15 10.8358 15.3358 10.5 15.75 10.5C16.1642 10.5 16.5 10.8358 16.5 11.25V14.25C16.5 14.8467 16.2628 15.4189 15.8408 15.8408C15.4189 16.2628 14.8467 16.5 14.25 16.5H3.75C3.15326 16.5 2.58114 16.2628 2.15918 15.8408C1.73722 15.4189 1.5 14.8467 1.5 14.25ZM8.25 2.25C8.25 1.83579 8.58579 1.5 9 1.5C9.41421 1.5 9.75 1.83579 9.75 2.25V9.43945L12.2197 6.96973C12.5126 6.67683 12.9874 6.67683 13.2803 6.96973C13.5732 7.26262 13.5732 7.73738 13.2803 8.03027L9.53027 11.7803C9.23738 12.0732 8.76262 12.0732 8.46973 11.7803L4.71973 8.03027C4.42683 7.73738 4.42683 7.26262 4.71973 6.96973C5.01262 6.67683 5.48738 6.67683 5.78027 6.96973L8.25 9.43945V2.25Z" fill="#323949"/>
</svg>
