<svg width="16" height="16" viewBox="0 0 16 16" fill="none" xmlns="http://www.w3.org/2000/svg">
<path d="M0.5 13.25V10.25C0.5 9.83579 0.835786 9.5 1.25 9.5C1.66421 9.5 2 9.83579 2 10.25V13.25C2 13.4489 2.07907 13.6396 2.21973 13.7803C2.36038 13.9209 2.55109 14 2.75 14H13.25C13.4489 14 13.6396 13.9209 13.7803 13.7803C13.9209 13.6396 14 13.4489 14 13.25V10.25C14 9.83579 14.3358 9.5 14.75 9.5C15.1642 9.5 15.5 9.83579 15.5 10.25V13.25C15.5 13.8467 15.2628 14.4189 14.8408 14.8408C14.4189 15.2628 13.8467 15.5 13.25 15.5H2.75C2.15326 15.5 1.58114 15.2628 1.15918 14.8408C0.737223 14.4189 0.5 13.8467 0.5 13.25ZM7.25 1.25C7.25 0.835786 7.58579 0.5 8 0.5C8.41421 0.5 8.75 0.835786 8.75 1.25V8.43945L11.2197 5.96973C11.5126 5.67683 11.9874 5.67683 12.2803 5.96973C12.5732 6.26262 12.5732 6.73738 12.2803 7.03027L8.53027 10.7803C8.23738 11.0732 7.76262 11.0732 7.46973 10.7803L3.71973 7.03027C3.42683 6.73738 3.42683 6.26262 3.71973 5.96973C4.01262 5.67683 4.48738 5.67683 4.78027 5.96973L7.25 8.43945V1.25Z" fill="#323949"/>
</svg>
