<svg width="20" height="20" viewBox="0 0 20 20" fill="none" xmlns="http://www.w3.org/2000/svg">
<path d="M12.1161 1.23983C12.5681 1.15036 13.0159 1.16096 13.4452 1.30624C13.8738 1.45134 14.2351 1.71393 14.5399 2.05331C15.0743 2.64837 15.0539 3.41752 14.8739 4.07186C14.6918 4.7335 14.304 5.458 13.827 6.18807C12.8673 7.65685 11.4079 9.35307 9.98911 10.9498C8.57466 12.5406 7.66275 13.8081 7.25571 14.7349C7.05185 15.1992 7.00958 15.501 7.03012 15.6773C7.04521 15.8062 7.09194 15.8908 7.23325 15.9762C7.36386 16.0549 7.5916 16.0971 8.00571 15.9625C8.41711 15.8287 8.90027 15.554 9.41684 15.1812C10.4465 14.4382 11.4426 13.432 12.0389 12.8336C12.3796 12.4916 12.735 12.0889 13.1434 11.649C13.5364 11.2258 13.9687 10.7803 14.4081 10.4254C14.8322 10.0828 15.3531 9.74916 15.9276 9.67147C16.5859 9.58246 17.1814 9.84363 17.6307 10.4156C18.1867 11.1232 18.034 11.9665 17.7967 12.6002C17.5541 13.248 17.125 13.9427 16.7498 14.5553C16.3519 15.205 16.005 15.7783 15.8133 16.2847C15.6168 16.8041 15.6674 17.0346 15.745 17.151H15.744C15.834 17.286 15.9126 17.3141 16.0204 17.318C16.1775 17.3235 16.4232 17.2643 16.7528 17.0933C17.4061 16.7544 18.1053 16.1275 18.5487 15.6392C18.8272 15.3327 19.3016 15.31 19.6082 15.5885C19.9147 15.867 19.9374 16.3415 19.659 16.648C19.155 17.203 18.3178 17.9711 17.4442 18.4244C17.0104 18.6494 16.4946 18.8355 15.9676 18.817C15.3912 18.7966 14.8623 18.5307 14.4969 17.983C14.0054 17.2456 14.163 16.4062 14.41 15.7535C14.6618 15.0882 15.094 14.3869 15.4706 13.7721C15.87 13.1198 16.211 12.5592 16.3924 12.0748C16.5791 11.5762 16.5043 11.4089 16.452 11.3424H16.451C16.2923 11.1402 16.2019 11.1479 16.1288 11.1578C15.9715 11.1791 15.7155 11.2975 15.3504 11.5924C15.0007 11.8749 14.6305 12.2522 14.243 12.6695C13.8711 13.0701 13.4664 13.5259 13.1014 13.8922C12.521 14.4746 11.4402 15.5705 10.2948 16.3971C9.72386 16.809 9.09492 17.186 8.46957 17.3892C7.88587 17.579 7.2046 17.6475 6.58188 17.3297L6.45786 17.2603C5.93133 16.9424 5.61044 16.4548 5.53989 15.8521C5.47488 15.2968 5.6287 14.7075 5.88168 14.1314C6.38861 12.9772 7.43599 11.5643 8.86801 9.9537C10.2941 8.34887 11.6808 6.73037 12.5711 5.36776C13.0191 4.68214 13.3072 4.1111 13.4276 3.67342C13.5499 3.22867 13.4584 3.09393 13.4237 3.05526C13.2572 2.87 13.105 2.77467 12.9647 2.72713C12.825 2.67983 12.6481 2.66284 12.4071 2.71053C11.8925 2.8124 11.1771 3.18668 10.1766 3.96053C8.18937 5.49756 5.43338 8.32134 1.43051 12.4674C1.14293 12.7652 0.667981 12.7732 0.369964 12.4859C0.0721018 12.1983 0.0631131 11.7234 0.350433 11.4254C4.31672 7.31725 7.16379 4.39427 9.25864 2.77401C10.299 1.96938 11.2444 1.41235 12.1161 1.23983Z" fill="#323949"/>
</svg>
