<svg width="24" height="24" viewBox="0 0 24 24" fill="none" xmlns="http://www.w3.org/2000/svg">
<path d="M20.3159 14.6564C20.3775 14.7633 20.4174 14.8812 20.4334 15.0036C20.4493 15.1259 20.441 15.2502 20.409 15.3693C20.3769 15.4884 20.3217 15.6 20.2465 15.6978C20.1713 15.7956 20.0775 15.8776 19.9706 15.9392C19.8637 16.0007 19.7457 16.0406 19.6234 16.0566C19.5011 16.0725 19.3768 16.0643 19.2577 16.0322C19.1386 16.0001 19.0269 15.9449 18.9292 15.8697C18.8314 15.7945 18.7494 15.7008 18.6878 15.5939L17.3706 13.2892C16.6356 13.7515 15.8432 14.1156 15.0136 14.372L15.4269 16.8439C15.4675 17.0891 15.4091 17.3404 15.2645 17.5426C15.1199 17.7447 14.901 17.8812 14.6558 17.922C14.6042 17.9312 14.5519 17.9356 14.4995 17.9353C14.2781 17.935 14.064 17.8565 13.895 17.7135C13.7259 17.5705 13.613 17.3723 13.5761 17.154L13.1737 14.7478C12.3933 14.8342 11.6057 14.8342 10.8253 14.7478L10.4269 17.1564C10.3899 17.3749 10.2767 17.5733 10.1074 17.7163C9.93807 17.8594 9.72353 17.9378 9.50187 17.9376C9.44949 17.938 9.39719 17.9335 9.34562 17.9243C9.22419 17.9039 9.10798 17.8597 9.00362 17.7943C8.89927 17.729 8.80881 17.6437 8.73742 17.5433C8.66604 17.443 8.61511 17.3296 8.58757 17.2096C8.56002 17.0896 8.55639 16.9653 8.57687 16.8439L8.99016 14.3657C8.16054 14.1093 7.36812 13.7453 6.63312 13.2829L5.31594 15.5939C5.25438 15.7008 5.17237 15.7945 5.07459 15.8697C4.97681 15.9449 4.86517 16.0001 4.74605 16.0322C4.62693 16.0643 4.50266 16.0725 4.38033 16.0566C4.25801 16.0406 4.14003 16.0007 4.03312 15.9392C3.92622 15.8776 3.83249 15.7956 3.75728 15.6978C3.68207 15.6 3.62685 15.4884 3.59479 15.3693C3.56272 15.2502 3.55444 15.1259 3.5704 15.0036C3.58636 14.8812 3.62625 14.7633 3.68781 14.6564L5.12687 12.1446C4.63919 11.7041 4.18701 11.2258 3.77453 10.7142C3.62894 10.52 3.56433 10.2769 3.59428 10.0361C3.62424 9.79522 3.74643 9.57538 3.93516 9.42278C4.12388 9.27018 4.36443 9.19672 4.60621 9.21784C4.84799 9.23897 5.07216 9.35303 5.23156 9.53605C6.48469 11.0876 8.67687 12.9376 12.0019 12.9376C15.3269 12.9376 17.5191 11.0876 18.7722 9.53605C18.929 9.34447 19.1552 9.22271 19.4015 9.19733C19.6478 9.17194 19.8941 9.24501 20.0867 9.40057C20.2793 9.55614 20.4025 9.78157 20.4295 10.0277C20.4565 10.2738 20.3851 10.5206 20.2308 10.7142C19.8178 11.2259 19.3651 11.7042 18.8769 12.1446L20.3159 14.6564Z" fill="#323949"/>
</svg>
