<svg width="28" height="30" viewBox="0 0 28 30" fill="none" xmlns="http://www.w3.org/2000/svg">
<path d="M20.125 0C20.3933 0 20.6508 0.107398 20.8389 0.298828L27.7139 7.29883C27.8975 7.48582 28 7.7379 28 8V26.2002C27.9999 27.2022 27.6094 28.1669 26.9082 28.8809C26.2064 29.5954 25.2504 30 24.25 30H7.75C6.74957 30 5.79361 29.5954 5.0918 28.8809C4.39063 28.1669 4.00005 27.2022 4 26.2002V25H6V26.2002C6.00005 26.6833 6.18838 27.1433 6.51855 27.4795C6.84819 27.8151 7.29175 28 7.75 28H24.25C24.7083 28 25.1518 27.8151 25.4814 27.4795C25.8116 27.1433 25.9999 26.6833 26 26.2002V10.4004H21.5C20.4996 10.4004 19.5436 9.99485 18.8418 9.28027C18.1408 8.56634 17.75 7.60155 17.75 6.59961V2H7.75C7.29174 2 6.84819 2.18488 6.51855 2.52051C6.18838 2.8567 6.00005 3.31674 6 3.7998V13H4V3.7998C4.00005 2.79781 4.39063 1.83306 5.0918 1.11914C5.79361 0.404578 6.74958 0 7.75 0H20.125ZM19.75 6.59961C19.75 7.0826 19.9385 7.5427 20.2686 7.87891C20.5982 8.21453 21.0417 8.40039 21.5 8.40039H25.9912L19.75 2.0459V6.59961Z" fill="#323949"/>
<path d="M18 23V25H4V23H18ZM20 21V17C20 15.8954 19.1046 15 18 15H4C2.89543 15 2 15.8954 2 17V21C2 22.1046 2.89543 23 4 23V25C1.79086 25 0 23.2091 0 21V17C0 14.7909 1.79086 13 4 13H18C20.2091 13 22 14.7909 22 17V21C22 23.2091 20.2091 25 18 25V23C19.1046 23 20 22.1046 20 21Z" fill="#323949"/>
<path d="M14.4154 21V17.814H13.1914V16.77H16.9354V17.814H15.7114V21H14.4154Z" fill="#323949"/>
<path d="M8.65234 21L10.4883 18.576V19.17L8.67634 16.77H10.1883L11.2083 18.234H10.7883L11.8203 16.77H13.3323L11.5143 19.17V18.576L13.3623 21H11.8443L10.8003 19.53H11.2023L10.1583 21H8.65234Z" fill="#323949"/>
<path d="M6.29431 21V17.814H5.07031V16.77H8.81431V17.814H7.59031V21H6.29431Z" fill="#323949"/>
</svg>
