<svg width="24" height="24" viewBox="0 0 24 24" fill="none" xmlns="http://www.w3.org/2000/svg">
<path d="M19.1582 13.7148C19.4536 13.4246 19.9285 13.4293 20.2187 13.7246L23.5352 17.0996C23.8216 17.3913 23.8216 17.8587 23.5352 18.1504L20.2187 21.5254C19.9285 21.8208 19.4536 21.8254 19.1582 21.5352C18.8629 21.2449 18.8592 20.77 19.1494 20.4746L21.2119 18.375H15.2627C14.8487 18.3748 14.5127 18.0391 14.5127 17.625C14.5127 17.2109 14.8487 16.8752 15.2627 16.875H21.2119L19.1494 14.7754C18.8592 14.48 18.8629 14.0051 19.1582 13.7148ZM1.25 17.625V5.25C1.25 4.45872 1.55877 3.69735 2.1123 3.13379C2.66645 2.56975 3.42143 2.25 4.21094 2.25H8.63184L8.78027 2.26465C8.92599 2.29412 9.06123 2.36696 9.16699 2.47461L12.2617 5.625H19.6846C20.4739 5.6251 21.2282 5.94484 21.7822 6.50879C22.3358 7.07236 22.6445 7.83367 22.6445 8.625V12.5625C22.6445 12.9767 22.3087 13.3125 21.8945 13.3125C21.4804 13.3124 21.1445 12.9766 21.1445 12.5625V8.625C21.1445 8.22293 20.9873 7.8399 20.7119 7.55957C20.4371 7.27992 20.0674 7.1251 19.6846 7.125H11.9473C11.7461 7.12497 11.5531 7.0439 11.4121 6.90039L8.31738 3.75H4.21094C3.82796 3.75 3.45757 3.90477 3.18262 4.18457C2.90721 4.4649 2.75 4.84793 2.75 5.25V17.625C2.75 18.0271 2.90721 18.4101 3.18262 18.6904C3.45757 18.9702 3.82796 19.125 4.21094 19.125H11.9473C12.3615 19.125 12.6973 19.4608 12.6973 19.875C12.6973 20.2892 12.3615 20.625 11.9473 20.625H4.21094C3.42143 20.625 2.66645 20.3052 2.1123 19.7412C1.55877 19.1777 1.25 18.4163 1.25 17.625Z" fill="#323949"/>
</svg>
