<svg width="23" height="20" viewBox="0 0 23 20" fill="none" xmlns="http://www.w3.org/2000/svg">
<path d="M18.1582 11.7148C18.4536 11.4246 18.9285 11.4293 19.2188 11.7246L22.5352 15.0996C22.8216 15.3913 22.8216 15.8587 22.5352 16.1504L19.2188 19.5254C18.9285 19.8208 18.4536 19.8254 18.1582 19.5352C17.8629 19.2449 17.8592 18.77 18.1494 18.4746L20.2119 16.375H14.2627C13.8487 16.3748 13.5127 16.0391 13.5127 15.625C13.5127 15.2109 13.8487 14.8752 14.2627 14.875H20.2119L18.1494 12.7754C17.8592 12.48 17.8629 12.0051 18.1582 11.7148ZM0.25 15.625V3.25C0.25 2.45872 0.558772 1.69735 1.1123 1.13379C1.66645 0.569751 2.42143 0.25 3.21094 0.25H7.63184L7.78027 0.264648C7.92599 0.294116 8.06123 0.366959 8.16699 0.474609L11.2617 3.625H18.6846C19.4739 3.6251 20.2282 3.94484 20.7822 4.50879C21.3358 5.07236 21.6445 5.83367 21.6445 6.625V10.5625C21.6445 10.9767 21.3087 11.3125 20.8945 11.3125C20.4804 11.3124 20.1445 10.9766 20.1445 10.5625V6.625C20.1445 6.22293 19.9873 5.8399 19.7119 5.55957C19.4371 5.27992 19.0674 5.1251 18.6846 5.125H10.9473C10.7461 5.12497 10.5531 5.0439 10.4121 4.90039L7.31738 1.75H3.21094C2.82796 1.75 2.45757 1.90477 2.18262 2.18457C1.90721 2.4649 1.75 2.84793 1.75 3.25V15.625C1.75 16.0271 1.90721 16.4101 2.18262 16.6904C2.45757 16.9702 2.82796 17.125 3.21094 17.125H10.9473C11.3615 17.125 11.6973 17.4608 11.6973 17.875C11.6973 18.2892 11.3615 18.625 10.9473 18.625H3.21094C2.42143 18.625 1.66645 18.3052 1.1123 17.7412C0.558772 17.1777 0.25 16.4163 0.25 15.625Z" fill="#323949"/>
</svg>
