<svg width="34" height="34" viewBox="0 0 34 34" fill="none" xmlns="http://www.w3.org/2000/svg">
<path d="M21.125 2C21.3933 2 21.6508 2.1074 21.8389 2.29883L28.7139 9.29883C28.8975 9.48582 29 9.7379 29 10V28.2002C28.9999 29.2022 28.6094 30.1669 27.9082 30.8809C27.2064 31.5954 26.2504 32 25.25 32H8.75C7.74957 32 6.79361 31.5954 6.0918 30.8809C5.39063 30.1669 5.00005 29.2022 5 28.2002V27H7V28.2002C7.00005 28.6833 7.18838 29.1433 7.51855 29.4795C7.84819 29.8151 8.29175 30 8.75 30H25.25C25.7083 30 26.1518 29.8151 26.4814 29.4795C26.8116 29.1433 26.9999 28.6833 27 28.2002V12.4004H22.5C21.4996 12.4004 20.5436 11.9949 19.8418 11.2803C19.1408 10.5663 18.75 9.60155 18.75 8.59961V4H8.75C8.29174 4 7.84819 4.18488 7.51855 4.52051C7.18838 4.8567 7.00005 5.31674 7 5.7998V15H5V5.7998C5.00005 4.79781 5.39063 3.83306 6.0918 3.11914C6.79361 2.40458 7.74958 2 8.75 2H21.125ZM20.75 8.59961C20.75 9.0826 20.9385 9.5427 21.2686 9.87891C21.5982 10.2145 22.0417 10.4004 22.5 10.4004H26.9912L20.75 4.0459V8.59961Z" fill="#323949"/>
<path d="M19 25V27H5V25H19ZM21 23V19C21 17.8954 20.1046 17 19 17H5C3.89543 17 3 17.8954 3 19V23C3 24.1046 3.89543 25 5 25V27C2.79086 27 1 25.2091 1 23V19C1 16.7909 2.79086 15 5 15H19C21.2091 15 23 16.7909 23 19V23C23 25.2091 21.2091 27 19 27V25C20.1046 25 21 24.1046 21 23Z" fill="#323949"/>
<path d="M15.4154 23V19.814H14.1914V18.77H17.9354V19.814H16.7114V23H15.4154Z" fill="#323949"/>
<path d="M9.65234 23L11.4883 20.576V21.17L9.67634 18.77H11.1883L12.2083 20.234H11.7883L12.8203 18.77H14.3323L12.5143 21.17V20.576L14.3623 23H12.8443L11.8003 21.53H12.2023L11.1583 23H9.65234Z" fill="#323949"/>
<path d="M7.29431 23V19.814H6.07031V18.77H9.81431V19.814H8.59031V23H7.29431Z" fill="#323949"/>
</svg>
