<svg width="34" height="34" viewBox="0 0 34 34" fill="none" xmlns="http://www.w3.org/2000/svg">
<path d="M21.125 2C21.3933 2 21.6508 2.1074 21.8389 2.29883L28.7139 9.29883C28.8975 9.48582 29 9.7379 29 10V28.2002C28.9999 29.2022 28.6094 30.1669 27.9082 30.8809C27.2064 31.5954 26.2504 32 25.25 32H8.75C7.74957 32 6.79361 31.5954 6.0918 30.8809C5.39063 30.1669 5.00005 29.2022 5 28.2002V27H7V28.2002C7.00005 28.6833 7.18838 29.1433 7.51855 29.4795C7.84819 29.8151 8.29175 30 8.75 30H25.25C25.7083 30 26.1518 29.8151 26.4814 29.4795C26.8116 29.1433 26.9999 28.6833 27 28.2002V12.4004H22.5C21.4996 12.4004 20.5436 11.9949 19.8418 11.2803C19.1408 10.5663 18.75 9.60155 18.75 8.59961V4H8.75C8.29174 4 7.84819 4.18488 7.51855 4.52051C7.18838 4.8567 7.00005 5.31674 7 5.7998V15H5V5.7998C5.00005 4.79781 5.39063 3.83306 6.0918 3.11914C6.79361 2.40458 7.74958 2 8.75 2H21.125ZM20.75 8.59961C20.75 9.0826 20.9385 9.5427 21.2686 9.87891C21.5982 10.2145 22.0417 10.4004 22.5 10.4004H26.9912L20.75 4.0459V8.59961Z" fill="#323949"/>
<path d="M19 25V27H5V25H19ZM21 23V19C21 17.8954 20.1046 17 19 17H5C3.89543 17 3 17.8954 3 19V23C3 24.1046 3.89543 25 5 25V27C2.79086 27 1 25.2091 1 23V19C1 16.7909 2.79086 15 5 15H19C21.2091 15 23 16.7909 23 19V23C23 25.2091 21.2091 27 19 27V25C20.1046 25 21 24.1046 21 23Z" fill="#323949"/>
<path d="M15.5078 23L17.3438 20.576V21.17L15.5318 18.77H17.0438L18.0638 20.234H17.6438L18.6758 18.77H20.1878L18.3698 21.17V20.576L20.2178 23H18.6998L17.6558 21.53H18.0578L17.0138 23H15.5078Z" fill="#323949"/>
<path d="M13.7039 23.072C13.3599 23.072 13.0279 23.032 12.7079 22.952C12.3919 22.872 12.1299 22.764 11.9219 22.628L12.2759 21.632C12.4039 21.708 12.5479 21.776 12.7079 21.836C12.8679 21.892 13.0339 21.938 13.2059 21.974C13.3779 22.006 13.5479 22.022 13.7159 22.022C13.9519 22.022 14.1099 21.998 14.1899 21.95C14.2699 21.898 14.3099 21.836 14.3099 21.764C14.3099 21.696 14.2839 21.642 14.2319 21.602C14.1839 21.562 14.0819 21.526 13.9259 21.494L13.1639 21.338C12.7759 21.258 12.4839 21.116 12.2879 20.912C12.0959 20.708 11.9999 20.444 11.9999 20.12C11.9999 19.832 12.0779 19.582 12.2339 19.37C12.3899 19.158 12.6099 18.994 12.8939 18.878C13.1779 18.758 13.5099 18.698 13.8899 18.698C14.1899 18.698 14.4739 18.738 14.7419 18.818C15.0099 18.898 15.2279 19.006 15.3959 19.142L15.0419 20.078C14.8899 19.974 14.7139 19.894 14.5139 19.838C14.3179 19.778 14.0999 19.748 13.8599 19.748C13.6599 19.748 13.5099 19.772 13.4099 19.82C13.3139 19.868 13.2659 19.938 13.2659 20.03C13.2659 20.086 13.2939 20.138 13.3499 20.186C13.4059 20.234 13.5139 20.274 13.6739 20.306L14.4239 20.456C14.8039 20.532 15.0899 20.672 15.2819 20.876C15.4779 21.08 15.5759 21.342 15.5759 21.662C15.5759 21.946 15.4979 22.194 15.3419 22.406C15.1859 22.618 14.9679 22.782 14.6879 22.898C14.4079 23.014 14.0799 23.072 13.7039 23.072Z" fill="#323949"/>
<path d="M8.57812 23V18.77H9.87413V21.932H11.5901V23H8.57812Z" fill="#323949"/>
<path d="M3.76172 23L5.59772 20.576V21.17L3.78572 18.77H5.29772L6.31772 20.234H5.89772L6.92972 18.77H8.44172L6.62372 21.17V20.576L8.47172 23H6.95372L5.90972 21.53H6.31172L5.26772 23H3.76172Z" fill="#323949"/>
</svg>
