<svg width="28" height="30" viewBox="0 0 28 30" fill="none" xmlns="http://www.w3.org/2000/svg">
<path d="M20.125 0C20.3933 0 20.6508 0.107398 20.8389 0.298828L27.7139 7.29883C27.8975 7.48582 28 7.7379 28 8V26.2002C27.9999 27.2022 27.6094 28.1669 26.9082 28.8809C26.2064 29.5954 25.2504 30 24.25 30H7.75C6.74957 30 5.79361 29.5954 5.0918 28.8809C4.39063 28.1669 4.00005 27.2022 4 26.2002V25H6V26.2002C6.00005 26.6833 6.18838 27.1433 6.51855 27.4795C6.84819 27.8151 7.29175 28 7.75 28H24.25C24.7083 28 25.1518 27.8151 25.4814 27.4795C25.8116 27.1433 25.9999 26.6833 26 26.2002V10.4004H21.5C20.4996 10.4004 19.5436 9.99485 18.8418 9.28027C18.1408 8.56634 17.75 7.60155 17.75 6.59961V2H7.75C7.29174 2 6.84819 2.18488 6.51855 2.52051C6.18838 2.8567 6.00005 3.31674 6 3.7998V13H4V3.7998C4.00005 2.79781 4.39063 1.83306 5.0918 1.11914C5.79361 0.404578 6.74958 0 7.75 0H20.125ZM19.75 6.59961C19.75 7.0826 19.9385 7.5427 20.2686 7.87891C20.5982 8.21453 21.0417 8.40039 21.5 8.40039H25.9912L19.75 2.0459V6.59961Z" fill="#323949"/>
<path d="M18 23V25H4V23H18ZM20 21V17C20 15.8954 19.1046 15 18 15H4C2.89543 15 2 15.8954 2 17V21C2 22.1046 2.89543 23 4 23V25C1.79086 25 0 23.2091 0 21V17C0 14.7909 1.79086 13 4 13H18C20.2091 13 22 14.7909 22 17V21C22 23.2091 20.2091 25 18 25V23C19.1046 23 20 22.1046 20 21Z" fill="#323949"/>
<path d="M14.5078 21L16.3438 18.576V19.17L14.5318 16.77H16.0438L17.0638 18.234H16.6438L17.6758 16.77H19.1878L17.3698 19.17V18.576L19.2178 21H17.6998L16.6558 19.53H17.0578L16.0138 21H14.5078Z" fill="#323949"/>
<path d="M12.7039 21.072C12.3599 21.072 12.0279 21.032 11.7079 20.952C11.3919 20.872 11.1299 20.764 10.9219 20.628L11.2759 19.632C11.4039 19.708 11.5479 19.776 11.7079 19.836C11.8679 19.892 12.0339 19.938 12.2059 19.974C12.3779 20.006 12.5479 20.022 12.7159 20.022C12.9519 20.022 13.1099 19.998 13.1899 19.95C13.2699 19.898 13.3099 19.836 13.3099 19.764C13.3099 19.696 13.2839 19.642 13.2319 19.602C13.1839 19.562 13.0819 19.526 12.9259 19.494L12.1639 19.338C11.7759 19.258 11.4839 19.116 11.2879 18.912C11.0959 18.708 10.9999 18.444 10.9999 18.12C10.9999 17.832 11.0779 17.582 11.2339 17.37C11.3899 17.158 11.6099 16.994 11.8939 16.878C12.1779 16.758 12.5099 16.698 12.8899 16.698C13.1899 16.698 13.4739 16.738 13.7419 16.818C14.0099 16.898 14.2279 17.006 14.3959 17.142L14.0419 18.078C13.8899 17.974 13.7139 17.894 13.5139 17.838C13.3179 17.778 13.0999 17.748 12.8599 17.748C12.6599 17.748 12.5099 17.772 12.4099 17.82C12.3139 17.868 12.2659 17.938 12.2659 18.03C12.2659 18.086 12.2939 18.138 12.3499 18.186C12.4059 18.234 12.5139 18.274 12.6739 18.306L13.4239 18.456C13.8039 18.532 14.0899 18.672 14.2819 18.876C14.4779 19.08 14.5759 19.342 14.5759 19.662C14.5759 19.946 14.4979 20.194 14.3419 20.406C14.1859 20.618 13.9679 20.782 13.6879 20.898C13.4079 21.014 13.0799 21.072 12.7039 21.072Z" fill="#323949"/>
<path d="M7.57812 21V16.77H8.87413V19.932H10.5901V21H7.57812Z" fill="#323949"/>
<path d="M2.76172 21L4.59772 18.576V19.17L2.78572 16.77H4.29772L5.31772 18.234H4.89772L5.92972 16.77H7.44172L5.62372 19.17V18.576L7.47172 21H5.95372L4.90972 19.53H5.31172L4.26772 21H2.76172Z" fill="#323949"/>
</svg>
