<svg width="22" height="19" viewBox="0 0 22 19" fill="none" xmlns="http://www.w3.org/2000/svg">
<path d="M20.25 8.75H1.75V16C1.75 16.3315 1.88179 16.6494 2.11621 16.8838C2.35063 17.1182 2.66848 17.25 3 17.25H19C19.3315 17.25 19.6494 17.1182 19.8838 16.8838C20.1182 16.6494 20.25 16.3315 20.25 16V8.75ZM21.75 16C21.75 16.7293 21.4601 17.4286 20.9443 17.9443C20.4286 18.4601 19.7293 18.75 19 18.75H3C2.27065 18.75 1.57139 18.4601 1.05566 17.9443C0.539939 17.4286 0.25 16.7293 0.25 16V3C0.25 2.27065 0.539939 1.57139 1.05566 1.05566C1.57139 0.539939 2.27065 0.25 3 0.25H6.92969C7.38496 0.250075 7.8336 0.363113 8.23438 0.579102C8.63266 0.793753 8.97172 1.10344 9.22168 1.48047L10.0312 2.68066L10.0361 2.6875C10.1511 2.86211 10.3086 3.00525 10.4932 3.10352C10.6776 3.20168 10.8838 3.25205 11.0928 3.25H19C19.7293 3.25 20.4286 3.53994 20.9443 4.05566C21.4601 4.57139 21.75 5.27065 21.75 6V16ZM1.75 7.25H20.25V6C20.25 5.66848 20.1182 5.35063 19.8838 5.11621C19.6494 4.88179 19.3315 4.75 19 4.75H11.0996V4.74902C10.6425 4.75222 10.1917 4.64257 9.78809 4.42773C9.38212 4.21154 9.03615 3.89684 8.7832 3.5127V3.51172L7.97852 2.31934L7.97363 2.3125C7.85981 2.13967 7.70463 1.99759 7.52246 1.89941C7.34036 1.80133 7.13653 1.75003 6.92969 1.75H3C2.66848 1.75 2.35063 1.88179 2.11621 2.11621C1.88179 2.35063 1.75 2.66848 1.75 3V7.25Z" fill="#323949"/>
</svg>
