<svg width="20" height="17" viewBox="0 0 20 17" fill="none" xmlns="http://www.w3.org/2000/svg">
<path d="M0 3.33333H16.4444C17.6889 3.33333 18.3111 3.33333 18.7867 3.57556C19.2048 3.7886 19.5447 4.12855 19.7578 4.54667C20 5.02222 20 5.64444 20 6.88889V13.1111C20 14.3556 20 14.9778 19.7578 15.4533C19.5447 15.8715 19.2048 16.2114 18.7867 16.4244C18.3111 16.6667 17.6889 16.6667 16.4444 16.6667H3.55556C2.31111 16.6667 1.68889 16.6667 1.21333 16.4244C0.795214 16.2114 0.455271 15.8715 0.242222 15.4533C-5.96046e-08 14.9778 0 14.3556 0 13.1111V3.33333ZM0 3.33333C0 2.29778 -4.47035e-08 1.78 0.168889 1.37222C0.28057 1.10242 0.444328 0.857279 0.650804 0.650804C0.857279 0.444328 1.10242 0.28057 1.37222 0.168889C1.78 -4.47035e-08 2.29778 0 3.33333 0H5.93667C6.84556 0 7.29889 -4.47035e-08 7.70778 0.168889C8.11667 0.337778 8.43778 0.66 9.08 1.30222L11.1111 3.33333H0Z" fill="#D6D7DB"/>
<path d="M6.66797 9.99984H10.0013H6.66797ZM10.0013 9.99984H13.3346H10.0013ZM10.0013 9.99984V13.3332V9.99984ZM10.0013 9.99984V6.6665V9.99984Z" fill="#D6D7DB"/>
</svg>
