<svg width="24" height="19" viewBox="0 0 24 19" fill="none" xmlns="http://www.w3.org/2000/svg">
<path d="M2 4.33333H18.4444C19.6889 4.33333 20.3111 4.33333 20.7867 4.57556C21.2048 4.7886 21.5447 5.12855 21.7578 5.54667C22 6.02222 22 6.64444 22 7.88889V14.1111C22 15.3556 22 15.9778 21.7578 16.4533C21.5447 16.8715 21.2048 17.2114 20.7867 17.4244C20.3111 17.6667 19.6889 17.6667 18.4444 17.6667H5.55556C4.31111 17.6667 3.68889 17.6667 3.21333 17.4244C2.79521 17.2114 2.45527 16.8715 2.24222 16.4533C2 15.9778 2 15.3556 2 14.1111V4.33333ZM2 4.33333C2 3.29778 2 2.78 2.16889 2.37222C2.28057 2.10242 2.44433 1.85728 2.6508 1.6508C2.85728 1.44433 3.10242 1.28057 3.37222 1.16889C3.78 1 4.29778 1 5.33333 1H7.93667C8.84556 1 9.29889 1 9.70778 1.16889C10.1167 1.33778 10.4378 1.66 11.08 2.30222L13.1111 4.33333H2Z" fill="black"/>
<path d="M8.66797 10.9998H12.0013H8.66797ZM12.0013 10.9998H15.3346H12.0013ZM12.0013 10.9998V14.3332V10.9998ZM12.0013 10.9998V7.6665V10.9998Z" fill="black"/>
</svg>
