<svg width="24" height="24" viewBox="0 0 24 24" fill="none" xmlns="http://www.w3.org/2000/svg">
<path d="M15.0518 1H8.94834C8.57499 1 8.23053 1.20579 8.0485 1.53842L1.13132 14.1516C0.946191 14.4895 0.957536 14.9037 1.16071 15.2305L4.45067 20.5121C4.64044 20.8158 4.96841 21 5.32112 21H18.6785C19.0312 21 19.3597 20.8158 19.5489 20.5121L22.8389 15.2305C23.0426 14.9037 23.0539 14.4895 22.8683 14.1516L15.9516 1.53842C15.7691 1.20579 15.4251 1 15.0518 1ZM15.0477 2.05263L21.6946 14.1579H16.1821L10.0147 2.05263H15.0477ZM15.0167 14.1579H8.89058L11.9743 8.18947L15.0167 14.1579ZM2.02703 14.6684L8.9009 2.15263L11.3967 7.05263L4.99728 19.4263L2.02703 14.6684ZM18.678 19.9474H5.89455L8.34397 15.2105H21.6328L18.678 19.9474Z" fill="#323949"/>
</svg>
