<svg width="20" height="20" viewBox="0 0 20 20" fill="none" xmlns="http://www.w3.org/2000/svg">
<path d="M0.25 17V1C0.25 0.585786 0.585786 0.25 1 0.25C1.41421 0.25 1.75 0.585786 1.75 1V17C1.75 17.3315 1.88179 17.6494 2.11621 17.8838C2.35063 18.1182 2.66848 18.25 3 18.25H19C19.4142 18.25 19.75 18.5858 19.75 19C19.75 19.4142 19.4142 19.75 19 19.75H3C2.27065 19.75 1.57139 19.4601 1.05566 18.9443C0.539939 18.4286 0.25 17.7293 0.25 17ZM13 13.25C13.4142 13.25 13.75 13.5858 13.75 14C13.75 14.4142 13.4142 14.75 13 14.75H5C4.58579 14.75 4.25 14.4142 4.25 14C4.25 13.5858 4.58579 13.25 5 13.25H13ZM17 8.25C17.4142 8.25 17.75 8.58579 17.75 9C17.75 9.41421 17.4142 9.75 17 9.75H5C4.58579 9.75 4.25 9.41421 4.25 9C4.25 8.58579 4.58579 8.25 5 8.25H17ZM8 3.25C8.41421 3.25 8.75 3.58579 8.75 4C8.75 4.41421 8.41421 4.75 8 4.75H5C4.58579 4.75 4.25 4.41421 4.25 4C4.25 3.58579 4.58579 3.25 5 3.25H8Z" fill="#323949"/>
</svg>
