<svg width="16" height="16" viewBox="0 0 16 16" fill="none" xmlns="http://www.w3.org/2000/svg">
<path d="M14.0508 8.55005H8.55078V14.05H13.2451C13.69 14.05 14.0508 13.6893 14.0508 13.2444V8.55005ZM1.55078 13.2444C1.55078 13.6893 1.91155 14.05 2.35645 14.05H7.05078V8.55005H1.55078V13.2444ZM14.0508 2.35571C14.0508 1.91082 13.69 1.55005 13.2451 1.55005H8.55078V7.05005H14.0508V2.35571ZM1.55078 7.05005H7.05078V1.55005H2.35645C1.91155 1.55005 1.55078 1.91082 1.55078 2.35571V7.05005ZM15.5508 13.2444C15.5508 14.5177 14.5184 15.55 13.2451 15.55H2.35645C1.08312 15.55 0.0507812 14.5177 0.0507812 13.2444V2.35571C0.0507812 1.08239 1.08312 0.0500488 2.35645 0.0500488H13.2451C14.5184 0.0500488 15.5508 1.08239 15.5508 2.35571V13.2444Z" fill="#999CA4"/>
</svg>
