<svg width="24" height="24" viewBox="0 0 24 24" fill="none" xmlns="http://www.w3.org/2000/svg">
<path d="M18.0508 12.55H12.5508V18.05H17.2451C17.69 18.05 18.0508 17.6893 18.0508 17.2444V12.55ZM5.55078 17.2444C5.55078 17.6893 5.91155 18.05 6.35645 18.05H11.0508V12.55H5.55078V17.2444ZM18.0508 6.35571C18.0508 5.91082 17.69 5.55005 17.2451 5.55005H12.5508V11.05H18.0508V6.35571ZM5.55078 11.05H11.0508V5.55005H6.35645C5.91155 5.55005 5.55078 5.91082 5.55078 6.35571V11.05ZM19.5508 17.2444C19.5508 18.5177 18.5184 19.55 17.2451 19.55H6.35645C5.08312 19.55 4.05078 18.5177 4.05078 17.2444V6.35571C4.05078 5.08239 5.08312 4.05005 6.35645 4.05005H17.2451C18.5184 4.05005 19.5508 5.08239 19.5508 6.35571V17.2444Z" fill="black"/>
</svg>
