<svg width="22" height="20" viewBox="0 0 22 20" fill="none" xmlns="http://www.w3.org/2000/svg">
<path d="M10.7012 17.942C10.8319 17.942 10.9659 17.9126 11.1032 17.854C11.2405 17.7953 11.3515 17.7236 11.4362 17.639L19.2322 9.84196C19.4835 9.59062 19.6775 9.33396 19.8142 9.07196C19.9502 8.80862 20.0182 8.51996 20.0182 8.20596C20.0182 7.88796 19.9502 7.57929 19.8142 7.27996C19.6775 6.97996 19.4835 6.70662 19.2322 6.45996L15.4822 2.70996C15.2349 2.45862 14.9805 2.27429 14.7192 2.15696C14.4585 2.03962 14.1692 1.98096 13.8512 1.98096C13.5372 1.98096 13.2455 2.03962 12.9762 2.15696C12.7069 2.27429 12.4532 2.45829 12.2152 2.70896L11.3432 3.58096L13.1932 5.43596C13.3919 5.63129 13.5402 5.85329 13.6382 6.10196C13.7355 6.35062 13.7842 6.60296 13.7842 6.85896C13.7842 7.37962 13.6139 7.81029 13.2732 8.15096C12.9325 8.49162 12.5022 8.66162 11.9822 8.66096C11.7255 8.66096 11.4752 8.62196 11.2312 8.54396C10.9872 8.46596 10.7675 8.32929 10.5722 8.13396L9.10122 6.66996C8.98588 6.55462 8.83855 6.49696 8.65922 6.49696C8.47922 6.49696 8.33155 6.55462 8.21622 6.66996L4.34122 10.545C4.24055 10.6463 4.16488 10.7613 4.11422 10.89C4.06355 11.0186 4.03822 11.1486 4.03822 11.28C4.03822 11.516 4.11388 11.7103 4.26522 11.863C4.41588 12.0163 4.60922 12.093 4.84522 12.093C4.97588 12.093 5.10988 12.0636 5.24722 12.005C5.38455 11.9456 5.49555 11.8736 5.58022 11.789L8.39522 8.97396C8.48855 8.88062 8.60255 8.82962 8.73722 8.82096C8.87188 8.81229 8.99388 8.86329 9.10322 8.97396C9.20988 9.08062 9.26322 9.19862 9.26322 9.32796C9.26322 9.45729 9.20988 9.57529 9.10322 9.68196L6.29322 12.497C6.19188 12.5983 6.11588 12.7133 6.06522 12.842C6.01522 12.9713 5.99022 13.1013 5.99022 13.232C5.99022 13.4553 6.06888 13.6456 6.22622 13.803C6.38355 13.9603 6.57388 14.0393 6.79722 14.04C6.92788 14.04 7.06188 14.0103 7.19922 13.951C7.33655 13.8916 7.44755 13.82 7.53222 13.736L10.5782 10.696C10.6715 10.602 10.7852 10.5506 10.9192 10.542C11.0532 10.5333 11.1752 10.5843 11.2852 10.695C11.3919 10.8016 11.4452 10.9196 11.4452 11.049C11.4452 11.1783 11.3919 11.2963 11.2852 11.403L8.24522 14.449C8.15722 14.5336 8.08455 14.6446 8.02722 14.782C7.96988 14.9193 7.94122 15.0533 7.94122 15.184C7.94122 15.4066 8.02022 15.5966 8.17822 15.754C8.33622 15.9126 8.52655 15.992 8.74922 15.992C8.87988 15.992 9.00988 15.9666 9.13922 15.916C9.26855 15.8653 9.38322 15.7893 9.48322 15.688L12.5302 12.648C12.6235 12.554 12.7372 12.5026 12.8712 12.494C13.0052 12.486 13.1275 12.537 13.2382 12.647C13.3442 12.7536 13.3972 12.8716 13.3972 13.001C13.3972 13.1303 13.3439 13.2483 13.2372 13.355L10.1922 16.4C10.0915 16.5013 10.0159 16.623 9.96522 16.765C9.91455 16.907 9.88922 17.0366 9.88922 17.154C9.88922 17.39 9.97222 17.5803 10.1382 17.725C10.3042 17.8696 10.4922 17.942 10.7022 17.942M10.6962 18.942C10.1822 18.942 9.74222 18.754 9.37622 18.378C9.01022 18.002 8.84955 17.5373 8.89422 16.984C8.32755 16.9906 7.85588 16.8216 7.47922 16.477C7.10255 16.1323 6.92355 15.651 6.94222 15.033C6.32488 15.0396 5.83822 14.863 5.48222 14.503C5.12622 14.143 4.96422 13.669 4.99622 13.081C4.44022 13.0876 3.97488 12.931 3.60022 12.611C3.22622 12.2923 3.03922 11.8483 3.03922 11.279C3.03922 11.0223 3.08888 10.7656 3.18822 10.509C3.28755 10.2516 3.43422 10.0256 3.62822 9.83096L7.52322 5.93596C7.82988 5.62996 8.20788 5.47696 8.65722 5.47696C9.10655 5.47696 9.48455 5.63029 9.79122 5.93696L11.2422 7.38796C11.3269 7.47662 11.4315 7.54962 11.5562 7.60696C11.6809 7.66429 11.8212 7.69262 11.9772 7.69196C12.1912 7.69196 12.3802 7.61729 12.5442 7.46796C12.7082 7.31862 12.7905 7.12396 12.7912 6.88396C12.7912 6.72796 12.7625 6.58796 12.7052 6.46396C12.6479 6.33929 12.5752 6.23462 12.4872 6.14996L9.04722 2.70996C8.79922 2.45862 8.54155 2.27429 8.27422 2.15696C8.00688 2.03962 7.71422 1.98096 7.39622 1.98096C7.08222 1.98096 6.79688 2.03962 6.54022 2.15696C6.28422 2.27429 6.03055 2.45862 5.77922 2.70996L2.73422 5.75996C2.38488 6.10862 2.16022 6.53429 2.06022 7.03696C1.96022 7.53962 2.00588 8.01962 2.19722 8.47696C2.23455 8.60629 2.21788 8.73129 2.14722 8.85196C2.07655 8.97262 1.97655 9.04929 1.84722 9.08196C1.71788 9.11462 1.58955 9.09729 1.46222 9.02996C1.33488 8.96262 1.25488 8.86362 1.22222 8.73296C1.00688 8.08629 0.959884 7.43329 1.08122 6.77396C1.20255 6.11462 1.51588 5.53229 2.02122 5.02696L5.04522 2.00196C5.39388 1.65662 5.76288 1.39996 6.15222 1.23196C6.54155 1.06462 6.96255 0.980957 7.41522 0.980957C7.86788 0.980957 8.28522 1.06496 8.66722 1.23296C9.04988 1.40029 9.41388 1.65662 9.75922 2.00196L10.6292 2.87296L11.5012 2.00196C11.8499 1.65662 12.2155 1.39996 12.5982 1.23196C12.9809 1.06462 13.3985 0.980957 13.8512 0.980957C14.3039 0.980957 14.7249 1.06496 15.1142 1.23296C15.5029 1.40029 15.8695 1.65662 16.2142 2.00196L19.9402 5.72696C20.2849 6.07162 20.5509 6.45862 20.7382 6.88796C20.9255 7.31729 21.0189 7.75829 21.0182 8.21096C21.0182 8.66429 20.9249 9.08196 20.7382 9.46396C20.5515 9.84596 20.2855 10.21 19.9402 10.556L12.1432 18.346C11.9359 18.554 11.7099 18.7053 11.4652 18.8C11.2212 18.8946 10.9655 18.942 10.6962 18.942Z" fill="#323949"/>
<path d="M21.0192 8.21143C21.0197 7.81524 20.9477 7.42762 20.8043 7.04932L20.7389 6.88818C20.5749 6.51238 20.3506 6.16884 20.066 5.85791L19.941 5.72705L16.2145 2.00244C15.9129 1.70029 15.5946 1.46618 15.2594 1.30029L15.1149 1.23291C14.7742 1.08592 14.4093 1.00324 14.0201 0.984863L13.8522 0.980957C13.3996 0.980957 12.9818 1.0647 12.5992 1.23193L12.4557 1.29932C12.1247 1.4657 11.8065 1.70041 11.5016 2.00244L10.6295 2.87256L9.7594 2.00244C9.41406 1.65711 9.05026 1.40024 8.6676 1.23291C8.28565 1.06497 7.86823 0.980957 7.41565 0.980957C6.96309 0.980979 6.5422 1.06466 6.15295 1.23193L6.00744 1.29932C5.67135 1.4657 5.35051 1.70038 5.04553 2.00244L2.02209 5.02686L1.84143 5.22021C1.44128 5.67922 1.18783 6.19702 1.08166 6.77393C0.960327 7.43326 1.00793 8.08624 1.22326 8.73291C1.25591 8.86344 1.33538 8.96247 1.46252 9.02979C1.55789 9.08021 1.65412 9.10283 1.75061 9.09717L1.84826 9.08154C1.9451 9.05698 2.02557 9.00803 2.08947 8.93408L2.14807 8.85205C2.20113 8.76143 2.2233 8.66826 2.21545 8.57275L2.19787 8.47705C2.03042 8.07681 1.97422 7.65908 2.0299 7.22412L2.06115 7.03662C2.14871 6.59681 2.33152 6.21594 2.60998 5.89404L2.73498 5.76025L5.7799 2.70947C6.03112 2.4583 6.28476 2.27403 6.54065 2.15674C6.79731 2.0394 7.08309 1.98096 7.39709 1.98096L7.63049 1.9917C7.85953 2.01369 8.07449 2.06872 8.27502 2.15674C8.54218 2.27401 8.79963 2.45838 9.04748 2.70947L12.4879 6.1499C12.5759 6.23457 12.6484 6.3397 12.7057 6.46436C12.7629 6.58829 12.7916 6.72839 12.7916 6.88428L12.7877 6.97217C12.7692 7.1721 12.688 7.33767 12.5446 7.46826L12.4176 7.56592C12.2852 7.65001 12.1387 7.69184 11.9781 7.69189C11.861 7.6924 11.7524 7.67626 11.653 7.64404L11.5572 7.60693C11.4326 7.54962 11.3274 7.4768 11.2428 7.38818L9.79162 5.93701C9.52327 5.66869 9.20046 5.5174 8.82287 5.48389L8.65783 5.47705C8.20853 5.47705 7.8307 5.63008 7.52404 5.93604L3.62854 9.83057C3.43454 10.0252 3.28842 10.2519 3.18908 10.5093L3.12365 10.7017C3.06783 10.894 3.03968 11.0864 3.03967 11.2788C3.03967 11.8481 3.22719 12.2922 3.60119 12.6108C3.97581 12.9307 4.44083 13.0872 4.9967 13.0806C4.9647 13.6686 5.12703 14.1434 5.48303 14.5034C5.839 14.8632 6.32585 15.0394 6.94299 15.0327C6.92432 15.6507 7.10343 16.1324 7.4801 16.4771C7.85673 16.8216 8.32857 16.9906 8.89514 16.9839C8.85047 17.5372 9.01058 18.0024 9.37658 18.3784C9.69678 18.7073 10.074 18.892 10.5074 18.9331L10.6969 18.9419C10.899 18.9419 11.0933 18.9151 11.2809 18.8618L11.4655 18.8003C11.7101 18.7056 11.9368 18.5542 12.1442 18.3462L19.941 10.5562C20.1999 10.2968 20.4139 10.0271 20.5836 9.74756L20.7389 9.46436C20.9022 9.13014 20.9938 8.76821 21.0143 8.37939L21.0192 8.21143ZM7.94201 15.1841C7.94201 15.0861 7.95762 14.986 7.98986 14.8843L8.02795 14.7817C8.08527 14.6445 8.15777 14.5333 8.24572 14.4487L11.2858 11.4028C11.3657 11.3229 11.4161 11.2367 11.4362 11.144L11.4459 11.0493C11.4459 10.92 11.3924 10.8015 11.2858 10.6948C11.1758 10.5842 11.0535 10.5328 10.9196 10.5415C10.7857 10.5502 10.672 10.6019 10.5787 10.6958L7.53283 13.7358L7.46447 13.7964C7.39109 13.8548 7.30287 13.9062 7.19982 13.9507L7.09729 13.9897C6.99557 14.0231 6.89545 14.0396 6.79748 14.0396C6.60222 14.0389 6.43251 13.9784 6.28772 13.8579L6.22717 13.8032C6.08946 13.6655 6.01192 13.5022 5.99475 13.314L5.99084 13.2319C5.99084 13.1013 6.01609 12.9715 6.06604 12.8423C6.1167 12.7136 6.19224 12.5979 6.29357 12.4966L9.10412 9.68213C9.1842 9.60203 9.2336 9.51524 9.25354 9.42236L9.26428 9.32764C9.26421 9.23071 9.23345 9.14035 9.17346 9.05615L9.10412 8.97412C9.02215 8.89115 8.93276 8.84158 8.83654 8.82568L8.73791 8.8208C8.60327 8.82947 8.48944 8.88083 8.39611 8.97412L5.58068 11.7886C5.49602 11.8732 5.38501 11.946 5.24768 12.0054L5.14514 12.0435C5.04365 12.0763 4.94406 12.0932 4.84631 12.0933V11.8931C4.92117 11.893 5.00003 11.8801 5.08361 11.853L5.16955 11.8208C5.28849 11.7693 5.37632 11.7106 5.43908 11.6479L8.25451 8.83252C8.38304 8.70402 8.54327 8.63329 8.72522 8.62158C8.92621 8.60871 9.10185 8.68838 9.24475 8.83252C9.38211 8.96988 9.46341 9.13657 9.4635 9.32764C9.4635 9.51881 9.38312 9.68631 9.24572 9.82373L6.43518 12.6382C6.35289 12.7205 6.29183 12.8119 6.25158 12.9136C6.20993 13.0213 6.19104 13.1274 6.19104 13.2319C6.19104 13.4024 6.24825 13.542 6.36779 13.6616C6.48739 13.7812 6.62719 13.8386 6.79748 13.8394C6.89719 13.8394 7.00482 13.8172 7.12072 13.7671C7.24027 13.7154 7.32826 13.6566 7.39123 13.5942L10.4371 10.5542C10.5653 10.4254 10.7251 10.354 10.9069 10.3423C11.1076 10.3293 11.2832 10.4096 11.4264 10.5532C11.5638 10.6907 11.6461 10.8581 11.6461 11.0493C11.646 11.1927 11.6 11.3222 11.5192 11.436L11.4274 11.5444L8.3844 14.5933C8.32002 14.6552 8.26151 14.7416 8.21252 14.8589C8.16397 14.9752 8.14221 15.0833 8.14221 15.1841C8.14224 15.3533 8.19975 15.492 8.31994 15.6118L8.32092 15.6128C8.44154 15.7338 8.58065 15.7915 8.74963 15.7915V15.9917C8.52705 15.9917 8.33629 15.913 8.17834 15.7544C8.04016 15.6168 7.96324 15.4537 7.94592 15.2661L7.94201 15.1841ZM4.03869 11.2798C4.03871 11.1814 4.05319 11.0837 4.08166 10.9868L4.11486 10.8901C4.16546 10.7617 4.24097 10.6466 4.34143 10.5454L8.21643 6.67041C8.33175 6.55508 8.4798 6.49659 8.65979 6.49658C8.83912 6.49658 8.98684 6.55508 9.10217 6.67041L10.5729 8.13428C10.7682 8.32951 10.9881 8.46646 11.2321 8.54443C11.415 8.60288 11.6016 8.6392 11.7916 8.65381L11.983 8.66064C12.438 8.66119 12.8245 8.53174 13.1422 8.271L13.274 8.15088C13.6146 7.81024 13.7848 7.37948 13.7848 6.85889C13.7848 6.66704 13.7574 6.47728 13.7028 6.28955L13.6393 6.10205C13.5658 5.91558 13.4637 5.74388 13.3336 5.5874L13.194 5.43604L11.3434 3.58057L12.2155 2.7085C12.394 2.52046 12.5818 2.37033 12.778 2.25732L12.9772 2.15674C13.2464 2.03951 13.5383 1.98096 13.8522 1.98096L14.0846 1.9917C14.3123 2.01366 14.5239 2.06881 14.7194 2.15674C14.9806 2.27405 15.2357 2.45821 15.483 2.70947L19.233 6.45947C19.4843 6.70612 19.6784 6.97981 19.8151 7.27979C19.951 7.579 20.0191 7.8877 20.0192 8.20557L20.0065 8.43701C19.981 8.66282 19.9169 8.87442 19.8151 9.07178L19.7018 9.26709C19.5777 9.46171 19.4216 9.65367 19.233 9.84229L11.4371 17.6392L11.3688 17.6997C11.2954 17.7584 11.2072 17.8099 11.1041 17.854L11.0016 17.8921C10.9337 17.9141 10.8666 17.9287 10.8004 17.936L10.7028 17.9419C10.5452 17.9419 10.4 17.9013 10.2672 17.8198L10.1393 17.7251C9.99414 17.5986 9.9124 17.437 9.89416 17.2407L9.89025 17.1538C9.89027 17.066 9.90386 16.9712 9.93225 16.8696L9.96545 16.7651C10.0161 16.6231 10.0923 16.5012 10.193 16.3999L13.2379 13.355C13.3178 13.2751 13.3683 13.1888 13.3883 13.0962L13.3981 13.0005C13.3979 12.8714 13.3447 12.7535 13.2389 12.647C13.1282 12.537 13.0057 12.4857 12.8717 12.4937C12.7378 12.5023 12.6242 12.554 12.5309 12.6479L9.484 15.688C9.38414 15.7892 9.26938 15.8649 9.14025 15.9155L9.0426 15.9487C8.94534 15.9772 8.84764 15.9917 8.74963 15.9917V15.7915C8.85379 15.7915 8.95944 15.7721 9.06701 15.73C9.16959 15.6898 9.26061 15.6293 9.34143 15.5474L9.3424 15.5464L12.3893 12.5063C12.5174 12.3775 12.6773 12.3062 12.859 12.2944H12.9342C13.0555 12.3011 13.1667 12.3421 13.2662 12.4106L13.3795 12.5054L13.3805 12.5063C13.517 12.6438 13.5981 12.81 13.5983 13.0005C13.5983 13.1917 13.5169 13.3592 13.3795 13.4966L10.3346 16.5415L10.3336 16.5405C10.255 16.6198 10.1952 16.7168 10.1539 16.8325C10.109 16.9585 10.0895 17.065 10.0895 17.1538C10.0895 17.3366 10.1513 17.4701 10.2701 17.5737C10.4014 17.6881 10.543 17.7405 10.7018 17.7407C10.8018 17.7407 10.9091 17.7199 11.025 17.6704C11.1445 17.6194 11.2328 17.5603 11.2955 17.4976L19.0914 9.70068C19.3312 9.46092 19.5118 9.21974 19.6373 8.979C19.7575 8.746 19.819 8.48918 19.819 8.20557C19.8189 7.98942 19.7842 7.77774 19.7145 7.56982L19.6324 7.36279C19.5066 7.08671 19.3274 6.83362 19.0924 6.60303L19.0914 6.60107L15.3405 2.8501C15.1067 2.61261 14.8723 2.44448 14.6383 2.33936C14.4064 2.23502 14.1448 2.18119 13.8522 2.18115C13.5637 2.18115 13.2987 2.23472 13.0563 2.34033C12.8157 2.44522 12.5835 2.61185 12.361 2.84619L11.6256 3.58057L13.3356 5.29443C13.5529 5.50835 13.7163 5.75333 13.8248 6.02881L13.8951 6.23291C13.955 6.43839 13.985 6.6473 13.985 6.85889C13.985 7.42779 13.7969 7.91111 13.4156 8.29248C13.0343 8.67378 12.5513 8.86147 11.983 8.86084C11.7057 8.86084 11.4343 8.81917 11.1705 8.73486C10.8939 8.64639 10.6473 8.49091 10.4313 8.2749L8.96057 6.81201C8.88666 6.73815 8.79182 6.69678 8.65979 6.69678C8.52686 6.69678 8.43178 6.73732 8.35803 6.81104L4.48303 10.6851C4.40091 10.7677 4.34175 10.8609 4.30139 10.9634C4.25944 11.0699 4.23891 11.1749 4.23889 11.2798C4.23889 11.4687 4.29744 11.6108 4.40783 11.7222L4.40881 11.7231C4.51795 11.834 4.65837 11.8931 4.84631 11.8931V12.0933L4.7594 12.0894C4.59015 12.075 4.44496 12.0174 4.32385 11.9165L4.26623 11.8628C4.1149 11.7101 4.03869 11.5158 4.03869 11.2798ZM21.2184 8.21143C21.2183 8.69295 21.1194 9.14124 20.9186 9.55225C20.721 9.9565 20.441 10.3377 20.0826 10.6968L12.2848 18.4878C12.0603 18.7129 11.8111 18.881 11.5377 18.9868C11.2702 19.0905 10.9901 19.1421 10.6969 19.1421C10.1277 19.1421 9.63579 18.9309 9.23303 18.5171C8.87227 18.1463 8.69178 17.6955 8.68811 17.1772C8.16603 17.1443 7.7142 16.9629 7.34436 16.6245C6.95986 16.2726 6.76626 15.7993 6.74475 15.2271C6.17567 15.1968 5.70111 15.0087 5.34045 14.644C4.98226 14.2818 4.80405 13.8195 4.79357 13.2749C4.35503 13.249 3.96562 13.1218 3.63147 12.8872L3.47131 12.7632C3.04541 12.4003 2.83947 11.8964 2.83947 11.2788C2.83949 10.9958 2.89501 10.7149 3.00256 10.437C3.11183 10.154 3.27335 9.90431 3.48693 9.68994L7.38244 5.79443L7.51623 5.67334C7.83686 5.40923 8.22023 5.27686 8.65783 5.27686C9.15803 5.27686 9.58758 5.4498 9.93322 5.79541L11.3873 7.24951C11.4526 7.31786 11.5358 7.37726 11.6403 7.42529C11.735 7.46889 11.8463 7.49226 11.9772 7.4917C12.1392 7.49163 12.2812 7.43684 12.4098 7.31982C12.5285 7.21176 12.5907 7.07289 12.5914 6.88428L12.5875 6.78955C12.5788 6.69871 12.5567 6.61897 12.524 6.54834C12.4759 6.44376 12.417 6.3597 12.3492 6.29443L8.90588 2.8501C8.67203 2.6131 8.43383 2.44561 8.19397 2.34033C7.95431 2.2352 7.68968 2.18119 7.39709 2.18115C7.10884 2.18115 6.85221 2.23447 6.62463 2.33838C6.39516 2.44355 6.16015 2.61248 5.9215 2.85107L2.87658 5.90088C2.5565 6.22035 2.35006 6.61046 2.25744 7.07568C2.17648 7.48264 2.19845 7.87027 2.32287 8.2417L2.38244 8.3999L2.39025 8.42139C2.44343 8.6056 2.41705 8.78677 2.31994 8.95264C2.22369 9.11699 2.08101 9.22935 1.89709 9.27588C1.71587 9.32165 1.53696 9.2949 1.36975 9.20654C1.20044 9.11701 1.08261 8.97839 1.03283 8.79541C0.807233 8.11753 0.757872 7.43063 0.885372 6.73779C1.01454 6.03591 1.34849 5.41725 1.88049 4.88525L4.9049 1.85986C5.26855 1.49969 5.6583 1.22765 6.07385 1.04834L6.23107 0.98584C6.60208 0.849068 6.99737 0.780781 7.41565 0.780762C7.89304 0.780762 8.33767 0.869705 8.7467 1.04932C9.15575 1.22819 9.54096 1.5008 9.901 1.86084L10.6295 2.59033L11.361 1.86084C11.7241 1.5012 12.1105 1.22776 12.5192 1.04834C12.929 0.869212 13.3745 0.780762 13.8522 0.780762C14.3301 0.780804 14.7781 0.869871 15.194 1.04932L15.3483 1.12061C15.7055 1.29737 16.0412 1.54533 16.3561 1.86084L20.0826 5.58545C20.4442 5.94703 20.7248 6.35499 20.9225 6.80811C21.1204 7.26178 21.2191 7.73025 21.2184 8.21143Z" fill="#323949"/>
</svg>
