<svg width="24" height="24" viewBox="0 0 24 24" fill="none" xmlns="http://www.w3.org/2000/svg">
<path d="M11.7012 19.942C11.8319 19.942 11.9659 19.9126 12.1032 19.854C12.2405 19.7953 12.3515 19.7236 12.4362 19.639L20.2322 11.842C20.4835 11.5906 20.6775 11.334 20.8142 11.072C20.9502 10.8086 21.0182 10.52 21.0182 10.206C21.0182 9.88796 20.9502 9.57929 20.8142 9.27996C20.6775 8.97996 20.4835 8.70662 20.2322 8.45996L16.4822 4.70996C16.2349 4.45862 15.9805 4.27429 15.7192 4.15696C15.4585 4.03962 15.1692 3.98096 14.8512 3.98096C14.5372 3.98096 14.2455 4.03962 13.9762 4.15696C13.7069 4.27429 13.4532 4.45829 13.2152 4.70896L12.3432 5.58096L14.1932 7.43596C14.3919 7.63129 14.5402 7.85329 14.6382 8.10196C14.7355 8.35062 14.7842 8.60296 14.7842 8.85896C14.7842 9.37962 14.6139 9.81029 14.2732 10.151C13.9325 10.4916 13.5022 10.6616 12.9822 10.661C12.7255 10.661 12.4752 10.622 12.2312 10.544C11.9872 10.466 11.7675 10.3293 11.5722 10.134L10.1012 8.66996C9.98588 8.55462 9.83855 8.49696 9.65922 8.49696C9.47922 8.49696 9.33155 8.55462 9.21622 8.66996L5.34122 12.545C5.24055 12.6463 5.16488 12.7613 5.11422 12.89C5.06355 13.0186 5.03822 13.1486 5.03822 13.28C5.03822 13.516 5.11388 13.7103 5.26522 13.863C5.41588 14.0163 5.60922 14.093 5.84522 14.093C5.97588 14.093 6.10988 14.0636 6.24722 14.005C6.38455 13.9456 6.49555 13.8736 6.58022 13.789L9.39522 10.974C9.48855 10.8806 9.60255 10.8296 9.73722 10.821C9.87188 10.8123 9.99388 10.8633 10.1032 10.974C10.2099 11.0806 10.2632 11.1986 10.2632 11.328C10.2632 11.4573 10.2099 11.5753 10.1032 11.682L7.29322 14.497C7.19188 14.5983 7.11588 14.7133 7.06522 14.842C7.01522 14.9713 6.99022 15.1013 6.99022 15.232C6.99022 15.4553 7.06888 15.6456 7.22622 15.803C7.38355 15.9603 7.57388 16.0393 7.79722 16.04C7.92788 16.04 8.06188 16.0103 8.19922 15.951C8.33655 15.8916 8.44755 15.82 8.53222 15.736L11.5782 12.696C11.6715 12.602 11.7852 12.5506 11.9192 12.542C12.0532 12.5333 12.1752 12.5843 12.2852 12.695C12.3919 12.8016 12.4452 12.9196 12.4452 13.049C12.4452 13.1783 12.3919 13.2963 12.2852 13.403L9.24522 16.449C9.15722 16.5336 9.08455 16.6446 9.02722 16.782C8.96988 16.9193 8.94122 17.0533 8.94122 17.184C8.94122 17.4066 9.02022 17.5966 9.17822 17.754C9.33622 17.9126 9.52655 17.992 9.74922 17.992C9.87988 17.992 10.0099 17.9666 10.1392 17.916C10.2685 17.8653 10.3832 17.7893 10.4832 17.688L13.5302 14.648C13.6235 14.554 13.7372 14.5026 13.8712 14.494C14.0052 14.486 14.1275 14.537 14.2382 14.647C14.3442 14.7536 14.3972 14.8716 14.3972 15.001C14.3972 15.1303 14.3439 15.2483 14.2372 15.355L11.1922 18.4C11.0915 18.5013 11.0159 18.623 10.9652 18.765C10.9145 18.907 10.8892 19.0366 10.8892 19.154C10.8892 19.39 10.9722 19.5803 11.1382 19.725C11.3042 19.8696 11.4922 19.942 11.7022 19.942M11.6962 20.942C11.1822 20.942 10.7422 20.754 10.3762 20.378C10.0102 20.002 9.84955 19.5373 9.89422 18.984C9.32755 18.9906 8.85588 18.8216 8.47922 18.477C8.10255 18.1323 7.92355 17.651 7.94222 17.033C7.32488 17.0396 6.83822 16.863 6.48222 16.503C6.12622 16.143 5.96422 15.669 5.99622 15.081C5.44022 15.0876 4.97488 14.931 4.60022 14.611C4.22622 14.2923 4.03922 13.8483 4.03922 13.279C4.03922 13.0223 4.08888 12.7656 4.18822 12.509C4.28755 12.2516 4.43422 12.0256 4.62822 11.831L8.52322 7.93596C8.82988 7.62996 9.20788 7.47696 9.65722 7.47696C10.1065 7.47696 10.4845 7.63029 10.7912 7.93696L12.2422 9.38796C12.3269 9.47662 12.4315 9.54962 12.5562 9.60696C12.6809 9.66429 12.8212 9.69262 12.9772 9.69196C13.1912 9.69196 13.3802 9.61729 13.5442 9.46796C13.7082 9.31862 13.7905 9.12396 13.7912 8.88396C13.7912 8.72796 13.7625 8.58796 13.7052 8.46396C13.6479 8.33929 13.5752 8.23462 13.4872 8.14996L10.0472 4.70996C9.79922 4.45862 9.54155 4.27429 9.27422 4.15696C9.00688 4.03962 8.71422 3.98096 8.39622 3.98096C8.08222 3.98096 7.79688 4.03962 7.54022 4.15696C7.28422 4.27429 7.03055 4.45862 6.77922 4.70996L3.73422 7.75996C3.38488 8.10862 3.16022 8.53429 3.06022 9.03696C2.96022 9.53962 3.00588 10.0196 3.19722 10.477C3.23455 10.6063 3.21788 10.7313 3.14722 10.852C3.07655 10.9726 2.97655 11.0493 2.84722 11.082C2.71788 11.1146 2.58955 11.0973 2.46222 11.03C2.33488 10.9626 2.25488 10.8636 2.22222 10.733C2.00688 10.0863 1.95988 9.43329 2.08122 8.77396C2.20255 8.11462 2.51588 7.53229 3.02122 7.02696L6.04522 4.00196C6.39388 3.65662 6.76288 3.39996 7.15222 3.23196C7.54155 3.06462 7.96255 2.98096 8.41522 2.98096C8.86788 2.98096 9.28522 3.06496 9.66722 3.23296C10.0499 3.40029 10.4139 3.65662 10.7592 4.00196L11.6292 4.87296L12.5012 4.00196C12.8499 3.65662 13.2155 3.39996 13.5982 3.23196C13.9809 3.06462 14.3985 2.98096 14.8512 2.98096C15.3039 2.98096 15.7249 3.06496 16.1142 3.23296C16.5029 3.40029 16.8695 3.65662 17.2142 4.00196L20.9402 7.72696C21.2849 8.07162 21.5509 8.45862 21.7382 8.88796C21.9255 9.31729 22.0189 9.75829 22.0182 10.211C22.0182 10.6643 21.9249 11.082 21.7382 11.464C21.5515 11.846 21.2855 12.21 20.9402 12.556L13.1432 20.346C12.9359 20.554 12.7099 20.7053 12.4652 20.8C12.2212 20.8946 11.9655 20.942 11.6962 20.942Z" fill="#323949"/>
<path d="M22.0192 10.2114C22.0197 9.81524 21.9477 9.42762 21.8043 9.04932L21.7389 8.88818C21.5749 8.51238 21.3506 8.16884 21.066 7.85791L20.941 7.72705L17.2145 4.00244C16.9129 3.70029 16.5946 3.46618 16.2594 3.30029L16.1149 3.23291C15.7742 3.08592 15.4093 3.00324 15.0201 2.98486L14.8522 2.98096C14.3996 2.98096 13.9818 3.0647 13.5992 3.23193L13.4557 3.29932C13.1247 3.4657 12.8065 3.70041 12.5016 4.00244L11.6295 4.87256L10.7594 4.00244C10.4141 3.65711 10.0503 3.40024 9.6676 3.23291C9.28565 3.06497 8.86823 2.98096 8.41565 2.98096C7.96309 2.98098 7.5422 3.06466 7.15295 3.23193L7.00744 3.29932C6.67135 3.4657 6.35051 3.70038 6.04553 4.00244L3.02209 7.02686L2.84143 7.22021C2.44128 7.67922 2.18783 8.19702 2.08166 8.77393C1.96033 9.43326 2.00793 10.0862 2.22326 10.7329C2.25591 10.8634 2.33538 10.9625 2.46252 11.0298C2.55789 11.0802 2.65412 11.1028 2.75061 11.0972L2.84826 11.0815C2.9451 11.057 3.02557 11.008 3.08947 10.9341L3.14807 10.8521C3.20113 10.7614 3.2233 10.6683 3.21545 10.5728L3.19787 10.4771C3.03042 10.0768 2.97422 9.65908 3.0299 9.22412L3.06115 9.03662C3.14871 8.59681 3.33152 8.21594 3.60998 7.89404L3.73498 7.76025L6.7799 4.70947C7.03112 4.4583 7.28476 4.27403 7.54065 4.15674C7.79731 4.0394 8.08309 3.98096 8.39709 3.98096L8.63049 3.9917C8.85953 4.01369 9.07449 4.06872 9.27502 4.15674C9.54218 4.27401 9.79963 4.45838 10.0475 4.70947L13.4879 8.1499C13.5759 8.23457 13.6484 8.3397 13.7057 8.46436C13.7629 8.58829 13.7916 8.72839 13.7916 8.88428L13.7877 8.97217C13.7692 9.1721 13.688 9.33767 13.5446 9.46826L13.4176 9.56592C13.2852 9.65001 13.1387 9.69184 12.9781 9.69189C12.861 9.6924 12.7524 9.67626 12.653 9.64404L12.5572 9.60693C12.4326 9.54962 12.3274 9.4768 12.2428 9.38818L10.7916 7.93701C10.5233 7.66869 10.2005 7.5174 9.82287 7.48389L9.65783 7.47705C9.20853 7.47705 8.8307 7.63008 8.52404 7.93604L4.62854 11.8306C4.43454 12.0252 4.28842 12.2519 4.18908 12.5093L4.12365 12.7017C4.06783 12.894 4.03968 13.0864 4.03967 13.2788C4.03967 13.8481 4.22719 14.2922 4.60119 14.6108C4.97581 14.9307 5.44083 15.0872 5.9967 15.0806C5.9647 15.6686 6.12703 16.1434 6.48303 16.5034C6.839 16.8632 7.32585 17.0394 7.94299 17.0327C7.92432 17.6507 8.10343 18.1324 8.4801 18.4771C8.85673 18.8216 9.32857 18.9906 9.89514 18.9839C9.85047 19.5372 10.0106 20.0024 10.3766 20.3784C10.6968 20.7073 11.074 20.892 11.5074 20.9331L11.6969 20.9419C11.899 20.9419 12.0933 20.9151 12.2809 20.8618L12.4655 20.8003C12.7101 20.7056 12.9368 20.5542 13.1442 20.3462L20.941 12.5562C21.1999 12.2968 21.4139 12.0271 21.5836 11.7476L21.7389 11.4644C21.9022 11.1301 21.9938 10.7682 22.0143 10.3794L22.0192 10.2114ZM8.94201 17.1841C8.94201 17.0861 8.95762 16.986 8.98986 16.8843L9.02795 16.7817C9.08527 16.6445 9.15777 16.5333 9.24572 16.4487L12.2858 13.4028C12.3657 13.3229 12.4161 13.2367 12.4362 13.144L12.4459 13.0493C12.4459 12.92 12.3924 12.8015 12.2858 12.6948C12.1758 12.5842 12.0535 12.5328 11.9196 12.5415C11.7857 12.5502 11.672 12.6019 11.5787 12.6958L8.53283 15.7358L8.46447 15.7964C8.39109 15.8548 8.30287 15.9062 8.19982 15.9507L8.09729 15.9897C7.99557 16.0231 7.89545 16.0396 7.79748 16.0396C7.60222 16.0389 7.43251 15.9784 7.28772 15.8579L7.22717 15.8032C7.08946 15.6655 7.01192 15.5022 6.99475 15.314L6.99084 15.2319C6.99084 15.1013 7.01609 14.9715 7.06604 14.8423C7.1167 14.7136 7.19224 14.5979 7.29357 14.4966L10.1041 11.6821C10.1842 11.602 10.2336 11.5152 10.2535 11.4224L10.2643 11.3276C10.2642 11.2307 10.2335 11.1403 10.1735 11.0562L10.1041 10.9741C10.0222 10.8911 9.93276 10.8416 9.83654 10.8257L9.73791 10.8208C9.60327 10.8295 9.48944 10.8808 9.39611 10.9741L6.58068 13.7886C6.49602 13.8732 6.38501 13.946 6.24768 14.0054L6.14514 14.0435C6.04365 14.0763 5.94406 14.0932 5.84631 14.0933V13.8931C5.92117 13.893 6.00003 13.8801 6.08361 13.853L6.16955 13.8208C6.28849 13.7693 6.37632 13.7106 6.43908 13.6479L9.25451 10.8325C9.38304 10.704 9.54327 10.6333 9.72522 10.6216C9.92621 10.6087 10.1018 10.6884 10.2447 10.8325C10.3821 10.9699 10.4634 11.1366 10.4635 11.3276C10.4635 11.5188 10.3831 11.6863 10.2457 11.8237L7.43518 14.6382C7.35289 14.7205 7.29183 14.8119 7.25158 14.9136C7.20993 15.0213 7.19104 15.1274 7.19104 15.2319C7.19104 15.4024 7.24825 15.542 7.36779 15.6616C7.48739 15.7812 7.62719 15.8386 7.79748 15.8394C7.89719 15.8394 8.00482 15.8172 8.12072 15.7671C8.24027 15.7154 8.32826 15.6566 8.39123 15.5942L11.4371 12.5542C11.5653 12.4254 11.7251 12.354 11.9069 12.3423C12.1076 12.3293 12.2832 12.4096 12.4264 12.5532C12.5638 12.6907 12.6461 12.8581 12.6461 13.0493C12.646 13.1927 12.6 13.3222 12.5192 13.436L12.4274 13.5444L9.3844 16.5933C9.32002 16.6552 9.26151 16.7416 9.21252 16.8589C9.16397 16.9752 9.14221 17.0833 9.14221 17.1841C9.14224 17.3533 9.19975 17.492 9.31994 17.6118L9.32092 17.6128C9.44154 17.7338 9.58065 17.7915 9.74963 17.7915V17.9917C9.52705 17.9917 9.33629 17.913 9.17834 17.7544C9.04016 17.6168 8.96324 17.4537 8.94592 17.2661L8.94201 17.1841ZM5.03869 13.2798C5.03871 13.1814 5.05319 13.0837 5.08166 12.9868L5.11486 12.8901C5.16546 12.7617 5.24097 12.6466 5.34143 12.5454L9.21643 8.67041C9.33175 8.55508 9.4798 8.49659 9.65979 8.49658C9.83912 8.49658 9.98684 8.55508 10.1022 8.67041L11.5729 10.1343C11.7682 10.3295 11.9881 10.4665 12.2321 10.5444C12.415 10.6029 12.6016 10.6392 12.7916 10.6538L12.983 10.6606C13.438 10.6612 13.8245 10.5317 14.1422 10.271L14.274 10.1509C14.6146 9.81024 14.7848 9.37948 14.7848 8.85889C14.7848 8.66704 14.7574 8.47728 14.7028 8.28955L14.6393 8.10205C14.5658 7.91558 14.4637 7.74388 14.3336 7.5874L14.194 7.43604L12.3434 5.58057L13.2155 4.7085C13.394 4.52046 13.5818 4.37033 13.778 4.25732L13.9772 4.15674C14.2464 4.03951 14.5383 3.98096 14.8522 3.98096L15.0846 3.9917C15.3123 4.01366 15.5239 4.06881 15.7194 4.15674C15.9806 4.27405 16.2357 4.45821 16.483 4.70947L20.233 8.45947C20.4843 8.70612 20.6784 8.97981 20.8151 9.27979C20.951 9.579 21.0191 9.8877 21.0192 10.2056L21.0065 10.437C20.981 10.6628 20.917 10.8744 20.8151 11.0718L20.7018 11.2671C20.5777 11.4617 20.4216 11.6537 20.233 11.8423L12.4371 19.6392L12.3688 19.6997C12.2954 19.7584 12.2072 19.8099 12.1041 19.854L12.0016 19.8921C11.9337 19.9141 11.8666 19.9287 11.8004 19.936L11.7028 19.9419C11.5452 19.9419 11.4 19.9013 11.2672 19.8198L11.1393 19.7251C10.9941 19.5986 10.9124 19.437 10.8942 19.2407L10.8903 19.1538C10.8903 19.066 10.9039 18.9712 10.9322 18.8696L10.9655 18.7651C11.0161 18.6231 11.0923 18.5012 11.193 18.3999L14.2379 15.355C14.3178 15.2751 14.3683 15.1888 14.3883 15.0962L14.3981 15.0005C14.3979 14.8714 14.3447 14.7535 14.2389 14.647C14.1282 14.537 14.0057 14.4857 13.8717 14.4937C13.7378 14.5023 13.6242 14.554 13.5309 14.6479L10.484 17.688C10.3841 17.7892 10.2694 17.8649 10.1403 17.9155L10.0426 17.9487C9.94534 17.9772 9.84764 17.9917 9.74963 17.9917V17.7915C9.85379 17.7915 9.95944 17.7721 10.067 17.73C10.1696 17.6898 10.2606 17.6293 10.3414 17.5474L10.3424 17.5464L13.3893 14.5063C13.5174 14.3775 13.6773 14.3062 13.859 14.2944H13.9342C14.0555 14.3011 14.1667 14.3421 14.2662 14.4106L14.3795 14.5054L14.3805 14.5063C14.517 14.6438 14.5981 14.81 14.5983 15.0005C14.5983 15.1917 14.5169 15.3592 14.3795 15.4966L11.3346 18.5415L11.3336 18.5405C11.255 18.6198 11.1952 18.7168 11.1539 18.8325C11.109 18.9585 11.0895 19.065 11.0895 19.1538C11.0895 19.3366 11.1513 19.4701 11.2701 19.5737C11.4014 19.6881 11.543 19.7405 11.7018 19.7407C11.8018 19.7407 11.9091 19.7199 12.025 19.6704C12.1445 19.6194 12.2328 19.5603 12.2955 19.4976L20.0914 11.7007C20.3312 11.4609 20.5118 11.2197 20.6373 10.979C20.7575 10.746 20.819 10.4892 20.819 10.2056C20.8189 9.98942 20.7842 9.77774 20.7145 9.56982L20.6324 9.36279C20.5066 9.08671 20.3274 8.83362 20.0924 8.60303L20.0914 8.60107L16.3405 4.8501C16.1067 4.61261 15.8723 4.44448 15.6383 4.33936C15.4064 4.23502 15.1448 4.18119 14.8522 4.18115C14.5637 4.18115 14.2987 4.23472 14.0563 4.34033C13.8157 4.44522 13.5835 4.61185 13.361 4.84619L12.6256 5.58057L14.3356 7.29443C14.5529 7.50835 14.7163 7.75333 14.8248 8.02881L14.8951 8.23291C14.955 8.43839 14.985 8.6473 14.985 8.85889C14.985 9.42779 14.7969 9.91111 14.4156 10.2925C14.0343 10.6738 13.5513 10.8615 12.983 10.8608C12.7057 10.8608 12.4343 10.8192 12.1705 10.7349C11.8939 10.6464 11.6473 10.4909 11.4313 10.2749L9.96057 8.81201C9.88667 8.73815 9.79182 8.69678 9.65979 8.69678C9.52686 8.69678 9.43178 8.73732 9.35803 8.81104L5.48303 12.6851C5.40091 12.7677 5.34175 12.8609 5.30139 12.9634C5.25944 13.0699 5.23891 13.1749 5.23889 13.2798C5.23889 13.4687 5.29744 13.6108 5.40783 13.7222L5.40881 13.7231C5.51795 13.834 5.65837 13.8931 5.84631 13.8931V14.0933L5.7594 14.0894C5.59015 14.075 5.44496 14.0174 5.32385 13.9165L5.26623 13.8628C5.1149 13.7101 5.03869 13.5158 5.03869 13.2798ZM22.2184 10.2114C22.2183 10.693 22.1194 11.1412 21.9186 11.5522C21.721 11.9565 21.441 12.3377 21.0826 12.6968L13.2848 20.4878C13.0603 20.7129 12.8111 20.881 12.5377 20.9868C12.2702 21.0905 11.9901 21.1421 11.6969 21.1421C11.1277 21.1421 10.6358 20.9309 10.233 20.5171C9.87227 20.1463 9.69178 19.6955 9.68811 19.1772C9.16603 19.1443 8.7142 18.9629 8.34436 18.6245C7.95986 18.2726 7.76626 17.7993 7.74475 17.2271C7.17567 17.1968 6.70111 17.0087 6.34045 16.644C5.98226 16.2818 5.80405 15.8195 5.79357 15.2749C5.35503 15.249 4.96562 15.1218 4.63147 14.8872L4.47131 14.7632C4.04541 14.4003 3.83947 13.8964 3.83947 13.2788C3.83949 12.9958 3.89501 12.7149 4.00256 12.437C4.11183 12.154 4.27335 11.9043 4.48693 11.6899L8.38244 7.79443L8.51623 7.67334C8.83686 7.40923 9.22023 7.27686 9.65783 7.27686C10.158 7.27686 10.5876 7.4498 10.9332 7.79541L12.3873 9.24951C12.4526 9.31786 12.5358 9.37726 12.6403 9.42529C12.735 9.46889 12.8463 9.49226 12.9772 9.4917C13.1392 9.49163 13.2812 9.43684 13.4098 9.31982C13.5285 9.21176 13.5907 9.07289 13.5914 8.88428L13.5875 8.78955C13.5788 8.69871 13.5567 8.61897 13.524 8.54834C13.4759 8.44376 13.417 8.3597 13.3492 8.29443L9.90588 4.8501C9.67203 4.6131 9.43383 4.44561 9.19397 4.34033C8.95431 4.2352 8.68968 4.18119 8.39709 4.18115C8.10884 4.18115 7.85221 4.23447 7.62463 4.33838C7.39516 4.44355 7.16015 4.61248 6.9215 4.85107L3.87658 7.90088C3.5565 8.22036 3.35006 8.61046 3.25744 9.07568C3.17648 9.48264 3.19845 9.87027 3.32287 10.2417L3.38244 10.3999L3.39025 10.4214C3.44343 10.6056 3.41705 10.7868 3.31994 10.9526C3.22369 11.117 3.08101 11.2294 2.89709 11.2759C2.71587 11.3217 2.53696 11.2949 2.36975 11.2065C2.20044 11.117 2.08261 10.9784 2.03283 10.7954C1.80723 10.1175 1.75787 9.43063 1.88537 8.73779C2.01454 8.03591 2.34849 7.41725 2.88049 6.88525L5.9049 3.85986C6.26855 3.49969 6.6583 3.22765 7.07385 3.04834L7.23107 2.98584C7.60208 2.84907 7.99737 2.78078 8.41565 2.78076C8.89304 2.78076 9.33767 2.8697 9.7467 3.04932C10.1557 3.22819 10.541 3.5008 10.901 3.86084L11.6295 4.59033L12.361 3.86084C12.7241 3.5012 13.1105 3.22776 13.5192 3.04834C13.929 2.86921 14.3745 2.78076 14.8522 2.78076C15.3301 2.7808 15.7781 2.86987 16.194 3.04932L16.3483 3.12061C16.7055 3.29737 17.0412 3.54533 17.3561 3.86084L21.0826 7.58545C21.4442 7.94703 21.7248 8.35499 21.9225 8.80811C22.1204 9.26178 22.2191 9.73025 22.2184 10.2114Z" fill="#323949"/>
</svg>
