<svg width="24" height="24" viewBox="0 0 24 24" fill="none" xmlns="http://www.w3.org/2000/svg">
<path d="M20.002 8.65625C20.3608 8.65625 20.6522 8.94682 20.6523 9.30566V20.5352C20.6522 20.894 20.3609 21.1846 20.002 21.1846C17.5708 21.1846 15.9719 21.5661 14.8584 22.0312C13.7443 22.4967 13.0843 23.0562 12.4893 23.5146C12.2555 23.6948 11.9291 23.6948 11.6953 23.5146C11.1003 23.0562 10.4402 22.4967 9.32617 22.0312C8.21274 21.5661 6.6137 21.1846 4.18262 21.1846C3.8237 21.1846 3.53234 20.894 3.53223 20.5352V9.30566C3.53239 8.94682 3.82373 8.65625 4.18262 8.65625C6.75272 8.65627 8.52709 9.05941 9.82715 9.60254C10.8495 10.0297 11.5587 10.5378 12.0918 10.9482C12.625 10.5377 13.3347 10.0298 14.3574 9.60254C15.6575 9.05939 17.4318 8.65625 20.002 8.65625ZM4.83203 19.8945C7.05615 19.9565 8.63958 20.3349 9.82715 20.8311C10.4819 21.1046 11.0084 21.4112 11.4424 21.7041V12.0898C10.9079 11.674 10.2857 11.2027 9.32617 10.8018C8.31506 10.3793 6.90342 10.0271 4.83203 9.96582V19.8945ZM19.3516 9.96582C17.2806 10.0272 15.8694 10.3794 14.8584 10.8018C13.8992 11.2025 13.2765 11.6731 12.7422 12.0889V21.7041C13.1762 21.4112 13.7027 21.1046 14.3574 20.8311C15.5448 20.335 17.1279 19.9566 19.3516 19.8945V9.96582ZM19.2871 4.0166C19.2871 3.83032 19.2506 3.64674 19.1816 3.47656C19.1126 3.30639 19.0131 3.15338 18.8887 3.02734C18.7643 2.9014 18.6178 2.80432 18.46 2.74023C18.2997 2.67523 18.1317 2.64454 17.9668 2.64941C17.9606 2.64959 17.9544 2.65039 17.9482 2.65039H15.833V5.38184H17.9668C18.1344 5.38679 18.3022 5.35694 18.46 5.29297C18.6179 5.22888 18.7643 5.13182 18.8887 5.00586C19.0131 4.87982 19.1126 4.72682 19.1816 4.55664C19.2506 4.38647 19.2871 4.20287 19.2871 4.0166ZM7.55664 2.65039C7.39347 2.65023 7.2315 2.697 7.08887 2.78906L7.08789 2.78809L5.19629 4.0166L7.08789 5.24219C7.23057 5.33434 7.39339 5.382 7.55664 5.38184H14.5322V2.65039H7.55664ZM20.5869 4.0166C20.5869 4.36933 20.519 4.71956 20.3867 5.0459C20.2544 5.37213 20.0599 5.66935 19.8135 5.91895C19.567 6.16864 19.2732 6.36553 18.9492 6.49707C18.6311 6.6262 18.2909 6.68812 17.9482 6.68066V6.68164H7.55762C7.14071 6.682 6.73427 6.56033 6.38379 6.33398H6.38281L3.64844 4.56348C3.46355 4.44372 3.35165 4.23786 3.35156 4.01758C3.35152 3.79735 3.46369 3.59254 3.64844 3.47266L6.38184 1.69824L6.38379 1.69727C6.73423 1.471 7.14078 1.35023 7.55762 1.35059L17.9482 1.34961V1.35156C18.2935 1.3441 18.6336 1.40801 18.9492 1.53613C19.2732 1.66766 19.567 1.86458 19.8135 2.11426C20.06 2.36396 20.2544 2.6619 20.3867 2.98828C20.5189 3.3145 20.5869 3.66402 20.5869 4.0166Z" fill="#323949"/>
</svg>
