<svg width="18" height="23" viewBox="0 0 18 23" fill="none" xmlns="http://www.w3.org/2000/svg">
<path d="M17.002 7.65625C17.3608 7.65625 17.6522 7.94682 17.6523 8.30566V19.5352C17.6522 19.894 17.3609 20.1846 17.002 20.1846C14.5708 20.1846 12.9719 20.5661 11.8584 21.0312C10.7443 21.4967 10.0843 22.0562 9.48926 22.5146C9.25545 22.6948 8.92912 22.6948 8.69531 22.5146C8.10027 22.0562 7.4402 21.4967 6.32617 21.0312C5.21274 20.5661 3.6137 20.1846 1.18262 20.1846C0.823703 20.1846 0.532341 19.894 0.532227 19.5352V8.30566C0.532392 7.94682 0.823734 7.65625 1.18262 7.65625C3.75272 7.65627 5.52709 8.05941 6.82715 8.60254C7.84946 9.02967 8.55866 9.53776 9.0918 9.94824C9.62501 9.53768 10.3347 9.02982 11.3574 8.60254C12.6575 8.05939 14.4318 7.65625 17.002 7.65625ZM1.83203 18.8945C4.05615 18.9565 5.63958 19.3349 6.82715 19.8311C7.48187 20.1046 8.00839 20.4112 8.44238 20.7041V11.0898C7.90793 10.674 7.28566 10.2027 6.32617 9.80176C5.31506 9.37934 3.90342 9.02712 1.83203 8.96582V18.8945ZM16.3516 8.96582C14.2806 9.02719 12.8694 9.3794 11.8584 9.80176C10.8992 10.2025 10.2765 10.6731 9.74219 11.0889V20.7041C10.1762 20.4112 10.7027 20.1046 11.3574 19.8311C12.5448 19.335 14.1279 18.9566 16.3516 18.8945V8.96582ZM16.2871 3.0166C16.2871 2.83032 16.2506 2.64674 16.1816 2.47656C16.1126 2.30639 16.0131 2.15338 15.8887 2.02734C15.7643 1.9014 15.6178 1.80432 15.46 1.74023C15.2997 1.67523 15.1317 1.64454 14.9668 1.64941C14.9606 1.64959 14.9544 1.65039 14.9482 1.65039H12.833V4.38184H14.9668C15.1344 4.38679 15.3022 4.35694 15.46 4.29297C15.6179 4.22888 15.7643 4.13182 15.8887 4.00586C16.0131 3.87982 16.1126 3.72682 16.1816 3.55664C16.2506 3.38647 16.2871 3.20287 16.2871 3.0166ZM4.55664 1.65039C4.39347 1.65023 4.2315 1.697 4.08887 1.78906L4.08789 1.78809L2.19629 3.0166L4.08789 4.24219C4.23057 4.33434 4.39339 4.382 4.55664 4.38184H11.5322V1.65039H4.55664ZM17.5869 3.0166C17.5869 3.36933 17.519 3.71956 17.3867 4.0459C17.2544 4.37213 17.0599 4.66935 16.8135 4.91895C16.567 5.16864 16.2732 5.36553 15.9492 5.49707C15.6311 5.6262 15.2909 5.68812 14.9482 5.68066V5.68164H4.55762C4.14071 5.682 3.73427 5.56033 3.38379 5.33398H3.38281L0.648438 3.56348C0.463552 3.44372 0.351654 3.23786 0.351563 3.01758C0.35152 2.79735 0.463693 2.59254 0.648438 2.47266L3.38184 0.698242L3.38379 0.697266C3.73423 0.470998 4.14078 0.35023 4.55762 0.350586L14.9482 0.349609V0.351562C15.2935 0.344104 15.6336 0.408005 15.9492 0.536133C16.2732 0.667661 16.567 0.864577 16.8135 1.11426C17.06 1.36396 17.2544 1.6619 17.3867 1.98828C17.5189 2.3145 17.5869 2.66402 17.5869 3.0166Z" fill="#323949"/>
</svg>
