<svg width="20" height="20" viewBox="0 0 20 20" fill="none" xmlns="http://www.w3.org/2000/svg">
<g clip-path="url(#clip0_315_25789)">
<path d="M8.66667 3.875C8.66667 3.35645 9.0763 2.9375 9.58333 2.9375H15.0833C15.5904 2.9375 16 3.35645 16 3.875C16 4.39355 15.5904 4.8125 15.0833 4.8125H13.4018L9.58333 14.1875H11.4167C11.9237 14.1875 12.3333 14.6064 12.3333 15.125C12.3333 15.6436 11.9237 16.0625 11.4167 16.0625H5.91667C5.40964 16.0625 5 15.6436 5 15.125C5 14.6064 5.40964 14.1875 5.91667 14.1875H7.59818L11.4167 4.8125H9.58333C9.0763 4.8125 8.66667 4.39355 8.66667 3.875Z" fill="#323949"/>
</g>
<defs>
<clipPath id="clip0_315_25789">
<rect width="11" height="15" fill="white" transform="translate(5 2)"/>
</clipPath>
</defs>
</svg>
