<svg width="11" height="15" viewBox="0 0 11 15" fill="none" xmlns="http://www.w3.org/2000/svg">
<path d="M3.66667 1.875C3.66667 1.35645 4.0763 0.9375 4.58333 0.9375H10.0833C10.5904 0.9375 11 1.35645 11 1.875C11 2.39355 10.5904 2.8125 10.0833 2.8125H8.40182L4.58333 12.1875H6.41667C6.9237 12.1875 7.33333 12.6064 7.33333 13.125C7.33333 13.6436 6.9237 14.0625 6.41667 14.0625H0.916667C0.409635 14.0625 0 13.6436 0 13.125C0 12.6064 0.409635 12.1875 0.916667 12.1875H2.59818L6.41667 2.8125H4.58333C4.0763 2.8125 3.66667 2.39355 3.66667 1.875Z" fill="#323949"/>
</svg>
