<svg width="20" height="20" viewBox="0 0 20 20" fill="none" xmlns="http://www.w3.org/2000/svg">
<path d="M0.666667 4.66667V4C0.489856 4 0.320286 4.07024 0.195262 4.19526C0.0702379 4.32029 0 4.48986 0 4.66667H0.666667ZM8.66667 4.66667H9.33333C9.33333 4.48986 9.2631 4.32029 9.13807 4.19526C9.01305 4.07024 8.84348 4 8.66667 4V4.66667ZM8.66667 19.3333V20C8.84348 20 9.01305 19.9298 9.13807 19.8047C9.2631 19.6797 9.33333 19.5101 9.33333 19.3333H8.66667ZM0.666667 19.3333H0C0 19.5101 0.0702379 19.6797 0.195262 19.8047C0.320286 19.9298 0.489856 20 0.666667 20V19.3333ZM11.3333 4.66667V4C11.1565 4 10.987 4.07024 10.8619 4.19526C10.7369 4.32029 10.6667 4.48986 10.6667 4.66667H11.3333ZM19.3333 4.66667H20C20 4.48986 19.9298 4.32029 19.8047 4.19526C19.6797 4.07024 19.5101 4 19.3333 4V4.66667ZM19.3333 12.6667V13.3333C19.5101 13.3333 19.6797 13.2631 19.8047 13.1381C19.9298 13.013 20 12.8435 20 12.6667H19.3333ZM11.3333 12.6667H10.6667C10.6667 12.8435 10.7369 13.013 10.8619 13.1381C10.987 13.2631 11.1565 13.3333 11.3333 13.3333V12.6667ZM0 1.33333H9.33333V0H0V1.33333ZM10.6667 1.33333H20V0H10.6667V1.33333ZM0.666667 5.33333H8.66667V4H0.666667V5.33333ZM8 4.66667V19.3333H9.33333V4.66667H8ZM8.66667 18.6667H0.666667V20H8.66667V18.6667ZM1.33333 19.3333V4.66667H0L0 19.3333H1.33333ZM11.3333 5.33333H19.3333V4H11.3333V5.33333ZM18.6667 4.66667V12.6667H20V4.66667H18.6667ZM19.3333 12H11.3333V13.3333H19.3333V12ZM12 12.6667V4.66667H10.6667V12.6667H12Z" fill="#323949"/>
</svg>
