<svg width="24" height="24" viewBox="0 0 24 24" fill="none" xmlns="http://www.w3.org/2000/svg">
<path d="M2.66667 6.66667V6C2.48986 6 2.32029 6.07024 2.19526 6.19526C2.07024 6.32029 2 6.48986 2 6.66667H2.66667ZM10.6667 6.66667H11.3333C11.3333 6.48986 11.2631 6.32029 11.1381 6.19526C11.013 6.07024 10.8435 6 10.6667 6V6.66667ZM10.6667 21.3333V22C10.8435 22 11.013 21.9298 11.1381 21.8047C11.2631 21.6797 11.3333 21.5101 11.3333 21.3333H10.6667ZM2.66667 21.3333H2C2 21.5101 2.07024 21.6797 2.19526 21.8047C2.32029 21.9298 2.48986 22 2.66667 22V21.3333ZM13.3333 6.66667V6C13.1565 6 12.987 6.07024 12.8619 6.19526C12.7369 6.32029 12.6667 6.48986 12.6667 6.66667H13.3333ZM21.3333 6.66667H22C22 6.48986 21.9298 6.32029 21.8047 6.19526C21.6797 6.07024 21.5101 6 21.3333 6V6.66667ZM21.3333 14.6667V15.3333C21.5101 15.3333 21.6797 15.2631 21.8047 15.1381C21.9298 15.013 22 14.8435 22 14.6667H21.3333ZM13.3333 14.6667H12.6667C12.6667 14.8435 12.7369 15.013 12.8619 15.1381C12.987 15.2631 13.1565 15.3333 13.3333 15.3333V14.6667ZM2 3.33333H11.3333V2H2V3.33333ZM12.6667 3.33333H22V2H12.6667V3.33333ZM2.66667 7.33333H10.6667V6H2.66667V7.33333ZM10 6.66667V21.3333H11.3333V6.66667H10ZM10.6667 20.6667H2.66667V22H10.6667V20.6667ZM3.33333 21.3333V6.66667H2V21.3333H3.33333ZM13.3333 7.33333H21.3333V6H13.3333V7.33333ZM20.6667 6.66667V14.6667H22V6.66667H20.6667ZM21.3333 14H13.3333V15.3333H21.3333V14ZM14 14.6667V6.66667H12.6667V14.6667H14Z" fill="#323949"/>
</svg>
