<svg width="28" height="22" viewBox="0 0 28 22" fill="none" xmlns="http://www.w3.org/2000/svg">
<path d="M26.5 20.25C26.9142 20.25 27.25 20.5858 27.25 21C27.25 21.4142 26.9142 21.75 26.5 21.75H1.5C1.08579 21.75 0.75 21.4142 0.75 21C0.75 20.5858 1.08579 20.25 1.5 20.25H26.5ZM24.5 3.5C24.5 2.5335 23.7165 1.75 22.75 1.75H5.25C4.2835 1.75 3.5 2.5335 3.5 3.5V13.5C3.5 14.4665 4.2835 15.25 5.25 15.25H22.75C23.7165 15.25 24.5 14.4665 24.5 13.5V3.5ZM26 13.5C26 15.2949 24.5449 16.75 22.75 16.75H5.25C3.45507 16.75 2 15.2949 2 13.5V3.5C2 1.70507 3.45507 0.25 5.25 0.25H22.75C24.5449 0.25 26 1.70507 26 3.5V13.5Z" fill="#323949"/>
</svg>
