<svg width="30" height="30" viewBox="0 0 30 30" fill="none" xmlns="http://www.w3.org/2000/svg">
<path d="M27.5 24.25C27.9142 24.25 28.25 24.5858 28.25 25C28.25 25.4142 27.9142 25.75 27.5 25.75H2.5C2.08579 25.75 1.75 25.4142 1.75 25C1.75 24.5858 2.08579 24.25 2.5 24.25H27.5ZM25.5 7.5C25.5 6.5335 24.7165 5.75 23.75 5.75H6.25C5.2835 5.75 4.5 6.5335 4.5 7.5V17.5C4.5 18.4665 5.2835 19.25 6.25 19.25H23.75C24.7165 19.25 25.5 18.4665 25.5 17.5V7.5ZM27 17.5C27 19.2949 25.5449 20.75 23.75 20.75H6.25C4.45507 20.75 3 19.2949 3 17.5V7.5C3 5.70507 4.45507 4.25 6.25 4.25H23.75C25.5449 4.25 27 5.70507 27 7.5V17.5Z" fill="#323949"/>
</svg>
