<svg width="20" height="10" viewBox="0 0 20 10" fill="none" xmlns="http://www.w3.org/2000/svg">
<path d="M8.616 9.07712H5.077C3.949 9.07712 2.98767 8.67979 2.193 7.88512C1.39833 7.09045 1.00067 6.12879 1 5.00012C0.999334 3.87145 1.397 2.90979 2.193 2.11512C2.989 1.32045 3.95033 0.922786 5.077 0.922119H8.616V1.92212H5.077C4.23033 1.92212 3.506 2.22345 2.904 2.82612C2.30133 3.42945 2 4.15412 2 5.00012C2 5.84612 2.30133 6.57045 2.904 7.17312C3.50667 7.77579 4.231 8.07712 5.077 8.07712H8.616V9.07712ZM6.5 5.50012V4.50012H13.5V5.50012H6.5ZM11.385 9.07712V8.07712H14.923C15.7697 8.07712 16.494 7.77579 17.096 7.17312C17.6987 6.57045 18 5.84612 18 5.00012C18 4.15412 17.6987 3.42979 17.096 2.82712C16.4933 2.22445 15.769 1.92312 14.923 1.92312H11.385V0.923119H14.923C16.051 0.923119 17.0127 1.32045 17.808 2.11512C18.6033 2.90979 19.0007 3.87145 19 5.00012C18.9993 6.12879 18.6017 7.09045 17.807 7.88512C17.0123 8.67979 16.051 9.07745 14.923 9.07812L11.385 9.07712Z" fill="#323949"/>
<path d="M19.001 5.00024C19.0016 3.942 18.6523 3.03049 17.9531 2.26587L17.8086 2.11548C17.0133 1.32082 16.0518 0.923096 14.9238 0.923096V0.7229C16.1046 0.7229 17.1172 1.1416 17.9502 1.97388C18.7832 2.80624 19.2019 3.81872 19.2012 5.00024C19.2005 6.18165 18.7815 7.19429 17.9492 8.02661C17.1169 8.85883 16.1046 9.27787 14.9238 9.27856L11.3857 9.27759L11.1855 9.27661V7.8772H14.9238V8.07739H11.3857V9.07739L14.9238 9.07837C16.0518 9.0777 17.013 8.67959 17.8076 7.88501C18.5525 7.14011 18.9489 6.24858 18.9961 5.21021L19.001 5.00024ZM0.800782 5.00024C0.800084 3.8187 1.21906 2.80621 2.05274 1.97388C2.88627 1.14173 3.89862 0.722622 5.07813 0.721924V0.922119L4.86914 0.927002C3.83207 0.974052 2.9407 1.37037 2.19434 2.11548L2.04981 2.26587C1.35004 3.0305 1.00035 3.94197 1.00098 5.00024L1.00586 5.21021C1.0531 6.24858 1.44944 7.14011 2.19434 7.88501C2.93925 8.62987 3.83037 9.02589 4.86817 9.07251L5.07813 9.07739H8.61719V8.07739H5.07813V7.8772H8.81738V9.27759H5.07813C3.89736 9.27759 2.88504 8.85886 2.05274 8.02661C1.22041 7.19429 0.801482 6.18165 0.800782 5.00024ZM17.8008 5.00024C17.8008 4.20773 17.5206 3.53447 16.9551 2.96899C16.3896 2.40353 15.7163 2.12329 14.9238 2.12329H11.1855V0.7229H14.9238V0.923096H11.3857V1.9231H14.9238C15.7698 1.9231 16.494 2.22473 17.0967 2.82739C17.6993 3.43006 18.001 4.15424 18.001 5.00024L17.9873 5.31177C17.9214 6.02538 17.624 6.64578 17.0967 7.1731C16.5699 7.70043 15.9495 7.9969 15.2354 8.06274L14.9238 8.07739V7.8772C15.717 7.8772 16.3903 7.59682 16.9551 7.03149C17.5205 6.46605 17.8008 5.7927 17.8008 5.00024ZM2.00098 5.00024C2.00098 4.25989 2.23181 3.61237 2.69336 3.05786L2.90527 2.82642C3.43213 2.29898 4.05235 2.00163 4.7666 1.93579L5.07813 1.92212H8.61719V0.922119H5.07813V0.721924H8.81738V2.12231H5.07813C4.2851 2.12231 3.61154 2.40195 3.04688 2.96704C2.48133 3.53321 2.20117 4.20772 2.20117 5.00024C2.2012 5.7927 2.48143 6.46605 3.04688 7.03149C3.61232 7.59688 4.28568 7.8772 5.07813 7.8772V8.07739L4.7666 8.06274C4.15487 8.00627 3.61156 7.78053 3.13672 7.38501L2.90527 7.1731C2.37796 6.64578 2.08058 6.02538 2.01465 5.31177L2.00098 5.00024ZM13.501 4.50024H6.50098V5.50024H13.501V4.50024ZM13.7012 5.70044H6.30078V4.30005H13.7012V5.70044Z" fill="#323949"/>
</svg>
