<svg width="18" height="13" viewBox="0 0 18 13" fill="none" xmlns="http://www.w3.org/2000/svg">
<path fill-rule="evenodd" clip-rule="evenodd" d="M5.25 11.375C5.25 11.2092 5.31585 11.0503 5.43306 10.9331C5.55027 10.8158 5.70924 10.75 5.875 10.75H17.125C17.2908 10.75 17.4497 10.8158 17.5669 10.9331C17.6842 11.0503 17.75 11.2092 17.75 11.375C17.75 11.5408 17.6842 11.6997 17.5669 11.8169C17.4497 11.9342 17.2908 12 17.125 12H5.875C5.70924 12 5.55027 11.9342 5.43306 11.8169C5.31585 11.6997 5.25 11.5408 5.25 11.375ZM5.25 6.375C5.25 6.20924 5.31585 6.05027 5.43306 5.93306C5.55027 5.81585 5.70924 5.75 5.875 5.75H17.125C17.2908 5.75 17.4497 5.81585 17.5669 5.93306C17.6842 6.05027 17.75 6.20924 17.75 6.375C17.75 6.54076 17.6842 6.69973 17.5669 6.81694C17.4497 6.93415 17.2908 7 17.125 7H5.875C5.70924 7 5.55027 6.93415 5.43306 6.81694C5.31585 6.69973 5.25 6.54076 5.25 6.375ZM5.25 1.375C5.25 1.20924 5.31585 1.05027 5.43306 0.933058C5.55027 0.815848 5.70924 0.75 5.875 0.75H17.125C17.2908 0.75 17.4497 0.815848 17.5669 0.933058C17.6842 1.05027 17.75 1.20924 17.75 1.375C17.75 1.54076 17.6842 1.69973 17.5669 1.81694C17.4497 1.93415 17.2908 2 17.125 2H5.875C5.70924 2 5.55027 1.93415 5.43306 1.81694C5.31585 1.69973 5.25 1.54076 5.25 1.375ZM1.5 2.625C1.83152 2.625 2.14946 2.4933 2.38388 2.25888C2.6183 2.02446 2.75 1.70652 2.75 1.375C2.75 1.04348 2.6183 0.725537 2.38388 0.491116C2.14946 0.256696 1.83152 0.125 1.5 0.125C1.16848 0.125 0.850537 0.256696 0.616116 0.491116C0.381696 0.725537 0.25 1.04348 0.25 1.375C0.25 1.70652 0.381696 2.02446 0.616116 2.25888C0.850537 2.4933 1.16848 2.625 1.5 2.625ZM1.5 7.625C1.83152 7.625 2.14946 7.4933 2.38388 7.25888C2.6183 7.02446 2.75 6.70652 2.75 6.375C2.75 6.04348 2.6183 5.72554 2.38388 5.49112C2.14946 5.2567 1.83152 5.125 1.5 5.125C1.16848 5.125 0.850537 5.2567 0.616116 5.49112C0.381696 5.72554 0.25 6.04348 0.25 6.375C0.25 6.70652 0.381696 7.02446 0.616116 7.25888C0.850537 7.4933 1.16848 7.625 1.5 7.625ZM1.5 12.625C1.83152 12.625 2.14946 12.4933 2.38388 12.2589C2.6183 12.0245 2.75 11.7065 2.75 11.375C2.75 11.0435 2.6183 10.7255 2.38388 10.4911C2.14946 10.2567 1.83152 10.125 1.5 10.125C1.16848 10.125 0.850537 10.2567 0.616116 10.4911C0.381696 10.7255 0.25 11.0435 0.25 11.375C0.25 11.7065 0.381696 12.0245 0.616116 12.2589C0.850537 12.4933 1.16848 12.625 1.5 12.625Z" fill="#323949"/>
</svg>
