<svg width="20" height="22" viewBox="0 0 20 22" fill="none" xmlns="http://www.w3.org/2000/svg">
<path d="M18.25 12C18.25 11.3096 17.6904 10.75 17 10.75H3C2.30964 10.75 1.75 11.3096 1.75 12V19C1.75 19.6904 2.30964 20.25 3 20.25H17C17.6904 20.25 18.25 19.6904 18.25 19V12ZM14.25 6C14.25 4.87283 13.8019 3.79215 13.0049 2.99512C12.2079 2.19809 11.1272 1.75 10 1.75C8.87283 1.75 7.79215 2.19809 6.99512 2.99512C6.19809 3.79215 5.75 4.87283 5.75 6V9.25H14.25V6ZM15.75 9.25H17C18.5188 9.25 19.75 10.4812 19.75 12V19C19.75 20.5188 18.5188 21.75 17 21.75H3C1.48122 21.75 0.25 20.5188 0.25 19V12C0.25 10.4812 1.48122 9.25 3 9.25H4.25V6C4.25 4.47501 4.85624 3.0129 5.93457 1.93457C7.0129 0.856236 8.47501 0.25 10 0.25C11.525 0.25 12.9871 0.856236 14.0654 1.93457C15.1438 3.0129 15.75 4.47501 15.75 6V9.25Z" fill="#323949"/>
</svg>
