<svg width="24" height="24" viewBox="0 0 24 24" fill="none" xmlns="http://www.w3.org/2000/svg">
<path d="M20.4285 21.8561L17.5725 19.0001H4.61547C4.1548 19.0001 3.77047 18.8461 3.46247 18.5381C3.15447 18.2301 3.00014 17.8454 2.99947 17.3841V6.61609C2.99947 6.15543 3.1538 5.77109 3.46247 5.46309C3.77114 5.15509 4.15514 5.00076 4.61447 5.00009H4.99947L5.99947 6.00009H4.61547C4.46147 6.00009 4.32014 6.06409 4.19147 6.19209C4.0628 6.32009 3.9988 6.46143 3.99947 6.61609V17.3851C3.99947 17.5384 4.06347 17.6794 4.19147 17.8081C4.31947 17.9368 4.46047 18.0008 4.61447 18.0001H16.5725L2.60547 4.03309L3.31847 3.31909L21.1415 21.1421L20.4285 21.8561ZM20.8515 18.0401L19.9995 17.1901V6.88509L13.7785 10.9671L13.0915 10.2811L19.6915 6.00009H8.81147L7.81147 5.00009H19.3845C19.8445 5.00009 20.2288 5.15442 20.5375 5.46309C20.8461 5.77176 21.0001 6.15609 20.9995 6.61609V17.3851C20.9995 17.5004 20.9861 17.6148 20.9595 17.7281C20.9328 17.8414 20.8968 17.9448 20.8515 18.0401Z" fill="#323949"/>
<path d="M21.2812 21.0007L21.4219 21.1423L21.2812 21.283L20.5684 21.9978L20.4268 22.1394L17.4873 19.2H4.61328C4.10311 19.1999 3.66711 19.0272 3.31934 18.6794C2.97154 18.3317 2.79862 17.8953 2.79785 17.3845V6.61597C2.79788 6.10557 2.9708 5.66883 3.31934 5.32104C3.36843 5.27207 3.41915 5.22637 3.47168 5.18433L2.32031 4.03296L3.31641 3.03589L21.2812 21.0007ZM19.3828 4.80054V4.99976H7.80957L8.80957 5.99976H19.6895L13.0898 10.281L13.7764 10.9675L19.9971 6.8855V17.1902L20.8496 18.0398C20.8723 17.9921 20.8922 17.9423 20.9102 17.8904L20.957 17.7283C20.9704 17.6716 20.9806 17.6145 20.9873 17.5574L20.9971 17.3855V6.61597C20.9977 6.15602 20.8438 5.77129 20.5352 5.46265C20.2652 5.19289 19.9374 5.04137 19.5518 5.00757L19.3828 4.99976V4.80054C19.8926 4.8006 20.3285 4.97373 20.6768 5.32202C21.025 5.67035 21.1979 6.10622 21.1973 6.61597V17.3855C21.1972 17.5163 21.1825 17.6461 21.1523 17.7742C21.1227 17.9001 21.082 18.0168 21.0303 18.1257L20.9082 18.3816L20.708 18.1814L19.8564 17.3318L19.7979 17.2732V7.25562L13.8867 11.1345L13.75 11.2234L12.7734 10.2478L12.9805 10.113L19.0146 6.19995H8.72656L7.32715 4.80054H19.3828ZM16.5703 17.9998H4.6123C4.49689 18.0002 4.38889 17.9645 4.28809 17.8923L4.18945 17.8083C4.09347 17.7119 4.03378 17.6081 4.00977 17.4978L3.99707 17.3855V6.61597C3.9966 6.5 4.03323 6.39175 4.10547 6.29077L4.18945 6.19214C4.30705 6.07515 4.43545 6.01372 4.57422 6.00366L16.5703 17.9998ZM2.99707 17.3845C2.99783 17.8457 3.15303 18.2299 3.46094 18.5378C3.76887 18.8457 4.15276 18.9997 4.61328 18.9998H17.5703L20.4268 21.8562L21.1396 21.1423L3.31641 3.31909L2.60352 4.03296L3.78418 5.21362C3.6688 5.28098 3.56062 5.36325 3.46094 5.46265L3.35156 5.58179C3.11526 5.86796 2.99709 6.21293 2.99707 6.61597V17.3845ZM4.19727 17.3855C4.19737 17.4762 4.23333 17.5684 4.33105 17.6667C4.42846 17.7647 4.52045 17.8008 4.61133 17.8005H16.0879L4.50586 6.21851C4.44899 6.23795 4.39105 6.27413 4.33105 6.33374C4.23331 6.43098 4.19693 6.52318 4.19727 6.61499V17.3855Z" fill="#323949"/>
</svg>
