<svg width="24" height="24" viewBox="0 0 24 24" fill="none" xmlns="http://www.w3.org/2000/svg">
<path d="M15.5841 8.37604C15.9287 8.14628 16.3943 8.2394 16.6241 8.58405C16.8539 8.9287 16.7607 9.39433 16.4161 9.62409L11.9161 12.6241C11.6642 12.792 11.336 12.792 11.0841 12.6241L6.58405 9.62409C6.2394 9.39433 6.14628 8.9287 6.37604 8.58405C6.60581 8.2394 7.07144 8.14628 7.41608 8.37604L11.5001 11.0987L15.5841 8.37604Z" fill="#323949"/>
<path d="M19.25 17V7C19.25 6.66848 19.1182 6.35063 18.8838 6.11621C18.6494 5.88179 18.3315 5.75 18 5.75H5C4.66848 5.75 4.35063 5.88179 4.11621 6.11621C3.88179 6.35063 3.75 6.66848 3.75 7V17C3.75 17.3315 3.88179 17.6494 4.11621 17.8838C4.35063 18.1182 4.66848 18.25 5 18.25H18C18.4142 18.25 18.75 18.5858 18.75 19C18.75 19.4142 18.4142 19.75 18 19.75H5C4.27065 19.75 3.57139 19.4601 3.05566 18.9443C2.53994 18.4286 2.25 17.7293 2.25 17V7C2.25 6.27065 2.53994 5.57139 3.05566 5.05566C3.57139 4.53994 4.27065 4.25 5 4.25H18C18.7293 4.25 19.4286 4.53994 19.9443 5.05566C20.4601 5.57139 20.75 6.27065 20.75 7V17C20.75 17.4142 20.4142 17.75 20 17.75C19.5858 17.75 19.25 17.4142 19.25 17Z" fill="#323949"/>
<path d="M3.75 17V7C3.75 6.66848 3.88179 6.35063 4.11621 6.11621C4.35063 5.88179 4.66848 5.75 5 5.75H18C18.3315 5.75 18.6494 5.88179 18.8838 6.11621C19.1182 6.35063 19.25 6.66848 19.25 7V17C19.25 17.3315 19.1182 17.6494 18.8838 17.8838C18.6494 18.1182 18.3315 18.25 18 18.25H5C4.58579 18.25 4.25 18.5858 4.25 19C4.25 19.4142 4.58579 19.75 5 19.75H18C18.7293 19.75 19.4286 19.4601 19.9443 18.9443C20.4601 18.4286 20.75 17.7293 20.75 17V7C20.75 6.27065 20.4601 5.57139 19.9443 5.05566C19.4286 4.53994 18.7293 4.25 18 4.25H5C4.27065 4.25 3.57139 4.53994 3.05566 5.05566C2.53994 5.57139 2.25 6.27065 2.25 7V17C2.25 17.4142 2.58579 17.75 3 17.75C3.41421 17.75 3.75 17.4142 3.75 17Z" fill="#323949"/>
</svg>
