<svg width="22" height="16" viewBox="0 0 22 16" fill="none" xmlns="http://www.w3.org/2000/svg">
<path d="M13.5841 4.37604C13.9287 4.14628 14.3943 4.2394 14.6241 4.58405C14.8539 4.9287 14.7607 5.39433 14.4161 5.62409L9.91608 8.62409C9.66416 8.79204 9.33598 8.79204 9.08405 8.62409L4.58405 5.62409C4.2394 5.39433 4.14628 4.9287 4.37604 4.58405C4.60581 4.2394 5.07144 4.14628 5.41608 4.37604L9.50007 7.0987L13.5841 4.37604Z" fill="#323949"/>
<path d="M17.25 5.5V3C17.25 2.66848 17.1182 2.35063 16.8838 2.11621C16.6494 1.88179 16.3315 1.75 16 1.75H3C2.66848 1.75 2.35063 1.88179 2.11621 2.11621C1.88179 2.35063 1.75 2.66848 1.75 3V13C1.75 13.3315 1.88179 13.6494 2.11621 13.8838C2.35063 14.1182 2.66848 14.25 3 14.25H13.5C13.9142 14.25 14.25 14.5858 14.25 15C14.25 15.4142 13.9142 15.75 13.5 15.75H3C2.27065 15.75 1.57139 15.4601 1.05566 14.9443C0.539939 14.4286 0.25 13.7293 0.25 13V3C0.25 2.27065 0.539939 1.57139 1.05566 1.05566C1.57139 0.539939 2.27065 0.25 3 0.25H16C16.7293 0.25 17.4286 0.539939 17.9443 1.05566C18.4601 1.57139 18.75 2.27065 18.75 3V5.5C18.75 5.91421 18.4142 6.25 18 6.25C17.5858 6.25 17.25 5.91421 17.25 5.5Z" fill="#323949"/>
<path d="M19.2282 11.5C19.2282 11.166 19.0973 10.8471 18.8659 10.6133C18.6348 10.3797 18.3222 10.25 17.9988 10.25C17.6755 10.2501 17.3636 10.3798 17.1325 10.6133C16.9012 10.8471 16.7702 11.166 16.7702 11.5C16.7702 11.834 16.9012 12.1529 17.1325 12.3867C17.3636 12.6202 17.6755 12.7499 17.9988 12.75C18.3222 12.75 18.6348 12.6203 18.8659 12.3867C19.0973 12.1529 19.2282 11.834 19.2282 11.5ZM20.7282 11.5C20.7282 11.729 20.6962 11.9543 20.6413 12.1729L21.3777 12.6025C21.7352 12.8113 21.8557 13.2702 21.6472 13.6279C21.4385 13.9855 20.9795 14.106 20.6218 13.8975L19.8952 13.4736C19.5706 13.7903 19.1772 14.0192 18.7488 14.1426V15C18.7488 15.4142 18.413 15.75 17.9988 15.75C17.5848 15.7497 17.2488 15.4141 17.2488 15V14.1416C16.8208 14.0181 16.4266 13.791 16.1023 13.4746L15.3777 13.8975C15.0199 14.106 14.561 13.9855 14.3523 13.6279C14.1437 13.2702 14.2642 12.8113 14.6218 12.6025L15.3562 12.1738C15.3012 11.955 15.2702 11.7293 15.2702 11.5C15.2702 11.2704 15.3011 11.0443 15.3562 10.8252L14.6218 10.3975C14.2642 10.1887 14.1437 9.7298 14.3523 9.37207C14.561 9.0145 15.0199 8.89399 15.3777 9.10254L16.1023 9.52441C16.4266 9.20821 16.8209 8.98081 17.2488 8.85742V8C17.2488 7.58595 17.5848 7.25026 17.9988 7.25C18.413 7.25 18.7488 7.58579 18.7488 8V8.85645C19.1771 8.97976 19.5706 9.20891 19.8952 9.52539L20.6208 9.10254C20.9786 8.89383 21.4374 9.0144 21.6462 9.37207C21.8549 9.7298 21.7343 10.1887 21.3767 10.3975L20.6413 10.8262C20.6963 11.0451 20.7282 11.2707 20.7282 11.5Z" fill="#323949"/>
</svg>
