<svg width="24" height="16" viewBox="0 0 24 16" fill="none" xmlns="http://www.w3.org/2000/svg">
<path d="M13.5841 4.37604C13.9287 4.14628 14.3943 4.2394 14.6241 4.58405C14.8539 4.9287 14.7607 5.39433 14.4161 5.62409L9.91608 8.62409C9.66416 8.79204 9.33598 8.79204 9.08405 8.62409L4.58405 5.62409C4.2394 5.39433 4.14628 4.9287 4.37604 4.58405C4.60581 4.2394 5.07144 4.14628 5.41608 4.37604L9.50007 7.0987L13.5841 4.37604Z" fill="#323949"/>
<path d="M17.25 5V3C17.25 2.66848 17.1182 2.35063 16.8838 2.11621C16.6494 1.88179 16.3315 1.75 16 1.75H3C2.66848 1.75 2.35063 1.88179 2.11621 2.11621C1.88179 2.35063 1.75 2.66848 1.75 3V13C1.75 13.3315 1.88179 13.6494 2.11621 13.8838C2.35063 14.1182 2.66848 14.25 3 14.25H17C17.4142 14.25 17.75 14.5858 17.75 15C17.75 15.4142 17.4142 15.75 17 15.75H3C2.27065 15.75 1.57139 15.4601 1.05566 14.9443C0.539939 14.4286 0.25 13.7293 0.25 13V3C0.25 2.27065 0.539939 1.57139 1.05566 1.05566C1.57139 0.539939 2.27065 0.25 3 0.25H16C16.7293 0.25 17.4286 0.539939 17.9443 1.05566C18.4601 1.57139 18.75 2.27065 18.75 3V5C18.75 5.41421 18.4142 5.75 18 5.75C17.5858 5.75 17.25 5.41421 17.25 5Z" fill="#323949"/>
<path d="M19.4697 6.46967C19.7626 6.17678 20.2374 6.17678 20.5303 6.46967L23.5303 9.46967C23.8232 9.76256 23.8232 10.2373 23.5303 10.5302L20.5303 13.5302C20.2374 13.8231 19.7626 13.8231 19.4697 13.5302C19.1768 13.2373 19.1768 12.7626 19.4697 12.4697L21.1895 10.7499H17C16.5858 10.7499 16.25 10.4142 16.25 9.99994C16.25 9.58573 16.5858 9.24994 17 9.24994H21.1895L19.4697 7.53022C19.1768 7.23732 19.1768 6.76256 19.4697 6.46967Z" fill="#323949"/>
</svg>
