<svg width="24" height="24" viewBox="0 0 24 24" fill="none" xmlns="http://www.w3.org/2000/svg">
<path d="M18 17.5V19H5V17.5H18ZM19.5 16V7C19.5 6.17157 18.8284 5.5 18 5.5H5C4.17157 5.5 3.5 6.17157 3.5 7V16C3.5 16.8284 4.17157 17.5 5 17.5V19L4.8457 18.9961C3.31166 18.9184 2.08163 17.6883 2.00391 16.1543L2 16V7C2 5.39489 3.26055 4.08421 4.8457 4.00391L5 4H18C19.6569 4 21 5.34315 21 7V16C21 17.6569 19.6569 19 18 19V17.5C18.8284 17.5 19.5 16.8284 19.5 16Z" fill="#323949"/>
<path d="M20.459 5.53125L11.959 12.0938C11.6891 12.3019 11.3129 12.3019 11.043 12.0938L2.54297 5.53125L3.45898 4.34375L11.501 10.5518L19.543 4.34375L20.459 5.53125Z" fill="#323949"/>
</svg>
