<svg width="23" height="16" viewBox="0 0 23 16" fill="none" xmlns="http://www.w3.org/2000/svg">
<path d="M19.2617 6.93457C18.9493 6.6626 18.4751 6.69539 18.2031 7.00781C17.9316 7.32011 17.9644 7.79351 18.2764 8.06543L19.9961 9.5625H16C15.5858 9.5625 15.25 9.89829 15.25 10.3125C15.25 10.7267 15.5858 11.0625 16 11.0625H19.9961L18.2764 12.5596C17.9644 12.8315 17.9316 13.3049 18.2031 13.6172C18.4751 13.9296 18.9493 13.9624 19.2617 13.6904L22.4922 10.8779C22.6558 10.7355 22.75 10.5294 22.75 10.3125C22.75 10.0956 22.6558 9.88951 22.4922 9.74707L19.2617 6.93457Z" fill="#323949"/>
<path d="M16 0C16.538 0 17.0419 0.143577 17.4785 0.391602L17.542 0.34375L17.667 0.505859C18.3761 0.98077 18.8708 1.74985 18.9775 2.63867C18.9909 2.69461 19 2.75248 19 2.8125V5.625C19 6.03921 18.6642 6.375 18.25 6.375C17.8358 6.375 17.5 6.03921 17.5 5.625V3C17.5 2.77701 17.4496 2.5662 17.3623 2.37598L9.95801 8.09375C9.68811 8.30195 9.31189 8.30195 9.04199 8.09375L1.63672 2.37598C1.54955 2.5661 1.5 2.77716 1.5 3V12C1.5 12.8284 2.17157 13.5 3 13.5H15V13.5469H17C17.4142 13.5469 17.75 13.8827 17.75 14.2969C17.75 14.7111 17.4142 15.0469 17 15.0469H12C11.9105 15.0469 11.8256 15.0287 11.7461 15H3L2.8457 14.9961C1.31166 14.9184 0.0816253 13.6883 0.00390625 12.1543L0 12V3C0 1.96272 0.527847 1.05048 1.32812 0.511719L1.45801 0.34375L1.51953 0.391602C1.91451 0.166937 2.36486 0.028267 2.8457 0.00390625L3 0H16ZM2.95801 1.50195L9.5 6.55176L16.041 1.50195C16.0274 1.50159 16.0137 1.5 16 1.5H3C2.98594 1.5 2.97197 1.50157 2.95801 1.50195Z" fill="#323949"/>
</svg>
