<svg width="19" height="15" viewBox="0 0 19 15" fill="none" xmlns="http://www.w3.org/2000/svg">
<path d="M16 13.5V15H3V13.5H16ZM17.5 12V3C17.5 2.17157 16.8284 1.5 16 1.5H3C2.17157 1.5 1.5 2.17157 1.5 3V12C1.5 12.8284 2.17157 13.5 3 13.5V15C1.34315 15 0 13.6569 0 12V3C0 1.39489 1.26055 0.0842143 2.8457 0.00390625L3 0H16C17.6569 0 19 1.34315 19 3V12C19 13.6569 17.6569 15 16 15V13.5C16.8284 13.5 17.5 12.8284 17.5 12Z" fill="#323949"/>
<path d="M18.459 1.53125L9.95898 8.09375C9.68908 8.30195 9.31287 8.30195 9.04297 8.09375L0.542969 1.53125L1.45898 0.34375L9.50098 6.55176L17.543 0.34375L18.459 1.53125Z" fill="#323949"/>
</svg>
