<svg width="22" height="16" viewBox="0 0 22 16" fill="none" xmlns="http://www.w3.org/2000/svg">
<path d="M16 0C16.538 0 17.0419 0.143577 17.4785 0.391602L17.542 0.34375L17.667 0.505859C18.3761 0.98077 18.8708 1.74985 18.9775 2.63867C18.9909 2.69461 19 2.75248 19 2.8125V5.625C19 6.03921 18.6642 6.375 18.25 6.375C17.8358 6.375 17.5 6.03921 17.5 5.625V3C17.5 2.77701 17.4496 2.5662 17.3623 2.37598L9.95801 8.09375C9.68811 8.30195 9.31189 8.30195 9.04199 8.09375L1.63672 2.37598C1.54955 2.5661 1.5 2.77716 1.5 3V12C1.5 12.8284 2.17157 13.5 3 13.5H15V13.5469H17C17.4142 13.5469 17.75 13.8827 17.75 14.2969C17.75 14.7111 17.4142 15.0469 17 15.0469H12C11.9105 15.0469 11.8256 15.0287 11.7461 15H3L2.8457 14.9961C1.31166 14.9184 0.0816253 13.6883 0.00390625 12.1543L0 12V3C0 1.96272 0.527847 1.05048 1.32812 0.511719L1.45801 0.34375L1.51953 0.391602C1.91451 0.166937 2.36486 0.028267 2.8457 0.00390625L3 0H16ZM2.95801 1.50195L9.5 6.55176L16.041 1.50195C16.0274 1.50159 16.0137 1.5 16 1.5H3C2.98594 1.5 2.97197 1.50157 2.95801 1.50195Z" fill="#323949"/>
<path d="M19.6467 10.3125C19.6467 10.0178 19.5244 9.73642 19.3085 9.5301C19.0928 9.32401 18.801 9.20956 18.4991 9.20956C18.1973 9.20967 17.9062 9.32411 17.6906 9.5301C17.4746 9.73642 17.3524 10.0178 17.3524 10.3125C17.3524 10.6072 17.4746 10.8886 17.6906 11.0949C17.9062 11.3009 18.1973 11.4153 18.4991 11.4154C18.801 11.4154 19.0928 11.301 19.3085 11.0949C19.5244 10.8886 19.6467 10.6072 19.6467 10.3125ZM21.0468 10.3125C21.0468 10.5146 21.0169 10.7133 20.9657 10.9062L21.653 11.2853C21.9867 11.4695 22.0992 11.8744 21.9045 12.1901C21.7097 12.5056 21.2813 12.6119 20.9474 12.4279L20.2693 12.0539C19.9662 12.3334 19.599 12.5353 19.1991 12.6442V13.4007C19.1991 13.7662 18.8857 14.0625 18.4991 14.0625C18.1127 14.0623 17.799 13.7661 17.799 13.4007V12.6433C17.3996 12.5344 17.0317 12.334 16.7289 12.0548L16.0526 12.4279C15.7187 12.6119 15.2903 12.5056 15.0955 12.1901C14.9008 11.8744 15.0133 11.4695 15.347 11.2853L16.0325 10.9071C15.9812 10.714 15.9523 10.5148 15.9523 10.3125C15.9523 10.1099 15.9811 9.9104 16.0325 9.71708L15.347 9.33967C15.0133 9.15551 14.9008 8.75056 15.0955 8.43492C15.2903 8.11941 15.7187 8.01308 16.0526 8.19709L16.7289 8.56934C17.0316 8.29033 17.3997 8.08969 17.799 7.98081V7.22426C17.799 6.85892 18.1127 6.56273 18.4991 6.5625C18.8857 6.5625 19.1991 6.85878 19.1991 7.22426V7.97995C19.5989 8.08876 19.9663 8.29095 20.2693 8.5702L20.9465 8.19709C21.2804 8.01294 21.7088 8.11932 21.9036 8.43492C22.0984 8.75055 21.9859 9.15546 21.652 9.33967L20.9657 9.71795C21.017 9.91108 21.0468 10.1101 21.0468 10.3125Z" fill="#323949"/>
</svg>
