<svg width="17" height="17" viewBox="0 0 17 17" fill="none" xmlns="http://www.w3.org/2000/svg">
<path d="M8.5 0C3.808 0 0 3.808 0 8.5C0 13.192 3.808 17 8.5 17H12.75V15.3H8.5C4.811 15.3 1.7 12.189 1.7 8.5C1.7 4.811 4.811 1.7 8.5 1.7C12.189 1.7 15.3 4.811 15.3 8.5V9.7155C15.3 10.387 14.6965 11.05 14.025 11.05C13.3535 11.05 12.75 10.387 12.75 9.7155V8.5C12.75 6.154 10.846 4.25 8.5 4.25C6.154 4.25 4.25 6.154 4.25 8.5C4.25 10.846 6.154 12.75 8.5 12.75C9.673 12.75 10.744 12.274 11.509 11.5005C12.0615 12.257 13.0135 12.75 14.025 12.75C15.6995 12.75 17 11.39 17 9.7155V8.5C17 3.808 13.192 0 8.5 0ZM8.5 11.05C7.089 11.05 5.95 9.911 5.95 8.5C5.95 7.089 7.089 5.95 8.5 5.95C9.911 5.95 11.05 7.089 11.05 8.5C11.05 9.911 9.911 11.05 8.5 11.05Z" fill="#323949"/>
</svg>
