<svg width="20" height="20" viewBox="0 0 20 20" fill="none" xmlns="http://www.w3.org/2000/svg">
<path d="M18.4285 18.8561L15.5725 16.0001H2.61547C2.1548 16.0001 1.77047 15.8461 1.46247 15.5381C1.15447 15.2301 1.00014 14.8454 0.999469 14.3841V3.61609C0.999469 3.15543 1.1538 2.77109 1.46247 2.46309C1.77114 2.15509 2.15514 2.00076 2.61447 2.00009H2.99947L3.99947 3.00009H2.61547C2.46147 3.00009 2.32014 3.06409 2.19147 3.19209C2.0628 3.32009 1.9988 3.46143 1.99947 3.61609V14.3851C1.99947 14.5384 2.06347 14.6794 2.19147 14.8081C2.31947 14.9368 2.46047 15.0008 2.61447 15.0001H14.5725L0.605469 1.03309L1.31847 0.319092L19.1415 18.1421L18.4285 18.8561ZM18.8515 15.0401L17.9995 14.1901V3.88509L11.7785 7.96709L11.0915 7.28109L17.6915 3.00009H6.81147L5.81147 2.00009H17.3845C17.8445 2.00009 18.2288 2.15442 18.5375 2.46309C18.8461 2.77176 19.0001 3.15609 18.9995 3.61609V14.3851C18.9995 14.5004 18.9861 14.6148 18.9595 14.7281C18.9328 14.8414 18.8968 14.9448 18.8515 15.0401Z" fill="#323949"/>
<path d="M19.2812 18.0007L19.4219 18.1423L19.2812 18.283L18.5684 18.9978L18.4268 19.1394L15.4873 16.2H2.61328C2.10311 16.1999 1.66711 16.0272 1.31934 15.6794C0.971544 15.3317 0.798621 14.8953 0.797852 14.3845V3.61597C0.79788 3.10557 0.970802 2.66883 1.31934 2.32104C1.36843 2.27207 1.41915 2.22637 1.47168 2.18433L0.320312 1.03296L1.31641 0.0358887L19.2812 18.0007ZM17.3828 1.80054V1.99976H5.80957L6.80957 2.99976H17.6895L11.0898 7.28101L11.7764 7.96753L17.9971 3.8855V14.1902L18.8496 15.0398C18.8723 14.9921 18.8922 14.9423 18.9102 14.8904L18.957 14.7283C18.9704 14.6716 18.9806 14.6145 18.9873 14.5574L18.9971 14.3855V3.61597C18.9977 3.15602 18.8438 2.77129 18.5352 2.46265C18.2652 2.19289 17.9374 2.04137 17.5518 2.00757L17.3828 1.99976V1.80054C17.8926 1.8006 18.3285 1.97373 18.6768 2.32202C19.025 2.67035 19.1979 3.10622 19.1973 3.61597V14.3855C19.1972 14.5163 19.1825 14.6461 19.1523 14.7742C19.1227 14.9001 19.082 15.0168 19.0303 15.1257L18.9082 15.3816L18.708 15.1814L17.8564 14.3318L17.7979 14.2732V4.25562L11.8867 8.13452L11.75 8.22339L10.7734 7.2478L10.9805 7.11304L17.0146 3.19995H6.72656L5.32715 1.80054H17.3828ZM14.5703 14.9998H2.6123C2.49689 15.0002 2.38889 14.9645 2.28809 14.8923L2.18945 14.8083C2.09347 14.7119 2.03378 14.6081 2.00977 14.4978L1.99707 14.3855V3.61597C1.9966 3.5 2.03323 3.39175 2.10547 3.29077L2.18945 3.19214C2.30705 3.07515 2.43545 3.01372 2.57422 3.00366L14.5703 14.9998ZM0.99707 14.3845C0.997832 14.8457 1.15303 15.2299 1.46094 15.5378C1.76887 15.8457 2.15276 15.9997 2.61328 15.9998H15.5703L18.4268 18.8562L19.1396 18.1423L1.31641 0.319092L0.603516 1.03296L1.78418 2.21362C1.6688 2.28098 1.56062 2.36325 1.46094 2.46265L1.35156 2.58179C1.11526 2.86796 0.997095 3.21293 0.99707 3.61597V14.3845ZM2.19727 14.3855C2.19737 14.4762 2.23333 14.5684 2.33105 14.6667C2.42846 14.7647 2.52045 14.8008 2.61133 14.8005H14.0879L2.50586 3.21851C2.44899 3.23795 2.39105 3.27413 2.33105 3.33374C2.23331 3.43098 2.19693 3.52318 2.19727 3.61499V14.3855Z" fill="#323949"/>
</svg>
