<svg width="24" height="24" viewBox="0 0 24 24" fill="none" xmlns="http://www.w3.org/2000/svg">
<path d="M17 4C17.538 4 18.0419 4.14358 18.4785 4.3916L18.542 4.34375L18.667 4.50586C19.3761 4.98077 19.8708 5.74985 19.9775 6.63867C19.9909 6.69461 20 6.75248 20 6.8125V9.625C20 10.0392 19.6642 10.375 19.25 10.375C18.8358 10.375 18.5 10.0392 18.5 9.625V7C18.5 6.77701 18.4496 6.5662 18.3623 6.37598L10.958 12.0938C10.6881 12.3019 10.3119 12.3019 10.042 12.0938L2.63672 6.37598C2.54955 6.5661 2.5 6.77716 2.5 7V16C2.5 16.8284 3.17157 17.5 4 17.5H16V17.5469H18C18.4142 17.5469 18.75 17.8827 18.75 18.2969C18.75 18.7111 18.4142 19.0469 18 19.0469H13C12.9105 19.0469 12.8256 19.0287 12.7461 19H4L3.8457 18.9961C2.31166 18.9184 1.08163 17.6883 1.00391 16.1543L1 16V7C1 5.96272 1.52785 5.05048 2.32812 4.51172L2.45801 4.34375L2.51953 4.3916C2.91451 4.16694 3.36486 4.02827 3.8457 4.00391L4 4H17ZM3.95801 5.50195L10.5 10.5518L17.041 5.50195C17.0274 5.50159 17.0137 5.5 17 5.5H4C3.98594 5.5 3.97197 5.50157 3.95801 5.50195Z" fill="#323949"/>
<path d="M20.6467 14.3125C20.6467 14.0178 20.5244 13.7364 20.3085 13.5301C20.0928 13.324 19.801 13.2096 19.4991 13.2096C19.1973 13.2097 18.9062 13.3241 18.6906 13.5301C18.4746 13.7364 18.3524 14.0178 18.3524 14.3125C18.3524 14.6072 18.4746 14.8886 18.6906 15.0949C18.9062 15.3009 19.1973 15.4153 19.4991 15.4154C19.801 15.4154 20.0928 15.301 20.3085 15.0949C20.5244 14.8886 20.6467 14.6072 20.6467 14.3125ZM22.0468 14.3125C22.0468 14.5146 22.0169 14.7133 21.9657 14.9062L22.653 15.2853C22.9867 15.4695 23.0992 15.8744 22.9045 16.1901C22.7097 16.5056 22.2813 16.6119 21.9474 16.4279L21.2693 16.0539C20.9662 16.3334 20.599 16.5353 20.1991 16.6442V17.4007C20.1991 17.7662 19.8857 18.0625 19.4991 18.0625C19.1127 18.0623 18.799 17.7661 18.799 17.4007V16.6433C18.3996 16.5344 18.0317 16.334 17.7289 16.0548L17.0526 16.4279C16.7187 16.6119 16.2903 16.5056 16.0955 16.1901C15.9008 15.8744 16.0133 15.4695 16.347 15.2853L17.0325 14.9071C16.9812 14.714 16.9523 14.5148 16.9523 14.3125C16.9523 14.1099 16.9811 13.9104 17.0325 13.7171L16.347 13.3397C16.0133 13.1555 15.9008 12.7506 16.0955 12.4349C16.2903 12.1194 16.7187 12.0131 17.0526 12.1971L17.7289 12.5693C18.0316 12.2903 18.3997 12.0897 18.799 11.9808V11.2243C18.799 10.8589 19.1127 10.5627 19.4991 10.5625C19.8857 10.5625 20.1991 10.8588 20.1991 11.2243V11.98C20.5989 12.0888 20.9663 12.2909 21.2693 12.5702L21.9465 12.1971C22.2804 12.0129 22.7088 12.1193 22.9036 12.4349C23.0984 12.7506 22.9859 13.1555 22.652 13.3397L21.9657 13.7179C22.017 13.9111 22.0468 14.1101 22.0468 14.3125Z" fill="#323949"/>
</svg>
