<svg width="22" height="21" viewBox="0 0 22 21" fill="none" xmlns="http://www.w3.org/2000/svg">
<path d="M20.2501 9.69523C20.2501 9.08393 20.2421 8.8864 20.2042 8.73234L13.5489 13.6542L13.5401 13.6601C12.8375 14.1639 12.325 14.5475 11.7403 14.6952C11.2544 14.8182 10.7447 14.8193 10.2589 14.6962C9.67442 14.5483 9.16384 14.165 8.46296 13.662C8.4592 13.6593 8.45592 13.656 8.45222 13.6532V13.6542L1.8028 8.7382C1.75709 8.90169 1.75007 9.09776 1.75007 9.76554V16.5185C1.75007 17.1403 1.75034 17.5613 1.77741 17.8857C1.8037 18.2004 1.85112 18.3577 1.90729 18.4657C2.04651 18.7334 2.26896 18.9526 2.54792 19.0917H2.5489C2.66389 19.1492 2.82968 19.1965 3.15436 19.2226C3.48753 19.2493 3.91884 19.2499 4.55183 19.2499H17.4483C18.0813 19.2499 18.5119 19.2493 18.8448 19.2226C19.1694 19.1966 19.3351 19.1493 19.4503 19.0917H19.4512C19.7303 18.9525 19.9536 18.7317 20.0928 18.4648L20.1329 18.3739C20.171 18.2699 20.203 18.1228 20.2227 17.8866C20.2498 17.5628 20.2501 17.143 20.2501 16.5224V9.69523ZM11.6544 1.80461C11.4011 1.73399 11.1323 1.73071 10.877 1.79484L10.878 1.79582C10.6247 1.85958 10.3681 2.03126 9.52546 2.65519L2.85749 7.59172V7.59269C2.84376 7.60284 2.82972 7.61219 2.81647 7.62199L9.33698 12.4433C10.1425 13.0214 10.3861 13.181 10.628 13.2421C10.8721 13.3039 11.129 13.3039 11.3731 13.2421C11.615 13.181 11.8579 13.0208 12.6661 12.4413L19.2217 7.59367C19.2187 7.59127 19.2161 7.58828 19.213 7.58586C19.2102 7.58373 19.2069 7.58217 19.2042 7.58L12.9825 2.70304C12.1583 2.05635 11.9065 1.87649 11.6544 1.80558V1.80461ZM21.7501 16.5224C21.7501 17.1177 21.7504 17.6109 21.7169 18.0116C21.6826 18.4215 21.6092 18.8019 21.4229 19.1591C21.1357 19.7098 20.6794 20.155 20.1212 20.4335C19.762 20.6131 19.3799 20.6844 18.9649 20.7177C18.5582 20.7503 18.0571 20.7499 17.4483 20.7499H4.55183C3.94313 20.7499 3.44212 20.7503 3.03522 20.7177C2.61997 20.6844 2.2374 20.6132 1.878 20.4335C1.38943 20.1897 0.979699 19.8191 0.692451 19.3603L0.577216 19.1581C0.391244 18.8006 0.317528 18.4202 0.283271 18.0097C0.249818 17.6085 0.250068 17.1148 0.250068 16.5185V9.76554C0.250068 9.17426 0.243318 8.7302 0.364326 8.31242C0.465519 7.96324 0.631502 7.63601 0.853584 7.34758L0.85456 7.3466C1.1199 7.00333 1.48237 6.7435 1.96491 6.38664L8.63288 1.45012C9.36783 0.905886 9.90073 0.494533 10.5118 0.34074L10.7032 0.299724C11.1529 0.217347 11.6169 0.237812 12.0587 0.361248H12.0596C12.6673 0.531914 13.1886 0.95768 13.9083 1.52238L20.1133 6.38664C20.1186 6.39051 20.1238 6.39433 20.129 6.39836C20.5859 6.75641 20.9268 7.01633 21.1778 7.35539C21.3883 7.63866 21.5465 7.95766 21.6426 8.29679L21.6436 8.29875C21.7568 8.70288 21.7501 9.13028 21.7501 9.69523V16.5224Z" fill="#323949"/>
</svg>
