<svg width="24" height="24" viewBox="0 0 24 24" fill="none" xmlns="http://www.w3.org/2000/svg">
<path d="M21.2501 10.6952C21.2501 10.0839 21.2421 9.8864 21.2042 9.73234L14.5489 14.6542L14.5401 14.6601C13.8375 15.1639 13.325 15.5475 12.7403 15.6952C12.2544 15.8182 11.7447 15.8193 11.2589 15.6962C10.6744 15.5483 10.1638 15.165 9.46296 14.662C9.4592 14.6593 9.45592 14.656 9.45222 14.6532V14.6542L2.8028 9.7382C2.75709 9.90169 2.75007 10.0978 2.75007 10.7655V17.5185C2.75007 18.1403 2.75034 18.5613 2.77741 18.8857C2.8037 19.2004 2.85112 19.3577 2.90729 19.4657C3.04651 19.7334 3.26896 19.9526 3.54792 20.0917H3.5489C3.66389 20.1492 3.82968 20.1965 4.15436 20.2226C4.48753 20.2493 4.91884 20.2499 5.55183 20.2499H18.4483C19.0813 20.2499 19.5119 20.2493 19.8448 20.2226C20.1694 20.1966 20.3351 20.1493 20.4503 20.0917H20.4512C20.7303 19.9525 20.9536 19.7317 21.0928 19.4648L21.1329 19.3739C21.171 19.2699 21.203 19.1228 21.2227 18.8866C21.2498 18.5628 21.2501 18.143 21.2501 17.5224V10.6952ZM12.6544 2.80461C12.4011 2.73399 12.1323 2.73071 11.877 2.79484L11.878 2.79582C11.6247 2.85958 11.3681 3.03126 10.5255 3.65519L3.85749 8.59172V8.59269C3.84376 8.60284 3.82972 8.61219 3.81647 8.62199L10.337 13.4433C11.1425 14.0214 11.3861 14.181 11.628 14.2421C11.8721 14.3039 12.129 14.3039 12.3731 14.2421C12.615 14.181 12.8579 14.0208 13.6661 13.4413L20.2217 8.59367C20.2187 8.59127 20.2161 8.58828 20.213 8.58586C20.2102 8.58373 20.2069 8.58217 20.2042 8.58L13.9825 3.70304C13.1583 3.05635 12.9065 2.87649 12.6544 2.80558V2.80461ZM22.7501 17.5224C22.7501 18.1177 22.7504 18.6109 22.7169 19.0116C22.6826 19.4215 22.6092 19.802 22.4229 20.1591C22.1357 20.7098 21.6794 21.155 21.1212 21.4335C20.762 21.6131 20.3799 21.6844 19.9649 21.7177C19.5582 21.7503 19.0571 21.7499 18.4483 21.7499H5.55183C4.94313 21.7499 4.44212 21.7503 4.03522 21.7177C3.61997 21.6844 3.2374 21.6132 2.878 21.4335C2.38943 21.1897 1.9797 20.8191 1.69245 20.3603L1.57722 20.1581C1.39124 19.8006 1.31753 19.4202 1.28327 19.0097C1.24982 18.6085 1.25007 18.1148 1.25007 17.5185V10.7655C1.25007 10.1743 1.24332 9.7302 1.36433 9.31242C1.46552 8.96324 1.6315 8.63601 1.85358 8.34758L1.85456 8.3466C2.1199 8.00333 2.48237 7.7435 2.96491 7.38664L9.63288 2.45012C10.3678 1.90589 10.9007 1.49453 11.5118 1.34074L11.7032 1.29972C12.1529 1.21735 12.6169 1.23781 13.0587 1.36125H13.0596C13.6673 1.53191 14.1886 1.95768 14.9083 2.52238L21.1133 7.38664C21.1186 7.39051 21.1238 7.39433 21.129 7.39836C21.5859 7.75641 21.9268 8.01633 22.1778 8.35539C22.3883 8.63866 22.5465 8.95766 22.6426 9.29679L22.6436 9.29875C22.7568 9.70288 22.7501 10.1303 22.7501 10.6952V17.5224Z" fill="#323949"/>
</svg>
