<svg width="24" height="24" viewBox="0 0 24 24" fill="none" xmlns="http://www.w3.org/2000/svg">
<path d="M11.5 3C6.808 3 3 6.808 3 11.5C3 16.192 6.808 20 11.5 20H15.75V18.3H11.5C7.811 18.3 4.7 15.189 4.7 11.5C4.7 7.811 7.811 4.7 11.5 4.7C15.189 4.7 18.3 7.811 18.3 11.5V12.7155C18.3 13.387 17.6965 14.05 17.025 14.05C16.3535 14.05 15.75 13.387 15.75 12.7155V11.5C15.75 9.154 13.846 7.25 11.5 7.25C9.154 7.25 7.25 9.154 7.25 11.5C7.25 13.846 9.154 15.75 11.5 15.75C12.673 15.75 13.744 15.274 14.509 14.5005C15.0615 15.257 16.0135 15.75 17.025 15.75C18.6995 15.75 20 14.39 20 12.7155V11.5C20 6.808 16.192 3 11.5 3ZM11.5 14.05C10.089 14.05 8.95 12.911 8.95 11.5C8.95 10.089 10.089 8.95 11.5 8.95C12.911 8.95 14.05 10.089 14.05 11.5C14.05 12.911 12.911 14.05 11.5 14.05Z" fill="#323949"/>
</svg>
