<svg width="24" height="24" viewBox="0 0 24 24" fill="none" xmlns="http://www.w3.org/2000/svg">
<path d="M19.7383 10.9346C20.0507 10.6626 20.5249 10.6954 20.7969 11.0078C21.0684 11.3201 21.0356 11.7935 20.7236 12.0654L19.0039 13.5625H23C23.4142 13.5625 23.75 13.8983 23.75 14.3125C23.75 14.7267 23.4142 15.0625 23 15.0625H19.0039L20.7236 16.5596C21.0356 16.8315 21.0684 17.3049 20.7969 17.6172C20.5249 17.9296 20.0507 17.9624 19.7383 17.6904L16.5078 14.8779C16.3442 14.7355 16.25 14.5294 16.25 14.3125C16.25 14.0956 16.3442 13.8895 16.5078 13.7471L19.7383 10.9346Z" fill="#323949"/>
<path d="M17 4C17.538 4 18.0419 4.14358 18.4785 4.3916L18.542 4.34375L18.667 4.50586C19.3761 4.98077 19.8708 5.74985 19.9775 6.63867C19.9909 6.69461 20 6.75248 20 6.8125V9.625C20 10.0392 19.6642 10.375 19.25 10.375C18.8358 10.375 18.5 10.0392 18.5 9.625V7C18.5 6.77701 18.4496 6.5662 18.3623 6.37598L10.958 12.0938C10.6881 12.3019 10.3119 12.3019 10.042 12.0938L2.63672 6.37598C2.54955 6.5661 2.5 6.77716 2.5 7V16C2.5 16.8284 3.17157 17.5 4 17.5H16V17.5469H18C18.4142 17.5469 18.75 17.8827 18.75 18.2969C18.75 18.7111 18.4142 19.0469 18 19.0469H13C12.9105 19.0469 12.8256 19.0287 12.7461 19H4L3.8457 18.9961C2.31166 18.9184 1.08163 17.6883 1.00391 16.1543L1 16V7C1 5.96272 1.52785 5.05048 2.32812 4.51172L2.45801 4.34375L2.51953 4.3916C2.91451 4.16694 3.36486 4.02827 3.8457 4.00391L4 4H17ZM3.95801 5.50195L10.5 10.5518L17.041 5.50195C17.0274 5.50159 17.0137 5.5 17 5.5H4C3.98594 5.5 3.97197 5.50157 3.95801 5.50195Z" fill="#323949"/>
</svg>
