<svg width="19" height="16" viewBox="0 0 19 16" fill="none" xmlns="http://www.w3.org/2000/svg">
<path d="M13.5841 4.37604C13.9287 4.14628 14.3943 4.2394 14.6241 4.58405C14.8539 4.9287 14.7607 5.39433 14.4161 5.62409L9.91608 8.62409C9.66416 8.79204 9.33598 8.79204 9.08405 8.62409L4.58405 5.62409C4.2394 5.39433 4.14628 4.9287 4.37604 4.58405C4.60581 4.2394 5.07144 4.14628 5.41608 4.37604L9.50007 7.0987L13.5841 4.37604Z" fill="#323949"/>
<path d="M17.25 13V3C17.25 2.66848 17.1182 2.35063 16.8838 2.11621C16.6494 1.88179 16.3315 1.75 16 1.75H3C2.66848 1.75 2.35063 1.88179 2.11621 2.11621C1.88179 2.35063 1.75 2.66848 1.75 3V13C1.75 13.3315 1.88179 13.6494 2.11621 13.8838C2.35063 14.1182 2.66848 14.25 3 14.25H16C16.4142 14.25 16.75 14.5858 16.75 15C16.75 15.4142 16.4142 15.75 16 15.75H3C2.27065 15.75 1.57139 15.4601 1.05566 14.9443C0.539939 14.4286 0.25 13.7293 0.25 13V3C0.25 2.27065 0.539939 1.57139 1.05566 1.05566C1.57139 0.539939 2.27065 0.25 3 0.25H16C16.7293 0.25 17.4286 0.539939 17.9443 1.05566C18.4601 1.57139 18.75 2.27065 18.75 3V13C18.75 13.4142 18.4142 13.75 18 13.75C17.5858 13.75 17.25 13.4142 17.25 13Z" fill="#323949"/>
<path d="M1.75 13V3C1.75 2.66848 1.88179 2.35063 2.11621 2.11621C2.35063 1.88179 2.66848 1.75 3 1.75H16C16.3315 1.75 16.6494 1.88179 16.8838 2.11621C17.1182 2.35063 17.25 2.66848 17.25 3V13C17.25 13.3315 17.1182 13.6494 16.8838 13.8838C16.6494 14.1182 16.3315 14.25 16 14.25H3C2.58579 14.25 2.25 14.5858 2.25 15C2.25 15.4142 2.58579 15.75 3 15.75H16C16.7293 15.75 17.4286 15.4601 17.9443 14.9443C18.4601 14.4286 18.75 13.7293 18.75 13V3C18.75 2.27065 18.4601 1.57139 17.9443 1.05566C17.4286 0.539939 16.7293 0.25 16 0.25H3C2.27065 0.25 1.57139 0.539939 1.05566 1.05566C0.53994 1.57139 0.25 2.27065 0.25 3V13C0.25 13.4142 0.585787 13.75 1 13.75C1.41421 13.75 1.75 13.4142 1.75 13Z" fill="#323949"/>
</svg>
