<svg width="24" height="24" viewBox="0 0 24 24" fill="none" xmlns="http://www.w3.org/2000/svg">
<path d="M5.41435 12.5312C5.67311 12.2078 6.14559 12.1553 6.46904 12.4141L11.0003 16.0391L13.0315 14.4141C13.2866 14.21 13.6446 14.1948 13.9163 14.376L18.4163 17.376C18.761 17.6057 18.8541 18.0714 18.6243 18.416C18.3946 18.7607 17.9289 18.8538 17.5843 18.624L13.5403 15.9277L11.469 17.5859C11.1951 17.8051 10.8055 17.8051 10.5315 17.5859L5.53154 13.5859C5.20809 13.3272 5.1556 12.8547 5.41435 12.5312ZM17.2503 8.5C17.2503 8.03587 17.0658 7.59088 16.7376 7.2627C16.4094 6.93451 15.9644 6.75 15.5003 6.75C15.0362 6.75 14.5912 6.93451 14.263 7.2627C13.9348 7.59088 13.7503 8.03587 13.7503 8.5C13.7503 8.96413 13.9348 9.40912 14.263 9.7373C14.5912 10.0655 15.0362 10.25 15.5003 10.25C15.9644 10.25 16.4094 10.0655 16.7376 9.7373C17.0658 9.40912 17.2503 8.96413 17.2503 8.5ZM10.0003 8.25C10.4145 8.25 10.7503 8.58579 10.7503 9C10.7503 9.41421 10.4145 9.75 10.0003 9.75H6.00029C5.58608 9.75 5.25029 9.41421 5.25029 9C5.25029 8.58579 5.58608 8.25 6.00029 8.25H10.0003ZM9.00029 5.25C9.4145 5.25 9.75029 5.58579 9.75029 6C9.75029 6.41421 9.4145 6.75 9.00029 6.75H6.00029C5.58608 6.75 5.25029 6.41421 5.25029 6C5.25029 5.58579 5.58608 5.25 6.00029 5.25H9.00029ZM18.7503 8.5C18.7503 9.36195 18.4076 10.1884 17.7981 10.7979C17.1886 11.4073 16.3622 11.75 15.5003 11.75C14.6383 11.75 13.8119 11.4073 13.2024 10.7979C12.5929 10.1884 12.2503 9.36195 12.2503 8.5C12.2503 7.63805 12.5929 6.81164 13.2024 6.20215C13.8119 5.59266 14.6383 5.25 15.5003 5.25C16.3622 5.25 17.1886 5.59266 17.7981 6.20215C18.4076 6.81164 18.7503 7.63805 18.7503 8.5Z" fill="#323949"/>
<path d="M3.75 20.25H20.25V3.75H3.75V20.25ZM21.75 20.4004C21.7499 20.7583 21.6076 21.1014 21.3545 21.3545C21.1014 21.6076 20.7583 21.7499 20.4004 21.75H3.59961C3.24171 21.7499 2.89859 21.6076 2.64551 21.3545C2.39243 21.1014 2.2501 20.7583 2.25 20.4004V3.59961C2.2501 3.24171 2.39243 2.89859 2.64551 2.64551C2.89859 2.39243 3.24171 2.2501 3.59961 2.25H20.4004C20.7583 2.2501 21.1014 2.39243 21.3545 2.64551C21.6076 2.89859 21.7499 3.24171 21.75 3.59961V20.4004Z" fill="#323949"/>
</svg>
