<svg width="20" height="20" viewBox="0 0 20 20" fill="none" xmlns="http://www.w3.org/2000/svg">
<path d="M3.41435 10.5312C3.67311 10.2078 4.14559 10.1553 4.46904 10.4141L9.00029 14.0391L11.0315 12.4141C11.2866 12.21 11.6446 12.1948 11.9163 12.376L16.4163 15.376C16.761 15.6057 16.8541 16.0714 16.6243 16.416C16.3946 16.7607 15.9289 16.8538 15.5843 16.624L11.5403 13.9277L9.46904 15.5859C9.19513 15.8051 8.80545 15.8051 8.53154 15.5859L3.53154 11.5859C3.20809 11.3272 3.1556 10.8547 3.41435 10.5312ZM15.2503 6.5C15.2503 6.03587 15.0658 5.59088 14.7376 5.2627C14.4094 4.93451 13.9644 4.75 13.5003 4.75C13.0362 4.75 12.5912 4.93451 12.263 5.2627C11.9348 5.59088 11.7503 6.03587 11.7503 6.5C11.7503 6.96413 11.9348 7.40912 12.263 7.7373C12.5912 8.06549 13.0362 8.25 13.5003 8.25C13.9644 8.25 14.4094 8.06549 14.7376 7.7373C15.0658 7.40912 15.2503 6.96413 15.2503 6.5ZM8.00029 6.25C8.4145 6.25 8.75029 6.58579 8.75029 7C8.75029 7.41421 8.4145 7.75 8.00029 7.75H4.00029C3.58608 7.75 3.25029 7.41421 3.25029 7C3.25029 6.58579 3.58608 6.25 4.00029 6.25H8.00029ZM7.00029 3.25C7.4145 3.25 7.75029 3.58579 7.75029 4C7.75029 4.41421 7.4145 4.75 7.00029 4.75H4.00029C3.58608 4.75 3.25029 4.41421 3.25029 4C3.25029 3.58579 3.58608 3.25 4.00029 3.25H7.00029ZM16.7503 6.5C16.7503 7.36195 16.4076 8.18836 15.7981 8.79785C15.1886 9.40734 14.3622 9.75 13.5003 9.75C12.6383 9.75 11.8119 9.40734 11.2024 8.79785C10.5929 8.18836 10.2503 7.36195 10.2503 6.5C10.2503 5.63805 10.5929 4.81164 11.2024 4.20215C11.8119 3.59266 12.6383 3.25 13.5003 3.25C14.3622 3.25 15.1886 3.59266 15.7981 4.20215C16.4076 4.81164 16.7503 5.63805 16.7503 6.5Z" fill="#323949"/>
<path d="M1.75 18.25H18.25V1.75H1.75V18.25ZM19.75 18.4004C19.7499 18.7583 19.6076 19.1014 19.3545 19.3545C19.1014 19.6076 18.7583 19.7499 18.4004 19.75H1.59961C1.24171 19.7499 0.898591 19.6076 0.645508 19.3545C0.392425 19.1014 0.250104 18.7583 0.25 18.4004V1.59961C0.250103 1.24171 0.392426 0.89859 0.645508 0.645508C0.89859 0.392426 1.24171 0.250103 1.59961 0.25H18.4004C18.7583 0.250104 19.1014 0.392425 19.3545 0.645508C19.6076 0.898591 19.7499 1.24171 19.75 1.59961V18.4004Z" fill="#323949"/>
</svg>
