<svg width="24" height="24" viewBox="0 0 24 24" fill="none" xmlns="http://www.w3.org/2000/svg">
<path d="M16.1492 19H4.99922C4.71589 19 4.47855 18.904 4.28722 18.712C4.09589 18.52 3.99989 18.2827 3.99922 18C3.99855 17.7173 4.09455 17.48 4.28722 17.288C4.47989 17.096 4.71722 17 4.99922 17H5.99922V10C5.99922 9.45 6.07022 8.90834 6.21222 8.375C6.35422 7.84167 6.56655 7.33334 6.84922 6.85L8.34922 8.35C8.23255 8.61667 8.14522 8.88767 8.08722 9.163C8.02922 9.43834 7.99989 9.71734 7.99922 10V17H14.1992L2.09922 4.9C1.91589 4.71667 1.82422 4.48334 1.82422 4.2C1.82422 3.91667 1.91589 3.68334 2.09922 3.5C2.28255 3.31667 2.51589 3.225 2.79922 3.225C3.08255 3.225 3.31589 3.31667 3.49922 3.5L20.4992 20.5C20.6826 20.6833 20.7786 20.9127 20.7872 21.188C20.7959 21.4633 20.6999 21.7007 20.4992 21.9C20.3159 22.0833 20.0826 22.175 19.7992 22.175C19.5159 22.175 19.2826 22.0833 19.0992 21.9L16.1492 19ZM13.4992 4.2C14.8326 4.53334 15.9159 5.23734 16.7492 6.312C17.5826 7.38667 17.9992 8.616 17.9992 10V12.75C17.9992 13.0833 17.8952 13.3333 17.6872 13.5C17.4792 13.6667 17.2499 13.75 16.9992 13.75C16.7486 13.75 16.5196 13.6627 16.3122 13.488C16.1049 13.3133 16.0006 13.059 15.9992 12.725V10C15.9992 8.9 15.6076 7.95834 14.8242 7.175C14.0409 6.39167 13.0992 6 11.9992 6C11.7326 6 11.4492 6.03334 11.1492 6.1C10.8492 6.16667 10.5826 6.25 10.3492 6.35C10.0659 6.46667 9.78689 6.49167 9.51222 6.425C9.23755 6.35834 9.02489 6.2 8.87422 5.95C8.74089 5.73334 8.69522 5.50434 8.73722 5.263C8.77922 5.02167 8.90822 4.84234 9.12422 4.725C9.34022 4.60767 9.56522 4.50767 9.79922 4.425C10.0332 4.34234 10.2666 4.26734 10.4992 4.2V3.5C10.4992 3.08334 10.6452 2.72934 10.9372 2.438C11.2292 2.14667 11.5832 2.00067 11.9992 2C12.4152 1.99934 12.7696 2.14534 13.0622 2.438C13.3549 2.73067 13.5006 3.08467 13.4992 3.5V4.2ZM11.9992 22C11.4992 22 11.0532 21.8623 10.6612 21.587C10.2692 21.3117 10.0736 20.941 10.0742 20.475C10.0742 20.3417 10.1286 20.2293 10.2372 20.138C10.3459 20.0467 10.4666 20.0007 10.5992 20H13.3992C13.5326 20 13.6536 20.046 13.7622 20.138C13.8709 20.23 13.9249 20.3423 13.9242 20.475C13.9242 20.9417 13.7286 21.3127 13.3372 21.588C12.9459 21.8633 12.4999 22.0007 11.9992 22Z" fill="#323949"/>
</svg>
