<svg width="20" height="21" viewBox="0 0 20 21" fill="none" xmlns="http://www.w3.org/2000/svg">
<path d="M15.1492 17H3.99922C3.71589 17 3.47855 16.904 3.28722 16.712C3.09589 16.52 2.99989 16.2827 2.99922 16C2.99855 15.7173 3.09455 15.48 3.28722 15.288C3.47989 15.096 3.71722 15 3.99922 15H4.99922V8C4.99922 7.45 5.07022 6.90834 5.21222 6.375C5.35422 5.84167 5.56655 5.33334 5.84922 4.85L7.34922 6.35C7.23255 6.61667 7.14522 6.88767 7.08722 7.163C7.02922 7.43834 6.99989 7.71734 6.99922 8V15H13.1992L1.09922 2.9C0.915885 2.71667 0.824219 2.48334 0.824219 2.2C0.824219 1.91667 0.915885 1.68334 1.09922 1.5C1.28255 1.31667 1.51589 1.225 1.79922 1.225C2.08255 1.225 2.31589 1.31667 2.49922 1.5L19.4992 18.5C19.6826 18.6833 19.7786 18.9127 19.7872 19.188C19.7959 19.4633 19.6999 19.7007 19.4992 19.9C19.3159 20.0833 19.0826 20.175 18.7992 20.175C18.5159 20.175 18.2826 20.0833 18.0992 19.9L15.1492 17ZM12.4992 2.2C13.8326 2.53334 14.9159 3.23734 15.7492 4.312C16.5826 5.38667 16.9992 6.616 16.9992 8V10.75C16.9992 11.0833 16.8952 11.3333 16.6872 11.5C16.4792 11.6667 16.2499 11.75 15.9992 11.75C15.7486 11.75 15.5196 11.6627 15.3122 11.488C15.1049 11.3133 15.0006 11.059 14.9992 10.725V8C14.9992 6.9 14.6076 5.95834 13.8242 5.175C13.0409 4.39167 12.0992 4 10.9992 4C10.7326 4 10.4492 4.03334 10.1492 4.1C9.84922 4.16667 9.58255 4.25 9.34922 4.35C9.06589 4.46667 8.78689 4.49167 8.51222 4.425C8.23755 4.35834 8.02489 4.2 7.87422 3.95C7.74089 3.73334 7.69522 3.50434 7.73722 3.263C7.77922 3.02167 7.90822 2.84234 8.12422 2.725C8.34022 2.60767 8.56522 2.50767 8.79922 2.425C9.03322 2.34234 9.26655 2.26734 9.49922 2.2V1.5C9.49922 1.08334 9.64522 0.729336 9.93722 0.438002C10.2292 0.146669 10.5832 0.000668939 10.9992 2.27273e-06C11.4152 -0.000664394 11.7696 0.145336 12.0622 0.438002C12.3549 0.730669 12.5006 1.08467 12.4992 1.5V2.2ZM10.9992 20C10.4992 20 10.0532 19.8623 9.66122 19.587C9.26922 19.3117 9.07355 18.941 9.07422 18.475C9.07422 18.3417 9.12855 18.2293 9.23722 18.138C9.34589 18.0467 9.46655 18.0007 9.59922 18H12.3992C12.5326 18 12.6536 18.046 12.7622 18.138C12.8709 18.23 12.9249 18.3423 12.9242 18.475C12.9242 18.9417 12.7286 19.3127 12.3372 19.588C11.9459 19.8633 11.4999 20.0007 10.9992 20Z" fill="#323949"/>
</svg>
