<svg width="18" height="15" viewBox="0 0 18 15" fill="none" xmlns="http://www.w3.org/2000/svg">
<path fill-rule="evenodd" clip-rule="evenodd" d="M5.25 12.375C5.25 12.2092 5.31585 12.0503 5.43306 11.9331C5.55027 11.8158 5.70924 11.75 5.875 11.75H17.125C17.2908 11.75 17.4497 11.8158 17.5669 11.9331C17.6842 12.0503 17.75 12.2092 17.75 12.375C17.75 12.5408 17.6842 12.6997 17.5669 12.8169C17.4497 12.9342 17.2908 13 17.125 13H5.875C5.70924 13 5.55027 12.9342 5.43306 12.8169C5.31585 12.6997 5.25 12.5408 5.25 12.375ZM5.25 7.375C5.25 7.20924 5.31585 7.05027 5.43306 6.93306C5.55027 6.81585 5.70924 6.75 5.875 6.75H17.125C17.2908 6.75 17.4497 6.81585 17.5669 6.93306C17.6842 7.05027 17.75 7.20924 17.75 7.375C17.75 7.54076 17.6842 7.69973 17.5669 7.81694C17.4497 7.93415 17.2908 8 17.125 8H5.875C5.70924 8 5.55027 7.93415 5.43306 7.81694C5.31585 7.69973 5.25 7.54076 5.25 7.375ZM5.25 2.375C5.25 2.20924 5.31585 2.05027 5.43306 1.93306C5.55027 1.81585 5.70924 1.75 5.875 1.75H17.125C17.2908 1.75 17.4497 1.81585 17.5669 1.93306C17.6842 2.05027 17.75 2.20924 17.75 2.375C17.75 2.54076 17.6842 2.69973 17.5669 2.81694C17.4497 2.93415 17.2908 3 17.125 3H5.875C5.70924 3 5.55027 2.93415 5.43306 2.81694C5.31585 2.69973 5.25 2.54076 5.25 2.375Z" fill="#323949"/>
<path d="M1.14125 12.8312V12.2387H1.5C1.77125 12.2387 1.95375 12.0675 1.95375 11.8425C1.95375 11.6112 1.75625 11.455 1.5025 11.455C1.22375 11.455 1.04375 11.645 1.03625 11.8425H0.29875C0.31875 11.2587 0.765 10.8587 1.53125 10.8587C2.26625 10.8562 2.72375 11.2225 2.7275 11.7375C2.72987 11.9141 2.66929 12.0858 2.5566 12.2219C2.44392 12.3579 2.28649 12.4494 2.1125 12.48V12.5212C2.30976 12.5359 2.49376 12.6261 2.62623 12.773C2.7587 12.9199 2.82944 13.1123 2.82375 13.31C2.8275 13.9762 2.19625 14.31 1.51 14.31C0.69 14.31 0.26 13.8475 0.25 13.3175H0.9775C0.9875 13.54 1.21 13.7 1.505 13.7037C1.8225 13.7037 2.035 13.5225 2.0325 13.2662C2.03 13.0225 1.83875 12.8312 1.515 12.8312H1.14H1.14125ZM1.13625 6.95748H0.38125V6.91373C0.38125 6.40373 0.75 5.85873 1.57875 5.85873C2.3075 5.85873 2.77875 6.26623 2.77875 6.80373C2.77875 7.28998 2.4575 7.57498 2.18375 7.86373L1.5125 8.57873V8.61623H2.83V9.24998H0.42875V8.75623L1.625 7.51873C1.7975 7.34123 1.99125 7.13873 1.99125 6.88373C1.99125 6.65873 1.8075 6.48373 1.56375 6.48373C1.50748 6.48167 1.45138 6.49114 1.39891 6.51158C1.34644 6.53202 1.29871 6.56298 1.25866 6.60256C1.21861 6.64214 1.18709 6.6895 1.16604 6.74173C1.14498 6.79396 1.13485 6.84994 1.13625 6.90623V6.95748ZM2.205 4.24998H1.41125V1.65498H1.3725L0.625 2.17998V1.47123L1.41125 0.91748H2.205V4.24998Z" fill="#323949"/>
</svg>
