<svg width="17" height="18" viewBox="0 0 17 18" fill="none" xmlns="http://www.w3.org/2000/svg">
<path d="M2.616 17C2.15533 17 1.771 16.846 1.463 16.538C1.155 16.23 1.00067 15.8453 1 15.384V2.616C1 2.15533 1.15433 1.771 1.463 1.463C1.77167 1.155 2.156 1.00067 2.616 1H8.519C8.66167 1 8.78067 1.04767 8.876 1.143C8.97133 1.23833 9.019 1.35733 9.019 1.5C9.019 1.64267 8.97133 1.76167 8.876 1.857C8.78067 1.95233 8.66167 2 8.519 2H2.616C2.462 2 2.32067 2.064 2.192 2.192C2.06333 2.32 1.99933 2.46133 2 2.616V15.385C2 15.5383 2.064 15.6793 2.192 15.808C2.32 15.9367 2.461 16.0007 2.615 16H8.519C8.66167 16 8.78067 16.0477 8.876 16.143C8.97133 16.2383 9.019 16.3573 9.019 16.5C9.019 16.6427 8.97133 16.7617 8.876 16.857C8.78067 16.9523 8.66167 17 8.519 17H2.616ZM15.06 9.5H6.692C6.55 9.5 6.43133 9.45233 6.336 9.357C6.24067 9.26167 6.19267 9.14267 6.192 9C6.19133 8.85733 6.239 8.73833 6.335 8.643C6.431 8.54767 6.55 8.5 6.692 8.5H15.06L13.089 6.529C12.995 6.43567 12.945 6.323 12.939 6.191C12.9323 6.05833 12.9823 5.937 13.089 5.827C13.195 5.717 13.3127 5.661 13.442 5.659C13.572 5.657 13.692 5.711 13.802 5.821L16.416 8.434C16.5773 8.596 16.658 8.78467 16.658 9C16.658 9.21533 16.577 9.404 16.415 9.566L13.802 12.179C13.7047 12.2763 13.589 12.3273 13.455 12.332C13.321 12.3367 13.199 12.2837 13.089 12.173C12.9823 12.063 12.93 11.944 12.932 11.816C12.934 11.688 12.988 11.5713 13.094 11.466L15.06 9.5Z" fill="#323949"/>
<path d="M0.800781 2.61621C0.800781 2.10583 0.973805 1.66907 1.32227 1.32129C1.67047 0.973836 2.10677 0.80065 2.61621 0.799805H8.51953V1H2.61719L2.44824 1.00781C2.06221 1.04198 1.73399 1.19335 1.46387 1.46289C1.1552 1.77089 1.00098 2.15554 1.00098 2.61621V15.3838C1.00164 15.8451 1.15587 16.2301 1.46387 16.5381C1.73348 16.8077 2.06165 16.9596 2.44824 16.9932L2.61719 17H8.51953C8.62638 17 8.72048 16.9734 8.80078 16.9199L8.87695 16.8574C8.97229 16.7621 9.01953 16.6427 9.01953 16.5C9.01953 16.3573 8.97229 16.2379 8.87695 16.1426C8.78166 16.0474 8.66209 16 8.51953 16V15.7998C8.71181 15.7998 8.88336 15.8668 9.01855 16.002C9.15357 16.1371 9.21973 16.3078 9.21973 16.5C9.21973 16.6922 9.15357 16.8629 9.01855 16.998C8.88336 17.1332 8.71181 17.2002 8.51953 17.2002H2.61719C2.10687 17.2002 1.67011 17.0275 1.32227 16.6797C0.974558 16.332 0.801626 15.8954 0.800781 15.3848V2.61621ZM2.00098 15.3848V2.61621C2.00048 2.50013 2.03605 2.3911 2.1084 2.29004L2.19336 2.19238C2.28989 2.09635 2.39312 2.0357 2.50391 2.01172L2.61719 2H8.51953C8.62638 2 8.72048 1.97339 8.80078 1.91992L8.87695 1.85742C8.97229 1.76209 9.01953 1.64267 9.01953 1.5C9.01953 1.35733 8.97229 1.23791 8.87695 1.14258C8.78166 1.04739 8.66209 1 8.51953 1V0.799805C8.71181 0.799805 8.88336 0.866756 9.01855 1.00195C9.15357 1.13711 9.21973 1.30784 9.21973 1.5C9.21973 1.69216 9.15357 1.86289 9.01855 1.99805C8.88336 2.13324 8.71181 2.2002 8.51953 2.2002H2.61719C2.5254 2.2002 2.43237 2.23611 2.33398 2.33398C2.23625 2.43126 2.20078 2.52338 2.20117 2.61523V15.3848C2.20117 15.4757 2.23689 15.5684 2.33496 15.667C2.43244 15.7649 2.52429 15.8002 2.61523 15.7998H8.51953V16H2.61621C2.50065 16.0005 2.39194 15.9649 2.29102 15.8926L2.19336 15.8076C2.06536 15.679 2.00098 15.5381 2.00098 15.3848ZM6.69336 8.5L6.59082 8.50879C6.49301 8.52664 6.40791 8.57118 6.33594 8.64258C6.23994 8.73791 6.19269 8.85733 6.19336 9C6.19403 9.14267 6.24158 9.26209 6.33691 9.35742C6.40838 9.42882 6.49315 9.47335 6.59082 9.49121L6.69336 9.5H15.0605L13.0947 11.4658C12.9888 11.5711 12.9346 11.6884 12.9326 11.8164L12.9414 11.9102C12.9602 12.0028 13.0099 12.0903 13.0898 12.1729C13.1722 12.2557 13.2616 12.306 13.3574 12.3242L13.4561 12.332C13.59 12.3273 13.7054 12.276 13.8027 12.1787L16.416 9.56641C16.5579 9.42455 16.6376 9.26185 16.6553 9.0791L16.6592 9C16.6592 8.83844 16.6133 8.69209 16.5225 8.56055L16.417 8.43359L13.8027 5.82129C13.7204 5.73892 13.6326 5.68754 13.5391 5.66797L13.4434 5.65918C13.314 5.66118 13.1958 5.71715 13.0898 5.82715L13.0205 5.91211C12.9619 5.99875 12.9354 6.09205 12.9404 6.19141C12.9465 6.32322 12.9959 6.43606 13.0898 6.5293L15.0605 8.5H6.69336V8.2998H14.5781L12.9482 6.6709V6.66992C12.8196 6.54176 12.7487 6.38253 12.7402 6.20117V6.12793C12.7504 5.96115 12.825 5.81262 12.9463 5.6875C13.0818 5.54705 13.2477 5.46207 13.4395 5.45898C13.634 5.45599 13.8042 5.53952 13.9443 5.67969L16.5586 8.29297L16.6279 8.36816C16.7794 8.5495 16.8594 8.7621 16.8594 9C16.8594 9.27188 16.7543 9.51024 16.5576 9.70703L13.9443 12.3203C13.8123 12.4524 13.649 12.5257 13.4629 12.5322C13.2642 12.5391 13.0904 12.4573 12.9482 12.3145L12.9463 12.3125C12.8105 12.1724 12.7304 12.0038 12.7334 11.8125C12.7364 11.624 12.8172 11.4595 12.9531 11.3242L14.5781 9.7002H6.69336C6.50146 9.7002 6.33032 9.63305 6.19531 9.49805C6.06058 9.36316 5.99407 9.1928 5.99316 9.00098C5.99226 8.80796 6.05902 8.63632 6.19531 8.50098C6.33076 8.36656 6.50156 8.2998 6.69336 8.2998V8.5Z" fill="#323949"/>
</svg>
