<svg width="24" height="24" viewBox="0 0 24 24" fill="none" xmlns="http://www.w3.org/2000/svg">
<path d="M5.616 20C5.15533 20 4.771 19.846 4.463 19.538C4.155 19.23 4.00067 18.8453 4 18.384V5.616C4 5.15533 4.15433 4.771 4.463 4.463C4.77167 4.155 5.156 4.00067 5.616 4H11.519C11.6617 4 11.7807 4.04767 11.876 4.143C11.9713 4.23833 12.019 4.35733 12.019 4.5C12.019 4.64267 11.9713 4.76167 11.876 4.857C11.7807 4.95233 11.6617 5 11.519 5H5.616C5.462 5 5.32067 5.064 5.192 5.192C5.06333 5.32 4.99933 5.46133 5 5.616V18.385C5 18.5383 5.064 18.6793 5.192 18.808C5.32 18.9367 5.461 19.0007 5.615 19H11.519C11.6617 19 11.7807 19.0477 11.876 19.143C11.9713 19.2383 12.019 19.3573 12.019 19.5C12.019 19.6427 11.9713 19.7617 11.876 19.857C11.7807 19.9523 11.6617 20 11.519 20H5.616ZM18.06 12.5H9.692C9.55 12.5 9.43133 12.4523 9.336 12.357C9.24067 12.2617 9.19267 12.1427 9.192 12C9.19133 11.8573 9.239 11.7383 9.335 11.643C9.431 11.5477 9.55 11.5 9.692 11.5H18.06L16.089 9.529C15.995 9.43567 15.945 9.323 15.939 9.191C15.9323 9.05833 15.9823 8.937 16.089 8.827C16.195 8.717 16.3127 8.661 16.442 8.659C16.572 8.657 16.692 8.711 16.802 8.821L19.416 11.434C19.5773 11.596 19.658 11.7847 19.658 12C19.658 12.2153 19.577 12.404 19.415 12.566L16.802 15.179C16.7047 15.2763 16.589 15.3273 16.455 15.332C16.321 15.3367 16.199 15.2837 16.089 15.173C15.9823 15.063 15.93 14.944 15.932 14.816C15.934 14.688 15.988 14.5713 16.094 14.466L18.06 12.5Z" fill="#323949"/>
<path d="M3.80078 5.61621C3.80078 5.10583 3.97381 4.66907 4.32227 4.32129C4.67047 3.97384 5.10677 3.80065 5.61621 3.7998H11.5195V4H5.61719L5.44824 4.00781C5.06221 4.04198 4.73399 4.19335 4.46387 4.46289C4.1552 4.77089 4.00098 5.15554 4.00098 5.61621V18.3838C4.00164 18.8451 4.15587 19.2301 4.46387 19.5381C4.73348 19.8077 5.06165 19.9596 5.44824 19.9932L5.61719 20H11.5195C11.6264 20 11.7205 19.9734 11.8008 19.9199L11.877 19.8574C11.9723 19.7621 12.0195 19.6427 12.0195 19.5C12.0195 19.3573 11.9723 19.2379 11.877 19.1426C11.7817 19.0474 11.6621 19 11.5195 19V18.7998C11.7118 18.7998 11.8834 18.8668 12.0186 19.002C12.1536 19.1371 12.2197 19.3078 12.2197 19.5C12.2197 19.6922 12.1536 19.8629 12.0186 19.998C11.8834 20.1332 11.7118 20.2002 11.5195 20.2002H5.61719C5.10687 20.2002 4.67011 20.0275 4.32227 19.6797C3.97456 19.332 3.80163 18.8954 3.80078 18.3848V5.61621ZM5.00098 18.3848V5.61621C5.00048 5.50013 5.03605 5.3911 5.1084 5.29004L5.19336 5.19238C5.28989 5.09635 5.39312 5.0357 5.50391 5.01172L5.61719 5H11.5195C11.6264 5 11.7205 4.97339 11.8008 4.91992L11.877 4.85742C11.9723 4.76209 12.0195 4.64267 12.0195 4.5C12.0195 4.35733 11.9723 4.23791 11.877 4.14258C11.7817 4.04739 11.6621 4 11.5195 4V3.7998C11.7118 3.7998 11.8834 3.86676 12.0186 4.00195C12.1536 4.13711 12.2197 4.30784 12.2197 4.5C12.2197 4.69216 12.1536 4.86289 12.0186 4.99805C11.8834 5.13324 11.7118 5.2002 11.5195 5.2002H5.61719C5.5254 5.2002 5.43237 5.23611 5.33398 5.33398C5.23625 5.43126 5.20078 5.52338 5.20117 5.61523V18.3848C5.20117 18.4757 5.23689 18.5684 5.33496 18.667C5.43244 18.7649 5.52429 18.8002 5.61523 18.7998H11.5195V19H5.61621C5.50065 19.0005 5.39194 18.9649 5.29102 18.8926L5.19336 18.8076C5.06536 18.679 5.00098 18.5381 5.00098 18.3848ZM9.69336 11.5L9.59082 11.5088C9.49301 11.5266 9.40791 11.5712 9.33594 11.6426C9.23994 11.7379 9.19269 11.8573 9.19336 12C9.19403 12.1427 9.24158 12.2621 9.33691 12.3574C9.40838 12.4288 9.49315 12.4734 9.59082 12.4912L9.69336 12.5H18.0605L16.0947 14.4658C15.9888 14.5711 15.9346 14.6884 15.9326 14.8164L15.9414 14.9102C15.9602 15.0028 16.0099 15.0903 16.0898 15.1729C16.1722 15.2557 16.2616 15.306 16.3574 15.3242L16.4561 15.332C16.59 15.3273 16.7054 15.276 16.8027 15.1787L19.416 12.5664C19.5579 12.4246 19.6376 12.2618 19.6553 12.0791L19.6592 12C19.6592 11.8384 19.6133 11.6921 19.5225 11.5605L19.417 11.4336L16.8027 8.82129C16.7204 8.73892 16.6326 8.68754 16.5391 8.66797L16.4434 8.65918C16.314 8.66118 16.1958 8.71715 16.0898 8.82715L16.0205 8.91211C15.9619 8.99875 15.9354 9.09205 15.9404 9.19141C15.9465 9.32322 15.9959 9.43606 16.0898 9.5293L18.0605 11.5H9.69336V11.2998H17.5781L15.9482 9.6709V9.66992C15.8196 9.54176 15.7487 9.38253 15.7402 9.20117V9.12793C15.7504 8.96115 15.825 8.81262 15.9463 8.6875C16.0818 8.54705 16.2477 8.46207 16.4395 8.45898C16.634 8.45599 16.8042 8.53952 16.9443 8.67969L19.5586 11.293L19.6279 11.3682C19.7794 11.5495 19.8594 11.7621 19.8594 12C19.8594 12.2719 19.7543 12.5102 19.5576 12.707L16.9443 15.3203C16.8123 15.4524 16.649 15.5257 16.4629 15.5322C16.2642 15.5391 16.0904 15.4573 15.9482 15.3145L15.9463 15.3125C15.8105 15.1724 15.7304 15.0038 15.7334 14.8125C15.7364 14.624 15.8172 14.4595 15.9531 14.3242L17.5781 12.7002H9.69336C9.50146 12.7002 9.33032 12.6331 9.19531 12.498C9.06058 12.3632 8.99407 12.1928 8.99316 12.001C8.99226 11.808 9.05902 11.6363 9.19531 11.501C9.33076 11.3666 9.50156 11.2998 9.69336 11.2998V11.5Z" fill="#323949"/>
</svg>
