<svg width="24" height="24" viewBox="0 0 24 24" fill="none" xmlns="http://www.w3.org/2000/svg">
<path d="M21.2499 4.81885C21.25 4.27015 21.0314 3.744 20.6435 3.35596C20.2556 2.96808 19.73 2.7497 19.1815 2.74951C18.633 2.74944 18.1066 2.96731 17.7186 3.35498L16.0673 5.00635L18.9931 7.93213L20.6435 6.28174C21.0314 5.89384 21.2498 5.36748 21.2499 4.81885ZM4.37197 16.7046C4.2274 16.8487 4.11869 17.0262 4.05849 17.2212L4.05947 17.2222L2.87392 21.1235L6.77822 19.9399C6.97395 19.8804 7.15286 19.7738 7.29775 19.6294L17.9325 8.99268L15.0067 6.06689L4.37197 16.7046ZM22.7499 4.81885C22.7498 5.7063 22.4191 6.55973 21.8261 7.21436L21.704 7.34229L19.6034 9.44189C19.5811 9.47227 19.5576 9.50231 19.5302 9.52979C19.5021 9.55784 19.4714 9.5823 19.4403 9.60498L8.35634 20.6919C8.07746 20.9699 7.74269 21.1848 7.3749 21.3218L7.21474 21.3755L2.86123 22.6958H2.85927C2.64329 22.7607 2.41391 22.7664 2.19521 22.7114C1.97637 22.6564 1.77678 22.5427 1.61708 22.3833C1.45747 22.2239 1.34338 22.0248 1.28798 21.8062C1.23261 21.5874 1.23802 21.3573 1.30263 21.1411L1.30361 21.1382L2.62392 16.7856L2.6249 16.7837C2.75706 16.3528 2.99328 15.9613 3.3124 15.6431L14.3954 4.55518C14.4175 4.52521 14.4425 4.49637 14.4696 4.46924C14.4964 4.44252 14.5251 4.41881 14.5546 4.39697L16.6571 2.29443C17.3265 1.62522 18.235 1.24939 19.1815 1.24951C20.128 1.2497 21.0358 1.62609 21.705 2.29541C22.374 2.96476 22.75 3.87244 22.7499 4.81885Z" fill="#323949"/>
</svg>
