<svg width="22" height="22" viewBox="0 0 22 22" fill="none" xmlns="http://www.w3.org/2000/svg">
<path d="M20.2499 3.81885C20.25 3.27015 20.0314 2.744 19.6435 2.35596C19.2556 1.96808 18.73 1.7497 18.1815 1.74951C17.633 1.74944 17.1066 1.96731 16.7186 2.35498L15.0673 4.00635L17.9931 6.93213L19.6435 5.28174C20.0314 4.89384 20.2498 4.36748 20.2499 3.81885ZM3.37197 15.7046C3.2274 15.8487 3.11869 16.0262 3.05849 16.2212L3.05947 16.2222L1.87392 20.1235L5.77822 18.9399C5.97395 18.8804 6.15286 18.7738 6.29775 18.6294L16.9325 7.99268L14.0067 5.06689L3.37197 15.7046ZM21.7499 3.81885C21.7498 4.7063 21.4191 5.55973 20.8261 6.21436L20.704 6.34229L18.6034 8.44189C18.5811 8.47227 18.5576 8.50231 18.5302 8.52979C18.5021 8.55784 18.4714 8.5823 18.4403 8.60498L7.35634 19.6919C7.07746 19.9699 6.74269 20.1848 6.3749 20.3218L6.21474 20.3755L1.86123 21.6958H1.85927C1.64329 21.7607 1.41391 21.7664 1.19521 21.7114C0.97637 21.6564 0.776776 21.5427 0.617084 21.3833C0.457473 21.2239 0.343382 21.0248 0.287983 20.8062C0.232614 20.5874 0.238019 20.3573 0.302631 20.1411L0.303608 20.1382L1.62392 15.7856L1.6249 15.7837C1.75706 15.3528 1.99328 14.9613 2.3124 14.6431L13.3954 3.55518C13.4175 3.52521 13.4425 3.49637 13.4696 3.46924C13.4964 3.44252 13.5251 3.41881 13.5546 3.39697L15.6571 1.29443C16.3265 0.625222 17.235 0.249393 18.1815 0.249512C19.128 0.249699 20.0358 0.626092 20.705 1.29541C21.374 1.96476 21.75 2.87244 21.7499 3.81885Z" fill="#323949"/>
</svg>
