<svg width="19" height="30" viewBox="0 0 19 30" fill="none" xmlns="http://www.w3.org/2000/svg">
<path d="M14.917 8.66699C14.917 8.16073 14.5063 7.75 14 7.75H5.66699C5.16073 7.75 4.75 8.16073 4.75 8.66699V22C4.75 22.5063 5.16073 22.917 5.66699 22.917H14C14.5063 22.917 14.917 22.5063 14.917 22V8.66699ZM9.8418 19.583C10.2558 19.5831 10.5916 19.919 10.5918 20.333C10.5918 20.7472 10.256 21.0829 9.8418 21.083H9.83301C9.41894 21.0828 9.08301 20.7471 9.08301 20.333C9.08318 19.9191 9.41905 19.5832 9.83301 19.583H9.8418ZM16.417 22C16.417 23.3347 15.3347 24.417 14 24.417H5.66699C4.3323 24.417 3.25 23.3347 3.25 22V8.66699C3.25 7.3323 4.3323 6.25 5.66699 6.25H14C15.3347 6.25 16.417 7.3323 16.417 8.66699V22Z" fill="#323949"/>
</svg>
