<svg width="14" height="19" viewBox="0 0 14 19" fill="none" xmlns="http://www.w3.org/2000/svg">
<path d="M11.917 2.66699C11.917 2.16073 11.5063 1.75 11 1.75H2.66699C2.16073 1.75 1.75 2.16073 1.75 2.66699V16C1.75 16.5063 2.16073 16.917 2.66699 16.917H11C11.5063 16.917 11.917 16.5063 11.917 16V2.66699ZM6.8418 13.583C7.25584 13.5831 7.59162 13.919 7.5918 14.333C7.5918 14.7472 7.25595 15.0829 6.8418 15.083H6.83301C6.41894 15.0828 6.08301 14.7471 6.08301 14.333C6.08318 13.9191 6.41905 13.5832 6.83301 13.583H6.8418ZM13.417 16C13.417 17.3347 12.3347 18.417 11 18.417H2.66699C1.3323 18.417 0.25 17.3347 0.25 16V2.66699C0.25 1.3323 1.3323 0.25 2.66699 0.25H11C12.3347 0.25 13.417 1.3323 13.417 2.66699V16Z" fill="#323949"/>
</svg>
