<svg width="20" height="20" viewBox="0 0 20 20" fill="none" xmlns="http://www.w3.org/2000/svg">
<path d="M18.25 13.3105L15.3838 10.4443C15.1494 10.21 14.8314 10.0781 14.5 10.0781C14.21 10.0781 13.9304 10.1792 13.708 10.3613L13.6162 10.4443L5.81055 18.25H17C17.6904 18.25 18.25 17.6904 18.25 17V13.3105ZM8.25 7C8.25 6.30964 7.69036 5.75 7 5.75C6.30964 5.75 5.75 6.30964 5.75 7C5.75 7.69036 6.30964 8.25 7 8.25C7.69036 8.25 8.25 7.69036 8.25 7ZM18.25 3C18.25 2.30964 17.6904 1.75 17 1.75H3C2.30964 1.75 1.75 2.30964 1.75 3V17C1.75 17.6904 2.30964 18.25 3 18.25H3.68945L12.5557 9.38379C13.0714 8.86824 13.7708 8.57812 14.5 8.57812C15.2292 8.57812 15.9286 8.86824 16.4443 9.38379L18.25 11.1895V3ZM9.75 7C9.75 8.51878 8.51878 9.75 7 9.75C5.48122 9.75 4.25 8.51878 4.25 7C4.25 5.48122 5.48122 4.25 7 4.25C8.51878 4.25 9.75 5.48122 9.75 7ZM19.75 17C19.75 18.5188 18.5188 19.75 17 19.75H3C1.48122 19.75 0.25 18.5188 0.25 17V3C0.25 1.48122 1.48122 0.25 3 0.25H17C18.5188 0.25 19.75 1.48122 19.75 3V17Z" fill="#323949"/>
</svg>
