<svg width="23" height="23" viewBox="0 0 23 23" fill="none" xmlns="http://www.w3.org/2000/svg">
<path d="M20.0214 4.09985C20.0213 3.80258 19.9034 3.51711 19.6932 3.30688C19.483 3.09669 19.1975 2.97886 18.9003 2.97876C18.603 2.97876 18.3176 3.09679 18.1073 3.30688L14.7069 6.70728C14.5194 6.89476 14.2651 7.00024 13.9999 7.00024C13.7347 7.00024 13.4804 6.89476 13.2929 6.70728L12.8925 6.30688C12.6822 6.09679 12.3967 5.97876 12.0995 5.97876C11.9524 5.97881 11.8067 6.00746 11.6708 6.06372C11.5347 6.12007 11.4106 6.20276 11.3065 6.30688C11.2024 6.41099 11.1207 6.53513 11.0643 6.67114C11.008 6.80712 10.9784 6.95268 10.9784 7.09985C10.9784 7.3971 11.0964 7.68256 11.3065 7.89282L15.1073 11.6926C15.2114 11.7967 15.3346 11.8794 15.4706 11.9358C15.6066 11.9921 15.753 12.0217 15.9003 12.0217C16.0474 12.0217 16.1931 11.9921 16.329 11.9358C16.465 11.8794 16.5891 11.7967 16.6932 11.6926C16.7971 11.5887 16.8792 11.4651 16.9354 11.3293C16.9918 11.1933 17.0214 11.0469 17.0214 10.8997C17.0213 10.7525 16.9917 10.6069 16.9354 10.4709C16.8792 10.3352 16.7971 10.2116 16.6932 10.1077L16.2929 9.70728C15.9024 9.31678 15.9024 8.68374 16.2929 8.29321L19.6932 4.89282C19.9033 4.68256 20.0214 4.3971 20.0214 4.09985ZM2.99988 20.0002H4.17176L4.27039 19.9954C4.49932 19.9726 4.71471 19.8714 4.87879 19.7073L12.5858 12.0002L10.9999 10.4143L3.29285 18.1213C3.10533 18.3088 2.99994 18.5632 2.99988 18.8284V20.0002ZM22.0214 4.09985C22.0214 4.92753 21.6925 5.72155 21.1073 6.30688L18.3915 9.02173C18.55 9.23195 18.6829 9.46103 18.7841 9.70532C18.9409 10.0839 19.0213 10.4899 19.0214 10.8997C19.0214 11.3096 18.9409 11.7163 18.7841 12.095C18.6272 12.4736 18.3971 12.8179 18.1073 13.1077C17.8176 13.3974 17.4731 13.6266 17.0946 13.7834C16.716 13.9403 16.31 14.0217 15.9003 14.0217C15.4904 14.0217 15.0837 13.9403 14.705 13.7834C14.4608 13.6823 14.2315 13.5502 14.0214 13.3918L6.29285 21.1213C5.7304 21.6838 4.96722 22.0001 4.17176 22.0002H2.82801C2.56285 22.0003 2.30845 22.1057 2.12098 22.2932L1.70691 22.7073C1.31641 23.0977 0.683356 23.0977 0.292852 22.7073C-0.0976446 22.3168 -0.09759 21.6837 0.292852 21.2932L0.706914 20.8792C0.894405 20.6917 0.99976 20.4372 0.999883 20.1721V18.8274C1.00018 18.0321 1.31641 17.2696 1.87879 16.7073L9.6073 8.97778C9.20194 8.43969 8.9784 7.78134 8.9784 7.09985C8.97843 6.69006 9.0589 6.28412 9.2157 5.90552C9.37255 5.52686 9.60266 5.18265 9.89246 4.89282C10.1823 4.60301 10.5265 4.37292 10.9052 4.21606C11.2837 4.05925 11.6897 3.97881 12.0995 3.97876C12.781 3.97876 13.4393 4.20231 13.9774 4.60767L16.6932 1.89282C17.2786 1.30765 18.0726 0.97876 18.9003 0.97876C19.728 0.978863 20.522 1.30755 21.1073 1.89282C21.6926 2.47812 22.0213 3.27215 22.0214 4.09985Z" fill="#323949"/>
</svg>
