<svg width="24" height="24" viewBox="0 0 24 24" fill="none" xmlns="http://www.w3.org/2000/svg">
<path d="M21.0214 4.09985C21.0213 3.80258 20.9034 3.51711 20.6932 3.30688C20.483 3.09669 20.1975 2.97886 19.9003 2.97876C19.603 2.97876 19.3176 3.09679 19.1073 3.30688L15.7069 6.70728C15.5194 6.89476 15.2651 7.00024 14.9999 7.00024C14.7347 7.00024 14.4804 6.89476 14.2929 6.70728L13.8925 6.30688C13.6822 6.09679 13.3967 5.97876 13.0995 5.97876C12.9524 5.97881 12.8067 6.00746 12.6708 6.06372C12.5347 6.12007 12.4106 6.20276 12.3065 6.30688C12.2024 6.41099 12.1207 6.53513 12.0643 6.67114C12.008 6.80712 11.9784 6.95268 11.9784 7.09985C11.9784 7.3971 12.0964 7.68256 12.3065 7.89282L16.1073 11.6926C16.2114 11.7967 16.3346 11.8794 16.4706 11.9358C16.6066 11.9921 16.753 12.0217 16.9003 12.0217C17.0474 12.0217 17.1931 11.9921 17.329 11.9358C17.465 11.8794 17.5891 11.7967 17.6932 11.6926C17.7971 11.5887 17.8792 11.4651 17.9354 11.3293C17.9918 11.1933 18.0214 11.0469 18.0214 10.8997C18.0213 10.7525 17.9917 10.6069 17.9354 10.4709C17.8792 10.3352 17.7971 10.2116 17.6932 10.1077L17.2929 9.70728C16.9024 9.31678 16.9024 8.68374 17.2929 8.29321L20.6932 4.89282C20.9033 4.68256 21.0214 4.3971 21.0214 4.09985ZM3.99988 20.0002H5.17176L5.27039 19.9954C5.49932 19.9726 5.71471 19.8714 5.87879 19.7073L13.5858 12.0002L11.9999 10.4143L4.29285 18.1213C4.10533 18.3088 3.99994 18.5632 3.99988 18.8284V20.0002ZM23.0214 4.09985C23.0214 4.92753 22.6925 5.72155 22.1073 6.30688L19.3915 9.02173C19.55 9.23195 19.6829 9.46103 19.7841 9.70532C19.9409 10.0839 20.0213 10.4899 20.0214 10.8997C20.0214 11.3096 19.9409 11.7163 19.7841 12.095C19.6272 12.4736 19.3971 12.8179 19.1073 13.1077C18.8176 13.3974 18.4731 13.6266 18.0946 13.7834C17.716 13.9403 17.31 14.0217 16.9003 14.0217C16.4904 14.0217 16.0837 13.9403 15.705 13.7834C15.4608 13.6823 15.2315 13.5502 15.0214 13.3918L7.29285 21.1213C6.7304 21.6838 5.96722 22.0001 5.17176 22.0002H3.82801C3.56285 22.0003 3.30845 22.1057 3.12098 22.2932L2.70691 22.7073C2.31641 23.0977 1.68336 23.0977 1.29285 22.7073C0.902355 22.3168 0.90241 21.6837 1.29285 21.2932L1.70691 20.8792C1.8944 20.6917 1.99976 20.4372 1.99988 20.1721V18.8274C2.00018 18.0321 2.31641 17.2696 2.87879 16.7073L10.6073 8.97778C10.2019 8.43969 9.9784 7.78134 9.9784 7.09985C9.97843 6.69006 10.0589 6.28412 10.2157 5.90552C10.3725 5.52686 10.6027 5.18265 10.8925 4.89282C11.1823 4.60301 11.5265 4.37292 11.9052 4.21606C12.2837 4.05925 12.6897 3.97881 13.0995 3.97876C13.781 3.97876 14.4393 4.20231 14.9774 4.60767L17.6932 1.89282C18.2786 1.30765 19.0726 0.97876 19.9003 0.97876C20.728 0.978863 21.522 1.30755 22.1073 1.89282C22.6926 2.47812 23.0213 3.27215 23.0214 4.09985Z" fill="#323949"/>
</svg>
