<svg width="20" height="20" viewBox="0 0 20 20" fill="none" xmlns="http://www.w3.org/2000/svg">
<path d="M18.25 3C18.25 2.30964 17.6904 1.75 17 1.75H3C2.30964 1.75 1.75 2.30964 1.75 3V17C1.75 17.6904 2.30964 18.25 3 18.25H17C17.6904 18.25 18.25 17.6904 18.25 17V3ZM13.252 10C13.252 9.95689 13.2409 9.91448 13.2197 9.87695C13.1983 9.83931 13.1671 9.80732 13.1299 9.78516L13.1279 9.78418L8.13086 6.78711L8.12891 6.78613C8.09109 6.76333 8.04806 6.75069 8.00391 6.75C7.95962 6.74938 7.91551 6.76044 7.87695 6.78223C7.83849 6.804 7.80646 6.83586 7.78418 6.87402C7.76189 6.91239 7.74987 6.95661 7.75 7.00098V12.999C7.74982 13.0434 7.76196 13.0866 7.78418 13.125C7.80645 13.1634 7.83834 13.1959 7.87695 13.2178C7.91549 13.2395 7.95964 13.2506 8.00391 13.25C8.04806 13.2493 8.09109 13.2367 8.12891 13.2139L8.13086 13.2129L13.1279 10.2158L13.1299 10.2148C13.1671 10.1927 13.1983 10.1607 13.2197 10.123C13.2409 10.0855 13.252 10.0431 13.252 10ZM14.752 10C14.752 10.303 14.6731 10.6008 14.5234 10.8643C14.3738 11.1276 14.1586 11.3478 13.8984 11.5029L13.8975 11.502L8.90332 14.4971L8.9043 14.498C8.63849 14.6585 8.33487 14.7457 8.02441 14.75C7.71373 14.7543 7.40702 14.6757 7.13672 14.5225C6.86651 14.3692 6.64217 14.1466 6.48633 13.8779C6.33048 13.6092 6.24878 13.3038 6.25 12.9932V7.00293C6.24948 6.69329 6.33084 6.38889 6.48633 6.12109C6.6423 5.85261 6.86752 5.63056 7.1377 5.47754C7.40789 5.32454 7.71394 5.24567 8.02441 5.25C8.33409 5.25435 8.63704 5.34127 8.90234 5.50098L13.8975 8.49707H13.8984C14.1586 8.65222 14.3738 8.87239 14.5234 9.13574C14.6731 9.39924 14.752 9.69696 14.752 10ZM19.75 17C19.75 18.5188 18.5188 19.75 17 19.75H3C1.48122 19.75 0.25 18.5188 0.25 17V3C0.25 1.48122 1.48122 0.25 3 0.25H17C18.5188 0.25 19.75 1.48122 19.75 3V17Z" fill="#323949"/>
</svg>
