<svg width="24" height="24" viewBox="0 0 24 24" fill="none" xmlns="http://www.w3.org/2000/svg">
<path d="M20.25 5C20.25 4.30964 19.6904 3.75 19 3.75H5C4.30964 3.75 3.75 4.30964 3.75 5V19C3.75 19.6904 4.30964 20.25 5 20.25H19C19.6904 20.25 20.25 19.6904 20.25 19V5ZM15.252 12C15.252 11.9569 15.2409 11.9145 15.2197 11.877C15.1983 11.8393 15.1671 11.8073 15.1299 11.7852L15.1279 11.7842L10.1309 8.78711L10.1289 8.78613C10.0911 8.76333 10.0481 8.75069 10.0039 8.75C9.95962 8.74938 9.91551 8.76044 9.87695 8.78223C9.83849 8.804 9.80646 8.83586 9.78418 8.87402C9.76189 8.91239 9.74987 8.95661 9.75 9.00098V14.999C9.74982 15.0434 9.76196 15.0866 9.78418 15.125C9.80645 15.1634 9.83834 15.1959 9.87695 15.2178C9.91549 15.2395 9.95964 15.2506 10.0039 15.25C10.0481 15.2493 10.0911 15.2367 10.1289 15.2139L10.1309 15.2129L15.1279 12.2158L15.1299 12.2148C15.1671 12.1927 15.1983 12.1607 15.2197 12.123C15.2409 12.0855 15.252 12.0431 15.252 12ZM16.752 12C16.752 12.303 16.6731 12.6008 16.5234 12.8643C16.3738 13.1276 16.1586 13.3478 15.8984 13.5029L15.8975 13.502L10.9033 16.4971L10.9043 16.498C10.6385 16.6585 10.3349 16.7457 10.0244 16.75C9.71373 16.7543 9.40702 16.6757 9.13672 16.5225C8.86651 16.3692 8.64217 16.1466 8.48633 15.8779C8.33048 15.6092 8.24878 15.3038 8.25 14.9932V9.00293C8.24948 8.69329 8.33084 8.38889 8.48633 8.12109C8.6423 7.85261 8.86752 7.63056 9.1377 7.47754C9.40789 7.32454 9.71394 7.24567 10.0244 7.25C10.3341 7.25435 10.637 7.34127 10.9023 7.50098L15.8975 10.4971H15.8984C16.1586 10.6522 16.3738 10.8724 16.5234 11.1357C16.6731 11.3992 16.752 11.697 16.752 12ZM21.75 19C21.75 20.5188 20.5188 21.75 19 21.75H5C3.48122 21.75 2.25 20.5188 2.25 19V5C2.25 3.48122 3.48122 2.25 5 2.25H19C20.5188 2.25 21.75 3.48122 21.75 5V19Z" fill="#323949"/>
</svg>
