<svg width="15" height="15" viewBox="0 0 15 15" fill="none" xmlns="http://www.w3.org/2000/svg">
<g clip-path="url(#clip0_1_452)">
<path d="M6.75098 13.3337V8.24976H1.66797C1.25376 8.24976 0.917969 7.91397 0.917969 7.49976C0.918145 7.08569 1.25386 6.74976 1.66797 6.74976H6.75098V1.66675C6.75098 1.25264 7.08691 0.916924 7.50098 0.916748C7.91519 0.916748 8.25098 1.25253 8.25098 1.66675V6.74976H13.335C13.7489 6.74993 14.0848 7.0858 14.085 7.49976C14.085 7.91386 13.749 8.24958 13.335 8.24976H8.25098V13.3337C8.2508 13.7478 7.91508 14.0837 7.50098 14.0837C7.08702 14.0836 6.75115 13.7477 6.75098 13.3337Z" fill="#323949"/>
</g>
<defs>
<clipPath id="clip0_1_452">
<rect width="15" height="15" fill="white"/>
</clipPath>
</defs>
</svg>
