<svg width="22" height="21" viewBox="0 0 22 21" fill="none" xmlns="http://www.w3.org/2000/svg">
<path d="M17.25 20V17.75H15C14.5858 17.75 14.25 17.4142 14.25 17C14.25 16.5858 14.5858 16.25 15 16.25H17.25V14C17.25 13.5858 17.5858 13.25 18 13.25C18.4142 13.25 18.75 13.5858 18.75 14V16.25H21C21.4142 16.25 21.75 16.5858 21.75 17C21.75 17.4142 21.4142 17.75 21 17.75H18.75V20C18.75 20.4142 18.4142 20.75 18 20.75C17.5858 20.75 17.25 20.4142 17.25 20ZM13.25 6C13.25 3.65279 11.3472 1.75 9 1.75C6.65279 1.75 4.75 3.65279 4.75 6C4.75 8.34721 6.65279 10.25 9 10.25C11.3472 10.25 13.25 8.34721 13.25 6ZM14.75 6C14.75 8.02372 13.7034 9.80144 12.123 10.8262C13.0959 11.1979 13.9995 11.7419 14.7881 12.4375C15.0987 12.7115 15.1285 13.1855 14.8545 13.4961C14.5805 13.8067 14.1065 13.8365 13.7959 13.5625C12.7495 12.6395 11.4589 12.0378 10.0791 11.8301C8.69946 11.6224 7.28924 11.8177 6.01758 12.3916C4.74586 12.9657 3.66609 13.8943 2.90918 15.0664C2.15227 16.2386 1.74992 17.6047 1.75 19C1.75 19.4142 1.4142 19.75 1 19.75C0.585805 19.75 0.250023 19.4142 0.25 19C0.249916 17.316 0.73591 15.6676 1.64941 14.2529C2.56292 12.8383 3.86555 11.7172 5.40039 11.0244C5.55755 10.9535 5.71651 10.8875 5.87695 10.8262C4.29665 9.80144 3.25 8.02372 3.25 6C3.25 2.82436 5.82436 0.25 9 0.25C12.1756 0.25 14.75 2.82436 14.75 6Z" fill="#323949"/>
</svg>
