<svg width="24" height="20" viewBox="0 0 24 20" fill="none" xmlns="http://www.w3.org/2000/svg">
<path d="M12 0.25C12.8812 0.25 13.592 0.472479 14.1504 0.844727C14.7041 1.21384 15.0639 1.70107 15.2959 2.16504C15.4913 2.55603 15.5997 2.94074 15.6621 3.25H22.5C22.9142 3.25 23.25 3.58579 23.25 4V10C23.25 10.2194 23.154 10.4259 22.9902 10.5674L22.916 10.624L22.9141 10.626C22.9131 10.6266 22.9116 10.627 22.9102 10.6279C22.9069 10.63 22.9019 10.6332 22.8965 10.6367C22.8857 10.6437 22.8708 10.6537 22.8516 10.666C22.8128 10.6908 22.7566 10.7257 22.6846 10.7695C22.6319 10.8016 22.5698 10.837 22.5 10.8779V19C22.5 19.4142 22.1642 19.75 21.75 19.75H2.25C1.83579 19.75 1.5 19.4142 1.5 19V10.8779C1.43022 10.837 1.36808 10.8016 1.31543 10.7695C1.24336 10.7257 1.18719 10.6908 1.14844 10.666C1.1292 10.6537 1.11428 10.6437 1.10352 10.6367C1.09813 10.6332 1.09305 10.63 1.08984 10.6279C1.08844 10.627 1.08689 10.6266 1.08594 10.626L1.08398 10.624C0.875335 10.4849 0.75 10.2508 0.75 10V4C0.75 3.58579 1.08579 3.25 1.5 3.25H8.33789C8.40033 2.94074 8.50866 2.55603 8.7041 2.16504C8.93609 1.70107 9.29593 1.21384 9.84961 0.844727C10.408 0.472479 11.1188 0.25 12 0.25ZM11.25 14.5V13.7334C8.44252 13.6221 5.99981 12.9075 4.22168 12.1963C3.77114 12.0161 3.36275 11.834 3 11.6631V18.25H21V11.6631C20.6373 11.834 20.2289 12.0161 19.7783 12.1963C18.0002 12.9075 15.5575 13.6221 12.75 13.7334V14.5C12.75 14.9142 12.4142 15.25 12 15.25C11.5858 15.25 11.25 14.9142 11.25 14.5ZM2.25 9.57715C2.3602 9.64187 2.49524 9.72272 2.65625 9.81055C3.14985 10.0798 3.87268 10.4414 4.77832 10.8037C6.43411 11.466 8.68358 12.121 11.25 12.2314V11.5C11.25 11.0858 11.5858 10.75 12 10.75C12.4142 10.75 12.75 11.0858 12.75 11.5V12.2314C15.3164 12.121 17.5659 11.466 19.2217 10.8037C20.1273 10.4414 20.8502 10.0798 21.3438 9.81055C21.5048 9.72272 21.6398 9.64187 21.75 9.57715V4.75H2.25V9.57715ZM12 1.75C11.3812 1.75 10.967 1.90252 10.6816 2.09277C10.3917 2.28607 10.1889 2.54908 10.0459 2.83496C9.97652 2.97371 9.92406 3.11537 9.88281 3.25H14.1172C14.0759 3.11537 14.0235 2.97371 13.9541 2.83496C13.8111 2.54908 13.6083 2.28607 13.3184 2.09277C13.033 1.90252 12.6188 1.75 12 1.75Z" fill="#323949"/>
</svg>
