<svg width="24" height="24" viewBox="0 0 24 24" fill="none" xmlns="http://www.w3.org/2000/svg">
<path d="M12 2.25C12.8812 2.25 13.592 2.47248 14.1504 2.84473C14.7041 3.21384 15.0639 3.70107 15.2959 4.16504C15.4913 4.55603 15.5997 4.94074 15.6621 5.25H22.5C22.9142 5.25 23.25 5.58579 23.25 6V12C23.25 12.2194 23.154 12.4259 22.9902 12.5674L22.916 12.624L22.9141 12.626C22.9131 12.6266 22.9116 12.627 22.9102 12.6279C22.9069 12.63 22.9019 12.6332 22.8965 12.6367C22.8857 12.6437 22.8708 12.6537 22.8516 12.666C22.8128 12.6908 22.7566 12.7257 22.6846 12.7695C22.6319 12.8016 22.5698 12.837 22.5 12.8779V21C22.5 21.4142 22.1642 21.75 21.75 21.75H2.25C1.83579 21.75 1.5 21.4142 1.5 21V12.8779C1.43022 12.837 1.36808 12.8016 1.31543 12.7695C1.24336 12.7257 1.18719 12.6908 1.14844 12.666C1.1292 12.6537 1.11428 12.6437 1.10352 12.6367C1.09813 12.6332 1.09305 12.63 1.08984 12.6279C1.08844 12.627 1.08689 12.6266 1.08594 12.626L1.08398 12.624C0.875335 12.4849 0.75 12.2508 0.75 12V6C0.75 5.58579 1.08579 5.25 1.5 5.25H8.33789C8.40033 4.94074 8.50866 4.55603 8.7041 4.16504C8.93609 3.70107 9.29593 3.21384 9.84961 2.84473C10.408 2.47248 11.1188 2.25 12 2.25ZM11.25 16.5V15.7334C8.44252 15.6221 5.99981 14.9075 4.22168 14.1963C3.77114 14.0161 3.36275 13.834 3 13.6631V20.25H21V13.6631C20.6373 13.834 20.2289 14.0161 19.7783 14.1963C18.0002 14.9075 15.5575 15.6221 12.75 15.7334V16.5C12.75 16.9142 12.4142 17.25 12 17.25C11.5858 17.25 11.25 16.9142 11.25 16.5ZM2.25 11.5771C2.3602 11.6419 2.49524 11.7227 2.65625 11.8105C3.14985 12.0798 3.87268 12.4414 4.77832 12.8037C6.43411 13.466 8.68358 14.121 11.25 14.2314V13.5C11.25 13.0858 11.5858 12.75 12 12.75C12.4142 12.75 12.75 13.0858 12.75 13.5V14.2314C15.3164 14.121 17.5659 13.466 19.2217 12.8037C20.1273 12.4414 20.8502 12.0798 21.3438 11.8105C21.5048 11.7227 21.6398 11.6419 21.75 11.5771V6.75H2.25V11.5771ZM12 3.75C11.3812 3.75 10.967 3.90252 10.6816 4.09277C10.3917 4.28607 10.1889 4.54908 10.0459 4.83496C9.97652 4.97371 9.92406 5.11537 9.88281 5.25H14.1172C14.0759 5.11537 14.0235 4.97371 13.9541 4.83496C13.8111 4.54908 13.6083 4.28607 13.3184 4.09277C13.033 3.90252 12.6188 3.75 12 3.75Z" fill="#323949"/>
</svg>
