<svg width="21" height="21" viewBox="0 0 21 21" fill="none" xmlns="http://www.w3.org/2000/svg">
<path d="M16.25 20V17.75H14C13.5858 17.75 13.25 17.4142 13.25 17C13.25 16.5858 13.5858 16.25 14 16.25H16.25V14C16.25 13.5858 16.5858 13.25 17 13.25C17.4142 13.25 17.75 13.5858 17.75 14V16.25H20C20.4142 16.25 20.75 16.5858 20.75 17C20.75 17.4142 20.4142 17.75 20 17.75H17.75V20C17.75 20.4142 17.4142 20.75 17 20.75C16.5858 20.75 16.25 20.4142 16.25 20ZM0.25 19V17C0.25 15.7402 0.750804 14.5324 1.6416 13.6416C2.5324 12.7508 3.74022 12.25 5 12.25H9C10.1394 12.25 11.1853 12.6524 12.0039 13.3203C12.3247 13.5821 12.373 14.0541 12.1113 14.375C11.8495 14.6959 11.3766 14.7442 11.0557 14.4824C10.4943 14.0244 9.78057 13.75 9 13.75H5C4.13805 13.75 3.31164 14.0927 2.70215 14.7021C2.09266 15.3116 1.75 16.138 1.75 17V19C1.75 19.4142 1.41421 19.75 1 19.75C0.585786 19.75 0.25 19.4142 0.25 19ZM10.25 5C10.25 4.13805 9.90734 3.31164 9.29785 2.70215C8.68836 2.09266 7.86195 1.75 7 1.75C6.13805 1.75 5.31164 2.09266 4.70215 2.70215C4.09266 3.31164 3.75 4.13805 3.75 5C3.75 5.86195 4.09266 6.68836 4.70215 7.29785C5.31164 7.90734 6.13805 8.25 7 8.25C7.86195 8.25 8.68836 7.90734 9.29785 7.29785C9.90734 6.68836 10.25 5.86195 10.25 5ZM16.2578 5.00488C16.2578 4.28329 16.0177 3.58175 15.5752 3.01172C15.1328 2.44193 14.5132 2.03547 13.8145 1.85645C13.4133 1.75373 13.1709 1.3455 13.2734 0.944336C13.3761 0.543227 13.7844 0.300896 14.1855 0.40332C15.2073 0.664928 16.1131 1.25961 16.7598 2.09277C17.4064 2.92589 17.7578 3.95024 17.7578 5.00488C17.7578 6.05959 17.4065 7.08481 16.7598 7.91797C16.1131 8.75091 15.2071 9.34488 14.1855 9.60645C13.7845 9.70888 13.3763 9.46732 13.2734 9.06641C13.1707 8.66514 13.4132 8.25606 13.8145 8.15332C14.5133 7.97428 15.1328 7.5679 15.5752 6.99805C16.0177 6.42799 16.2578 5.72652 16.2578 5.00488ZM11.75 5C11.75 6.25978 11.2492 7.4676 10.3584 8.3584C9.4676 9.2492 8.25978 9.75 7 9.75C5.74022 9.75 4.5324 9.2492 3.6416 8.3584C2.7508 7.4676 2.25 6.25978 2.25 5C2.25 3.74022 2.7508 2.5324 3.6416 1.6416C4.5324 0.750804 5.74022 0.25 7 0.25C8.25978 0.25 9.4676 0.750804 10.3584 1.6416C11.2492 2.5324 11.75 3.74022 11.75 5Z" fill="#323949"/>
</svg>
