<svg width="24" height="24" viewBox="0 0 24 24" fill="none" xmlns="http://www.w3.org/2000/svg">
<path d="M18.25 22V19.75H16C15.5858 19.75 15.25 19.4142 15.25 19C15.25 18.5858 15.5858 18.25 16 18.25H18.25V16C18.25 15.5858 18.5858 15.25 19 15.25C19.4142 15.25 19.75 15.5858 19.75 16V18.25H22C22.4142 18.25 22.75 18.5858 22.75 19C22.75 19.4142 22.4142 19.75 22 19.75H19.75V22C19.75 22.4142 19.4142 22.75 19 22.75C18.5858 22.75 18.25 22.4142 18.25 22ZM2.25 21V19C2.25 17.7402 2.7508 16.5324 3.6416 15.6416C4.5324 14.7508 5.74022 14.25 7 14.25H11C12.1394 14.25 13.1853 14.6524 14.0039 15.3203C14.3247 15.5821 14.373 16.0541 14.1113 16.375C13.8495 16.6959 13.3766 16.7442 13.0557 16.4824C12.4943 16.0244 11.7806 15.75 11 15.75H7C6.13805 15.75 5.31164 16.0927 4.70215 16.7021C4.09266 17.3116 3.75 18.138 3.75 19V21C3.75 21.4142 3.41421 21.75 3 21.75C2.58579 21.75 2.25 21.4142 2.25 21ZM12.25 7C12.25 6.13805 11.9073 5.31164 11.2979 4.70215C10.6884 4.09266 9.86195 3.75 9 3.75C8.13805 3.75 7.31164 4.09266 6.70215 4.70215C6.09266 5.31164 5.75 6.13805 5.75 7C5.75 7.86195 6.09266 8.68836 6.70215 9.29785C7.31164 9.90734 8.13805 10.25 9 10.25C9.86195 10.25 10.6884 9.90734 11.2979 9.29785C11.9073 8.68836 12.25 7.86195 12.25 7ZM18.2578 7.00488C18.2578 6.28329 18.0177 5.58175 17.5752 5.01172C17.1328 4.44193 16.5132 4.03547 15.8145 3.85645C15.4133 3.75373 15.1709 3.3455 15.2734 2.94434C15.3761 2.54323 15.7844 2.3009 16.1855 2.40332C17.2073 2.66493 18.1131 3.25961 18.7598 4.09277C19.4064 4.92589 19.7578 5.95024 19.7578 7.00488C19.7578 8.05959 19.4065 9.08481 18.7598 9.91797C18.1131 10.7509 17.2071 11.3449 16.1855 11.6064C15.7845 11.7089 15.3763 11.4673 15.2734 11.0664C15.1707 10.6651 15.4132 10.2561 15.8145 10.1533C16.5133 9.97428 17.1328 9.5679 17.5752 8.99805C18.0177 8.42799 18.2578 7.72652 18.2578 7.00488ZM13.75 7C13.75 8.25978 13.2492 9.4676 12.3584 10.3584C11.4676 11.2492 10.2598 11.75 9 11.75C7.74022 11.75 6.5324 11.2492 5.6416 10.3584C4.7508 9.4676 4.25 8.25978 4.25 7C4.25 5.74022 4.7508 4.5324 5.6416 3.6416C6.5324 2.7508 7.74022 2.25 9 2.25C10.2598 2.25 11.4676 2.7508 12.3584 3.6416C13.2492 4.5324 13.75 5.74022 13.75 7Z" fill="#323949"/>
</svg>
