<svg width="24" height="24" viewBox="0 0 24 24" fill="none" xmlns="http://www.w3.org/2000/svg">
<g clip-path="url(#clip0_341_23115)">
<path d="M21.75 2.25C21.75 2.00624 21.6912 1.87327 21.6416 1.79883C21.5889 1.7198 21.5134 1.65763 21.415 1.6084C21.3137 1.55772 21.2028 1.52894 21.1113 1.51367C21.0674 1.50634 21.0318 1.50248 21.0107 1.50098L20.9922 1.5H3C2.75624 1.5 2.62327 1.55877 2.54883 1.6084C2.4698 1.66109 2.40763 1.73662 2.3584 1.83496C2.30772 1.93631 2.27894 2.04723 2.26367 2.13867C2.25634 2.18265 2.25248 2.21818 2.25098 2.23926L2.25 2.25781V15.75C2.25 15.9938 2.30877 16.1267 2.3584 16.2012C2.41109 16.2802 2.48662 16.3424 2.58496 16.3916C2.68631 16.4423 2.79723 16.4711 2.88867 16.4863C2.93265 16.4937 2.96818 16.4975 2.98926 16.499L3.00781 16.5H21C21.2438 16.5 21.3767 16.4412 21.4512 16.3916C21.5302 16.3389 21.5924 16.2634 21.6416 16.165C21.6923 16.0637 21.7211 15.9528 21.7363 15.8613C21.7437 15.8174 21.7475 15.7818 21.749 15.7607L21.75 15.75V2.25ZM23.25 15.7666C23.2499 15.7736 23.2494 15.7822 23.249 15.792C23.2484 15.8118 23.2473 15.8376 23.2451 15.8682C23.2408 15.929 23.2328 16.0111 23.2168 16.1074C23.1852 16.2971 23.12 16.5616 22.9834 16.835C22.8452 17.1114 22.6259 17.4112 22.2832 17.6396C21.9358 17.8713 21.5062 18 21 18H12.75V19.9395L15.5303 22.7197C15.8232 23.0126 15.8232 23.4874 15.5303 23.7803C15.2374 24.0732 14.7626 24.0732 14.4697 23.7803L12 21.3105L9.53027 23.7803C9.23738 24.0732 8.76262 24.0732 8.46973 23.7803C8.17683 23.4874 8.17683 23.0126 8.46973 22.7197L11.25 19.9395V18H3V17.25C3 18 3.00038 18 3 18H2.9834C2.97644 17.9999 2.96784 17.9994 2.95801 17.999C2.9382 17.9984 2.91235 17.9973 2.88184 17.9951C2.82098 17.9908 2.73894 17.9828 2.64258 17.9668C2.45292 17.9352 2.18844 17.87 1.91504 17.7334C1.63857 17.5952 1.33884 17.3759 1.11035 17.0332C0.878729 16.6858 0.75 16.2562 0.75 15.75V2.25H1.5C0.75 2.25 0.75 2.25038 0.75 2.25V2.2334C0.750113 2.22644 0.750649 2.21784 0.750977 2.20801C0.751639 2.1882 0.752703 2.16235 0.754883 2.13184C0.759237 2.07098 0.767154 1.98894 0.783203 1.89258C0.814812 1.70292 0.879967 1.43844 1.0166 1.16504C1.15484 0.888567 1.37406 0.588844 1.7168 0.360352C2.06423 0.128729 2.49376 2.68239e-10 3 2.68239e-10H21V0.385742C21.0001 2.98023e-08 20.9997 -1.90755e-07 21 2.68239e-10H21.0166C21.0236 0.000113325 21.0322 0.000648811 21.042 0.000976563C21.0618 0.00163877 21.0876 0.00270287 21.1182 0.00488281C21.179 0.00923744 21.2611 0.0171539 21.3574 0.0332031C21.5471 0.0648121 21.8116 0.129968 22.085 0.266602C22.3614 0.404838 22.6612 0.624058 22.8896 0.966797C23.1213 1.31423 23.25 1.74376 23.25 2.25V15.7666Z" fill="#323949"/>
<path d="M18.9141 5.5313C19.1728 5.20785 19.6453 5.15535 19.9688 5.41411C20.2922 5.67287 20.3447 6.14535 20.0859 6.4688L17.0859 10.2188C16.8429 10.5226 16.4077 10.5899 16.084 10.3741L14.4883 9.30962L12.6436 12.3858C12.5066 12.6141 12.2584 12.7528 11.9922 12.75C11.7259 12.7472 11.4808 12.6033 11.3486 12.3721L9.04395 8.33891L8.1709 10.085C8.04385 10.3391 7.78408 10.5 7.5 10.5H4.5C4.08579 10.5 3.75 10.1643 3.75 9.75005C3.75 9.33583 4.08579 9.00005 4.5 9.00005H7.03613L8.3291 6.41509L8.38086 6.32622C8.51531 6.12975 8.73745 6.00676 8.97949 6.00005C9.25587 5.99249 9.51419 6.13791 9.65137 6.37798L12.0156 10.5147L13.6064 7.8643L13.6494 7.80083C13.756 7.65838 13.9108 7.55799 14.0859 7.5186C14.2859 7.47374 14.4955 7.51233 14.666 7.62602L16.3428 8.74419L18.9141 5.5313Z" fill="#323949"/>
</g>
<defs>
<clipPath id="clip0_341_23115">
<rect width="24" height="24" fill="white"/>
</clipPath>
</defs>
</svg>
