<svg width="18" height="18" viewBox="0 0 18 18" fill="none" xmlns="http://www.w3.org/2000/svg">
<path fill-rule="evenodd" clip-rule="evenodd" d="M3.95797 0.0416049H14.4496C15.008 0.0416049 15.4738 0.0416049 15.8505 0.0799382C16.2446 0.119938 16.6113 0.207438 16.9413 0.427438C17.1913 0.594938 17.4063 0.809938 17.5738 1.06077C17.7938 1.38994 17.8813 1.7566 17.9213 2.15077C17.9596 2.52744 17.9596 2.99327 17.9596 3.55077V3.61494C17.9596 4.17327 17.9596 4.6391 17.9213 5.01577C17.8813 5.40994 17.7938 5.7766 17.573 6.1066C17.4063 6.3566 17.1913 6.5716 16.9413 6.7391C16.6113 6.9591 16.2455 7.04661 15.8505 7.08661C15.4738 7.12494 15.008 7.12494 14.4505 7.12494H8.16797C7.75714 7.12494 7.51214 7.1266 7.33714 7.14994C7.28666 7.15514 7.23707 7.1669 7.18964 7.18494L7.18714 7.18577L7.1863 7.18827L7.18214 7.19661C7.16621 7.24156 7.15585 7.2883 7.1513 7.33577C7.12797 7.51077 7.1263 7.75577 7.1263 8.1666V14.4483C7.1263 15.0066 7.1263 15.4724 7.08797 15.8491C7.04797 16.2433 6.96047 16.6099 6.74047 16.9399C6.57215 17.1897 6.35709 17.4045 6.10714 17.5724C5.77797 17.7924 5.4113 17.8799 5.01714 17.9199C4.64047 17.9583 4.17464 17.9583 3.61714 17.9583H3.55297C2.99464 17.9583 2.5288 17.9583 2.15214 17.9199C1.75797 17.8799 1.3913 17.7924 1.0613 17.5716C0.811302 17.4049 0.596302 17.1899 0.428802 16.9399C0.208802 16.6099 0.121302 16.2441 0.0813021 15.8491C0.0429688 15.4724 0.0429688 15.0066 0.0429688 14.4491V3.95577C0.0429688 3.20744 0.0429688 2.58244 0.109635 2.08744C0.179635 1.5641 0.334635 1.0916 0.713802 0.712438C1.0938 0.332438 1.5663 0.177438 2.0888 0.107438C2.58464 0.0407715 3.20964 0.0407715 3.95797 0.0407715M1.29297 7.12494H3.16797C3.33373 7.12494 3.4927 7.05909 3.60991 6.94188C3.72712 6.82467 3.79297 6.6657 3.79297 6.49994C3.79297 6.33418 3.72712 6.17521 3.60991 6.058C3.4927 5.94079 3.33373 5.87494 3.16797 5.87494H1.29297V3.99994C1.29297 3.1966 1.29464 2.6566 1.3488 2.2541C1.40047 1.86994 1.48964 1.70494 1.5988 1.5966C1.70797 1.48827 1.8713 1.3991 2.25547 1.3466C2.65797 1.2941 3.19797 1.2916 4.0013 1.2916H5.8763V3.1666C5.8763 3.33237 5.94215 3.49134 6.05936 3.60855C6.17657 3.72576 6.33554 3.7916 6.5013 3.7916C6.66706 3.7916 6.82603 3.72576 6.94324 3.60855C7.06045 3.49134 7.1263 3.33237 7.1263 3.1666V1.2916H8.3763V2.33327C8.3763 2.49903 8.44215 2.658 8.55936 2.77521C8.67657 2.89242 8.83554 2.95827 9.0013 2.95827C9.16706 2.95827 9.32603 2.89242 9.44324 2.77521C9.56045 2.658 9.6263 2.49903 9.6263 2.33327V1.2916H10.8763V3.1666C10.8763 3.33237 10.9422 3.49134 11.0594 3.60855C11.1766 3.72576 11.3355 3.7916 11.5013 3.7916C11.6671 3.7916 11.826 3.72576 11.9432 3.60855C12.0605 3.49134 12.1263 3.33237 12.1263 3.1666V1.2916H13.3763V2.33327C13.3763 2.49903 13.4421 2.658 13.5594 2.77521C13.6766 2.89242 13.8355 2.95827 14.0013 2.95827C14.1671 2.95827 14.326 2.89242 14.4432 2.77521C14.5605 2.658 14.6263 2.49903 14.6263 2.33327V1.2916C15.1121 1.2916 15.4546 1.29577 15.7238 1.32327C16.0196 1.35327 16.1563 1.4066 16.2471 1.46744C16.3605 1.54244 16.458 1.64077 16.5338 1.75494C16.5946 1.84494 16.648 1.9816 16.678 2.27744C16.7088 2.58327 16.7096 2.98577 16.7096 3.58327C16.7096 4.1816 16.7096 4.58327 16.678 4.8891C16.648 5.18494 16.5946 5.3216 16.5338 5.4116C16.4572 5.52465 16.36 5.62219 16.2471 5.6991C16.1563 5.75994 16.0196 5.81327 15.7238 5.84327C15.418 5.8741 15.0155 5.87494 14.418 5.87494H8.13047C7.76964 5.87494 7.4388 5.87494 7.17047 5.91077C6.8738 5.95077 6.5613 6.0441 6.3038 6.30244C6.0463 6.56077 5.95214 6.87244 5.91214 7.16911C5.8763 7.43827 5.8763 7.7691 5.8763 8.1291V14.4166C5.8763 15.0149 5.8763 15.4166 5.84464 15.7224C5.81464 16.0183 5.7613 16.1549 5.70047 16.2458C5.62356 16.3586 5.52601 16.4559 5.41297 16.5324C5.32297 16.5933 5.1863 16.6466 4.89047 16.6766C4.58464 16.7074 4.18214 16.7083 3.58464 16.7083C2.9863 16.7083 2.58464 16.7083 2.2788 16.6766C1.98297 16.6466 1.8463 16.5933 1.7563 16.5324C1.64326 16.4559 1.54571 16.3586 1.4688 16.2458C1.40797 16.1549 1.35464 16.0183 1.32464 15.7224C1.29714 15.4533 1.2938 15.1108 1.29297 14.6249H2.33464C2.5004 14.6249 2.65937 14.5591 2.77658 14.4419C2.89379 14.3247 2.95964 14.1657 2.95964 13.9999C2.95964 13.8342 2.89379 13.6752 2.77658 13.558C2.65937 13.4408 2.5004 13.3749 2.33464 13.3749H1.29297V12.1249H3.16797C3.33373 12.1249 3.4927 12.0591 3.60991 11.9419C3.72712 11.8247 3.79297 11.6657 3.79297 11.4999C3.79297 11.3342 3.72712 11.1752 3.60991 11.058C3.4927 10.9408 3.33373 10.8749 3.16797 10.8749H1.29297V9.62494H2.33464C2.5004 9.62494 2.65937 9.55909 2.77658 9.44188C2.89379 9.32467 2.95964 9.1657 2.95964 8.99994C2.95964 8.83418 2.89379 8.67521 2.77658 8.558C2.65937 8.44079 2.5004 8.37494 2.33464 8.37494H1.29297V7.12494Z" fill="#323949"/>
</svg>
