<svg width="20" height="20" viewBox="0 0 20 20" fill="none" xmlns="http://www.w3.org/2000/svg">
<path fill-rule="evenodd" clip-rule="evenodd" d="M4.95797 1.0416H15.4496C16.008 1.0416 16.4738 1.0416 16.8505 1.07994C17.2446 1.11994 17.6113 1.20744 17.9413 1.42744C18.1913 1.59494 18.4063 1.80994 18.5738 2.06077C18.7938 2.38994 18.8813 2.7566 18.9213 3.15077C18.9596 3.52744 18.9596 3.99327 18.9596 4.55077V4.61494C18.9596 5.17327 18.9596 5.6391 18.9213 6.01577C18.8813 6.40994 18.7938 6.7766 18.573 7.1066C18.4063 7.3566 18.1913 7.5716 17.9413 7.7391C17.6113 7.9591 17.2455 8.04661 16.8505 8.08661C16.4738 8.12494 16.008 8.12494 15.4505 8.12494H9.16797C8.75714 8.12494 8.51214 8.1266 8.33714 8.14994C8.28666 8.15514 8.23707 8.1669 8.18964 8.18494L8.18714 8.18577L8.1863 8.18827L8.18214 8.19661C8.16621 8.24156 8.15585 8.2883 8.1513 8.33577C8.12797 8.51077 8.1263 8.75577 8.1263 9.1666V15.4483C8.1263 16.0066 8.1263 16.4724 8.08797 16.8491C8.04797 17.2433 7.96047 17.6099 7.74047 17.9399C7.57215 18.1897 7.35709 18.4045 7.10714 18.5724C6.77797 18.7924 6.4113 18.8799 6.01714 18.9199C5.64047 18.9583 5.17464 18.9583 4.61714 18.9583H4.55297C3.99464 18.9583 3.5288 18.9583 3.15214 18.9199C2.75797 18.8799 2.3913 18.7924 2.0613 18.5716C1.8113 18.4049 1.5963 18.1899 1.4288 17.9399C1.2088 17.6099 1.1213 17.2441 1.0813 16.8491C1.04297 16.4724 1.04297 16.0066 1.04297 15.4491V4.95577C1.04297 4.20744 1.04297 3.58244 1.10964 3.08744C1.17964 2.5641 1.33464 2.0916 1.7138 1.71244C2.0938 1.33244 2.5663 1.17744 3.0888 1.10744C3.58464 1.04077 4.20964 1.04077 4.95797 1.04077M2.29297 8.12494H4.16797C4.33373 8.12494 4.4927 8.05909 4.60991 7.94188C4.72712 7.82467 4.79297 7.6657 4.79297 7.49994C4.79297 7.33418 4.72712 7.17521 4.60991 7.058C4.4927 6.94079 4.33373 6.87494 4.16797 6.87494H2.29297V4.99994C2.29297 4.1966 2.29464 3.6566 2.3488 3.2541C2.40047 2.86994 2.48964 2.70494 2.5988 2.5966C2.70797 2.48827 2.8713 2.3991 3.25547 2.3466C3.65797 2.2941 4.19797 2.2916 5.0013 2.2916H6.8763V4.1666C6.8763 4.33237 6.94215 4.49134 7.05936 4.60855C7.17657 4.72576 7.33554 4.7916 7.5013 4.7916C7.66706 4.7916 7.82603 4.72576 7.94324 4.60855C8.06045 4.49134 8.1263 4.33237 8.1263 4.1666V2.2916H9.3763V3.33327C9.3763 3.49903 9.44215 3.658 9.55936 3.77521C9.67657 3.89242 9.83554 3.95827 10.0013 3.95827C10.1671 3.95827 10.326 3.89242 10.4432 3.77521C10.5605 3.658 10.6263 3.49903 10.6263 3.33327V2.2916H11.8763V4.1666C11.8763 4.33237 11.9422 4.49134 12.0594 4.60855C12.1766 4.72576 12.3355 4.7916 12.5013 4.7916C12.6671 4.7916 12.826 4.72576 12.9432 4.60855C13.0605 4.49134 13.1263 4.33237 13.1263 4.1666V2.2916H14.3763V3.33327C14.3763 3.49903 14.4421 3.658 14.5594 3.77521C14.6766 3.89242 14.8355 3.95827 15.0013 3.95827C15.1671 3.95827 15.326 3.89242 15.4432 3.77521C15.5605 3.658 15.6263 3.49903 15.6263 3.33327V2.2916C16.1121 2.2916 16.4546 2.29577 16.7238 2.32327C17.0196 2.35327 17.1563 2.4066 17.2471 2.46744C17.3605 2.54244 17.458 2.64077 17.5338 2.75494C17.5946 2.84494 17.648 2.9816 17.678 3.27744C17.7088 3.58327 17.7096 3.98577 17.7096 4.58327C17.7096 5.1816 17.7096 5.58327 17.678 5.8891C17.648 6.18494 17.5946 6.3216 17.5338 6.4116C17.4572 6.52465 17.36 6.62219 17.2471 6.6991C17.1563 6.75994 17.0196 6.81327 16.7238 6.84327C16.418 6.8741 16.0155 6.87494 15.418 6.87494H9.13047C8.76964 6.87494 8.4388 6.87494 8.17047 6.91077C7.8738 6.95077 7.5613 7.0441 7.3038 7.30244C7.0463 7.56077 6.95214 7.87244 6.91214 8.16911C6.8763 8.43827 6.8763 8.7691 6.8763 9.1291V15.4166C6.8763 16.0149 6.8763 16.4166 6.84464 16.7224C6.81464 17.0183 6.7613 17.1549 6.70047 17.2458C6.62356 17.3586 6.52601 17.4559 6.41297 17.5324C6.32297 17.5933 6.1863 17.6466 5.89047 17.6766C5.58464 17.7074 5.18214 17.7083 4.58464 17.7083C3.9863 17.7083 3.58464 17.7083 3.2788 17.6766C2.98297 17.6466 2.8463 17.5933 2.7563 17.5324C2.64326 17.4559 2.54571 17.3586 2.4688 17.2458C2.40797 17.1549 2.35464 17.0183 2.32464 16.7224C2.29714 16.4533 2.2938 16.1108 2.29297 15.6249H3.33464C3.5004 15.6249 3.65937 15.5591 3.77658 15.4419C3.89379 15.3247 3.95964 15.1657 3.95964 14.9999C3.95964 14.8342 3.89379 14.6752 3.77658 14.558C3.65937 14.4408 3.5004 14.3749 3.33464 14.3749H2.29297V13.1249H4.16797C4.33373 13.1249 4.4927 13.0591 4.60991 12.9419C4.72712 12.8247 4.79297 12.6657 4.79297 12.4999C4.79297 12.3342 4.72712 12.1752 4.60991 12.058C4.4927 11.9408 4.33373 11.8749 4.16797 11.8749H2.29297V10.6249H3.33464C3.5004 10.6249 3.65937 10.5591 3.77658 10.4419C3.89379 10.3247 3.95964 10.1657 3.95964 9.99994C3.95964 9.83418 3.89379 9.67521 3.77658 9.558C3.65937 9.44079 3.5004 9.37494 3.33464 9.37494H2.29297V8.12494Z" fill="#323949"/>
</svg>
