<svg width="24" height="24" viewBox="0 0 24 24" fill="none" xmlns="http://www.w3.org/2000/svg">
<path d="M6 20H13V22H6C4.89 22 4 21.11 4 20V4C4 3.46957 4.21071 2.96086 4.58579 2.58579C4.96086 2.21071 5.46957 2 6 2H18C18.5304 2 19.0391 2.21071 19.4142 2.58579C19.7893 2.96086 20 3.46957 20 4V12.54L18.5 11.72L18 12V4H13V12L10.5 9.75L8 12V4H6V20ZM24 17L18.5 14L13 17L18.5 20L24 17ZM15 19.09V21.09L18.5 23L22 21.09V19.09L18.5 21L15 19.09Z" fill="#323949"/>
<path d="M22 21.0898L18.5 23L15 21.0898V19.0898L18.5 21L22 19.0898V21.0898ZM18.5 21.4561L15.4004 19.7637V20.8525L18.5 22.5439L21.5996 20.8525V19.7637L18.5 21.4561ZM24 17L18.5 20L13 17L18.5 14L24 17ZM13.8359 17L18.5 19.5439L23.1641 17L18.5 14.4551L13.8359 17ZM18 4H13V12L10.5 9.75L8 12V4H6V20H13V22H6V21.5996H12.5996V20.4004H5.59961V3.59961H8.40039V11.1016L10.5 9.21191L12.5996 11.1016V3.59961H18.4004V11.3174L18.498 11.2627L18.6914 11.3691L19.5996 11.8652V4C19.5996 3.57565 19.4319 3.16822 19.1318 2.86816C18.8318 2.56811 18.4243 2.40039 18 2.40039H6C5.57565 2.40039 5.16822 2.56811 4.86816 2.86816C4.56811 3.16822 4.40039 3.57565 4.40039 4V20C4.40039 20.8891 5.11091 21.5996 6 21.5996V22C4.89 22 4 21.11 4 20V4C4 3.53581 4.16145 3.08833 4.45312 2.73242L4.58594 2.58594C4.96101 2.21086 5.46957 2 6 2H18C18.5304 2 19.039 2.21086 19.4141 2.58594C19.7891 2.96101 20 3.46957 20 4V12.54L18.5 11.7197L18 12V4Z" fill="#323949"/>
</svg>
