<svg width="20" height="21" viewBox="0 0 20 21" fill="none" xmlns="http://www.w3.org/2000/svg">
<path d="M2 18H9V20H2C0.89 20 0 19.11 0 18V2C0 1.46957 0.210714 0.960859 0.585786 0.585786C0.960859 0.210714 1.46957 0 2 0H14C14.5304 0 15.0391 0.210714 15.4142 0.585786C15.7893 0.960859 16 1.46957 16 2V10.54L14.5 9.72L14 10V2H9V10L6.5 7.75L4 10V2H2V18ZM20 15L14.5 12L9 15L14.5 18L20 15ZM11 17.09V19.09L14.5 21L18 19.09V17.09L14.5 19L11 17.09Z" fill="#323949"/>
<path d="M18 19.0898L14.5 21L11 19.0898V17.0898L14.5 19L18 17.0898V19.0898ZM14.5 19.4561L11.4004 17.7637V18.8525L14.5 20.5439L17.5996 18.8525V17.7637L14.5 19.4561ZM20 15L14.5 18L9 15L14.5 12L20 15ZM9.83594 15L14.5 17.5439L19.1641 15L14.5 12.4551L9.83594 15ZM14 2H9V10L6.5 7.75L4 10V2H2V18H9V20H2V19.5996H8.59961V18.4004H1.59961V1.59961H4.40039V9.10156L6.5 7.21191L8.59961 9.10156V1.59961H14.4004V9.31738L14.498 9.2627L14.6914 9.36914L15.5996 9.86523V2C15.5996 1.57565 15.4319 1.16822 15.1318 0.868164C14.8318 0.568106 14.4243 0.400391 14 0.400391H2C1.57565 0.400391 1.16822 0.568106 0.868164 0.868164C0.568106 1.16822 0.400391 1.57565 0.400391 2V18C0.400391 18.8891 1.11091 19.5996 2 19.5996V20C0.89 20 0 19.11 0 18V2C0 1.53581 0.161455 1.08833 0.453125 0.732422L0.585938 0.585938C0.96101 0.210865 1.46957 0 2 0H14C14.5304 0 15.039 0.210865 15.4141 0.585938C15.7891 0.96101 16 1.46957 16 2V10.54L14.5 9.71973L14 10V2Z" fill="#323949"/>
</svg>
