<svg width="24" height="24" viewBox="0 0 24 24" fill="none" xmlns="http://www.w3.org/2000/svg">
<path d="M18.25 11C18.25 6.99594 15.0041 3.75 11 3.75C6.99594 3.75 3.75 6.99594 3.75 11C3.75 15.0041 6.99594 18.25 11 18.25C15.0041 18.25 18.25 15.0041 18.25 11ZM19.75 11C19.75 13.1462 18.9757 15.1106 17.6934 16.6328L21.5303 20.4697C21.8232 20.7626 21.8232 21.2374 21.5303 21.5303C21.2374 21.8232 20.7626 21.8232 20.4697 21.5303L16.6328 17.6934C15.1106 18.9757 13.1462 19.75 11 19.75C6.16751 19.75 2.25 15.8325 2.25 11C2.25 6.16751 6.16751 2.25 11 2.25C15.8325 2.25 19.75 6.16751 19.75 11Z" fill="#323949"/>
<path d="M19.751 11C19.751 6.16751 15.8335 2.25 11.001 2.25C6.16848 2.25 2.25098 6.16751 2.25098 11C2.25098 15.8325 6.16848 19.75 11.001 19.75C13.1472 19.75 15.1116 18.9757 16.6338 17.6934L20.4707 21.5303C20.7636 21.8232 21.2384 21.8232 21.5312 21.5303C21.8241 21.2374 21.8241 20.7626 21.5312 20.4697L17.6943 16.6328C18.9767 15.1106 19.751 13.1462 19.751 11ZM18.0508 11C18.0508 7.10639 14.8946 3.9502 11.001 3.9502C7.10737 3.9502 3.95117 7.10639 3.95117 11C3.95117 14.8936 7.10737 18.0498 11.001 18.0498V18.25C6.99691 18.25 3.75098 15.0041 3.75098 11C3.75098 6.99594 6.99691 3.75 11.001 3.75C15.005 3.75 18.251 6.99594 18.251 11C18.251 15.0041 15.005 18.25 11.001 18.25V18.0498C14.8946 18.0498 18.0508 14.8936 18.0508 11ZM19.9512 11C19.9512 13.129 19.2042 15.082 17.9629 16.6182L21.6729 20.3281C22.0438 20.6991 22.0438 21.3009 21.6729 21.6719C21.3019 22.0429 20.7001 22.0429 20.3291 21.6719L16.6191 17.9619C15.083 19.2032 13.13 19.9502 11.001 19.9502C6.05803 19.9502 2.05078 15.9429 2.05078 11C2.05078 6.05705 6.05803 2.0498 11.001 2.0498C15.9439 2.0498 19.9512 6.05705 19.9512 11Z" fill="#323949"/>
</svg>
