<svg width="24" height="24" viewBox="0 0 24 24" fill="none" xmlns="http://www.w3.org/2000/svg">
<path d="M21.0951 1.3189C21.3145 1.24202 21.5507 1.22725 21.7777 1.27788C21.9509 1.3165 22.1134 1.39098 22.2543 1.49663L22.3881 1.61284L22.5033 1.74565C22.5739 1.83968 22.6307 1.94329 22.6723 2.05327L22.7231 2.22222L22.7494 2.39702C22.7627 2.56833 22.7381 2.74053 22.6811 2.90386L22.683 2.90483L16.183 21.9048V21.9058C16.1003 22.1469 15.9452 22.3566 15.7397 22.5074C15.5341 22.6582 15.2875 22.743 15.0326 22.7496C14.7777 22.7561 14.526 22.6846 14.3129 22.5445C14.1532 22.4394 14.0207 22.2994 13.9242 22.1363L13.8402 21.9654L10.6596 14.0328V14.0318C10.5966 13.8761 10.503 13.7344 10.3842 13.6158C10.2947 13.5264 10.1921 13.4515 10.0805 13.3931L9.96524 13.3404L2.03458 10.1607V10.1597C1.79815 10.0647 1.59652 9.8999 1.45645 9.68706C1.31634 9.47404 1.24392 9.22319 1.2504 8.96831L1.26993 8.77886C1.30349 8.59221 1.37942 8.41453 1.49259 8.2603L1.61661 8.11675C1.75071 7.98257 1.91411 7.88 2.09513 7.81792L21.0951 1.31792V1.3189ZM11.8979 13.1607C11.9095 13.1816 11.9238 13.201 11.935 13.2222L12.0522 13.4742V13.4751L14.9809 20.7798L20.5453 4.51421L11.8979 13.1607ZM3.21817 9.01812L10.5238 11.9478H10.5229C10.6313 11.9912 10.7357 12.0436 10.8373 12.1001L19.4858 3.45268L3.21817 9.01812Z" fill="#323949"/>
</svg>
