<svg width="22" height="22" viewBox="0 0 22 22" fill="none" xmlns="http://www.w3.org/2000/svg">
<path d="M20.0951 0.318896C20.3145 0.242019 20.5507 0.227254 20.7777 0.27788C20.9509 0.316499 21.1134 0.39098 21.2543 0.49663L21.3881 0.612841L21.5033 0.745654C21.5739 0.839683 21.6307 0.943292 21.6723 1.05327L21.7231 1.22222L21.7494 1.39702C21.7627 1.56833 21.7381 1.74053 21.6811 1.90386L21.683 1.90483L15.183 20.9048V20.9058C15.1003 21.1469 14.9452 21.3566 14.7397 21.5074C14.5341 21.6582 14.2875 21.743 14.0326 21.7496C13.7777 21.7561 13.526 21.6846 13.3129 21.5445C13.1532 21.4394 13.0207 21.2994 12.9242 21.1363L12.8402 20.9654L9.65958 13.0328V13.0318C9.59657 12.8761 9.50305 12.7344 9.38419 12.6158C9.29468 12.5264 9.19209 12.4515 9.08048 12.3931L8.96524 12.3404L1.03458 9.16069V9.15972C0.798149 9.06474 0.596519 8.8999 0.456454 8.68706C0.316343 8.47404 0.243924 8.22319 0.250399 7.96831L0.269931 7.77886C0.303485 7.59221 0.37942 7.41453 0.492587 7.2603L0.61661 7.11675C0.750715 6.98257 0.914114 6.88 1.09513 6.81792L20.0951 0.317919V0.318896ZM10.8979 12.1607C10.9095 12.1816 10.9238 12.201 10.935 12.2222L11.0522 12.4742V12.4751L13.9809 19.7798L19.5453 3.51421L10.8979 12.1607ZM2.21817 8.01812L9.52384 10.9478H9.52286C9.63134 10.9912 9.73566 11.0436 9.83731 11.1001L18.4858 2.45268L2.21817 8.01812Z" fill="#323949"/>
</svg>
