<svg width="24" height="24" viewBox="0 0 24 24" fill="none" xmlns="http://www.w3.org/2000/svg">
<path d="M13.5 12C13.5 11.1716 12.8284 10.5 12 10.5C11.1716 10.5 10.5 11.1716 10.5 12C10.5 12.8284 11.1716 13.5 12 13.5C12.8284 13.5 13.5 12.8284 13.5 12ZM15 12C15 13.6569 13.6569 15 12 15C10.3431 15 9 13.6569 9 12C9 10.3431 10.3431 9 12 9C13.6569 9 15 10.3431 15 12Z" fill="#323949"/>
<path d="M12.8333 4.5C12.8333 4.27899 12.7455 4.06709 12.5892 3.91081C12.4329 3.75453 12.221 3.66667 12 3.66667C11.779 3.66667 11.5671 3.75453 11.4108 3.91081C11.2545 4.06709 11.1667 4.27899 11.1667 4.5V4.64486C11.1649 5.07553 11.0374 5.49672 10.7996 5.85579C10.5618 6.2148 10.2238 6.49671 9.82796 6.66634C9.75877 6.69595 9.68573 6.71408 9.61149 6.72412C9.25081 6.85116 8.86255 6.88379 8.48438 6.81527C8.05021 6.73654 7.64909 6.52892 7.33366 6.22038L7.32715 6.21468L7.27751 6.16423C7.20012 6.08677 7.10766 6.02468 7.00651 5.98275C6.9054 5.94086 6.79694 5.91927 6.6875 5.91927C6.57806 5.91927 6.4696 5.94086 6.36849 5.98275C6.26734 6.02468 6.17569 6.08677 6.09831 6.16423C6.02083 6.24162 5.95795 6.33406 5.91602 6.43522C5.87415 6.53631 5.85254 6.64482 5.85254 6.75423C5.85255 6.86366 5.87413 6.97214 5.91602 7.07324C5.95794 7.17439 6.02003 7.26604 6.09749 7.34342L6.14795 7.39388L6.15446 7.40039C6.46301 7.71582 6.66981 8.11694 6.74854 8.55111C6.82401 8.96768 6.77551 9.39582 6.61426 9.78646L6.61507 9.78727C6.46212 10.2032 6.18773 10.5638 5.82731 10.8216C5.46693 11.0793 5.03733 11.223 4.5944 11.2334H4.5C4.27899 11.2334 4.06709 11.3213 3.91081 11.4775C3.75455 11.6338 3.66667 11.8457 3.66667 12.0667C3.66668 12.2877 3.75454 12.4997 3.91081 12.6559C4.06708 12.8122 4.279 12.9001 4.5 12.9001H4.64486C5.07553 12.9018 5.49672 13.0293 5.85579 13.2671C6.21479 13.5049 6.49671 13.843 6.66634 14.2388C6.84153 14.6402 6.89338 15.0845 6.81527 15.5156C6.73654 15.9498 6.52892 16.3509 6.22038 16.6663L6.21468 16.6729L6.16423 16.7225C6.08677 16.7999 6.02468 16.8923 5.98275 16.9935C5.94086 17.0946 5.91927 17.2031 5.91927 17.3125C5.91927 17.4219 5.94086 17.5304 5.98275 17.6315C6.01421 17.7074 6.05693 17.7782 6.10889 17.8415L6.16423 17.9017C6.24162 17.9792 6.33405 18.042 6.43522 18.084C6.53631 18.1258 6.64482 18.1475 6.75423 18.1475C6.86366 18.1475 6.97214 18.1259 7.07324 18.084C7.17439 18.0421 7.26604 17.98 7.34342 17.9025L7.39388 17.8521L7.40039 17.8455C7.71581 17.537 8.11698 17.3302 8.55111 17.2515C8.98509 17.1728 9.43258 17.2264 9.8361 17.4045C10.2316 17.5605 10.5738 17.8263 10.8216 18.1727C11.0793 18.5331 11.223 18.9627 11.2334 19.4056V19.5C11.2334 19.721 11.3213 19.9329 11.4775 20.0892C11.6338 20.2455 11.8457 20.3333 12.0667 20.3333C12.2877 20.3333 12.4997 20.2455 12.6559 20.0892C12.8122 19.9329 12.9001 19.721 12.9001 19.5V19.3551C12.9018 18.9245 13.0293 18.5033 13.2671 18.1442C13.4752 17.83 13.76 17.5753 14.0931 17.4028L14.2388 17.3337C14.6401 17.1586 15.0846 17.1066 15.5156 17.1847C15.8956 17.2536 16.2503 17.4207 16.5443 17.6681L16.6663 17.7796L16.6729 17.7853L16.7225 17.8358C16.7999 17.9132 16.8923 17.9753 16.9935 18.0173C17.0946 18.0591 17.2031 18.0807 17.3125 18.0807C17.4219 18.0807 17.5304 18.0591 17.6315 18.0173C17.7327 17.9753 17.8243 17.9132 17.9017 17.8358C17.9792 17.7584 18.042 17.6659 18.084 17.5648C18.1258 17.4637 18.1475 17.3552 18.1475 17.2458C18.1475 17.1363 18.1259 17.0279 18.084 16.9268C18.0421 16.8256 17.98 16.734 17.9025 16.6566L17.8521 16.6061L17.8455 16.5996C17.5373 16.2843 17.3301 15.8828 17.2515 15.4489C17.1734 15.0179 17.2253 14.5734 17.4004 14.172L17.4696 14.0264C17.642 13.6933 17.8967 13.4085 18.2109 13.2004C18.57 12.9626 18.9912 12.8351 19.4219 12.8333H19.5C19.721 12.8333 19.9329 12.7455 20.0892 12.5892C20.2455 12.4329 20.3333 12.221 20.3333 12C20.3333 11.779 20.2455 11.5671 20.0892 11.4108C19.9329 11.2545 19.721 11.1667 19.5 11.1667H19.3551C18.9245 11.1649 18.5033 11.0374 18.1442 10.7996C17.7852 10.5618 17.5033 10.2238 17.3337 9.82796C17.304 9.75874 17.2851 9.68577 17.2751 9.61149C17.1481 9.25088 17.1162 8.86246 17.1847 8.48438C17.2635 8.05021 17.4711 7.64909 17.7796 7.33366L17.7853 7.32715L17.8358 7.27751C17.9132 7.20012 17.9753 7.10765 18.0173 7.00651C18.0591 6.9054 18.0807 6.79694 18.0807 6.6875C18.0807 6.57806 18.0591 6.4696 18.0173 6.36849C17.9753 6.26735 17.9132 6.17569 17.8358 6.09831C17.7584 6.02083 17.6659 5.95795 17.5648 5.91602C17.4637 5.87415 17.3552 5.85254 17.2458 5.85254C17.1363 5.85255 17.0279 5.87413 16.9268 5.91602C16.8256 5.95794 16.734 6.02004 16.6566 6.09749L16.6061 6.14795L16.5996 6.15446L16.5988 6.15365C16.2834 6.46214 15.883 6.66982 15.4489 6.74854C15.0178 6.82664 14.5735 6.774 14.172 6.5988C13.7762 6.42915 13.4382 6.14809 13.2004 5.78906C12.9626 5.42999 12.8351 5.0088 12.8333 4.57812V4.5ZM14.5 4.57161L14.5057 4.65055C14.5174 4.72819 14.5466 4.80267 14.5903 4.86865C14.6486 4.95655 14.7311 5.02562 14.828 5.06722L14.8361 5.07129C14.9351 5.11499 15.0454 5.12803 15.1519 5.10872C15.2583 5.08941 15.3569 5.03792 15.4342 4.96224L15.4774 4.91911L15.6589 4.75391C15.8486 4.59808 16.0611 4.47147 16.2887 4.37712C16.5922 4.25134 16.9173 4.18588 17.2458 4.18587C17.5742 4.18587 17.8994 4.25136 18.2028 4.37712C18.5063 4.50293 18.7828 4.68667 19.015 4.91911C19.2473 5.15123 19.4312 5.4271 19.557 5.73047C19.6827 6.03385 19.7474 6.35911 19.7474 6.6875C19.7474 7.01589 19.6827 7.34115 19.557 7.64453C19.4626 7.87215 19.3352 8.08469 19.1794 8.27441L19.0142 8.45589L18.971 8.49902L18.9189 8.56087C18.8718 8.62616 18.8399 8.70149 18.8254 8.78141C18.806 8.88791 18.8183 8.99815 18.862 9.09717C18.8851 9.14966 18.903 9.20411 18.9149 9.25993C18.9545 9.31888 19.0049 9.37007 19.0646 9.40967C19.1527 9.468 19.256 9.49958 19.3617 9.5H19.5C20.163 9.5 20.7987 9.76358 21.2676 10.2324C21.7364 10.7013 22 11.337 22 12C22 12.663 21.7364 13.2987 21.2676 13.7676C20.7987 14.2364 20.163 14.5 19.5 14.5H19.4284L19.3494 14.5057C19.2718 14.5174 19.1973 14.5466 19.1313 14.5903C19.0435 14.6486 18.9744 14.7311 18.9328 14.828L18.9287 14.8361C18.885 14.9351 18.872 15.0454 18.8913 15.1519C18.9106 15.2583 18.9621 15.3569 19.0378 15.4342L19.0809 15.4774L19.2461 15.6589C19.4019 15.8486 19.5285 16.0611 19.6229 16.2887C19.7487 16.5922 19.8141 16.9173 19.8141 17.2458C19.8141 17.5742 19.7486 17.8994 19.6229 18.2028C19.4971 18.5063 19.3133 18.7828 19.0809 19.015L19.0801 19.0142C18.848 19.2463 18.5727 19.4313 18.2695 19.557C17.9662 19.6827 17.6409 19.7474 17.3125 19.7474C16.9841 19.7474 16.6588 19.6827 16.3555 19.557C16.1278 19.4626 15.9153 19.3352 15.7256 19.1794L15.5441 19.0142L15.501 18.971L15.4391 18.9189C15.3738 18.8718 15.2985 18.8399 15.2186 18.8254C15.1121 18.806 15.0018 18.8183 14.9028 18.862L14.8947 18.866C14.7978 18.9076 14.7153 18.9767 14.6571 19.0646C14.5987 19.1527 14.5672 19.256 14.5667 19.3617V19.5C14.5667 20.163 14.3031 20.7987 13.8343 21.2676C13.3655 21.7364 12.7297 22 12.0667 22C11.4037 22 10.768 21.7364 10.2992 21.2676C9.83031 20.7987 9.56673 20.163 9.56673 19.5V19.4447L9.55859 19.3641C9.54468 19.2844 9.51328 19.2083 9.46582 19.1419C9.40268 19.0537 9.31451 18.9866 9.21273 18.9491C9.19631 18.943 9.1799 18.9358 9.1639 18.9287C9.06489 18.885 8.95463 18.872 8.84814 18.8913C8.74165 18.9106 8.64312 18.9621 8.56575 19.0378L8.52262 19.0809C8.2905 19.3132 8.01463 19.4971 7.71126 19.6229C7.40781 19.7487 7.08272 19.8141 6.75423 19.8141C6.42576 19.8141 6.10064 19.7486 5.7972 19.6229C5.49371 19.4971 5.21721 19.3133 4.98503 19.0809C4.75311 18.8489 4.56864 18.5725 4.44303 18.2695C4.31733 17.9662 4.2526 17.6409 4.2526 17.3125C4.2526 16.9841 4.31733 16.6588 4.44303 16.3555C4.56879 16.0521 4.75354 15.7762 4.98584 15.5441L5.02897 15.501C5.10461 15.4236 5.15531 15.325 5.17464 15.2186C5.19395 15.1121 5.18172 15.0018 5.13802 14.9028L5.13395 14.8947C5.09237 14.7978 5.02327 14.7153 4.93538 14.6571C4.86942 14.6134 4.79489 14.5842 4.71729 14.5724L4.63835 14.5667H4.5C3.83697 14.5667 3.20126 14.3031 2.73242 13.8343C2.2636 13.3655 2.00002 12.7297 2 12.0667C2 11.4037 2.2636 10.768 2.73242 10.2992C3.20126 9.83031 3.83696 9.56673 4.5 9.56673H4.55534C4.664 9.56419 4.76967 9.52905 4.85807 9.46582C4.94629 9.40268 5.01342 9.31451 5.05094 9.21273L5.07129 9.1639C5.11499 9.06489 5.12803 8.95463 5.10872 8.84814C5.08941 8.74165 5.03792 8.64312 4.96224 8.56575L4.91911 8.52262C4.68681 8.2905 4.50287 8.01463 4.37712 7.71126C4.25134 7.40781 4.18588 7.08272 4.18587 6.75423C4.18587 6.42577 4.25136 6.10064 4.37712 5.7972C4.50293 5.49371 4.68667 5.21721 4.91911 4.98503C5.15114 4.75292 5.42728 4.56872 5.73047 4.44303C6.03385 4.31733 6.35911 4.2526 6.6875 4.2526C7.01589 4.2526 7.34115 4.31733 7.64453 4.44303C7.9479 4.56879 8.22377 4.75354 8.45589 4.98584L8.49902 5.02897C8.57635 5.10461 8.67499 5.15531 8.78141 5.17464C8.88791 5.19395 8.99815 5.18172 9.09717 5.13802L9.17773 5.1071C9.20482 5.09836 9.23213 5.09022 9.25993 5.08431C9.31872 5.04474 9.37015 4.99499 9.40967 4.93538C9.4674 4.84821 9.49895 4.7461 9.5 4.6416V4.5C9.5 3.83696 9.76358 3.20126 10.2324 2.73242C10.7013 2.26358 11.337 2 12 2C12.663 2 13.2987 2.26358 13.7676 2.73242C14.2364 3.20126 14.5 3.83696 14.5 4.5V4.57161Z" fill="#323949"/>
</svg>
