<svg width="24" height="24" viewBox="0 0 24 24" fill="none" xmlns="http://www.w3.org/2000/svg">
<path d="M8 17.95C8.16667 17.9667 8.32933 17.9793 8.488 17.988C8.64667 17.9967 8.81733 18.0007 9 18C9.18267 17.9993 9.35367 17.9953 9.513 17.988C9.67233 17.9807 9.83467 17.968 10 17.95V20H20V10H17.95C17.9667 9.83334 17.9793 9.67067 17.988 9.512C17.9967 9.35334 18.0007 9.18267 18 9C17.9993 8.81734 17.9953 8.64634 17.988 8.487C17.9807 8.32767 17.968 8.16534 17.95 8H20C20.55 8 21.021 8.196 21.413 8.588C21.805 8.98 22.0007 9.45067 22 10V20C22 20.55 21.8043 21.021 21.413 21.413C21.0217 21.805 20.5507 22.0007 20 22H10C9.45 22 8.97933 21.8043 8.588 21.413C8.19667 21.0217 8.00067 20.5507 8 20V17.95ZM9 16C7.05 16 5.396 15.321 4.038 13.963C2.68 12.605 2.00067 10.9507 2 9C1.99933 7.04934 2.67867 5.39534 4.038 4.038C5.39733 2.68067 7.05133 2.00134 9 2C10.9487 1.99867 12.603 2.678 13.963 4.038C15.323 5.398 16.002 7.052 16 9C15.998 10.948 15.319 12.6023 13.963 13.963C12.607 15.3237 10.9527 16.0027 9 16ZM9 14C10.3833 14 11.5627 13.5123 12.538 12.537C13.5133 11.5617 14.0007 10.3827 14 9C13.9993 7.61734 13.5117 6.43833 12.537 5.463C11.5623 4.48767 10.3833 4 9 4C7.61667 4 6.43767 4.48767 5.463 5.463C4.48833 6.43833 4.00067 7.61734 4 9C3.99933 10.3827 4.487 11.562 5.463 12.538C6.439 13.514 7.618 14.0013 9 14Z" fill="#323949"/>
</svg>
