<svg width="20" height="20" viewBox="0 0 20 20" fill="none" xmlns="http://www.w3.org/2000/svg">
<path d="M6 15.95C6.16667 15.9667 6.32933 15.9793 6.488 15.988C6.64667 15.9967 6.81733 16.0007 7 16C7.18267 15.9993 7.35367 15.9953 7.513 15.988C7.67233 15.9807 7.83467 15.968 8 15.95V18H18V8H15.95C15.9667 7.83334 15.9793 7.67067 15.988 7.512C15.9967 7.35334 16.0007 7.18267 16 7C15.9993 6.81734 15.9953 6.64634 15.988 6.487C15.9807 6.32767 15.968 6.16534 15.95 6H18C18.55 6 19.021 6.196 19.413 6.588C19.805 6.98 20.0007 7.45067 20 8V18C20 18.55 19.8043 19.021 19.413 19.413C19.0217 19.805 18.5507 20.0007 18 20H8C7.45 20 6.97933 19.8043 6.588 19.413C6.19667 19.0217 6.00067 18.5507 6 18V15.95ZM7 14C5.05 14 3.396 13.321 2.038 11.963C0.680001 10.605 0.000667157 8.95067 4.90196e-07 7C-0.000666176 5.04934 0.678667 3.39534 2.038 2.038C3.39733 0.680669 5.05133 0.00133529 7 1.95886e-06C8.94867 -0.00133137 10.603 0.678002 11.963 2.038C13.323 3.398 14.002 5.052 14 7C13.998 8.948 13.319 10.6023 11.963 11.963C10.607 13.3237 8.95267 14.0027 7 14ZM7 12C8.38333 12 9.56267 11.5123 10.538 10.537C11.5133 9.56167 12.0007 8.38267 12 7C11.9993 5.61734 11.5117 4.43833 10.537 3.463C9.56233 2.48767 8.38333 2 7 2C5.61667 2 4.43767 2.48767 3.463 3.463C2.48833 4.43833 2.00067 5.61734 2 7C1.99933 8.38267 2.487 9.562 3.463 10.538C4.439 11.514 5.618 12.0013 7 12Z" fill="#323949"/>
</svg>
