<svg width="24" height="24" viewBox="0 0 24 24" fill="none" xmlns="http://www.w3.org/2000/svg">
<path d="M19.5116 11.875C19.5116 7.65741 16.0926 4.23837 11.875 4.23837C7.65741 4.23837 4.23837 7.65741 4.23837 11.875C4.23837 16.0926 7.65741 19.5116 11.875 19.5116C16.0926 19.5116 19.5116 16.0926 19.5116 11.875ZM20.75 11.875C20.75 16.7765 16.7765 20.75 11.875 20.75C6.97347 20.75 3 16.7765 3 11.875C3 6.97347 6.97347 3 11.875 3C16.7765 3 20.75 6.97347 20.75 11.875Z" fill="#323949"/>
<path d="M14.6817 13.1537V13.1545L14.722 13.1062C14.9347 12.8753 15.2919 12.8388 15.5484 13.0312C15.8048 13.2237 15.8694 13.5767 15.7073 13.8455L15.6718 13.8979V13.8987L15.6686 13.9019C15.6672 13.9037 15.6656 13.9059 15.6637 13.9084C15.6597 13.9136 15.6541 13.9211 15.6476 13.9293C15.6345 13.9458 15.6164 13.9683 15.5936 13.9954C15.5478 14.05 15.482 14.1243 15.3977 14.2123C15.2293 14.388 14.9831 14.6204 14.664 14.8525C14.028 15.315 13.077 15.7966 11.8744 15.7966C10.6719 15.7966 9.72084 15.315 9.08487 14.8525C8.76581 14.6204 8.51957 14.388 8.3512 14.2123C8.26687 14.1243 8.20106 14.05 8.15528 13.9954C8.13249 13.9683 8.11432 13.9458 8.10127 13.9293C8.09473 13.9211 8.08919 13.9136 8.08514 13.9084C8.08322 13.9059 8.08165 13.9037 8.08031 13.9019L8.07708 13.8987V13.8979C7.87196 13.6244 7.92708 13.2364 8.20043 13.0312C8.47362 12.8263 8.86092 12.8812 9.06633 13.1537V13.1529C9.06708 13.1539 9.06901 13.1564 9.07197 13.1602C9.07802 13.1678 9.08854 13.1811 9.10341 13.1989C9.13341 13.2346 9.18063 13.2894 9.2445 13.3561C9.3728 13.49 9.56529 13.6705 9.8137 13.8511C10.3129 14.2141 11.0132 14.5582 11.8744 14.5582C12.7357 14.5582 13.436 14.2141 13.9352 13.8511C14.1836 13.6705 14.3761 13.49 14.5044 13.3561C14.5682 13.2894 14.6155 13.2346 14.6455 13.1989C14.6603 13.1811 14.6708 13.1678 14.6769 13.1602L14.6817 13.1537Z" fill="#323949"/>
<path d="M9.40459 8.77905C9.74656 8.77905 10.0238 9.05627 10.0238 9.39824C10.0238 9.74021 9.74656 10.0174 9.40459 10.0174H9.39653C9.05456 10.0174 8.77734 9.74021 8.77734 9.39824C8.77734 9.05627 9.05456 8.77905 9.39653 8.77905H9.40459Z" fill="#323949"/>
<path d="M14.3616 8.77905C14.7036 8.77905 14.9808 9.05627 14.9808 9.39824C14.9808 9.74021 14.7036 10.0174 14.3616 10.0174H14.3536C14.0116 10.0174 13.7344 9.74021 13.7344 9.39824C13.7344 9.05627 14.0116 8.77905 14.3536 8.77905H14.3616Z" fill="#323949"/>
</svg>
