<svg width="22" height="22" viewBox="0 0 22 22" fill="none" xmlns="http://www.w3.org/2000/svg">
<path d="M20.25 11C20.25 5.89137 16.1086 1.75 11 1.75C5.89137 1.75 1.75 5.89137 1.75 11C1.75 16.1086 5.89137 20.25 11 20.25C16.1086 20.25 20.25 16.1086 20.25 11ZM21.75 11C21.75 16.9371 16.9371 21.75 11 21.75C5.06294 21.75 0.25 16.9371 0.25 11C0.25 5.06294 5.06294 0.25 11 0.25C16.9371 0.25 21.75 5.06294 21.75 11Z" fill="#323949"/>
<path d="M14.4001 12.5488V12.5498L14.449 12.4912C14.7066 12.2116 15.1393 12.1674 15.4499 12.4004C15.7605 12.6335 15.8388 13.0612 15.6423 13.3867L15.5994 13.4502V13.4512L15.5955 13.4551C15.5938 13.4572 15.5919 13.4599 15.5896 13.4629C15.5847 13.4693 15.578 13.4783 15.5701 13.4883C15.5543 13.5082 15.5322 13.5355 15.5046 13.5683C15.4492 13.6344 15.3695 13.7245 15.2673 13.831C15.0634 14.0438 14.7651 14.3253 14.3787 14.6064C13.6083 15.1667 12.4564 15.75 10.9998 15.75C9.5431 15.75 8.39118 15.1667 7.62085 14.6064C7.23438 14.3253 6.93611 14.0438 6.73217 13.831C6.63002 13.7245 6.55032 13.6344 6.49487 13.5683C6.46726 13.5355 6.44525 13.5082 6.42944 13.4883C6.42152 13.4783 6.41482 13.4693 6.40991 13.4629C6.40758 13.4599 6.40568 13.4572 6.40405 13.4551L6.40014 13.4512V13.4502C6.15169 13.1189 6.21846 12.649 6.54956 12.4004C6.88046 12.1522 7.34958 12.2187 7.59839 12.5488V12.5478C7.5993 12.549 7.60163 12.5521 7.60522 12.5566C7.61255 12.5659 7.62529 12.582 7.64331 12.6035C7.67964 12.6468 7.73684 12.7132 7.81421 12.7939C7.9696 12.9561 8.20277 13.1747 8.50366 13.3935C9.10831 13.8332 9.95653 14.25 10.9998 14.25C12.043 14.25 12.8912 13.8332 13.4958 13.3935C13.7967 13.1747 14.0299 12.9561 14.1853 12.7939C14.2627 12.7132 14.3199 12.6468 14.3562 12.6035C14.3742 12.582 14.387 12.5659 14.3943 12.5566L14.4001 12.5488Z" fill="#323949"/>
<path d="M8.00977 7.25C8.42398 7.25 8.75977 7.58579 8.75977 8C8.75977 8.41421 8.42398 8.75 8.00977 8.75H8C7.58579 8.75 7.25 8.41421 7.25 8C7.25 7.58579 7.58579 7.25 8 7.25H8.00977Z" fill="#323949"/>
<path d="M14.0098 7.25C14.424 7.25 14.7598 7.58579 14.7598 8C14.7598 8.41421 14.424 8.75 14.0098 8.75H14C13.5858 8.75 13.25 8.41421 13.25 8C13.25 7.58579 13.5858 7.25 14 7.25H14.0098Z" fill="#323949"/>
</svg>
