<svg width="22" height="21" viewBox="0 0 22 21" fill="none" xmlns="http://www.w3.org/2000/svg">
<path d="M11.1797 0.262695C11.2969 0.279147 11.4113 0.311505 11.5195 0.359375L11.6767 0.442383L11.8213 0.546875C11.9122 0.622653 11.9919 0.710847 12.0586 0.808594L12.1494 0.961914V0.962891L14.459 5.6416C14.5574 5.84077 14.7031 6.01289 14.8828 6.14355C15.0623 6.2741 15.2706 6.35929 15.4902 6.3916L20.6562 7.14746H20.6553C20.8325 7.17313 21.0018 7.23559 21.1523 7.33008L21.2969 7.43555L21.4248 7.55957C21.504 7.64783 21.5701 7.74694 21.6221 7.85352L21.6894 8.01855L21.7324 8.19141C21.7634 8.36646 21.7577 8.54682 21.7148 8.7207C21.6719 8.89468 21.5933 9.05758 21.4844 9.19824L21.3652 9.33105L17.6289 12.9688C17.4696 13.1239 17.3511 13.3159 17.2822 13.5273C17.2135 13.7386 17.1971 13.9636 17.2344 14.1826L18.1162 19.3232H18.1152C18.156 19.5583 18.1314 19.8002 18.042 20.0215C17.9521 20.244 17.8015 20.4371 17.6074 20.5781C17.4133 20.7191 17.1827 20.8027 16.9433 20.8193C16.7041 20.8359 16.4646 20.7846 16.2529 20.6719V20.6709L11.6387 18.2461C11.442 18.1429 11.2231 18.0889 11.001 18.0889C10.7789 18.0889 10.5599 18.1419 10.3633 18.2451L10.3642 18.2461L5.74804 20.6719C5.53635 20.7839 5.29749 20.8353 5.05858 20.8184C4.81979 20.8013 4.59009 20.718 4.39647 20.5771C4.20282 20.4363 4.05266 20.2435 3.96288 20.0215C3.89553 19.8549 3.86405 19.6763 3.87011 19.498L3.88866 19.3203L4.76952 14.1846C4.80713 13.9653 4.79041 13.7399 4.72167 13.5283C4.65285 13.3167 4.53444 13.124 4.37499 12.9688V12.9697L0.63866 9.33203L0.639637 9.33105C0.468386 9.16485 0.345872 8.95521 0.288074 8.72363C0.230038 8.49101 0.238486 8.2466 0.312488 8.01855C0.386494 7.79052 0.523458 7.58781 0.70702 7.43359C0.889741 7.28016 1.11152 7.18046 1.34764 7.14648L6.51268 6.3916C6.73268 6.3596 6.94219 6.27518 7.12206 6.14453C7.30186 6.01391 7.44646 5.84085 7.54491 5.6416L9.85448 0.962891V0.961914C9.96032 0.748158 10.1245 0.568192 10.3271 0.442383L10.4844 0.359375C10.6468 0.287589 10.8231 0.25 11.0019 0.25L11.1797 0.262695ZM8.89061 6.30566C8.68449 6.72289 8.37944 7.08393 8.00292 7.35742C7.6266 7.63076 7.18973 7.8089 6.72948 7.87598L2.00194 8.56641L5.42089 11.8945C5.75466 12.2196 6.00436 12.6214 6.14843 13.0645C6.29238 13.5073 6.32674 13.9785 6.24804 14.4375L5.44139 19.1387L9.666 16.918L9.82225 16.8418C10.1922 16.6752 10.5939 16.5889 11.001 16.5889C11.4661 16.5889 11.9251 16.7017 12.3369 16.918L16.5625 19.1387L15.7558 14.4365C15.6774 13.9776 15.7114 13.5062 15.8555 13.0635C15.9995 12.6208 16.2486 12.2194 16.582 11.8945H16.583L19.999 8.56738L15.2734 7.87598H15.2724C14.8127 7.80842 14.3758 7.62979 14 7.35645C13.6242 7.08306 13.3201 6.72228 13.1142 6.30566L11.0019 2.02637L8.89061 6.30566Z" fill="#323949"/>
</svg>
