<svg width="24" height="24" viewBox="0 0 24 24" fill="none" xmlns="http://www.w3.org/2000/svg">
<path d="M12.1797 1.2627C12.2969 1.27915 12.4113 1.3115 12.5195 1.35938L12.6767 1.44238L12.8213 1.54688C12.9122 1.62265 12.9919 1.71085 13.0586 1.80859L13.1494 1.96191V1.96289L15.459 6.6416C15.5574 6.84077 15.7031 7.01289 15.8828 7.14355C16.0623 7.2741 16.2706 7.35928 16.4902 7.3916L21.6562 8.14746H21.6553C21.8324 8.17313 22.0018 8.23559 22.1523 8.33008L22.2969 8.43555L22.4248 8.55957C22.504 8.64783 22.5701 8.74694 22.6221 8.85352L22.6894 9.01855L22.7324 9.19141C22.7634 9.36646 22.7577 9.54682 22.7148 9.7207C22.6719 9.89468 22.5933 10.0576 22.4844 10.1982L22.3652 10.3311L18.6289 13.9688C18.4696 14.1239 18.3511 14.3159 18.2822 14.5273C18.2135 14.7386 18.1971 14.9636 18.2344 15.1826L19.1162 20.3232H19.1152C19.156 20.5583 19.1314 20.8002 19.042 21.0215C18.9521 21.244 18.8015 21.4371 18.6074 21.5781C18.4133 21.7191 18.1827 21.8027 17.9433 21.8193C17.7041 21.8359 17.4646 21.7846 17.2529 21.6719V21.6709L12.6387 19.2461C12.442 19.1429 12.2231 19.0889 12.001 19.0889C11.7789 19.0889 11.5599 19.1419 11.3633 19.2451L11.3642 19.2461L6.74804 21.6719C6.53635 21.7839 6.29749 21.8353 6.05858 21.8184C5.81979 21.8013 5.59009 21.718 5.39647 21.5771C5.20282 21.4363 5.05266 21.2435 4.96288 21.0215C4.89553 20.8549 4.86405 20.6763 4.87011 20.498L4.88866 20.3203L5.76952 15.1846C5.80713 14.9653 5.79041 14.7399 5.72167 14.5283C5.65285 14.3167 5.53444 14.124 5.37499 13.9688V13.9697L1.63866 10.332L1.63964 10.3311C1.46839 10.1649 1.34587 9.95521 1.28807 9.72363C1.23004 9.49101 1.23849 9.2466 1.31249 9.01855C1.38649 8.79052 1.52346 8.58781 1.70702 8.43359C1.88974 8.28016 2.11152 8.18046 2.34764 8.14648L7.51268 7.3916C7.73268 7.3596 7.94219 7.27518 8.12206 7.14453C8.30186 7.01391 8.44646 6.84085 8.54491 6.6416L10.8545 1.96289V1.96191C10.9603 1.74816 11.1245 1.56819 11.3271 1.44238L11.4844 1.35938C11.6468 1.28759 11.8231 1.25 12.0019 1.25L12.1797 1.2627ZM9.89061 7.30566C9.68449 7.72289 9.37944 8.08393 9.00292 8.35742C8.6266 8.63076 8.18973 8.8089 7.72948 8.87598L3.00194 9.56641L6.42089 12.8945C6.75466 13.2196 7.00436 13.6214 7.14843 14.0645C7.29238 14.5073 7.32674 14.9785 7.24804 15.4375L6.44139 20.1387L10.666 17.918L10.8223 17.8418C11.1922 17.6752 11.5939 17.5889 12.001 17.5889C12.4661 17.5889 12.9251 17.7017 13.3369 17.918L17.5625 20.1387L16.7558 15.4365C16.6774 14.9776 16.7114 14.5062 16.8555 14.0635C16.9995 13.6208 17.2486 13.2194 17.582 12.8945H17.583L20.999 9.56738L16.2734 8.87598H16.2724C15.8127 8.80842 15.3758 8.62979 15 8.35645C14.6242 8.08306 14.3201 7.72228 14.1142 7.30566L12.0019 3.02637L9.89061 7.30566Z" fill="#323949"/>
</svg>
