<svg width="18" height="22" viewBox="0 0 18 22" fill="none" xmlns="http://www.w3.org/2000/svg">
<path d="M16.25 3C16.25 2.30964 15.6904 1.75 15 1.75H3C2.30964 1.75 1.75 2.30964 1.75 3V19C1.75 19.6904 2.30964 20.25 3 20.25H15C15.6904 20.25 16.25 19.6904 16.25 19V3ZM9.00977 16.25C9.42398 16.25 9.75977 16.5858 9.75977 17C9.75977 17.4142 9.42398 17.75 9.00977 17.75H9C8.58579 17.75 8.25 17.4142 8.25 17C8.25 16.5858 8.58579 16.25 9 16.25H9.00977ZM17.75 19C17.75 20.5188 16.5188 21.75 15 21.75H3C1.48122 21.75 0.25 20.5188 0.25 19V3C0.25 1.48122 1.48122 0.25 3 0.25H15C16.5188 0.25 17.75 1.48122 17.75 3V19Z" fill="#323949"/>
</svg>
