<svg width="25" height="30" viewBox="0 0 25 30" fill="none" xmlns="http://www.w3.org/2000/svg">
<path d="M20.25 7C20.25 6.30964 19.6904 5.75 19 5.75H7C6.30964 5.75 5.75 6.30964 5.75 7V23C5.75 23.6904 6.30964 24.25 7 24.25H19C19.6904 24.25 20.25 23.6904 20.25 23V7ZM13.0098 20.25C13.424 20.25 13.7598 20.5858 13.7598 21C13.7598 21.4142 13.424 21.75 13.0098 21.75H13C12.5858 21.75 12.25 21.4142 12.25 21C12.25 20.5858 12.5858 20.25 13 20.25H13.0098ZM21.75 23C21.75 24.5188 20.5188 25.75 19 25.75H7C5.48122 25.75 4.25 24.5188 4.25 23V7C4.25 5.48122 5.48122 4.25 7 4.25H19C20.5188 4.25 21.75 5.48122 21.75 7V23Z" fill="#323949"/>
</svg>
