<svg width="24" height="24" viewBox="0 0 24 24" fill="none" xmlns="http://www.w3.org/2000/svg">
<path d="M20.25 3.9375H3.75C3.4019 3.9375 3.06806 4.07578 2.82192 4.32192C2.57578 4.56806 2.4375 4.9019 2.4375 5.25V18.75C2.4375 19.0981 2.57578 19.4319 2.82192 19.6781C3.06806 19.9242 3.4019 20.0625 3.75 20.0625H5.00531C5.11176 20.0625 5.21601 20.0322 5.30595 19.9753C5.3959 19.9184 5.46784 19.8371 5.51344 19.7409C5.89329 18.9387 6.49309 18.2609 7.24308 17.7862C7.99306 17.3115 8.86241 17.0595 9.75 17.0595C10.6376 17.0595 11.5069 17.3115 12.2569 17.7862C13.0069 18.2609 13.6067 18.9387 13.9866 19.7409C14.0322 19.8371 14.1041 19.9184 14.194 19.9753C14.284 20.0322 14.3882 20.0625 14.4947 20.0625H20.25C20.5981 20.0625 20.9319 19.9242 21.1781 19.6781C21.4242 19.4319 21.5625 19.0981 21.5625 18.75V5.25C21.5625 4.9019 21.4242 4.56806 21.1781 4.32192C20.9319 4.07578 20.5981 3.9375 20.25 3.9375ZM7.3125 13.5C7.3125 13.0179 7.45546 12.5466 7.72329 12.1458C7.99113 11.745 8.37181 11.4325 8.81721 11.248C9.2626 11.0636 9.7527 11.0153 10.2255 11.1093C10.6984 11.2034 11.1327 11.4355 11.4736 11.7764C11.8145 12.1173 12.0466 12.5516 12.1407 13.0245C12.2347 13.4973 12.1864 13.9874 12.002 14.4328C11.8175 14.8782 11.505 15.2589 11.1042 15.5267C10.7034 15.7945 10.2321 15.9375 9.75 15.9375C9.10353 15.9375 8.48355 15.6807 8.02643 15.2236C7.56931 14.7665 7.3125 14.1465 7.3125 13.5ZM20.4375 18.75C20.4375 18.7997 20.4177 18.8474 20.3826 18.8826C20.3474 18.9177 20.2997 18.9375 20.25 18.9375H14.8378C14.1819 17.7602 13.1393 16.8458 11.8866 16.3491C12.485 15.9006 12.927 15.2752 13.1502 14.5614C13.3733 13.8477 13.3662 13.0818 13.1299 12.3724C12.8935 11.6629 12.4399 11.0458 11.8333 10.6085C11.2267 10.1712 10.4978 9.93586 9.75 9.93586C9.00219 9.93586 8.27335 10.1712 7.66673 10.6085C7.06012 11.0458 6.60649 11.6629 6.37013 12.3724C6.13377 13.0818 6.12666 13.8477 6.34981 14.5614C6.57296 15.2752 7.01504 15.9006 7.61344 16.3491C6.36068 16.8458 5.31808 17.7602 4.66219 18.9375H3.75C3.70027 18.9375 3.65258 18.9177 3.61742 18.8826C3.58225 18.8474 3.5625 18.7997 3.5625 18.75V5.25C3.5625 5.20027 3.58225 5.15258 3.61742 5.11742C3.65258 5.08225 3.70027 5.0625 3.75 5.0625H20.25C20.2997 5.0625 20.3474 5.08225 20.3826 5.11742C20.4177 5.15258 20.4375 5.20027 20.4375 5.25V18.75ZM18.5625 7.5V16.5C18.5625 16.6492 18.5032 16.7923 18.3977 16.8977C18.2923 17.0032 18.1492 17.0625 18 17.0625H16.5C16.3508 17.0625 16.2077 17.0032 16.1023 16.8977C15.9968 16.7923 15.9375 16.6492 15.9375 16.5C15.9375 16.3508 15.9968 16.2077 16.1023 16.1023C16.2077 15.9968 16.3508 15.9375 16.5 15.9375H17.4375V8.0625H6.5625V9C6.5625 9.14918 6.50324 9.29226 6.39775 9.39775C6.29226 9.50324 6.14918 9.5625 6 9.5625C5.85082 9.5625 5.70774 9.50324 5.60225 9.39775C5.49676 9.29226 5.4375 9.14918 5.4375 9V7.5C5.4375 7.35082 5.49676 7.20774 5.60225 7.10225C5.70774 6.99676 5.85082 6.9375 6 6.9375H18C18.1492 6.9375 18.2923 6.99676 18.3977 7.10225C18.5032 7.20774 18.5625 7.35082 18.5625 7.5Z" fill="#323949"/>
<path d="M10.0801 17.0713C10.8512 17.126 11.5987 17.3709 12.2549 17.7861C13.0049 18.2608 13.6045 18.939 13.9844 19.7412C14.03 19.8373 14.1025 19.9187 14.1924 19.9756C14.2596 20.0181 14.3349 20.0454 14.4131 20.0566L14.4932 20.0625H20.248C20.5961 20.0625 20.9296 19.9239 21.1758 19.6777C21.4219 19.4316 21.5605 19.0981 21.5605 18.75V5.25C21.5605 4.94543 21.455 4.65152 21.2637 4.41797L21.1758 4.32227C20.9296 4.07612 20.5961 3.9375 20.248 3.9375V3.83789C20.6227 3.83789 20.9822 3.98608 21.2471 4.25098C21.512 4.51587 21.6602 4.87538 21.6602 5.25V18.75C21.6602 19.1246 21.512 19.4841 21.2471 19.749C20.9822 20.0139 20.6227 20.1621 20.248 20.1621H14.4932C14.3678 20.1621 14.2446 20.1266 14.1387 20.0596C14.0329 19.9926 13.9482 19.8972 13.8945 19.7842C13.5228 18.9991 12.9352 18.3357 12.2012 17.8711C11.4672 17.4065 10.6167 17.1592 9.74805 17.1592C8.87941 17.1592 8.0289 17.4065 7.29492 17.8711C6.56093 18.3357 5.97331 18.9991 5.60156 19.7842C5.54787 19.8972 5.46318 19.9926 5.35742 20.0596C5.25149 20.1266 5.1283 20.1621 5.00293 20.1621H3.74805C3.37343 20.1621 3.01392 20.0139 2.74902 19.749C2.48413 19.4841 2.33594 19.1246 2.33594 18.75V5.25C2.33594 4.87538 2.48413 4.51587 2.74902 4.25098C3.01392 3.98608 3.37343 3.83789 3.74805 3.83789V3.9375C3.39995 3.9375 3.06645 4.07612 2.82031 4.32227L2.73242 4.41797C2.54108 4.65152 2.43555 4.94543 2.43555 5.25V18.75C2.43555 19.0981 2.57417 19.4316 2.82031 19.6777C3.06645 19.9239 3.39995 20.0625 3.74805 20.0625H5.00293C5.0829 20.0625 5.16202 20.0453 5.23438 20.0127L5.30371 19.9756C5.3711 19.9329 5.42899 19.8766 5.47266 19.8105L5.51172 19.7412C5.84405 19.0394 6.34446 18.4323 6.9668 17.9736L7.24121 17.7861C7.99118 17.3115 8.86049 17.0596 9.74805 17.0596L10.0801 17.0713ZM9.74805 9.83594C10.5168 9.83594 11.266 10.0778 11.8896 10.5273C12.5133 10.9769 12.9797 11.6114 13.2227 12.3408C13.4656 13.07 13.4734 13.8572 13.2441 14.5908C13.0318 15.2701 12.6243 15.8699 12.0771 16.3213C13.2638 16.8313 14.2528 17.7141 14.8936 18.8379H20.248V18.9375H14.8359L14.708 18.7197C14.0484 17.6475 13.0591 16.8143 11.8848 16.3486C12.4081 15.9563 12.8124 15.4289 13.0547 14.8252L13.1484 14.5615C13.3437 13.937 13.3627 13.2723 13.2061 12.6406L13.1279 12.3721C12.8915 11.6627 12.4376 11.0456 11.8311 10.6084C11.2245 10.1712 10.4958 9.93555 9.74805 9.93555C9.00033 9.93555 8.27161 10.1712 7.66504 10.6084L7.44434 10.7803C6.94792 11.201 6.57501 11.7514 6.36816 12.3721C6.1318 13.0815 6.12451 13.8478 6.34766 14.5615C6.57077 15.2751 7.0131 15.9002 7.61133 16.3486C6.35857 16.8454 5.31605 17.7602 4.66016 18.9375H3.74805V18.8379H4.60254C5.24314 17.7144 6.23166 16.8313 7.41797 16.3213C6.87116 15.87 6.46426 15.2699 6.25195 14.5908C6.02271 13.8572 6.03051 13.07 6.27344 12.3408C6.51643 11.6114 6.9828 10.9769 7.60645 10.5273C8.23007 10.0778 8.97929 9.83594 9.74805 9.83594ZM20.3359 18.75V5.25C20.3359 5.22679 20.326 5.20489 20.3096 5.18848C20.2932 5.17207 20.2713 5.16211 20.248 5.16211H3.74805C3.72484 5.16211 3.70293 5.17207 3.68652 5.18848C3.67011 5.20489 3.66016 5.22679 3.66016 5.25V18.75C3.66016 18.7732 3.67011 18.7951 3.68652 18.8115C3.70293 18.8279 3.72484 18.8379 3.74805 18.8379V18.9375C3.72328 18.9375 3.69922 18.9321 3.67676 18.9229L3.61523 18.8828C3.58007 18.8476 3.56055 18.7997 3.56055 18.75V5.25C3.56055 5.20027 3.58007 5.15235 3.61523 5.11719C3.6504 5.08202 3.69832 5.0625 3.74805 5.0625H20.248C20.2978 5.0625 20.3457 5.08202 20.3809 5.11719C20.416 5.15235 20.4355 5.20027 20.4355 5.25V18.75C20.4355 18.7997 20.416 18.8476 20.3809 18.8828L20.3193 18.9229C20.2969 18.9321 20.2728 18.9375 20.248 18.9375V18.8379C20.2713 18.8379 20.2932 18.8279 20.3096 18.8115C20.326 18.7951 20.3359 18.7732 20.3359 18.75ZM15.8359 16.5C15.8359 16.3243 15.9051 16.1555 16.0293 16.0312C16.1535 15.907 16.3223 15.8379 16.498 15.8379V15.9375C16.3489 15.9375 16.2061 15.9971 16.1006 16.1025L16.0303 16.1875C15.9689 16.2793 15.9355 16.388 15.9355 16.5C15.9355 16.6492 15.9951 16.792 16.1006 16.8975C16.2061 17.0029 16.3489 17.0625 16.498 17.0625H17.998C18.1472 17.0625 18.29 17.0029 18.3955 16.8975C18.501 16.792 18.5605 16.6492 18.5605 16.5V7.5C18.5605 7.38795 18.5272 7.27932 18.4658 7.1875L18.3955 7.10254C18.29 6.99705 18.1472 6.9375 17.998 6.9375V6.83789C18.1738 6.83789 18.3426 6.90701 18.4668 7.03125C18.591 7.15549 18.6602 7.32429 18.6602 7.5V16.5C18.6602 16.6757 18.591 16.8445 18.4668 16.9688C18.3426 17.093 18.1738 17.1621 17.998 17.1621H16.498C16.3223 17.1621 16.1535 17.093 16.0293 16.9688C15.9051 16.8445 15.8359 16.6757 15.8359 16.5ZM7.31055 13.5C7.31055 13.078 7.42 12.6643 7.62695 12.2988L7.72168 12.1455C7.95601 11.7949 8.2766 11.5121 8.65137 11.3232L8.81543 11.248C9.26079 11.0636 9.75086 11.0153 10.2236 11.1094C10.6964 11.2034 11.1308 11.4355 11.4717 11.7764C11.8126 12.1172 12.0446 12.5516 12.1387 13.0244C12.2327 13.4972 12.1844 13.9873 12 14.4326C11.8156 14.8779 11.5032 15.2585 11.1025 15.5264L10.9492 15.6211C10.5838 15.828 10.17 15.9375 9.74805 15.9375V15.8379C10.2104 15.8379 10.6625 15.7002 11.0469 15.4434C11.4311 15.1865 11.7303 14.8215 11.9072 14.3945C12.0841 13.9674 12.1312 13.4974 12.041 13.0439C11.9508 12.5905 11.7283 12.1736 11.4014 11.8467C11.0745 11.5198 10.6575 11.2972 10.2041 11.207C9.75068 11.1169 9.28062 11.1639 8.85352 11.3408C8.42654 11.5177 8.0615 11.8169 7.80469 12.2012C7.54784 12.5856 7.41016 13.0377 7.41016 13.5C7.41016 14.1199 7.65636 14.715 8.09473 15.1533C8.53309 15.5917 9.1281 15.8379 9.74805 15.8379V15.9375C9.18241 15.9375 8.63686 15.7411 8.20312 15.3857L8.02441 15.2236C7.56729 14.7665 7.31055 14.1465 7.31055 13.5ZM5.33594 9V7.5C5.33594 7.32429 5.40505 7.15549 5.5293 7.03125C5.65354 6.90701 5.82234 6.83789 5.99805 6.83789V6.9375C5.84886 6.9375 5.70607 6.99705 5.60059 7.10254L5.53027 7.1875C5.46893 7.27932 5.43555 7.38795 5.43555 7.5V9C5.43555 9.14918 5.4951 9.29197 5.60059 9.39746C5.70607 9.50295 5.84886 9.5625 5.99805 9.5625C6.14723 9.5625 6.29002 9.50295 6.39551 9.39746C6.501 9.29197 6.56055 9.14918 6.56055 9V8.0625H17.4355V15.9375H16.498V15.8379H17.3359V8.16211H6.66016V9C6.66016 9.17571 6.59104 9.34451 6.4668 9.46875C6.34255 9.59299 6.17375 9.66211 5.99805 9.66211C5.82234 9.66211 5.65354 9.59299 5.5293 9.46875C5.40505 9.34451 5.33594 9.17571 5.33594 9ZM17.998 6.83789V6.9375H5.99805V6.83789H17.998ZM20.248 3.83789V3.9375H3.74805V3.83789H20.248Z" fill="#323949"/>
</svg>
