<svg width="20" height="18" viewBox="0 0 20 18" fill="none" xmlns="http://www.w3.org/2000/svg">
<path d="M18.25 0.9375H1.75C1.4019 0.9375 1.06806 1.07578 0.821922 1.32192C0.575781 1.56806 0.4375 1.9019 0.4375 2.25V15.75C0.4375 16.0981 0.575781 16.4319 0.821922 16.6781C1.06806 16.9242 1.4019 17.0625 1.75 17.0625H3.00531C3.11176 17.0625 3.21601 17.0322 3.30595 16.9753C3.3959 16.9184 3.46784 16.8371 3.51344 16.7409C3.89329 15.9387 4.49309 15.2609 5.24308 14.7862C5.99306 14.3115 6.86241 14.0595 7.75 14.0595C8.63759 14.0595 9.50694 14.3115 10.2569 14.7862C11.0069 15.2609 11.6067 15.9387 11.9866 16.7409C12.0322 16.8371 12.1041 16.9184 12.194 16.9753C12.284 17.0322 12.3882 17.0625 12.4947 17.0625H18.25C18.5981 17.0625 18.9319 16.9242 19.1781 16.6781C19.4242 16.4319 19.5625 16.0981 19.5625 15.75V2.25C19.5625 1.9019 19.4242 1.56806 19.1781 1.32192C18.9319 1.07578 18.5981 0.9375 18.25 0.9375ZM5.3125 10.5C5.3125 10.0179 5.45546 9.54664 5.72329 9.1458C5.99113 8.74495 6.37181 8.43253 6.81721 8.24804C7.2626 8.06356 7.7527 8.01528 8.22553 8.10934C8.69836 8.20339 9.13268 8.43554 9.47357 8.77643C9.81446 9.11732 10.0466 9.55164 10.1407 10.0245C10.2347 10.4973 10.1864 10.9874 10.002 11.4328C9.81747 11.8782 9.50505 12.2589 9.1042 12.5267C8.70336 12.7945 8.23209 12.9375 7.75 12.9375C7.10353 12.9375 6.48355 12.6807 6.02643 12.2236C5.56931 11.7665 5.3125 11.1465 5.3125 10.5ZM18.4375 15.75C18.4375 15.7997 18.4177 15.8474 18.3826 15.8826C18.3474 15.9177 18.2997 15.9375 18.25 15.9375H12.8378C12.1819 14.7602 11.1393 13.8458 9.88656 13.3491C10.485 12.9006 10.927 12.2752 11.1502 11.5614C11.3733 10.8477 11.3662 10.0818 11.1299 9.37235C10.8935 8.66288 10.4399 8.04578 9.83327 7.60848C9.22665 7.17118 8.49781 6.93586 7.75 6.93586C7.00219 6.93586 6.27335 7.17118 5.66673 7.60848C5.06012 8.04578 4.60649 8.66288 4.37013 9.37235C4.13377 10.0818 4.12666 10.8477 4.34981 11.5614C4.57296 12.2752 5.01504 12.9006 5.61344 13.3491C4.36068 13.8458 3.31808 14.7602 2.66219 15.9375H1.75C1.70027 15.9375 1.65258 15.9177 1.61742 15.8826C1.58225 15.8474 1.5625 15.7997 1.5625 15.75V2.25C1.5625 2.20027 1.58225 2.15258 1.61742 2.11742C1.65258 2.08225 1.70027 2.0625 1.75 2.0625H18.25C18.2997 2.0625 18.3474 2.08225 18.3826 2.11742C18.4177 2.15258 18.4375 2.20027 18.4375 2.25V15.75ZM16.5625 4.5V13.5C16.5625 13.6492 16.5032 13.7923 16.3977 13.8977C16.2923 14.0032 16.1492 14.0625 16 14.0625H14.5C14.3508 14.0625 14.2077 14.0032 14.1023 13.8977C13.9968 13.7923 13.9375 13.6492 13.9375 13.5C13.9375 13.3508 13.9968 13.2077 14.1023 13.1023C14.2077 12.9968 14.3508 12.9375 14.5 12.9375H15.4375V5.0625H4.5625V6C4.5625 6.14918 4.50324 6.29226 4.39775 6.39775C4.29226 6.50324 4.14918 6.5625 4 6.5625C3.85082 6.5625 3.70774 6.50324 3.60225 6.39775C3.49676 6.29226 3.4375 6.14918 3.4375 6V4.5C3.4375 4.35082 3.49676 4.20774 3.60225 4.10225C3.70774 3.99676 3.85082 3.9375 4 3.9375H16C16.1492 3.9375 16.2923 3.99676 16.3977 4.10225C16.5032 4.20774 16.5625 4.35082 16.5625 4.5Z" fill="#323949"/>
<path d="M8.08008 14.0713C8.85123 14.126 9.59873 14.3709 10.2549 14.7861C11.0049 15.2608 11.6045 15.939 11.9844 16.7412C12.03 16.8373 12.1025 16.9187 12.1924 16.9756C12.2596 17.0181 12.3349 17.0454 12.4131 17.0566L12.4932 17.0625H18.248C18.5961 17.0625 18.9296 16.9239 19.1758 16.6777C19.4219 16.4316 19.5605 16.0981 19.5605 15.75V2.25C19.5605 1.94543 19.455 1.65152 19.2637 1.41797L19.1758 1.32227C18.9296 1.07612 18.5961 0.9375 18.248 0.9375V0.837891C18.6227 0.837891 18.9822 0.986082 19.2471 1.25098C19.512 1.51587 19.6602 1.87538 19.6602 2.25V15.75C19.6602 16.1246 19.512 16.4841 19.2471 16.749C18.9822 17.0139 18.6227 17.1621 18.248 17.1621H12.4932C12.3678 17.1621 12.2446 17.1266 12.1387 17.0596C12.0329 16.9926 11.9482 16.8972 11.8945 16.7842C11.5228 15.9991 10.9352 15.3357 10.2012 14.8711C9.46719 14.4065 8.61669 14.1592 7.74805 14.1592C6.87941 14.1592 6.0289 14.4065 5.29492 14.8711C4.56093 15.3357 3.97331 15.9991 3.60156 16.7842C3.54787 16.8972 3.46318 16.9926 3.35742 17.0596C3.25149 17.1266 3.1283 17.1621 3.00293 17.1621H1.74805C1.37343 17.1621 1.01392 17.0139 0.749023 16.749C0.484128 16.4841 0.335938 16.1246 0.335938 15.75V2.25C0.335938 1.87538 0.484128 1.51587 0.749023 1.25098C1.01392 0.986081 1.37343 0.837891 1.74805 0.837891V0.9375C1.39995 0.9375 1.06645 1.07612 0.820312 1.32227L0.732422 1.41797C0.54108 1.65152 0.435547 1.94543 0.435547 2.25V15.75C0.435547 16.0981 0.574171 16.4316 0.820312 16.6777C1.06645 16.9239 1.39995 17.0625 1.74805 17.0625H3.00293C3.0829 17.0625 3.16202 17.0453 3.23438 17.0127L3.30371 16.9756C3.3711 16.9329 3.42899 16.8766 3.47266 16.8105L3.51172 16.7412C3.84405 16.0394 4.34446 15.4323 4.9668 14.9736L5.24121 14.7861C5.99118 14.3115 6.86049 14.0596 7.74805 14.0596L8.08008 14.0713ZM7.74805 6.83594C8.5168 6.83594 9.26603 7.07782 9.88965 7.52734C10.5133 7.97692 10.9797 8.61144 11.2227 9.34082C11.4656 10.07 11.4734 10.8572 11.2441 11.5908C11.0318 12.2701 10.6243 12.8699 10.0771 13.3213C11.2638 13.8313 12.2528 14.7141 12.8936 15.8379H18.248V15.9375H12.8359L12.708 15.7197C12.0484 14.6475 11.0591 13.8143 9.88477 13.3486C10.4081 12.9563 10.8124 12.4289 11.0547 11.8252L11.1484 11.5615C11.3437 10.937 11.3627 10.2723 11.2061 9.64062L11.1279 9.37207C10.8915 8.66271 10.4376 8.04565 9.83105 7.6084C9.22448 7.1712 8.49577 6.93555 7.74805 6.93555C7.00033 6.93555 6.27161 7.1712 5.66504 7.6084L5.44434 7.78027C4.94792 8.201 4.57501 8.75136 4.36816 9.37207C4.1318 10.0815 4.12451 10.8478 4.34766 11.5615C4.57077 12.2751 5.0131 12.9002 5.61133 13.3486C4.35857 13.8454 3.31605 14.7602 2.66016 15.9375H1.74805V15.8379H2.60254C3.24314 14.7144 4.23166 13.8313 5.41797 13.3213C4.87116 12.87 4.46426 12.2699 4.25195 11.5908C4.02271 10.8572 4.03051 10.07 4.27344 9.34082C4.51643 8.61144 4.9828 7.97692 5.60645 7.52734C6.23007 7.07782 6.97929 6.83594 7.74805 6.83594ZM18.3359 15.75V2.25C18.3359 2.22679 18.326 2.20489 18.3096 2.18848C18.2932 2.17207 18.2713 2.16211 18.248 2.16211H1.74805C1.72484 2.16211 1.70293 2.17207 1.68652 2.18848C1.67011 2.20489 1.66016 2.22679 1.66016 2.25V15.75C1.66016 15.7732 1.67011 15.7951 1.68652 15.8115C1.70293 15.8279 1.72484 15.8379 1.74805 15.8379V15.9375C1.72328 15.9375 1.69922 15.9321 1.67676 15.9229L1.61523 15.8828C1.58007 15.8476 1.56055 15.7997 1.56055 15.75V2.25C1.56055 2.20027 1.58007 2.15235 1.61523 2.11719C1.6504 2.08202 1.69832 2.0625 1.74805 2.0625H18.248C18.2978 2.0625 18.3457 2.08202 18.3809 2.11719C18.416 2.15235 18.4355 2.20027 18.4355 2.25V15.75C18.4355 15.7997 18.416 15.8476 18.3809 15.8828L18.3193 15.9229C18.2969 15.9321 18.2728 15.9375 18.248 15.9375V15.8379C18.2713 15.8379 18.2932 15.8279 18.3096 15.8115C18.326 15.7951 18.3359 15.7732 18.3359 15.75ZM13.8359 13.5C13.8359 13.3243 13.9051 13.1555 14.0293 13.0312C14.1535 12.907 14.3223 12.8379 14.498 12.8379V12.9375C14.3489 12.9375 14.2061 12.9971 14.1006 13.1025L14.0303 13.1875C13.9689 13.2793 13.9355 13.388 13.9355 13.5C13.9355 13.6492 13.9951 13.792 14.1006 13.8975C14.2061 14.0029 14.3489 14.0625 14.498 14.0625H15.998C16.1472 14.0625 16.29 14.0029 16.3955 13.8975C16.501 13.792 16.5605 13.6492 16.5605 13.5V4.5C16.5605 4.38795 16.5272 4.27932 16.4658 4.1875L16.3955 4.10254C16.29 3.99705 16.1472 3.9375 15.998 3.9375V3.83789C16.1738 3.83789 16.3426 3.90701 16.4668 4.03125C16.591 4.15549 16.6602 4.32429 16.6602 4.5V13.5C16.6602 13.6757 16.591 13.8445 16.4668 13.9688C16.3426 14.093 16.1738 14.1621 15.998 14.1621H14.498C14.3223 14.1621 14.1535 14.093 14.0293 13.9688C13.9051 13.8445 13.8359 13.6757 13.8359 13.5ZM5.31055 10.5C5.31055 10.078 5.42 9.66426 5.62695 9.29883L5.72168 9.14551C5.95601 8.79494 6.2766 8.51205 6.65137 8.32324L6.81543 8.24805C7.26079 8.06361 7.75086 8.01533 8.22363 8.10938C8.69644 8.20343 9.1308 8.43549 9.47168 8.77637C9.81256 9.11724 10.0446 9.55161 10.1387 10.0244C10.2327 10.4972 10.1844 10.9873 10 11.4326C9.81557 11.8779 9.50321 12.2585 9.10254 12.5264L8.94922 12.6211C8.58379 12.828 8.17004 12.9375 7.74805 12.9375V12.8379C8.21036 12.8379 8.66248 12.7002 9.04688 12.4434C9.43113 12.1865 9.73033 11.8215 9.90723 11.3945C10.0841 10.9674 10.1312 10.4974 10.041 10.0439C9.95082 9.59052 9.72827 9.17358 9.40137 8.84668C9.07446 8.51977 8.65753 8.29722 8.2041 8.20703C7.75068 8.11685 7.28062 8.16391 6.85352 8.34082C6.42654 8.51771 6.0615 8.81692 5.80469 9.20117C5.54784 9.58557 5.41016 10.0377 5.41016 10.5C5.41016 11.1199 5.65636 11.715 6.09473 12.1533C6.53309 12.5917 7.1281 12.8379 7.74805 12.8379V12.9375C7.18241 12.9375 6.63686 12.7411 6.20312 12.3857L6.02441 12.2236C5.56729 11.7665 5.31055 11.1465 5.31055 10.5ZM3.33594 6V4.5C3.33594 4.32429 3.40505 4.15549 3.5293 4.03125C3.65354 3.90701 3.82234 3.83789 3.99805 3.83789V3.9375C3.84886 3.9375 3.70607 3.99705 3.60059 4.10254L3.53027 4.1875C3.46893 4.27932 3.43555 4.38795 3.43555 4.5V6C3.43555 6.14918 3.4951 6.29197 3.60059 6.39746C3.70607 6.50295 3.84886 6.5625 3.99805 6.5625C4.14723 6.5625 4.29002 6.50295 4.39551 6.39746C4.501 6.29197 4.56055 6.14918 4.56055 6V5.0625H15.4355V12.9375H14.498V12.8379H15.3359V5.16211H4.66016V6C4.66016 6.17571 4.59104 6.34451 4.4668 6.46875C4.34255 6.59299 4.17375 6.66211 3.99805 6.66211C3.82234 6.66211 3.65354 6.59299 3.5293 6.46875C3.40505 6.34451 3.33594 6.17571 3.33594 6ZM15.998 3.83789V3.9375H3.99805V3.83789H15.998ZM18.248 0.837891V0.9375H1.74805V0.837891H18.248Z" fill="#323949"/>
</svg>
