<svg width="24" height="24" viewBox="0 0 24 24" fill="none" xmlns="http://www.w3.org/2000/svg">
<path d="M19.25 7V5C19.25 4.93369 19.2236 4.87013 19.1768 4.82324C19.1299 4.77636 19.0663 4.75 19 4.75H12.75V19.25H15C15.4142 19.25 15.75 19.5858 15.75 20C15.75 20.4142 15.4142 20.75 15 20.75H9C8.58579 20.75 8.25 20.4142 8.25 20C8.25 19.5858 8.58579 19.25 9 19.25H11.25V4.75H5C4.9337 4.75 4.87013 4.77636 4.82324 4.82324C4.77636 4.87013 4.75 4.9337 4.75 5V7C4.75 7.41421 4.41421 7.75 4 7.75C3.58579 7.75 3.25 7.41421 3.25 7V5C3.25 4.53587 3.43451 4.09088 3.7627 3.7627C4.09088 3.43451 4.53587 3.25 5 3.25H19C19.4641 3.25 19.9091 3.43451 20.2373 3.7627C20.5655 4.09088 20.75 4.53587 20.75 5V7C20.75 7.41421 20.4142 7.75 20 7.75C19.5858 7.75 19.25 7.41421 19.25 7Z" fill="#323949"/>
</svg>
