<svg width="18" height="18" viewBox="0 0 18 18" fill="none" xmlns="http://www.w3.org/2000/svg">
<path d="M16.25 4V2C16.25 1.93369 16.2236 1.87013 16.1768 1.82324C16.1299 1.77636 16.0663 1.75 16 1.75H9.75V16.25H12C12.4142 16.25 12.75 16.5858 12.75 17C12.75 17.4142 12.4142 17.75 12 17.75H6C5.58579 17.75 5.25 17.4142 5.25 17C5.25 16.5858 5.58579 16.25 6 16.25H8.25V1.75H2C1.9337 1.75 1.87013 1.77636 1.82324 1.82324C1.77636 1.87013 1.75 1.9337 1.75 2V4C1.75 4.41421 1.41421 4.75 1 4.75C0.585786 4.75 0.25 4.41421 0.25 4V2C0.25 1.53587 0.434507 1.09088 0.762695 0.762695C1.09088 0.434507 1.53587 0.25 2 0.25H16C16.4641 0.25 16.9091 0.434507 17.2373 0.762695C17.5655 1.09088 17.75 1.53587 17.75 2V4C17.75 4.41421 17.4142 4.75 17 4.75C16.5858 4.75 16.25 4.41421 16.25 4Z" fill="#323949"/>
</svg>
