<svg width="24" height="24" viewBox="0 0 24 24" fill="none" xmlns="http://www.w3.org/2000/svg">
<path d="M8.46967 14.4697C8.76256 14.1768 9.23732 14.1768 9.53022 14.4697C9.82311 14.7626 9.82311 15.2374 9.53022 15.5303L5.53022 19.5303C5.23732 19.8232 4.76256 19.8232 4.46967 19.5303L2.46967 17.5303C2.17678 17.2374 2.17678 16.7626 2.46967 16.4697C2.76256 16.1768 3.23732 16.1768 3.53022 16.4697L4.99994 17.9395L8.46967 14.4697ZM20.9999 18.25C21.4142 18.25 21.7499 18.5858 21.7499 19C21.7499 19.4142 21.4142 19.75 20.9999 19.75H12.9999C12.5857 19.75 12.2499 19.4142 12.2499 19C12.2499 18.5858 12.5857 18.25 12.9999 18.25H20.9999ZM20.9999 11.25C21.4142 11.25 21.7499 11.5858 21.7499 12C21.7499 12.4142 21.4142 12.75 20.9999 12.75H12.9999C12.5857 12.75 12.2499 12.4142 12.2499 12C12.2499 11.5858 12.5857 11.25 12.9999 11.25H20.9999ZM20.9999 4.25C21.4142 4.25 21.7499 4.58579 21.7499 5C21.7499 5.41421 21.4142 5.75 20.9999 5.75H12.9999C12.5857 5.75 12.2499 5.41421 12.2499 5C12.2499 4.58579 12.5857 4.25 12.9999 4.25H20.9999Z" fill="#323949"/>
<path d="M8.25 5C8.25 4.86193 8.13807 4.75 8 4.75H4C3.86193 4.75 3.75 4.86193 3.75 5V9C3.75 9.13807 3.86193 9.25 4 9.25H8C8.13807 9.25 8.25 9.13807 8.25 9V5ZM9.75 9C9.75 9.9665 8.9665 10.75 8 10.75H4C3.0335 10.75 2.25 9.9665 2.25 9V5C2.25 4.0335 3.0335 3.25 4 3.25H8C8.9665 3.25 9.75 4.0335 9.75 5V9Z" fill="#323949"/>
</svg>
