<svg width="20" height="17" viewBox="0 0 20 17" fill="none" xmlns="http://www.w3.org/2000/svg">
<path d="M6.46967 11.4697C6.76256 11.1768 7.23732 11.1768 7.53022 11.4697C7.82311 11.7626 7.82311 12.2374 7.53022 12.5303L3.53022 16.5303C3.23732 16.8232 2.76256 16.8232 2.46967 16.5303L0.46967 14.5303C0.176777 14.2374 0.176777 13.7626 0.46967 13.4697C0.762563 13.1768 1.23732 13.1768 1.53022 13.4697L2.99994 14.9395L6.46967 11.4697ZM18.9999 15.25C19.4142 15.25 19.7499 15.5858 19.7499 16C19.7499 16.4142 19.4142 16.75 18.9999 16.75H10.9999C10.5857 16.75 10.2499 16.4142 10.2499 16C10.2499 15.5858 10.5857 15.25 10.9999 15.25H18.9999ZM18.9999 8.25C19.4142 8.25 19.7499 8.58579 19.7499 9C19.7499 9.41421 19.4142 9.75 18.9999 9.75H10.9999C10.5857 9.75 10.2499 9.41421 10.2499 9C10.2499 8.58579 10.5857 8.25 10.9999 8.25H18.9999ZM18.9999 1.25C19.4142 1.25 19.7499 1.58579 19.7499 2C19.7499 2.41421 19.4142 2.75 18.9999 2.75H10.9999C10.5857 2.75 10.2499 2.41421 10.2499 2C10.2499 1.58579 10.5857 1.25 10.9999 1.25H18.9999Z" fill="#323949"/>
<path d="M6.25 2C6.25 1.86193 6.13807 1.75 6 1.75H2C1.86193 1.75 1.75 1.86193 1.75 2V6C1.75 6.13807 1.86193 6.25 2 6.25H6C6.13807 6.25 6.25 6.13807 6.25 6V2ZM7.75 6C7.75 6.9665 6.9665 7.75 6 7.75H2C1.0335 7.75 0.25 6.9665 0.25 6V2C0.25 1.0335 1.0335 0.25 2 0.25H6C6.9665 0.25 7.75 1.0335 7.75 2V6Z" fill="#323949"/>
</svg>
