<svg width="24" height="24" viewBox="0 0 24 24" fill="none" xmlns="http://www.w3.org/2000/svg">
<path d="M17.4727 7.34961H6.52734V19.2002C6.5274 19.4815 6.63844 19.7492 6.83203 19.9453C7.02551 20.1412 7.28611 20.25 7.55566 20.25H16.4443C16.7139 20.25 16.9745 20.1412 17.168 19.9453C17.3616 19.7492 17.4726 19.4815 17.4727 19.2002V7.34961ZM9.47266 16.5V11.0996C9.47287 10.6856 9.80857 10.3496 10.2227 10.3496C10.6365 10.3498 10.9724 10.6857 10.9727 11.0996V16.5C10.9727 16.9141 10.6367 17.2498 10.2227 17.25C9.80844 17.25 9.47266 16.9142 9.47266 16.5ZM13.0273 16.5V11.0996C13.0276 10.6857 13.3635 10.3498 13.7773 10.3496C14.1914 10.3496 14.5271 10.6856 14.5273 11.0996V16.5C14.5273 16.9142 14.1916 17.25 13.7773 17.25C13.3633 17.2498 13.0273 16.9141 13.0273 16.5ZM14.8057 4.7998C14.8056 4.51846 14.6947 4.25085 14.501 4.05469C14.3075 3.85879 14.0469 3.75 13.7773 3.75H10.2227C9.9531 3.75 9.69251 3.85879 9.49902 4.05469C9.30533 4.25085 9.19439 4.51846 9.19434 4.7998V5.84961H14.8057V4.7998ZM16.3057 5.84961H20C20.4141 5.84961 20.7498 6.18558 20.75 6.59961C20.75 7.01382 20.4142 7.34961 20 7.34961H18.9727V19.2002C18.9726 19.8734 18.7083 20.5211 18.2354 21C17.762 21.4792 17.1178 21.75 16.4443 21.75H7.55566C6.88223 21.75 6.23796 21.4792 5.76465 21C5.2917 20.5211 5.0274 19.8734 5.02734 19.2002V7.34961H4C3.58579 7.34961 3.25 7.01382 3.25 6.59961C3.25021 6.18558 3.58592 5.84961 4 5.84961H7.69434V4.7998C7.69439 4.12656 7.95869 3.47887 8.43164 3C8.90494 2.52086 9.54929 2.25 10.2227 2.25H13.7773C14.4507 2.25 15.0951 2.52086 15.5684 3C16.0413 3.47887 16.3056 4.12656 16.3057 4.7998V5.84961Z" fill="#323949"/>
</svg>
