<svg width="16" height="18" viewBox="0 0 16 18" fill="none" xmlns="http://www.w3.org/2000/svg">
<path d="M12.5 5.25H3.5V15C3.5 15.1989 3.57907 15.3896 3.71973 15.5303C3.86038 15.6709 4.05109 15.75 4.25 15.75H11.75C11.9489 15.75 12.1396 15.6709 12.2803 15.5303C12.4209 15.3896 12.5 15.1989 12.5 15V5.25ZM5.75 12.75V8.25C5.75 7.83579 6.08579 7.5 6.5 7.5C6.91421 7.5 7.25 7.83579 7.25 8.25V12.75C7.25 13.1642 6.91421 13.5 6.5 13.5C6.08579 13.5 5.75 13.1642 5.75 12.75ZM8.75 12.75V8.25C8.75 7.83579 9.08579 7.5 9.5 7.5C9.91421 7.5 10.25 7.83579 10.25 8.25V12.75C10.25 13.1642 9.91421 13.5 9.5 13.5C9.08579 13.5 8.75 13.1642 8.75 12.75ZM10.25 3C10.25 2.80109 10.1709 2.61038 10.0303 2.46973C9.88962 2.32907 9.69891 2.25 9.5 2.25H6.5C6.30109 2.25 6.11038 2.32907 5.96973 2.46973C5.82907 2.61038 5.75 2.80109 5.75 3V3.75H10.25V3ZM11.75 3.75H14.75C15.1642 3.75 15.5 4.08579 15.5 4.5C15.5 4.91421 15.1642 5.25 14.75 5.25H14V15C14 15.5967 13.7628 16.1689 13.3408 16.5908C12.9189 17.0128 12.3467 17.25 11.75 17.25H4.25C3.65326 17.25 3.08114 17.0128 2.65918 16.5908C2.23722 16.1689 2 15.5967 2 15V5.25H1.25C0.835787 5.25 0.5 4.91421 0.5 4.5C0.5 4.08579 0.835786 3.75 1.25 3.75H4.25V3C4.25 2.40326 4.48722 1.83114 4.90918 1.40918C5.33114 0.987223 5.90326 0.75 6.5 0.75H9.5C10.0967 0.75 10.6689 0.987223 11.0908 1.40918C11.5128 1.83114 11.75 2.40326 11.75 3V3.75Z" fill="#323949"/>
</svg>
