<svg width="20" height="20" viewBox="0 0 20 20" fill="none" xmlns="http://www.w3.org/2000/svg">
<path d="M5.0013 17.5C4.76519 17.5 4.56742 17.42 4.40797 17.26C4.24853 17.1 4.16853 16.9022 4.16797 16.6667C4.16742 16.4311 4.24742 16.2333 4.40797 16.0733C4.56853 15.9133 4.7663 15.8333 5.0013 15.8333H15.0013C15.2374 15.8333 15.4355 15.9133 15.5955 16.0733C15.7555 16.2333 15.8352 16.4311 15.8346 16.6667C15.8341 16.9022 15.7541 17.1003 15.5946 17.2608C15.4352 17.4214 15.2374 17.5011 15.0013 17.5H5.0013ZM10.0013 14.1667C8.59853 14.1667 7.50825 13.7292 6.73047 12.8542C5.95269 11.9792 5.56381 10.8194 5.56381 9.375V3.5625C5.56381 3.27083 5.67158 3.02083 5.88714 2.8125C6.10269 2.60417 6.35603 2.5 6.64714 2.5C6.93825 2.5 7.18825 2.60417 7.39714 2.8125C7.60603 3.02083 7.71019 3.27083 7.70964 3.5625V9.5C7.70964 10.2778 7.90408 10.9097 8.29297 11.3958C8.68186 11.8819 9.2513 12.125 10.0013 12.125C10.7513 12.125 11.3207 11.8819 11.7096 11.3958C12.0985 10.9097 12.293 10.2778 12.293 9.5V3.5625C12.293 3.27083 12.4007 3.02083 12.6163 2.8125C12.8319 2.60417 13.0852 2.5 13.3763 2.5C13.6674 2.5 13.9174 2.60417 14.1263 2.8125C14.3352 3.02083 14.4394 3.27083 14.4388 3.5625V9.375C14.4388 10.8194 14.0499 11.9792 13.2721 12.8542C12.4944 13.7292 11.4041 14.1667 10.0013 14.1667Z" fill="#323949"/>
</svg>
