<svg width="12" height="16" viewBox="0 0 12 16" fill="none" xmlns="http://www.w3.org/2000/svg">
<path d="M1.0013 15.5C0.765194 15.5 0.567416 15.42 0.407972 15.26C0.248527 15.1 0.168527 14.9022 0.167972 14.6667C0.167416 14.4311 0.247416 14.2333 0.407972 14.0733C0.568527 13.9133 0.766305 13.8333 1.0013 13.8333H11.0013C11.2374 13.8333 11.4355 13.9133 11.5955 14.0733C11.7555 14.2333 11.8352 14.4311 11.8346 14.6667C11.8341 14.9022 11.7541 15.1003 11.5946 15.2608C11.4352 15.4214 11.2374 15.5011 11.0013 15.5H1.0013ZM6.0013 12.1667C4.59853 12.1667 3.50825 11.7292 2.73047 10.8542C1.95269 9.97917 1.56381 8.81944 1.56381 7.375V1.5625C1.56381 1.27083 1.67158 1.02083 1.88714 0.8125C2.10269 0.604167 2.35603 0.5 2.64714 0.5C2.93825 0.5 3.18825 0.604167 3.39714 0.8125C3.60603 1.02083 3.71019 1.27083 3.70964 1.5625V7.5C3.70964 8.27778 3.90408 8.90972 4.29297 9.39583C4.68186 9.88194 5.2513 10.125 6.0013 10.125C6.7513 10.125 7.32075 9.88194 7.70964 9.39583C8.09853 8.90972 8.29297 8.27778 8.29297 7.5V1.5625C8.29297 1.27083 8.40075 1.02083 8.6163 0.8125C8.83186 0.604167 9.08519 0.5 9.3763 0.5C9.66742 0.5 9.91742 0.604167 10.1263 0.8125C10.3352 1.02083 10.4394 1.27083 10.4388 1.5625V7.375C10.4388 8.81944 10.0499 9.97917 9.27214 10.8542C8.49436 11.7292 7.40408 12.1667 6.0013 12.1667Z" fill="#323949"/>
</svg>
