<svg width="24" height="24" viewBox="0 0 24 24" fill="none" xmlns="http://www.w3.org/2000/svg">
<path d="M16.25 21V19C16.25 18.138 15.9073 17.3116 15.2979 16.7021C14.6884 16.0927 13.862 15.75 13 15.75H5C4.13805 15.75 3.31164 16.0927 2.70215 16.7021C2.09266 17.3116 1.75 18.138 1.75 19V21C1.75 21.4142 1.41421 21.75 1 21.75C0.585786 21.75 0.25 21.4142 0.25 21V19C0.25 17.7402 0.750804 16.5324 1.6416 15.6416C2.5324 14.7508 3.74022 14.25 5 14.25H13C14.2598 14.25 15.4676 14.7508 16.3584 15.6416C17.2492 16.5324 17.75 17.7402 17.75 19V21C17.75 21.4142 17.4142 21.75 17 21.75C16.5858 21.75 16.25 21.4142 16.25 21Z" fill="#323949"/>
<path d="M12.25 7C12.25 5.20507 10.7949 3.75 9 3.75C7.20507 3.75 5.75 5.20507 5.75 7C5.75 8.79493 7.20507 10.25 9 10.25C10.7949 10.25 12.25 8.79493 12.25 7ZM13.75 7C13.75 9.62335 11.6234 11.75 9 11.75C6.37665 11.75 4.25 9.62335 4.25 7C4.25 4.37665 6.37665 2.25 9 2.25C11.6234 2.25 13.75 4.37665 13.75 7Z" fill="#323949"/>
<path d="M22.2505 21V19C22.2499 18.2801 22.01 17.5807 21.5689 17.0117C21.1277 16.4427 20.5102 16.0365 19.813 15.8565C19.412 15.7529 19.1705 15.3434 19.274 14.9424C19.3775 14.5414 19.787 14.2999 20.188 14.4033C21.207 14.6665 22.1096 15.261 22.7544 16.0928C23.3992 16.9245 23.7497 17.9467 23.7505 18.999V21C23.7504 21.4142 23.4147 21.75 23.0005 21.75C22.5863 21.75 22.2506 21.4142 22.2505 21Z" fill="#323949"/>
<path d="M18.2579 7.00492C18.2579 6.28329 18.0177 5.58182 17.5752 5.01176C17.1329 4.44194 16.5133 4.03552 15.8145 3.85649C15.4134 3.75378 15.171 3.3455 15.2735 2.94438C15.3762 2.54326 15.7845 2.30092 16.1856 2.40336C17.2073 2.66497 18.1131 3.25965 18.7598 4.09281C19.4065 4.92595 19.7579 5.95027 19.7579 7.00492C19.7579 8.05957 19.4065 9.08389 18.7598 9.91703C18.1131 10.7502 17.2073 11.3449 16.1856 11.6065C15.7845 11.7089 15.3762 11.4666 15.2735 11.0655C15.171 10.6643 15.4134 10.2561 15.8145 10.1534C16.5133 9.97433 17.1329 9.56791 17.5752 8.99809C18.0177 8.42803 18.2579 7.72656 18.2579 7.00492Z" fill="#323949"/>
</svg>
