<svg width="24" height="20" viewBox="0 0 24 20" fill="none" xmlns="http://www.w3.org/2000/svg">
<path d="M16.25 19V17C16.25 16.138 15.9073 15.3116 15.2979 14.7021C14.6884 14.0927 13.862 13.75 13 13.75H5C4.13805 13.75 3.31164 14.0927 2.70215 14.7021C2.09266 15.3116 1.75 16.138 1.75 17V19C1.75 19.4142 1.41421 19.75 1 19.75C0.585786 19.75 0.25 19.4142 0.25 19V17C0.25 15.7402 0.750804 14.5324 1.6416 13.6416C2.5324 12.7508 3.74022 12.25 5 12.25H13C14.2598 12.25 15.4676 12.7508 16.3584 13.6416C17.2492 14.5324 17.75 15.7402 17.75 17V19C17.75 19.4142 17.4142 19.75 17 19.75C16.5858 19.75 16.25 19.4142 16.25 19Z" fill="#323949"/>
<path d="M12.25 5C12.25 3.20507 10.7949 1.75 9 1.75C7.20507 1.75 5.75 3.20507 5.75 5C5.75 6.79493 7.20507 8.25 9 8.25C10.7949 8.25 12.25 6.79493 12.25 5ZM13.75 5C13.75 7.62335 11.6234 9.75 9 9.75C6.37665 9.75 4.25 7.62335 4.25 5C4.25 2.37665 6.37665 0.25 9 0.25C11.6234 0.25 13.75 2.37665 13.75 5Z" fill="#323949"/>
<path d="M22.2505 19V17C22.2499 16.2801 22.01 15.5807 21.5689 15.0117C21.1277 14.4427 20.5102 14.0365 19.813 13.8565C19.412 13.7529 19.1705 13.3434 19.274 12.9424C19.3775 12.5414 19.787 12.2999 20.188 12.4033C21.207 12.6665 22.1096 13.261 22.7544 14.0928C23.3992 14.9245 23.7497 15.9467 23.7505 16.999V19C23.7504 19.4142 23.4147 19.75 23.0005 19.75C22.5863 19.75 22.2506 19.4142 22.2505 19Z" fill="#323949"/>
<path d="M18.2579 5.00492C18.2579 4.28329 18.0177 3.58182 17.5752 3.01176C17.1329 2.44194 16.5133 2.03552 15.8145 1.85649C15.4134 1.75378 15.171 1.3455 15.2735 0.944377C15.3762 0.543258 15.7845 0.300918 16.1856 0.403361C17.2073 0.664969 18.1131 1.25965 18.7598 2.09281C19.4065 2.92595 19.7579 3.95027 19.7579 5.00492C19.7579 6.05957 19.4065 7.08389 18.7598 7.91703C18.1131 8.75019 17.2073 9.34488 16.1856 9.60649C15.7845 9.70893 15.3762 9.46659 15.2735 9.06547C15.171 8.66435 15.4134 8.25606 15.8145 8.15336C16.5133 7.97433 17.1329 7.56791 17.5752 6.99809C18.0177 6.42803 18.2579 5.72656 18.2579 5.00492Z" fill="#323949"/>
</svg>
