<svg width="21" height="20" viewBox="0 0 21 20" fill="none" xmlns="http://www.w3.org/2000/svg">
<path d="M19.25 11C19.25 10.9337 19.2236 10.8701 19.1768 10.8232C19.1299 10.7764 19.0663 10.75 19 10.75H16C15.6685 10.75 15.3506 10.8818 15.1162 11.1162C14.8818 11.3506 14.75 11.6685 14.75 12C14.75 12.3315 14.8818 12.6494 15.1162 12.8838C15.3506 13.1182 15.6685 13.25 16 13.25H19C19.0663 13.25 19.1299 13.2236 19.1768 13.1768C19.2236 13.1299 19.25 13.0663 19.25 13V11ZM16.25 2C16.25 1.93369 16.2236 1.87013 16.1768 1.82324C16.1299 1.77636 16.0663 1.75 16 1.75H3C2.66848 1.75 2.35063 1.88179 2.11621 2.11621C1.88179 2.35063 1.75 2.66848 1.75 3C1.75 3.33152 1.88179 3.64937 2.11621 3.88379C2.35063 4.11821 2.66848 4.25 3 4.25H16.25V2ZM17.75 4.25H18C18.4641 4.25 18.9091 4.43451 19.2373 4.7627C19.5655 5.09089 19.75 5.53587 19.75 6V9.41992C19.9291 9.50494 20.0944 9.61982 20.2373 9.7627C20.5655 10.0909 20.75 10.5359 20.75 11V13C20.75 13.4641 20.5655 13.9091 20.2373 14.2373C19.9091 14.5655 19.4641 14.75 19 14.75H16C15.2707 14.75 14.5714 14.4601 14.0557 13.9443C13.5399 13.4286 13.25 12.7293 13.25 12C13.25 11.2707 13.5399 10.5714 14.0557 10.0557C14.5714 9.53994 15.2707 9.25 16 9.25H18.25V6C18.25 5.93369 18.2236 5.87013 18.1768 5.82324C18.1299 5.77636 18.0663 5.75 18 5.75H3C2.27065 5.75 1.57139 5.46006 1.05566 4.94434C0.539939 4.42861 0.25 3.72935 0.25 3C0.25 2.27065 0.539939 1.57139 1.05566 1.05566C1.57139 0.539939 2.27065 0.25 3 0.25H16C16.4641 0.25 16.9091 0.434507 17.2373 0.762695C17.5655 1.09089 17.75 1.53587 17.75 2V4.25Z" fill="#323949"/>
<path d="M0.25 17V3C0.25 2.58579 0.585786 2.25 1 2.25C1.41421 2.25 1.75 2.58579 1.75 3V17C1.75 17.3315 1.88179 17.6494 2.11621 17.8838C2.35063 18.1182 2.66848 18.25 3 18.25H18C18.0663 18.25 18.1299 18.2236 18.1768 18.1768C18.2236 18.1299 18.25 18.0663 18.25 18V14C18.25 13.5858 18.5858 13.25 19 13.25C19.4142 13.25 19.75 13.5858 19.75 14V18C19.75 18.4641 19.5655 18.9091 19.2373 19.2373C18.9091 19.5655 18.4641 19.75 18 19.75H3C2.27065 19.75 1.57139 19.4601 1.05566 18.9443C0.539939 18.4286 0.25 17.7293 0.25 17Z" fill="#323949"/>
</svg>
